<?xml version="1.0" encoding="utf-8"?>
<!-- Generator: Adobe Illustrator 25.4.1, SVG Export Plug-In . SVG Version: 6.00 Build 0)  -->
<svg version="1.1" id="Layer_1" xmlns="http://www.w3.org/2000/svg" xmlns:xlink="http://www.w3.org/1999/xlink" x="0px" y="0px"
	 viewBox="0 0 595.3 566" style="enable-background:new 0 0 595.3 566;" xml:space="preserve">
<style type="text/css">
	.st0{fill:#FDE5CB;}
	.st1{fill:#E6D5BC;}
	.st2{fill:#FFFCF0;}
	.st3{fill-rule:evenodd;clip-rule:evenodd;fill:#F0E7C5;}
	.st4{fill-rule:evenodd;clip-rule:evenodd;fill:#E87B8D;}
	.st5{fill-rule:evenodd;clip-rule:evenodd;fill:#FFA3B2;}
	.st6{fill-rule:evenodd;clip-rule:evenodd;fill:#FFFAE8;}
	.st7{fill-rule:evenodd;clip-rule:evenodd;fill:#DE0029;}
	.st8{fill-rule:evenodd;clip-rule:evenodd;fill:#B50021;}
	.st9{fill-rule:evenodd;clip-rule:evenodd;fill:#F56273;}
	.st10{fill-rule:evenodd;clip-rule:evenodd;fill:#ED2F46;}
	.st11{fill-rule:evenodd;clip-rule:evenodd;fill:#CC0025;}
	.st12{fill-rule:evenodd;clip-rule:evenodd;fill:#FF7A8A;}
	.st13{fill-rule:evenodd;clip-rule:evenodd;fill:#FFFFFF;}
	.st14{fill-rule:evenodd;clip-rule:evenodd;fill:#C4066F;}
	.st15{fill-rule:evenodd;clip-rule:evenodd;fill:#A6035D;}
	.st16{fill-rule:evenodd;clip-rule:evenodd;fill:#F2A7C8;}
	.st17{fill-rule:evenodd;clip-rule:evenodd;fill:#FF6417;}
	.st18{fill-rule:evenodd;clip-rule:evenodd;fill:#E64E03;}
	.st19{fill-rule:evenodd;clip-rule:evenodd;fill:#FFB894;}
	.st20{fill-rule:evenodd;clip-rule:evenodd;fill:#A3E2E6;}
	.st21{fill-rule:evenodd;clip-rule:evenodd;fill:#4EB6BD;}
	.st22{fill-rule:evenodd;clip-rule:evenodd;fill:#D9FCFF;}
	.st23{fill-rule:evenodd;clip-rule:evenodd;fill:#B0001D;}
	.st24{fill-rule:evenodd;clip-rule:evenodd;fill:#D10023;}
	.st25{fill-rule:evenodd;clip-rule:evenodd;fill:#F06E79;}
	.st26{fill-rule:evenodd;clip-rule:evenodd;fill:#D92B00;}
	.st27{fill-rule:evenodd;clip-rule:evenodd;fill:#FF4517;}
	.st28{fill-rule:evenodd;clip-rule:evenodd;fill:#FF9E75;}
	.st29{fill-rule:evenodd;clip-rule:evenodd;fill:#FFC917;}
	.st30{fill-rule:evenodd;clip-rule:evenodd;fill:#E09E03;}
	.st31{fill-rule:evenodd;clip-rule:evenodd;fill:#FFE89C;}
	.st32{fill-rule:evenodd;clip-rule:evenodd;fill:#CEDE59;}
	.st33{fill-rule:evenodd;clip-rule:evenodd;fill:#ADBD31;}
	.st34{fill-rule:evenodd;clip-rule:evenodd;fill:#F0F7B7;}
	.st35{fill-rule:evenodd;clip-rule:evenodd;fill:#FF6200;}
	.st36{fill-rule:evenodd;clip-rule:evenodd;fill:#FFBF00;}
	.st37{fill-rule:evenodd;clip-rule:evenodd;fill:#FFEEE3;}
	.st38{fill-rule:evenodd;clip-rule:evenodd;fill:#FF8317;}
	.st39{fill-rule:evenodd;clip-rule:evenodd;fill:#FFCA29;}
	.st40{fill-rule:evenodd;clip-rule:evenodd;fill:#FFF9F5;}
	.st41{fill-rule:evenodd;clip-rule:evenodd;fill:#D43C00;}
	.st42{fill-rule:evenodd;clip-rule:evenodd;fill:#ED9200;}
	.st43{fill-rule:evenodd;clip-rule:evenodd;fill:#F5CDB3;}
	.st44{fill-rule:evenodd;clip-rule:evenodd;fill:#119BBD;}
	.st45{fill-rule:evenodd;clip-rule:evenodd;fill:#54CAE8;}
	.st46{fill-rule:evenodd;clip-rule:evenodd;fill:#87DBF0;}
	.st47{fill-rule:evenodd;clip-rule:evenodd;fill:#ED7E00;}
	.st48{fill-rule:evenodd;clip-rule:evenodd;fill:#873400;}
	.st49{fill-rule:evenodd;clip-rule:evenodd;fill:#FF9F00;}
	.st50{fill-rule:evenodd;clip-rule:evenodd;fill:#FF9A17;}
	.st51{fill-rule:evenodd;clip-rule:evenodd;fill:#E37004;}
	.st52{fill-rule:evenodd;clip-rule:evenodd;fill:#FFD7A3;}
	.st53{fill-rule:evenodd;clip-rule:evenodd;fill:#A3005A;}
	.st54{fill-rule:evenodd;clip-rule:evenodd;fill:#800046;}
	.st55{fill-rule:evenodd;clip-rule:evenodd;fill:#F2B8D8;}
	.st56{fill-rule:evenodd;clip-rule:evenodd;fill:#CF9983;}
	.st57{fill-rule:evenodd;clip-rule:evenodd;fill:#632E1A;}
	.st58{fill-rule:evenodd;clip-rule:evenodd;fill:#7B3419;}
	.st59{fill-rule:evenodd;clip-rule:evenodd;fill:#964E34;}
	.st60{fill-rule:evenodd;clip-rule:evenodd;fill:#5F2712;}
	.st61{fill-rule:evenodd;clip-rule:evenodd;fill:#8C462D;}
	.st62{fill-rule:evenodd;clip-rule:evenodd;fill:#FFDECE;}
	.st63{fill-rule:evenodd;clip-rule:evenodd;fill:#FFDD1C;}
	.st64{fill-rule:evenodd;clip-rule:evenodd;fill:#EBC400;}
	.st65{fill-rule:evenodd;clip-rule:evenodd;fill:#FFEA73;}
	.st66{fill-rule:evenodd;clip-rule:evenodd;fill:#FFE96B;}
	.st67{fill-rule:evenodd;clip-rule:evenodd;fill:#F7D00D;}
	.st68{fill-rule:evenodd;clip-rule:evenodd;fill:#FFF1A3;}
	.st69{fill-rule:evenodd;clip-rule:evenodd;fill:#D15079;}
	.st70{fill-rule:evenodd;clip-rule:evenodd;fill:#F7AAB1;}
	.st71{fill-rule:evenodd;clip-rule:evenodd;fill:#F28A92;}
	.st72{fill-rule:evenodd;clip-rule:evenodd;fill:#A1D132;}
	.st73{fill-rule:evenodd;clip-rule:evenodd;fill:#86B31E;}
	.st74{fill-rule:evenodd;clip-rule:evenodd;fill:#E1F7AC;}
	.st75{fill-rule:evenodd;clip-rule:evenodd;fill:#FFF347;}
	.st76{fill-rule:evenodd;clip-rule:evenodd;fill:#E0B714;}
	.st77{fill-rule:evenodd;clip-rule:evenodd;fill:#FFFCD6;}
	.st78{fill-rule:evenodd;clip-rule:evenodd;fill:#D92B71;}
	.st79{fill-rule:evenodd;clip-rule:evenodd;fill:#FC5B9B;}
	.st80{fill-rule:evenodd;clip-rule:evenodd;fill:#FF96C0;}
	.st81{fill-rule:evenodd;clip-rule:evenodd;fill:#6D42AD;}
	.st82{fill-rule:evenodd;clip-rule:evenodd;fill:#8E53E6;}
	.st83{fill-rule:evenodd;clip-rule:evenodd;fill:#B18AED;}
	.st84{fill-rule:evenodd;clip-rule:evenodd;fill:#4D6CBA;}
	.st85{fill-rule:evenodd;clip-rule:evenodd;fill:#678FF5;}
	.st86{fill-rule:evenodd;clip-rule:evenodd;fill:#A8BFFA;}
	.st87{fill-rule:evenodd;clip-rule:evenodd;fill:#BA2C22;}
	.st88{fill-rule:evenodd;clip-rule:evenodd;fill:#DE4035;}
	.st89{fill-rule:evenodd;clip-rule:evenodd;fill:#AFC4E6;}
	.st90{fill-rule:evenodd;clip-rule:evenodd;fill:#D1E3FF;}
	.st91{fill-rule:evenodd;clip-rule:evenodd;fill:#9B36BA;}
	.st92{fill-rule:evenodd;clip-rule:evenodd;fill:#882DA3;}
	.st93{fill-rule:evenodd;clip-rule:evenodd;fill:#BF63DB;}
	.st94{fill-rule:evenodd;clip-rule:evenodd;fill:#9E5BD4;}
	.st95{fill-rule:evenodd;clip-rule:evenodd;fill:#8A49BF;}
	.st96{fill-rule:evenodd;clip-rule:evenodd;fill:#C68AEB;}
	.st97{fill-rule:evenodd;clip-rule:evenodd;fill:#FFC9DF;}
	.st98{fill-rule:evenodd;clip-rule:evenodd;fill:#FFCA85;}
	.st99{fill-rule:evenodd;clip-rule:evenodd;fill:#F55E00;}
	.st100{fill-rule:evenodd;clip-rule:evenodd;fill:#FADFCD;}
	.st101{fill-rule:evenodd;clip-rule:evenodd;fill:#F8B400;}
	.st102{fill-rule:evenodd;clip-rule:evenodd;fill:#BF3600;}
	.st103{fill-rule:evenodd;clip-rule:evenodd;fill:#EDC8B0;}
	.st104{fill-rule:evenodd;clip-rule:evenodd;fill:#E07F00;}
	.st105{fill-rule:evenodd;clip-rule:evenodd;fill:#FFC300;}
	.st106{fill-rule:evenodd;clip-rule:evenodd;fill:#FFD429;}
	.st107{fill-rule:evenodd;clip-rule:evenodd;fill:#514287;}
	.st108{fill-rule:evenodd;clip-rule:evenodd;fill:#362C4D;}
	.st109{fill-rule:evenodd;clip-rule:evenodd;fill:#D6CFE6;}
	.st110{fill-rule:evenodd;clip-rule:evenodd;fill:#F0B800;}
	.st111{fill-rule:evenodd;clip-rule:evenodd;fill:#FFCE2B;}
	.st112{fill-rule:evenodd;clip-rule:evenodd;fill:#E0AD14;}
	.st113{fill-rule:evenodd;clip-rule:evenodd;fill:#FFDA47;}
	.st114{fill-rule:evenodd;clip-rule:evenodd;fill:#FFEF94;}
	.st115{fill:#9C5843;}
	.st116{fill:#7D402D;}
	.st117{fill-rule:evenodd;clip-rule:evenodd;fill:#5E0600;stroke:#000000;stroke-width:0.5669;stroke-miterlimit:2.4142;}
	.st118{fill-rule:evenodd;clip-rule:evenodd;fill:#FF8A00;}
	.st119{fill-rule:evenodd;clip-rule:evenodd;fill:#E76800;}
	.st120{fill-rule:evenodd;clip-rule:evenodd;fill:#AD3600;}
	.st121{fill-rule:evenodd;clip-rule:evenodd;fill:#BA4100;}
	.st122{fill-rule:evenodd;clip-rule:evenodd;fill:#ED6F00;}
	.st123{fill-rule:evenodd;clip-rule:evenodd;fill:#CB5700;}
	.st124{fill-rule:evenodd;clip-rule:evenodd;fill:#9C5843;}
	.st125{fill-rule:evenodd;clip-rule:evenodd;fill:#7D402D;}
</style>
<g id="candies_x5F_front_00000111913141035212865440000010630892126391005070_">
	<rect x="-1" y="-17" class="st0" width="595.3" height="613.5"/>
</g>
<g>
	<g>
		<path class="st1" d="M454.4,384c1.4-0.6,2-2.3,1.3-3.7c-0.6-1.4-2.3-2-3.7-1.3l-76.5,36.4c-1.4,0.6-1.1,1.9-0.5,3.3
			s1.5,2.4,2.9,1.7L454.4,384L454.4,384z"/>
		<path class="st2" d="M446.2,384.7c0.9-0.4,1.5-1.1,1.3-1.5s-1.1-0.4-2,0l-68.8,32.7c-0.9,0.4-0.7,0.8-0.5,1.2
			c0.2,0.4,0.3,0.8,1.2,0.3L446.2,384.7L446.2,384.7z"/>
	</g>
	<g>
		<path class="st3" d="M476.2,373.1c5.7,12,0.6,26.4-11.4,32.1s-26.4,0.6-32.1-11.4s-0.6-26.4,11.4-32.1
			C456.1,355.9,470.5,361,476.2,373.1L476.2,373.1z"/>
		<path class="st4" d="M463.3,405.8c-4.3,1.7-8.9,2.1-13.3,1.3l-0.7-2.7l9.5-3.6l2.8,1.4L463.3,405.8L463.3,405.8z"/>
		<path class="st4" d="M477.9,389.1c-0.9,3.5-2.5,6.8-4.8,9.6l-1.9-4.6l4.2-11.8L477.9,389.1L477.9,389.1z"/>
		<path class="st4" d="M476.2,373.1c1,2,1.6,4.1,2,6.1c-1.1-3-3.3-6.7-5.1-9.2c-0.3-0.7-6-6.6-7-7.7
			C470.3,364.6,473.9,368.3,476.2,373.1L476.2,373.1z"/>
		<path class="st5" d="M464.9,360.5c3.4,2.3,6.2,5.5,8.1,9.5c-9.7-3.9-20.5,3.3-21.8,10.4C448.8,373.6,454.5,362,464.9,360.5
			L464.9,360.5L464.9,360.5z"/>
		<path class="st5" d="M427.2,378.5c0.3-4.1,1.7-8.1,4.2-11.8c1.5,10.4,13.1,16.1,19.9,13.7C446.6,385.9,433.7,386.8,427.2,378.5
			L427.2,378.5L427.2,378.5z"/>
		<path class="st5" d="M461.6,402.2c-3.7,1.8-7.9,2.6-12.3,2.3c8.3-6.5,7.4-19.4,1.9-24C458.4,381.7,465.6,392.4,461.6,402.2
			L461.6,402.2L461.6,402.2z"/>
		<path class="st5" d="M440.9,358.6c3.7-1.8,7.9-2.6,12.3-2.3c-8.3,6.5-7.4,19.4-1.9,24C444.1,379.1,437,368.4,440.9,358.6
			L440.9,358.6L440.9,358.6z"/>
		<path class="st5" d="M437.6,400.2c-3.4-2.3-6.2-5.5-8.1-9.5c9.7,3.9,20.5-3.3,21.8-10.4C453.7,387.2,448,398.8,437.6,400.2
			L437.6,400.2L437.6,400.2z"/>
		<path class="st5" d="M475.3,382.3c-0.3,4.1-1.7,8.1-4.2,11.8c-1.5-10.4-13.1-16.1-19.9-13.7C455.9,374.9,468.8,374,475.3,382.3
			L475.3,382.3L475.3,382.3z"/>
		<path class="st6" d="M453.2,356.4c4.1,0.3,8.1,1.7,11.8,4.2c-10.4,1.5-16.1,13.1-13.7,19.9C445.8,375.7,444.9,362.8,453.2,356.4
			L453.2,356.4L453.2,356.4z"/>
		<path class="st6" d="M429.5,390.8c-1.8-3.7-2.6-7.9-2.3-12.3c6.5,8.3,19.4,7.4,24,1.9C450,387.5,439.2,394.7,429.5,390.8
			L429.5,390.8L429.5,390.8z"/>
		<path class="st6" d="M471.1,394.1c-2.3,3.4-5.5,6.2-9.5,8.1c3.9-9.7-3.3-20.5-10.4-21.8C458.1,378,469.7,383.7,471.1,394.1
			L471.1,394.1L471.1,394.1z"/>
		<path class="st6" d="M431.4,366.7c2.3-3.4,5.5-6.2,9.5-8.1c-3.9,9.7,3.3,20.5,10.4,21.8C444.5,382.8,432.9,377.1,431.4,366.7
			L431.4,366.7L431.4,366.7z"/>
		<path class="st6" d="M449.4,404.4c-4.1-0.3-8.1-1.7-11.8-4.2c10.4-1.5,16.1-13.1,13.7-19.9C456.8,385.1,457.6,398,449.4,404.4
			L449.4,404.4L449.4,404.4z"/>
		<path class="st6" d="M473,370c1.8,3.7,2.6,7.9,2.3,12.3c-6.5-8.3-19.4-7.4-24-1.9C452.5,373.3,463.3,366.1,473,370L473,370
			L473,370z"/>
	</g>
</g>
<g>
	<g>
		<path class="st1" d="M180.6,377.5c-1.2-0.4-1.8-1.7-1.4-2.9s1.7-1.8,2.9-1.4l66.1,23c1.2,0.4,1.1,1.5,0.7,2.6
			c-0.4,1.2-1,2.1-2.2,1.6L180.6,377.5L180.6,377.5z"/>
		<path class="st2" d="M187.4,377.3c-0.8-0.3-1.3-0.8-1.2-1.1c0.1-0.4,0.9-0.4,1.6-0.2l59.4,20.7c0.8,0.3,0.7,0.6,0.5,0.9
			c-0.1,0.4-0.2,0.7-1,0.4L187.4,377.3L187.4,377.3z"/>
	</g>
	<g>
		<path class="st7" d="M167.1,370.4c-3.1,8.7,1.6,18.3,10.3,21.3s18.3-1.6,21.3-10.3c3.1-8.7-1.6-18.3-10.3-21.3
			C179.7,357,170.1,361.6,167.1,370.4L167.1,370.4z"/>
		<path class="st8" d="M196.3,368.8c8.1,22.9-21.9,29.5-27.9,11.7C178.5,391.5,196.4,385.5,196.3,368.8L196.3,368.8z"/>
		<path class="st9" d="M175.9,362c-5.4,2.8-10.9,10.3-7.5,19c0.6-16,23-21.7,29.2-6.2C197.5,363.3,185.8,356.8,175.9,362L175.9,362z
			"/>
		<path class="st10" d="M167.1,370.4c-2.1,5.9-0.6,12.2,3.2,16.6c10-1.7,18.9-8.6,22.5-18.9c0.5-1.5,0.9-3.1,1.2-4.7
			c-1.6-1.4-3.4-2.5-5.6-3.2C179.7,357,170.1,361.6,167.1,370.4L167.1,370.4z"/>
		<path class="st11" d="M172.1,386.6c-1.6-1.5-2.9-3.5-3.7-6c2.2,2.4,4.8,4,7.6,4.8C174.7,385.9,173.4,386.3,172.1,386.6
			L172.1,386.6z"/>
		<path class="st12" d="M175.9,362c-5.4,2.8-10.9,10.3-7.5,19c0.5-13,15.5-19.2,24.3-12.7c0-0.1,0.1-0.2,0.1-0.3
			c0.4-1.1,0.7-2.2,0.9-3.3C189.4,360.1,182.3,358.6,175.9,362L175.9,362z"/>
		<path class="st13" d="M179,366.3c-0.2,0.7,0.1,1.5,0.8,1.8c0.7,0.2,1.5-0.1,1.8-0.8c0.2-0.7-0.1-1.5-0.8-1.8
			S179.3,365.6,179,366.3L179,366.3z"/>
		<path class="st13" d="M172.6,368c-0.5,1.5,0.3,3.1,1.8,3.6s3.1-0.3,3.6-1.8s-0.3-3.1-1.8-3.6C174.7,365.7,173.1,366.5,172.6,368
			L172.6,368z"/>
	</g>
</g>
<g>
	<path class="st14" d="M149.9,405.8c-3.5-3.5-8.6-8.9-11.2-11.6c-8.8-9,1.5-16.9,9.9-13.5c8.3,3.5,12.6,7.4,15.6,15.9
		C169.3,410.3,158.2,414.1,149.9,405.8L149.9,405.8z"/>
	<path class="st15" d="M149.9,405.8c-3.5-3.5-12.9-11.7-14-15.9c3.2,3.5,21.2,22.3,29.5,11.6C166.5,412.5,156.5,412.4,149.9,405.8
		L149.9,405.8z"/>
	<path class="st16" d="M147.5,381.6c7.9,2.7,17.5,14.7,7.8,9.4c-4.9-2.7-5.3-3.6-11.2-4.7C136.9,385.7,141.3,379.5,147.5,381.6
		L147.5,381.6z"/>
</g>
<g>
	<path class="st17" d="M403.9,420.2c-5,0.2-12.4,0.4-16.1,0.5c-12.6,0.5-11.5-12.5-3.3-16.4c8.1-3.8,13.9-4.4,22.3-0.9
		C420.2,409,415.6,419.7,403.9,420.2L403.9,420.2z"/>
	<path class="st18" d="M403.9,420.2c-5,0.2-17.3,1.7-21.1-0.3c4.7,0,30.8-0.7,28.5-14C420,412.5,413.2,419.8,403.9,420.2
		L403.9,420.2z"/>
	<path class="st19" d="M384.3,405.8c7.3-4,22.7-3.1,12.2,0.5c-5.3,1.8-6.2,1.6-11,5.1C380.2,416.4,378.6,409,384.3,405.8
		L384.3,405.8z"/>
</g>
<g>
	<path class="st20" d="M265.2,408.6c-4.9-0.7-12.2-2.1-15.9-2.7c-12.5-2-8.9-14.5,0-16.7c8.7-2.2,14.5-1.5,22,3.5
		C283.4,400.8,276.8,410.4,265.2,408.6L265.2,408.6z"/>
	<path class="st21" d="M265.2,408.6c-4.9-0.7-17.3-1.8-20.7-4.5c4.6,0.9,30.3,5.3,30.7-8.2C282.5,404.2,274.4,410,265.2,408.6
		L265.2,408.6z"/>
	<path class="st22" d="M248.9,390.7c7.9-2.5,22.8,1.4,11.9,2.9c-5.5,0.8-6.4,0.3-11.8,2.8C242.8,400.2,242.6,392.6,248.9,390.7
		L248.9,390.7z"/>
</g>
<g>
	<path class="st23" d="M373.5,390.1c7.1,0,12.9,5.8,12.9,12.9s-5.8,12.9-12.9,12.9s-12.9-5.8-12.9-12.9S366.3,390.1,373.5,390.1
		L373.5,390.1z"/>
	<path class="st24" d="M361.5,407.7c-0.6-1.5-0.9-3.1-0.9-4.7c0-6.7,5.1-12.2,11.7-12.8c12.3,1.2,13.5,12.2,8.6,18.7
		C376.5,414.5,367.3,416.8,361.5,407.7L361.5,407.7z"/>
	<path class="st25" d="M364.5,395.5c3.5-4.4,11.5-5.9,15.9-0.6c2.9,3.5,0.2,1.8-1.3,0.9c-3.9-2.4-8.3-1.5-11.5,3
		c-2.8,3.8-3,9,1,11.9c1.2,0.9,1.9,1.8-0.6,1C361.5,409.6,360.1,401.1,364.5,395.5L364.5,395.5z"/>
	<path class="st13" d="M368.3,395.1c1.3,0,2.4,1.1,2.4,2.4s-1.1,2.4-2.4,2.4s-2.4-1.1-2.4-2.4S367,395.1,368.3,395.1L368.3,395.1z"
		/>
	<path class="st13" d="M365.6,401.1c0.7,0,1.4,0.6,1.4,1.4c0,0.7-0.6,1.4-1.4,1.4c-0.7,0-1.4-0.6-1.4-1.4S364.9,401.1,365.6,401.1
		L365.6,401.1z"/>
</g>
<g>
	<path class="st26" d="M231.4,398.2c5,5.1,4.9,13.3-0.3,18.2s-13.3,4.9-18.2-0.3c-5-5.1-4.9-13.3,0.3-18.2
		C218.3,393,226.5,393.1,231.4,398.2L231.4,398.2z"/>
	<path class="st27" d="M210.4,401.9c0.6-1.4,1.6-2.8,2.8-4c4.8-4.7,12.4-4.9,17.4-0.6c7.7,9.7,0.7,18.2-7.4,19.2
		C216,417.4,208,412.4,210.4,401.9L210.4,401.9z"/>
	<path class="st28" d="M221.3,395.6c5.6-0.6,12.2,4.1,11.5,11c-0.4,4.5-1.2,1.4-1.6-0.3c-1-4.5-4.7-7-10.2-6.2
		c-4.7,0.7-8.5,4.2-7.9,9c0.2,1.5,0,2.6-1.1,0.2C209.1,403.2,214.2,396.3,221.3,395.6L221.3,395.6z"/>
	<path class="st13" d="M224.3,398c0.9,1,0.9,2.5-0.1,3.4s-2.5,0.9-3.4,0s-0.9-2.5,0.1-3.4C221.8,397,223.3,397,224.3,398L224.3,398z
		"/>
	<path class="st13" d="M218,400.3c0.5,0.5,0.5,1.4,0,1.9s-1.4,0.5-1.9,0s-0.5-1.4,0-1.9C216.7,399.8,217.5,399.8,218,400.3
		L218,400.3z"/>
</g>
<g>
	<path class="st29" d="M209,415c-4.9,0.8-12.3,1.8-15.9,2.4c-12.5,1.9-12.9-11.1-5.2-15.9c7.6-4.8,13.3-5.9,22-3.5
		C223.9,401.9,220.6,413.1,209,415L209,415z"/>
	<path class="st30" d="M209,415c-4.9,0.8-17,3.7-21.1,2.2c4.7-0.6,30.5-4.3,26.6-17.3C224.1,405.5,218.2,413.5,209,415L209,415z"/>
	<path class="st31" d="M187.9,403c6.8-4.8,22.2-5.7,12.2-0.9c-5,2.4-6,2.3-10.4,6.3C185.1,413.9,182.6,406.8,187.9,403L187.9,403z"
		/>
</g>
<g>
	<path class="st32" d="M334.7,420.3c-4.9,0.7-12.3,1.4-16,1.9c-12.5,1.5-12.5-11.5-4.7-16s13.5-5.5,22.1-2.8
		C350,407.7,346.3,418.8,334.7,420.3L334.7,420.3z"/>
	<path class="st33" d="M334.7,420.3c-4.9,0.7-17.1,3.1-21.1,1.5c4.7-0.4,30.6-3.3,27.2-16.4C350.1,411.3,343.9,419.1,334.7,420.3
		L334.7,420.3z"/>
	<path class="st34" d="M314,407.6c6.9-4.6,22.3-5,12.2-0.5c-5.1,2.3-6.1,2.1-10.6,6C310.8,418.5,308.5,411.2,314,407.6L314,407.6z"
		/>
</g>
<g>
	<g>
		<path class="st35" d="M359.3,410.7c-2.7,3.7-7.9,2-11.9,0.5c-4.6-1.6-11.2-3.9-8.8-10.1c1.2-3.3,3.9-8.2,4.8-9.7
			c3-5.2,9.9-16,14.7-19.6c5-3.8,7.1-3.1,8.2,3.7c0.6,3.8-0.6,11.2-2,18.3C362.9,401,361.4,408,359.3,410.7L359.3,410.7z"/>
		<path class="st36" d="M359.3,410.7c-2.7,3.7-7.9,2-11.9,0.5c-4.6-1.6-11.2-3.9-8.8-10.1c0.8-2.2,2.2-5,3.4-7.2
			c5.2,5.2,12.2,9.3,20,10.2C361.2,407,360.3,409.3,359.3,410.7L359.3,410.7z"/>
		<path class="st37" d="M353.5,376.4c1.6-2,3.2-3.6,4.5-4.7c5-3.8,7.1-3.1,8.2,3.7c0.2,1.6,0.2,3.8-0.1,6.4
			C361.5,380.7,356.9,378.8,353.5,376.4L353.5,376.4z"/>
	</g>
	<path class="st38" d="M343.4,395.2c3.8-6.8,5.8-10.2,10.5-16c0.8-1,1-1.2,1.4-1.6c1.9,1.1,3.9,2,6.1,2.8c0-0.1,0-0.2,0-0.3
		c-0.1,0.8-0.3,1.8-0.5,2.8c-1.4,7.5-3.5,14.8-5.5,19.7C350.9,401,346.8,398.3,343.4,395.2L343.4,395.2z"/>
	<path class="st39" d="M343.4,395.2c3.4,3.1,7.6,5.7,12.1,7.3c-0.1,0.4-0.3,0.7-0.5,1.1c-2,4.5-4.3,4.4-9.6,2
		c-4.5-2.1-5.7-3.9-2.3-10L343.4,395.2L343.4,395.2z"/>
	<path class="st40" d="M361.4,380.4c-2.2-0.8-4.3-1.7-6.1-2.8C360.7,371.3,362.8,371.8,361.4,380.4L361.4,380.4z"/>
	<path class="st41" d="M360.5,403.8c0.6-2.5,1.2-5.4,2-8.5c1.2-4.8,2.1-8.8,3-13.7c0.2,0.1,0.5,0.1,0.7,0.2
		c-0.4,3.6-1.1,7.8-1.9,11.9c-0.7,3.7-1.5,7.3-2.3,10.4C361.5,404,361,403.9,360.5,403.8L360.5,403.8z"/>
	<path class="st42" d="M359.3,410.7c-2.7,3.7-7.9,2-11.9,0.5c-4-1.4-9.5-3.3-9.3-7.8c1.7,2.7,5.1,5,8.9,6.5c9.6,3.6,12,0.2,13.6-6
		c0.5,0.1,1,0.1,1.5,0.2C361.2,407,360.3,409.3,359.3,410.7L359.3,410.7z"/>
	<path class="st43" d="M363.5,369.5c1.4,0.5,2.2,2.3,2.8,5.9c0.2,1.6,0.2,3.8-0.1,6.4c-0.2,0-0.5-0.1-0.7-0.2
		C366,376.8,365.9,371.4,363.5,369.5L363.5,369.5z"/>
</g>
<g>
	<path class="st44" d="M413,373.6c6.5,0,11.8,5.3,11.8,11.8s-5.3,11.8-11.8,11.8s-11.8-5.3-11.8-11.8
		C401.1,378.9,406.4,373.6,413,373.6L413,373.6z"/>
	<path class="st45" d="M402,389.8c-0.5-1.4-0.8-2.8-0.8-4.4c0-6.2,4.7-11.2,10.7-11.8c11.2,1.1,12.4,11.2,7.9,17.1
		C415.7,396,407.3,398.1,402,389.8L402,389.8z"/>
	<path class="st46" d="M404.8,378.6c3.2-4,10.5-5.4,14.6-0.6c2.7,3.2,0.1,1.7-1.2,0.8c-3.6-2.2-7.6-1.4-10.6,2.7
		c-2.5,3.5-2.7,8.3,0.9,10.9c1.1,0.8,1.7,1.6-0.6,0.9C402,391.5,400.7,383.7,404.8,378.6L404.8,378.6z"/>
	<path class="st13" d="M408.3,378.2c1.2,0,2.2,1,2.2,2.2s-1,2.2-2.2,2.2s-2.2-1-2.2-2.2C406,379.2,407,378.2,408.3,378.2
		L408.3,378.2z"/>
	<path class="st13" d="M405.8,383.8c0.7,0,1.2,0.5,1.2,1.2s-0.5,1.2-1.2,1.2s-1.2-0.5-1.2-1.2C404.6,384.3,405.1,383.8,405.8,383.8
		L405.8,383.8z"/>
</g>
<g id="pumpkin_x5F_back_00000109724275641326027190000014234016265398112920_">
	<path class="st47" d="M301.3,157.6c61.1,0,110.7,15.9,110.7,35.6s-49.5,35.6-110.7,35.6s-110.7-15.9-110.7-35.6
		S240.2,157.6,301.3,157.6L301.3,157.6z"/>
	<path class="st48" d="M374.8,209.4c76.8,26.8,62.5,93.8,18.3,134.1c-45.7,41.6-102.9,36.8-151.6,16.9c-43.7-17.8-63-51.7-58.9-88.3
		c2.4-21.9,16-36.4,29.4-48.1C252.7,188.5,327.7,193,374.8,209.4L374.8,209.4z"/>
	<path class="st49" d="M301.3,145.9c72.1,0,130.5,21.6,130.5,48.2s-58.4,48.2-130.5,48.2s-130.5-21.6-130.5-48.2
		C170.8,167.5,229.2,145.9,301.3,145.9L301.3,145.9z M301.3,157.6c61.1,0,110.7,15.9,110.7,35.6s-49.5,35.6-110.7,35.6
		s-110.7-15.9-110.7-35.6C190.6,173.5,240.2,157.6,301.3,157.6L301.3,157.6z"/>
</g>
<g id="candies_00000140008363173433060540000008358353291295047313_">
	<g>
		<path class="st50" d="M335.8,205.5c-5.4-0.7-13.5-2.1-17.5-2.7c-13.7-2-9.9-15.8-0.3-18.4c9.6-2.5,15.9-1.9,24.2,3.5
			C355.7,196.6,348.6,207.2,335.8,205.5L335.8,205.5z"/>
		<path class="st51" d="M335.8,205.5c-5.4-0.7-19-1.7-22.8-4.6c5.1,0.9,33.4,5.4,33.6-9.5C354.7,200.4,345.9,206.9,335.8,205.5
			L335.8,205.5z"/>
		<path class="st52" d="M317.6,186c8.7-2.9,25.1,1.2,13.1,3c-6.1,0.9-7,0.4-12.9,3.3C311.1,196.6,310.7,188.3,317.6,186L317.6,186z"
			/>
	</g>
	<g>
		<path class="st53" d="M370,227c-4.2-4.2-10.2-10.6-13.3-13.8c-10.5-10.7,1.8-20.1,11.8-16c9.9,4.1,14.9,8.8,18.6,18.9
			C392.9,232.4,379.9,236.9,370,227L370,227z"/>
		<path class="st54" d="M370,227c-4.2-4.2-15.3-13.9-16.6-18.9c3.8,4.1,25.2,26.5,35.1,13.8C389.7,235,377.8,234.9,370,227L370,227z
			"/>
		<path class="st55" d="M367.1,198.3c9.4,3.2,20.9,17.5,9.3,11.2c-5.8-3.2-6.3-4.2-13.3-5.6C354.5,203.2,359.7,195.8,367.1,198.3
			L367.1,198.3z"/>
	</g>
	<g>
		<path class="st56" d="M239,151l29.5-8.2c1.4-0.4,2.9,0.3,3.2,1.5l11.1,39.7c0.3,1.2-0.6,2.6-2,3l-29.5,8.2
			c-1.4,0.4-2.9-0.3-3.2-1.5l-12.5-39.4C235.2,153.1,237.5,151.4,239,151L239,151z"/>
		<path class="st57" d="M237,152.5l29.3-8.2c1.5-0.4,3,0.5,3.4,1.9l10.8,38.8c0.4,1.5-0.5,3-1.9,3.4l-29.4,8.2
			c-1.5,0.4-3-0.5-3.4-1.9L235,155.9C234.6,154.5,235.5,152.9,237,152.5L237,152.5z"/>
		<path class="st58" d="M236.9,152.5l29.5-8.2c0.6-0.2,1.3-0.1,1.9,0.1c-1.4,4.7-6.3,4.9-11.5,6.4c-13.6,3.9-16.2,5.5-20.5,2.1
			C236.4,152.7,236.7,152.6,236.9,152.5L236.9,152.5z"/>
		<path class="st58" d="M245.6,193.6l-3.1-11.1l-7.1-25.4l0,0l0,0l-0.4-1.5c0-0.1-0.1-0.2-0.1-0.3c-0.1-0.9,0.4-1.9,1.4-2.4
			c3.1,1.6,3.8,3.7,4.6,7.3c1.9,8.4,4.4,16.7,6.7,25c1.6,5.7,2.8,6.2-0.2,10.7C246.5,195.3,245.8,194.6,245.6,193.6L245.6,193.6z"/>
		<path class="st59" d="M241.9,155.4l21.7-6.1c1.2-0.3,2.4,0.4,2.7,1.5l8.9,32c0.3,1.2-0.4,2.4-1.5,2.7l-21.7,6.1
			c-1.2,0.3-2.4-0.4-2.7-1.5l-8.9-32C240,157,240.7,155.8,241.9,155.4L241.9,155.4z"/>
		<path class="st60" d="M244.4,157l17.9-5c0.9-0.2,1.8,0.3,2,1.2l8,28.7c0.2,0.9-0.3,1.8-1.2,2.1l-17.9,5c-0.9,0.2-1.8-0.3-2.1-1.2
			l-8-28.7C243,158.2,243.5,157.3,244.4,157L244.4,157z"/>
		<path class="st58" d="M252.7,188.9c-2.3-1.7,1.2-3.4,2.3-3.7c3.8-1.1,9.1-2.6,10.2-2.9c3.4-1.1,3.3-1.9,2.5-4.8
			c-1.4-4.9-5.2-16.8-6.2-21.3c-0.5-2.1,0.9-4,1.9-4.1c0.5,0.3,0.6,1.1,0.8,1.7l7.6,27.3c0.4,1.3-0.6,2.6-2.1,3.1l-16.2,4.6
			C253.3,188.9,253,188.9,252.7,188.9L252.7,188.9z"/>
		<path class="st61" d="M246.8,158.9l14.5-4.1c0.6-0.2,1.2,0.2,1.4,0.8l7,25.1c0.2,0.6-0.2,1.2-0.8,1.4l-14.5,4.1
			c-0.6,0.2-1.2-0.2-1.4-0.8l-7-25.1C245.8,159.7,246.2,159.1,246.8,158.9L246.8,158.9z"/>
		<path class="st62" d="M265.2,155.9c1.9,6.8,4.5,16.4,6.3,22.7c0.6,2.2,1.5,4.3,0.3,5.3c-0.5,0.4-4.5,1.5-5.4,1.7
			c-1.6,0.5-5.2,1.5-7.7,2.2c-1,0.3-3.6,1.1-4.9,1.3c-0.5,0.1-0.9,0.1-1.2,0.1c-1.4-0.1-1.4-0.9-1.5-2.1c0.4,1,0.6,1.8,1.8,1.8
			c1.5,0,4.7-1,5.9-1.4c3.1-0.9,7.3-2.3,9.6-3c4.5-1.3,3.8-1.6,2.7-5.6c-1.9-6.7-4.6-17-6.6-24c-0.1-0.6-0.3-1.1-0.5-1.7
			c-0.5-1.6-3.1-0.5-4.6-0.2c2.7-0.8,4.5-1.9,5.3,0.5C264.9,154.2,265.1,155.3,265.2,155.9L265.2,155.9z"/>
		<path class="st62" d="M235.7,153.2c0.2-0.2,0.6-0.4,0.9-0.5c3,2,5,2.1,9.1,0.9c4.4-1.3,9.8-3,14.3-4.1c4.2-1,5.4-1.1,8.1-4.9
			c-1.6,3.9-2.4,3.7-1.1,8.5c-2-4.1-2.4-3.8-6.7-2.7c-5.3,1.3-8.8,2.3-14,3.8c-5.9,1.7-6.1,2.1-4.7,7.2c1.6,5.8,5.4,20,6.9,25.8
			c0.8,3.3,0.2,3-0.6,0.2l-7.3-26.4C239.9,158.3,239,154.9,235.7,153.2L235.7,153.2z"/>
	</g>
	<g>
		<path class="st56" d="M376.2,141.7l27.2,14c1.3,0.7,1.9,2.2,1.4,3.3L386,195.7c-0.6,1.1-2.1,1.5-3.5,0.8l-27.2-14
			c-1.3-0.7-1.9-2.2-1.4-3.3l17.6-37.4C372,140.6,374.9,141,376.2,141.7L376.2,141.7z"/>
		<path class="st57" d="M373.7,141.4l27.1,13.9c1.4,0.7,1.9,2.4,1.2,3.7l-18.4,36c-0.7,1.4-2.4,1.9-3.7,1.2l-27.1-13.9
			c-1.4-0.7-1.9-2.4-1.2-3.7l18.4-36C370.7,141.3,372.3,140.8,373.7,141.4L373.7,141.4z"/>
		<path class="st58" d="M373.6,141.4l27.2,14c0.6,0.3,1.1,0.8,1.3,1.3c-4.2,2.5-8-0.7-12.8-3.1c-12.6-6.4-15.6-7-16.5-12.4
			C373.2,141.2,373.4,141.3,373.6,141.4L373.6,141.4z"/>
		<path class="st58" d="M352.1,177.4l5.3-10.3l12-23.4l0,0l0,0l0.7-1.4c0.1-0.1,0.1-0.2,0.2-0.3c0.5-0.8,1.6-1.1,2.6-0.8
			c1.2,3.3,0.3,5.3-1.6,8.5c-4.3,7.5-8.1,15.2-12,22.9c-2.7,5.2-2.2,6.5-7.4,7.7C351.6,179.3,351.6,178.3,352.1,177.4L352.1,177.4z"
			/>
		<path class="st59" d="M375.3,146.9l20.1,10.3c1.1,0.6,1.5,1.9,1,3l-15.1,29.5c-0.6,1.1-1.9,1.5-3,1l-20.1-10.3
			c-1.1-0.6-1.5-1.9-1-3l15.1-29.5C372.9,146.8,374.2,146.4,375.3,146.9L375.3,146.9z"/>
		<path class="st60" d="M376.1,149.8l16.6,8.5c0.8,0.4,1.1,1.4,0.7,2.2L379.8,187c-0.4,0.8-1.4,1.1-2.2,0.7l-16.6-8.5
			c-0.8-0.4-1.1-1.4-0.7-2.2l13.6-26.5C374.2,149.7,375.3,149.4,376.1,149.8L376.1,149.8z"/>
		<path class="st58" d="M360.5,178.8c-0.5-2.8,3.2-1.7,4.2-1.1c3.5,1.8,8.4,4.3,9.4,4.8c3.2,1.5,3.7,0.8,5.1-1.8
			c2.3-4.5,7.6-15.8,9.9-19.8c1.1-1.9,3.4-2.3,4.2-1.7c0.2,0.6-0.3,1.2-0.5,1.8l-13,25.2c-0.6,1.2-2.2,1.5-3.6,0.8l-15-7.6
			C361,179.2,360.7,179,360.5,178.8L360.5,178.8z"/>
		<path class="st61" d="M376.5,152.8l13.4,6.9c0.5,0.3,0.8,0.9,0.5,1.5l-11.9,23.2c-0.3,0.5-1,0.8-1.5,0.5l-13.4-6.9
			c-0.5-0.3-0.8-0.9-0.5-1.5l11.9-23.2C375.3,152.7,376,152.5,376.5,152.8L376.5,152.8z"/>
		<path class="st62" d="M392.2,163.1c-3.2,6.3-7.9,15.1-10.8,20.9c-1,2-1.8,4.2-3.4,4.1c-0.6-0.1-4.3-2-5.1-2.4
			c-1.5-0.8-4.8-2.4-7.2-3.6c-1-0.5-3.4-1.7-4.5-2.4c-0.4-0.3-0.7-0.5-0.9-0.8c-1-1.1-0.4-1.6,0.3-2.6c-0.4,1-0.8,1.7,0.1,2.5
			c1.1,1,4.1,2.4,5.2,3c2.9,1.4,6.9,3.2,9,4.3c4.2,2.1,3.9,1.4,5.8-2.3c3.1-6.1,8.1-15.6,11.5-22.1c0.3-0.5,0.5-1,0.8-1.5
			c0.7-1.5-2-2.5-3.2-3.3c2.5,1.2,4.6,1.7,3.6,3.9C393,161.6,392.4,162.6,392.2,163.1L392.2,163.1z"/>
		<path class="st62" d="M372.4,141.1c0.3,0,0.7,0.1,1,0.2c0.9,3.5,2.2,5,6,6.9c4.1,2.1,9.2,4.5,13.2,6.7c3.8,2.1,4.7,2.9,9.3,1.9
			c-3.8,1.7-4.3,1.1-6.6,5.5c1.3-4.4,0.8-4.4-3.1-6.6c-4.8-2.6-8-4.3-12.9-6.7c-5.5-2.7-5.9-2.6-8.3,2.1
			c-2.8,5.3-9.6,18.4-12.5,23.6c-1.6,3-1.9,2.3-0.5-0.2l12.6-24.3C371.9,147.6,373.6,144.6,372.4,141.1L372.4,141.1z"/>
	</g>
	<g>
		<g>
			<path class="st1" d="M293.3,159.4c0-1.3-1-2.3-2.3-2.3s-2.3,1-2.3,2.3v70c0,1.3,1,1.5,2.3,1.5s2.3-0.3,2.3-1.5V159.4L293.3,159.4
				z"/>
			<path class="st2" d="M290.9,165.7c0-0.8-0.3-1.5-0.7-1.5s-0.7,0.7-0.7,1.5v62.9c0,0.8,0.3,0.8,0.7,0.8c0.4,0,0.7,0,0.7-0.8V165.7
				L290.9,165.7z"/>
		</g>
		<g>
			<path class="st63" d="M291,144.3c9.2,0,16.8,7.5,16.8,16.8s-7.5,16.8-16.8,16.8s-16.8-7.5-16.8-16.8S281.8,144.3,291,144.3
				L291,144.3z"/>
			<path class="st64" d="M280,171.3c18.9,15.2,35.1-11,20.3-22.5C307.2,162,295.6,177,280,171.3L280,171.3z"/>
			<path class="st65" d="M280.2,149.8c4.4-4.2,13.3-6.9,20.4-0.8c-15.3-4.7-28,14.6-15.5,25.5C274.3,170.7,272,157.5,280.2,149.8
				L280.2,149.8z"/>
			<path class="st66" d="M291,144.3c6.2,0,11.7,3.4,14.6,8.5c-4.9,8.9-14.4,15-25.3,15c-1.6,0-3.2-0.1-4.8-0.4
				c-0.8-1.9-1.2-4.1-1.2-6.3C274.3,151.8,281.8,144.3,291,144.3L291,144.3z"/>
			<path class="st67" d="M304.7,154.3c-0.9-2-2.4-3.9-4.5-5.5c1.5,2.9,2.2,5.9,2.1,8.7C303.1,156.6,304,155.5,304.7,154.3
				L304.7,154.3z"/>
			<path class="st68" d="M280.2,149.8c4.4-4.2,13.3-6.9,20.4-0.8c-12.5-3.8-23.2,8.3-20,18.8c-0.1,0-0.2,0-0.3,0
				c-1.1,0-2.3-0.1-3.4-0.2C274,162,274.9,154.8,280.2,149.8L280.2,149.8z"/>
			<path class="st13" d="M283.3,154.2c0.8,0,1.4,0.6,1.4,1.4c0,0.8-0.6,1.4-1.4,1.4s-1.4-0.6-1.4-1.4
				C281.9,154.8,282.5,154.2,283.3,154.2L283.3,154.2z"/>
			<path class="st13" d="M287,148.7c1.6,0,2.9,1.3,2.9,2.9c0,1.6-1.3,2.8-2.9,2.8s-2.9-1.3-2.9-2.8
				C284.1,149.9,285.4,148.7,287,148.7L287,148.7z"/>
		</g>
	</g>
	<g>
		<path class="st15" d="M297.7,181c3.9,6,2.1,14-3.8,17.8c-6,3.9-14,2.1-17.8-3.8c-3.9-6-2.1-14,3.8-17.8
			C285.9,173.3,293.9,175,297.7,181L297.7,181z"/>
		<path class="st14" d="M276.4,180.5c0.9-1.3,2.1-2.4,3.5-3.3c5.6-3.7,13.1-2.3,17.1,2.8c5.6,11-2.9,18-11.1,17.3
			C278.8,196.8,272,190.3,276.4,180.5L276.4,180.5z"/>
		<path class="st69" d="M288.3,176.4c5.6,0.6,11.1,6.4,9.1,13c-1.3,4.3-1.5,1.1-1.5-0.6c-0.1-4.6-3.2-7.8-8.8-8.1
			c-4.7-0.3-9.2,2.4-9.5,7.3c-0.1,1.5-0.5,2.6-1.2,0C274.9,181.6,281.2,175.8,288.3,176.4L288.3,176.4z"/>
		<path class="st13" d="M290.8,179.4c0.7,1.1,0.4,2.6-0.7,3.4s-2.6,0.4-3.4-0.7c-0.7-1.1-0.4-2.6,0.7-3.4
			C288.5,177.9,290,178.3,290.8,179.4L290.8,179.4z"/>
		<path class="st13" d="M284.2,180.4c0.4,0.6,0.2,1.5-0.4,1.9s-1.5,0.2-1.9-0.4c-0.4-0.6-0.2-1.5,0.4-1.9S283.8,179.8,284.2,180.4
			L284.2,180.4z"/>
	</g>
	<g>
		<path class="st32" d="M301.8,205.6c3.2-3.8,7.8-9.6,10.2-12.4c8.1-9.7-2.9-16.8-11-12.6c-8,4.1-11.9,8.4-14.3,17.1
			C282.9,211.7,294.2,214.6,301.8,205.6L301.8,205.6z"/>
		<path class="st33" d="M301.8,205.6c3.2-3.8,11.9-12.7,12.7-16.9c-2.9,3.7-19.4,23.9-28.5,14C285.8,213.7,295.7,212.7,301.8,205.6
			L301.8,205.6z"/>
		<path class="st34" d="M302.3,181.3c-7.6,3.3-16.3,16.1-7,10c4.7-3.1,5-4,10.8-5.6C313.1,184.6,308.3,178.7,302.3,181.3
			L302.3,181.3z"/>
	</g>
	<g>
		<g>
			<path class="st35" d="M266.1,202.1c-3.1,3.7-8.4,1.6-12.6-0.2c-4.8-2-11.6-4.8-8.7-11.3c1.5-3.4,4.6-8.4,5.6-9.9
				c3.6-5.3,11.5-16.3,16.8-19.8c5.6-3.7,7.7-2.9,8.4,4.4c0.4,4.1-1.4,11.8-3.3,19.2C270.5,192,268.4,199.3,266.1,202.1L266.1,202.1
				z"/>
			<path class="st36" d="M266.1,202.1c-3.1,3.7-8.4,1.6-12.6-0.2c-4.8-2-11.6-4.8-8.7-11.3c1-2.2,2.7-5.2,4-7.4
				c5.1,5.8,12.3,10.6,20.5,12C268.3,198.2,267.3,200.7,266.1,202.1L266.1,202.1z"/>
			<path class="st37" d="M262.2,165.4c1.8-2,3.6-3.6,5.1-4.6c5.6-3.7,7.7-2.9,8.4,4.4c0.2,1.7,0,4-0.5,6.7
				C270.4,170.5,265.6,168.2,262.2,165.4L262.2,165.4z"/>
		</g>
		<path class="st38" d="M250.3,184.7c4.4-6.9,6.8-10.4,12.2-16.2c0.9-1,1.1-1.2,1.5-1.6c1.9,1.3,4,2.4,6.3,3.4c0-0.1,0-0.2,0.1-0.3
			c-0.2,0.9-0.4,1.8-0.7,2.9c-2,7.8-4.6,15.4-7.1,20.4C257.9,191.2,253.7,188.2,250.3,184.7L250.3,184.7z"/>
		<path class="st39" d="M250.3,184.7c3.4,3.5,7.6,6.5,12.3,8.5c-0.2,0.4-0.4,0.7-0.6,1.1c-2.5,4.6-4.9,4.4-10.2,1.4
			c-4.6-2.6-5.7-4.5-1.8-10.7L250.3,184.7L250.3,184.7z"/>
		<path class="st40" d="M270.3,170.2c-2.3-1-4.4-2.1-6.3-3.4C270.1,160.5,272.3,161.2,270.3,170.2L270.3,170.2z"/>
		<path class="st41" d="M267.9,194.9c0.8-2.6,1.6-5.6,2.6-8.9c1.6-5,2.9-9.2,4-14.3c0.2,0.1,0.5,0.2,0.7,0.2
			c-0.6,3.8-1.7,8.2-2.8,12.4c-1,3.9-2,7.7-3.1,10.8C268.9,195.1,268.4,195,267.9,194.9L267.9,194.9z"/>
		<path class="st42" d="M266.1,202.1c-3.1,3.7-8.4,1.6-12.6-0.2c-4.1-1.8-9.8-4.1-9.3-8.9c1.6,3,5,5.6,9,7.4
			c9.9,4.4,12.6,1,14.7-5.4c0.5,0.1,1,0.2,1.5,0.3C268.3,198.2,267.3,200.7,266.1,202.1L266.1,202.1z"/>
		<path class="st43" d="M273.1,158.8c1.4,0.6,2.2,2.6,2.6,6.4c0.2,1.7,0,4-0.5,6.7c-0.2-0.1-0.5-0.1-0.7-0.2
			C275.4,166.7,275.6,161,273.1,158.8L273.1,158.8z"/>
	</g>
	<g>
		<path class="st27" d="M237.6,196.2c-3.5-3.5-8.6-8.9-11.2-11.6c-8.8-9,1.5-16.9,9.9-13.5c8.3,3.4,12.6,7.4,15.6,15.9
			C257,200.7,245.9,204.5,237.6,196.2L237.6,196.2z"/>
		<path class="st26" d="M237.6,196.2c-3.5-3.5-12.9-11.7-14-15.9c3.2,3.5,21.2,22.3,29.5,11.6C254.2,202.9,244.2,202.8,237.6,196.2
			L237.6,196.2z"/>
		<path class="st70" d="M235.2,172.1c7.9,2.7,17.5,14.7,7.8,9.4c-4.9-2.7-5.3-3.6-11.2-4.7C224.6,176.2,229,169.9,235.2,172.1
			L235.2,172.1z"/>
	</g>
	<g>
		<path class="st24" d="M264.3,302.8c-3.5-3.5-8.6-8.9-11.2-11.6c-8.8-9,1.5-16.9,9.9-13.5c8.3,3.4,12.6,7.4,15.6,15.9
			C283.6,307.3,272.6,311.1,264.3,302.8L264.3,302.8z"/>
		<path class="st23" d="M264.3,302.8c-3.5-3.5-12.9-11.7-14-15.9c3.2,3.5,21.2,22.3,29.5,11.6C280.8,309.6,270.9,309.4,264.3,302.8
			L264.3,302.8z"/>
		<path class="st71" d="M261.8,278.7c7.9,2.7,17.5,14.7,7.8,9.4c-4.9-2.7-5.3-3.6-11.2-4.7C251.3,282.8,255.6,276.6,261.8,278.7
			L261.8,278.7z"/>
	</g>
	<g>
		<path class="st29" d="M343.1,290c-3.5-3.5-8.6-8.9-11.2-11.6c-8.8-9,1.5-16.9,9.9-13.5c8.3,3.4,12.6,7.4,15.7,15.9
			C362.4,294.5,351.4,298.3,343.1,290L343.1,290z"/>
		<path class="st30" d="M343.1,290c-3.5-3.5-12.9-11.7-14-15.9c3.2,3.5,21.2,22.3,29.5,11.6C359.6,296.7,349.7,296.6,343.1,290
			L343.1,290z"/>
		<path class="st31" d="M340.6,265.8c7.9,2.7,17.5,14.7,7.8,9.4c-4.9-2.7-5.3-3.6-11.2-4.7C330,269.9,334.4,263.7,340.6,265.8
			L340.6,265.8z"/>
	</g>
	<g>
		<path class="st72" d="M360,188.9c-3.5-3.5-8.6-8.9-11.2-11.6c-8.8-9,1.5-16.9,9.9-13.5c8.3,3.4,12.6,7.4,15.6,15.9
			C379.3,193.4,368.3,197.2,360,188.9L360,188.9z"/>
		<path class="st73" d="M360,188.9c-3.5-3.5-12.9-11.7-14-15.9c3.2,3.5,21.2,22.3,29.5,11.6C376.6,195.7,366.6,195.5,360,188.9
			L360,188.9z"/>
		<path class="st74" d="M357.6,164.8c7.9,2.7,17.5,14.7,7.8,9.4c-4.9-2.7-5.3-3.6-11.2-4.7C347,168.8,351.3,162.6,357.6,164.8
			L357.6,164.8z"/>
	</g>
	<g>
		<path class="st75" d="M360.4,201.4c-5,0.1-12.4,0-16.1,0c-12.6,0.1-11.2-12.8-2.8-16.5c8.3-3.6,14-3.9,22.3-0.3
			C377,190.6,372.1,201.2,360.4,201.4L360.4,201.4z"/>
		<path class="st76" d="M360.4,201.4c-5,0.1-17.3,1.2-21.1-0.9c4.7,0.1,30.8,0.1,28.9-13.2C376.7,194.2,369.7,201.2,360.4,201.4
			L360.4,201.4z"/>
		<path class="st77" d="M341.3,186.4c7.4-3.8,22.8-2.4,12.2,0.9c-5.3,1.7-6.3,1.4-11.2,4.8C336.9,196.9,335.4,189.4,341.3,186.4
			L341.3,186.4z"/>
	</g>
	<g>
		<path class="st53" d="M304.8,228.2c-3.5-3.5-8.6-8.9-11.2-11.6c-8.8-9,1.5-16.9,9.9-13.5c8.3,3.4,12.6,7.4,15.6,15.9
			C324.1,232.7,313.1,236.5,304.8,228.2L304.8,228.2z"/>
		<path class="st54" d="M304.8,228.2c-3.5-3.5-12.9-11.7-14-15.9c3.2,3.5,21.2,22.3,29.5,11.6C321.4,234.9,311.4,234.8,304.8,228.2
			L304.8,228.2z"/>
		<path class="st55" d="M302.4,204c7.9,2.7,17.5,14.7,7.8,9.4c-4.9-2.7-5.3-3.6-11.2-4.7C291.8,208.1,296.2,201.9,302.4,204
			L302.4,204z"/>
	</g>
	<g>
		<path class="st78" d="M277.2,185.6c7.1,0,12.9,5.8,12.9,12.9s-5.8,12.9-12.9,12.9s-12.9-5.8-12.9-12.9S270,185.6,277.2,185.6
			L277.2,185.6z"/>
		<path class="st79" d="M265.2,203.3c-0.6-1.5-0.9-3.1-0.9-4.7c0-6.7,5.1-12.2,11.7-12.8c12.3,1.2,13.5,12.2,8.6,18.7
			C280.2,210.1,271,212.3,265.2,203.3L265.2,203.3z"/>
		<path class="st80" d="M268.2,191.1c3.5-4.4,11.5-5.9,15.9-0.6c2.9,3.4,0.2,1.8-1.3,0.9c-3.9-2.4-8.3-1.5-11.5,3
			c-2.8,3.8-3,9,1,11.9c1.2,0.9,1.9,1.8-0.6,1C265.2,205.1,263.8,196.7,268.2,191.1L268.2,191.1z"/>
		<path class="st13" d="M272,190.6c1.3,0,2.4,1.1,2.4,2.4s-1.1,2.4-2.4,2.4s-2.4-1.1-2.4-2.4S270.7,190.6,272,190.6L272,190.6z"/>
		<path class="st13" d="M269.3,196.7c0.7,0,1.4,0.6,1.4,1.3s-0.6,1.4-1.4,1.4c-0.7,0-1.4-0.6-1.4-1.4
			C268,197.3,268.6,196.7,269.3,196.7L269.3,196.7z"/>
	</g>
	<g>
		<path class="st81" d="M363.9,263c7.1,0,12.9,5.8,12.9,12.9s-5.8,12.9-12.9,12.9S351,283,351,275.9S356.7,263,363.9,263L363.9,263z
			"/>
		<path class="st82" d="M351.9,280.6c-0.6-1.5-0.9-3.1-0.9-4.7c0-6.7,5.1-12.2,11.7-12.8c12.3,1.2,13.5,12.2,8.6,18.7
			C366.9,287.4,357.7,289.7,351.9,280.6L351.9,280.6z"/>
		<path class="st83" d="M354.9,268.4c3.5-4.4,11.5-5.9,15.9-0.6c2.9,3.4,0.2,1.8-1.3,0.9c-3.9-2.4-8.3-1.5-11.5,3
			c-2.8,3.8-3,9,1,11.9c1.2,0.9,1.9,1.8-0.6,1C352,282.5,350.5,274,354.9,268.4L354.9,268.4z"/>
		<path class="st13" d="M358.7,268c1.3,0,2.4,1.1,2.4,2.4s-1.1,2.4-2.4,2.4s-2.4-1.1-2.4-2.4C356.3,269.1,357.4,268,358.7,268
			L358.7,268z"/>
		<path class="st13" d="M356,274.1c0.7,0,1.4,0.6,1.4,1.4c0,0.7-0.6,1.4-1.4,1.4c-0.7,0-1.4-0.6-1.4-1.4
			C354.7,274.7,355.3,274.1,356,274.1L356,274.1z"/>
	</g>
	<g>
		<path class="st84" d="M254.5,250.6c7.1,0,12.9,5.8,12.9,12.9s-5.8,12.9-12.9,12.9s-12.9-5.8-12.9-12.9
			C241.6,256.4,247.3,250.6,254.5,250.6L254.5,250.6z"/>
		<path class="st85" d="M242.5,268.2c-0.6-1.5-0.9-3.1-0.9-4.7c0-6.7,5.1-12.2,11.7-12.8c12.3,1.2,13.5,12.2,8.6,18.7
			C257.5,275.1,248.3,277.3,242.5,268.2L242.5,268.2z"/>
		<path class="st86" d="M245.6,256.1c3.5-4.4,11.4-5.9,15.9-0.6c2.9,3.4,0.2,1.8-1.3,0.9c-3.9-2.4-8.3-1.5-11.5,3
			c-2.8,3.8-3,9,1,11.9c1.2,0.9,1.9,1.8-0.6,1C242.6,270.1,241.1,261.6,245.6,256.1L245.6,256.1z"/>
		<path class="st13" d="M249.4,255.6c1.3,0,2.4,1.1,2.4,2.4s-1.1,2.4-2.4,2.4s-2.4-1.1-2.4-2.4C246.9,256.7,248,255.6,249.4,255.6
			L249.4,255.6z"/>
		<path class="st13" d="M246.6,261.7c0.7,0,1.4,0.6,1.4,1.4c0,0.7-0.6,1.4-1.4,1.4c-0.7,0-1.4-0.6-1.4-1.4
			C245.3,262.3,245.9,261.7,246.6,261.7L246.6,261.7z"/>
	</g>
	<g>
		<path class="st44" d="M327.4,197.3c4.7,5.4,4.1,13.5-1.3,18.2s-13.5,4.1-18.2-1.3c-4.7-5.4-4.1-13.5,1.3-18.2
			C314.6,191.4,322.7,192,327.4,197.3L327.4,197.3z"/>
		<path class="st45" d="M306.2,199.8c0.7-1.4,1.7-2.7,3-3.8c5.1-4.4,12.6-4.1,17.4,0.4c7.1,10.1-0.3,18.2-8.5,18.7
			C310.9,215.6,303.2,210.1,306.2,199.8L306.2,199.8z"/>
		<path class="st46" d="M317.4,194.2c5.6-0.2,11.9,4.8,10.9,11.6c-0.7,4.5-1.3,1.3-1.6-0.4c-0.8-4.5-4.3-7.2-9.8-6.8
			c-4.7,0.4-8.8,3.7-8.4,8.6c0.1,1.5-0.1,2.6-1.1,0.2C304.8,201.1,310.3,194.5,317.4,194.2L317.4,194.2z"/>
		<path class="st13" d="M320.2,196.8c0.9,1,0.8,2.6-0.2,3.4c-1,0.9-2.5,0.8-3.4-0.2s-0.8-2.6,0.2-3.4
			C317.8,195.6,319.4,195.7,320.2,196.8L320.2,196.8z"/>
		<path class="st13" d="M313.9,198.7c0.5,0.6,0.4,1.4-0.1,1.9c-0.6,0.5-1.4,0.4-1.9-0.1c-0.5-0.6-0.4-1.4,0.1-1.9
			C312.5,198.1,313.4,198.1,313.9,198.7L313.9,198.7z"/>
	</g>
	<g>
		<g>
			<path class="st1" d="M333,163.8c0-1.5-1.2-2.8-2.8-2.8s-2.8,1.2-2.8,2.8v84.7c0,1.5,1.2,1.9,2.8,1.9s2.8-0.3,2.8-1.9V163.8
				L333,163.8z"/>
			<path class="st2" d="M330.1,171.5c0-1-0.4-1.8-0.8-1.8c-0.5,0-0.8,0.8-0.8,1.8v76.2c0,1,0.4,1,0.8,1c0.5,0,0.8,0,0.8-1V171.5
				L330.1,171.5z"/>
		</g>
		<g>
			<path class="st3" d="M332.5,139.4c13.3,0,24.1,10.8,24.1,24.1s-10.8,24.1-24.1,24.1s-24.1-10.8-24.1-24.1
				S319.1,139.4,332.5,139.4L332.5,139.4z"/>
			<path class="st87" d="M356.5,165.1c-0.3,4.7-1.9,9-4.5,12.5l-2.8-0.5L350,167l2.4-1.9H356.5L356.5,165.1z"/>
			<path class="st87" d="M347.6,144.8c2.8,2.3,5.1,5.2,6.6,8.5l-5-0.2l-8.8-8.8L347.6,144.8L347.6,144.8z"/>
			<path class="st87" d="M332.5,139.4c2.2,0,4.4,0.3,6.4,0.9c-3.1-0.3-7.4,0.1-10.5,0.7c-0.8,0-8.6,2.6-10,3
				C322.4,141.1,327.2,139.4,332.5,139.4L332.5,139.4z"/>
			<path class="st88" d="M316.3,144.2c3.5-2.1,7.7-3.2,12.1-3.2c-7.7,7.1-5.9,19.9,0,24.1C321.2,164.3,313.2,154.2,316.3,144.2
				L316.3,144.2L316.3,144.2z"/>
			<path class="st88" d="M316.3,185.9c-3.5-2.1-6.6-5-8.8-8.8c10,3.2,20.1-4.9,20.9-12.1C331.3,171.7,326.6,183.7,316.3,185.9
				L316.3,185.9L316.3,185.9z"/>
			<path class="st88" d="M352.5,165.1c0,4.1-1,8.2-3.2,12.1c-2.3-10.2-14.3-15-20.9-12.1C332.6,159.2,345.4,157.3,352.5,165.1
				L352.5,165.1L352.5,165.1z"/>
			<path class="st88" d="M304.3,165.1c0-4.1,1-8.2,3.2-12.1c2.3,10.2,14.3,15,20.9,12.1C324.1,170.9,311.4,172.8,304.3,165.1
				L304.3,165.1L304.3,165.1z"/>
			<path class="st88" d="M340.4,185.9c-3.5,2.1-7.7,3.2-12.1,3.2c7.7-7.1,5.9-19.9,0-24.1C335.6,165.8,343.6,175.9,340.4,185.9
				L340.4,185.9L340.4,185.9z"/>
			<path class="st88" d="M340.4,144.2c3.5,2,6.6,5,8.8,8.8c-10-3.2-20.1,4.9-20.9,12.1C325.4,158.5,330.2,146.5,340.4,144.2
				L340.4,144.2L340.4,144.2z"/>
			<path class="st6" d="M307.5,153c2-3.6,5-6.6,8.8-8.8c-3.2,10,4.9,20.2,12,20.9C321.8,168,309.8,163.3,307.5,153L307.5,153
				L307.5,153z"/>
			<path class="st6" d="M328.4,189.2c-4.1,0-8.2-1-12-3.2c10.2-2.3,15-14.3,12-20.9C334.2,169.3,336.1,182.1,328.4,189.2
				L328.4,189.2L328.4,189.2z"/>
			<path class="st6" d="M349.2,153c2,3.6,3.2,7.7,3.2,12.1c-7.1-7.7-19.9-5.9-24.1,0C329.1,157.9,339.2,149.9,349.2,153L349.2,153
				L349.2,153z"/>
			<path class="st6" d="M307.5,177.1c-2-3.6-3.2-7.7-3.2-12.1c7.1,7.7,19.9,5.9,24.1,0C327.6,172.3,317.5,180.3,307.5,177.1
				L307.5,177.1L307.5,177.1z"/>
			<path class="st6" d="M349.2,177.1c-2,3.6-5,6.6-8.8,8.8c3.2-10-4.9-20.2-12-20.9C335,162.1,347,166.9,349.2,177.1L349.2,177.1
				L349.2,177.1z"/>
			<path class="st6" d="M328.4,141c4.1,0,8.2,1,12,3.2c-10.2,2.3-15,14.3-12,20.9C322.5,160.8,320.6,148.1,328.4,141L328.4,141
				L328.4,141z"/>
		</g>
	</g>
	<g>
		<g>
			<path class="st1" d="M207.6,171.6c-0.5-1.4-2.1-2.1-3.6-1.6c-1.4,0.5-2.1,2.1-1.6,3.6l30.3,79.1c0.5,1.4,1.8,1.3,3.2,0.7
				s2.4-1.3,1.9-2.7L207.6,171.6L207.6,171.6z"/>
			<path class="st2" d="M207.6,179.8c-0.4-0.9-1-1.6-1.4-1.4c-0.4,0.2-0.5,1.1-0.1,2l27.3,71.1c0.4,0.9,0.7,0.8,1.1,0.6
				c0.4-0.2,0.8-0.3,0.4-1.2L207.6,179.8L207.6,179.8z"/>
		</g>
		<g>
			<path class="st3" d="M198.4,149c12.4-4.8,26.4,1.4,31.1,13.9s-1.4,26.4-13.9,31.1s-26.4-1.4-31.1-13.9
				C179.7,167.7,185.9,153.8,198.4,149L198.4,149z"/>
			<path class="st89" d="M230,164.4c1.4,4.5,1.4,9.1,0.3,13.3l-2.8,0.5l-2.9-9.7l1.6-2.7L230,164.4L230,164.4z"/>
			<path class="st89" d="M214.4,148.6c3.4,1.1,6.6,3,9.2,5.5l-4.8,1.6l-11.4-5.1L214.4,148.6L214.4,148.6z"/>
			<path class="st89" d="M198.4,149c2.1-0.8,4.2-1.3,6.3-1.5c-3,0.8-6.9,2.8-9.6,4.4c-0.7,0.3-7.1,5.5-8.2,6.4
				C189.5,154.2,193.4,150.9,198.4,149L198.4,149z"/>
			<path class="st90" d="M185,159.2c2.6-3.2,6-5.8,10.1-7.3c-4.7,9.4,1.6,20.7,8.6,22.5C196.8,176.3,185.6,169.7,185,159.2
				L185,159.2L185,159.2z"/>
			<path class="st90" d="M199.9,198.2c-4.1-0.6-8-2.3-11.4-5.1c10.5-0.6,17.1-11.8,15.2-18.7C208.8,179.5,208.7,192.4,199.9,198.2
				L199.9,198.2L199.9,198.2z"/>
			<path class="st90" d="M226.2,165.8c1.5,3.8,2,8.1,1.3,12.4c-5.8-8.8-18.7-8.9-23.8-3.8C205.6,167.4,216.8,161.1,226.2,165.8
				L226.2,165.8L226.2,165.8z"/>
			<path class="st90" d="M181.2,183.1c-1.5-3.8-2-8.1-1.3-12.4c5.8,8.8,18.7,8.9,23.8,3.8C201.9,181.4,190.6,187.7,181.2,183.1
				L181.2,183.1L181.2,183.1z"/>
			<path class="st90" d="M222.4,189.6c-2.6,3.2-6,5.8-10.1,7.3c4.7-9.4-1.6-20.7-8.6-22.5C210.7,172.5,221.8,179.1,222.4,189.6
				L222.4,189.6L222.4,189.6z"/>
			<path class="st90" d="M207.5,150.6c4.1,0.6,8,2.3,11.4,5.1c-10.5,0.6-17.1,11.8-15.2,18.7C198.6,169.3,198.7,156.4,207.5,150.6
				L207.5,150.6L207.5,150.6z"/>
			<path class="st6" d="M179.9,170.6c0.6-4.1,2.3-8,5.1-11.4c0.6,10.5,11.8,17.1,18.7,15.2C198.6,179.5,185.7,179.4,179.9,170.6
				L179.9,170.6L179.9,170.6z"/>
			<path class="st6" d="M212.4,196.9c-3.8,1.5-8.1,2-12.4,1.3c8.8-5.8,8.9-18.7,3.8-23.8C210.7,176.3,217,187.5,212.4,196.9
				L212.4,196.9L212.4,196.9z"/>
			<path class="st6" d="M218.9,155.7c3.2,2.6,5.8,6,7.3,10.1c-9.4-4.7-20.7,1.7-22.5,8.6C201.8,167.4,208.4,156.3,218.9,155.7
				L218.9,155.7L218.9,155.7z"/>
			<path class="st6" d="M188.5,193.2c-3.2-2.6-5.8-6-7.3-10.1c9.4,4.7,20.7-1.7,22.5-8.6C205.6,181.4,199,192.5,188.5,193.2
				L188.5,193.2L188.5,193.2z"/>
			<path class="st6" d="M227.5,178.2c-0.6,4.1-2.3,8-5.1,11.4c-0.6-10.5-11.8-17.1-18.7-15.2C208.8,169.3,221.7,169.4,227.5,178.2
				L227.5,178.2L227.5,178.2z"/>
			<path class="st6" d="M195.1,151.9c3.8-1.5,8.1-2,12.4-1.3c-8.8,5.8-8.9,18.7-3.8,23.8C196.7,172.6,190.4,161.3,195.1,151.9
				L195.1,151.9L195.1,151.9z"/>
		</g>
	</g>
	<g>
		<path class="st24" d="M227.2,219c-4.9-1-12.1-2.8-15.7-3.6c-12.3-2.7-8-15,0.9-16.7s14.6-0.7,21.8,4.7
			C245.8,212.2,238.6,221.4,227.2,219L227.2,219z"/>
		<path class="st23" d="M227.2,219c-4.9-1-17.2-2.7-20.4-5.6c4.6,1.2,29.9,7,31.1-6.4C244.7,215.6,236.3,220.9,227.2,219L227.2,219z
			"/>
		<path class="st71" d="M211.9,200.1c8.1-2,22.7,2.7,11.7,3.6c-5.6,0.4-6.4-0.1-12,2.1C205.3,209.3,205.5,201.7,211.9,200.1
			L211.9,200.1z"/>
	</g>
	<g>
		<g>
			<path class="st1" d="M396.6,184.6c0.6-1.3,0-2.7-1.3-3.3c-1.3-0.6-2.7,0-3.3,1.3l-31.4,70.3c-0.6,1.3,0.3,2,1.6,2.6
				s2.4,0.8,3-0.5L396.6,184.6L396.6,184.6z"/>
			<path class="st2" d="M391.4,189.9c0.4-0.8,0.4-1.7,0-1.8c-0.4-0.2-1,0.4-1.4,1.2l-28.3,63.2c-0.4,0.8,0,0.9,0.3,1.1
				c0.4,0.2,0.7,0.3,1.1-0.5L391.4,189.9L391.4,189.9z"/>
		</g>
		<g>
			<path class="st7" d="M401.1,168.4c9.3,4.2,13.5,15.1,9.3,24.3c-4.2,9.3-15.1,13.5-24.4,9.3c-9.3-4.1-13.5-15.1-9.3-24.3
				C380.9,168.4,391.8,164.2,401.1,168.4L401.1,168.4z"/>
			<path class="st8" d="M377.8,190.6c12.2,23.8,40.2,4.7,30.5-13.5C409.4,193.4,391,203.3,377.8,190.6L377.8,190.6z"/>
			<path class="st9" d="M387.8,169.1c6.3-2.2,16.5-1,20.9,8.3c-13.2-11.6-34.7,2.1-27,18.7C372.4,187.4,376.1,173.1,387.8,169.1
				L387.8,169.1z"/>
			<path class="st10" d="M401.1,168.4c6.3,2.8,10.2,8.7,10.8,15.1c-8.9,6.8-21.2,8.6-32.1,3.7c-1.6-0.7-3.2-1.6-4.6-2.6
				c0.1-2.3,0.6-4.7,1.6-6.9C380.9,168.4,391.8,164.2,401.1,168.4L401.1,168.4z"/>
			<path class="st11" d="M410.3,184.6c0-2.4-0.7-5-2-7.5c0.2,3.6-0.5,6.9-1.8,9.7C407.8,186.2,409,185.5,410.3,184.6L410.3,184.6z"
				/>
			<path class="st12" d="M387.8,169.1c6.3-2.2,16.5-1,20.9,8.3c-10.8-9.4-27.1-2.1-28.5,9.9c-0.1-0.1-0.2-0.1-0.3-0.1
				c-1.2-0.5-2.3-1.1-3.3-1.7C376,178.6,380.2,171.7,387.8,169.1L387.8,169.1z"/>
			<path class="st13" d="M388.9,174.9c0.8,0.3,1.1,1.2,0.8,2c-0.3,0.8-1.2,1.1-2,0.8c-0.8-0.3-1.1-1.2-0.8-2
				C387.2,174.9,388.1,174.6,388.9,174.9L388.9,174.9z"/>
			<path class="st13" d="M395.1,171c1.6,0.7,2.3,2.6,1.6,4.2c-0.7,1.6-2.6,2.3-4.1,1.6c-1.6-0.7-2.3-2.6-1.6-4.2
				C391.6,171,393.5,170.3,395.1,171L395.1,171z"/>
		</g>
	</g>
	<g>
		<g>
			<path class="st1" d="M242.7,190.9c0.5-1.2-0.1-2.5-1.2-3c-1.2-0.5-2.5,0.1-3,1.2l-27,64.6c-0.5,1.2,0.4,1.8,1.5,2.3
				c1.2,0.5,2.2,0.6,2.7-0.5L242.7,190.9L242.7,190.9z"/>
			<path class="st2" d="M238.1,195.8c0.3-0.8,0.3-1.5-0.1-1.7c-0.4-0.2-0.9,0.3-1.2,1.1l-24.3,58.1c-0.3,0.8,0,0.9,0.3,1
				s0.6,0.3,0.9-0.5L238.1,195.8L238.1,195.8z"/>
		</g>
		<g>
			<path class="st91" d="M246.5,176.1c8.5,3.6,12.6,13.4,9,21.9s-13.4,12.6-21.9,9s-12.6-13.4-9-21.9
				C228.1,176.5,237.9,172.5,246.5,176.1L246.5,176.1z"/>
			<path class="st92" d="M225.8,196.8c11.6,21.3,36.6,3.4,27.4-12.9C254.6,198.6,238.1,208,225.8,196.8L225.8,196.8z"/>
			<path class="st93" d="M234.4,177c5.7-2.1,14.9-1.3,19.1,7.1c-12.3-10.2-31.5,2.6-24.1,17.6C220.8,194,223.8,180.9,234.4,177
				L234.4,177z"/>
			<path class="st94" d="M246.5,176.1c5.8,2.4,9.5,7.7,10.2,13.5c-8,6.3-19.1,8.3-29.1,4.1c-1.5-0.6-2.9-1.4-4.3-2.2
				c0-2.1,0.4-4.2,1.3-6.3C228.1,176.5,237.9,172.5,246.5,176.1L246.5,176.1z"/>
			<path class="st95" d="M255.2,190.6c-0.1-2.2-0.7-4.5-2-6.8c0.3,3.3-0.3,6.3-1.4,8.8C252.9,192.1,254.1,191.4,255.2,190.6
				L255.2,190.6z"/>
			<path class="st96" d="M234.4,177c5.7-2.1,14.9-1.3,19.1,7.1c-10-8.3-24.6-1.3-25.7,9.6c-0.1,0-0.2-0.1-0.3-0.1
				c-1.1-0.4-2.1-0.9-3.1-1.5C223.9,185.8,227.6,179.5,234.4,177L234.4,177z"/>
			<path class="st13" d="M235.5,182.3c0.7,0.3,1,1.1,0.7,1.8c-0.3,0.7-1.1,1-1.8,0.7s-1-1.1-0.7-1.8
				C234,182.3,234.8,182,235.5,182.3L235.5,182.3z"/>
			<path class="st13" d="M241.1,178.6c1.4,0.6,2.1,2.3,1.5,3.7s-2.3,2.1-3.7,1.5c-1.4-0.6-2.1-2.3-1.5-3.7
				C237.9,178.6,239.6,177.9,241.1,178.6L241.1,178.6z"/>
		</g>
	</g>
	<g>
		<path class="st79" d="M246.9,224.6c-4.4,2.4-11,5.8-14.2,7.5c-11.1,6-15.9-6.2-10.2-13.2c5.6-7,10.6-10,19.6-10.6
			C256.6,207.3,257.1,218.9,246.9,224.6L246.9,224.6z"/>
		<path class="st78" d="M246.9,224.6c-4.4,2.4-14.8,9.1-19.1,9c4.2-2.1,27.3-14.2,19.4-25.1C258,210.6,255,220.1,246.9,224.6
			L246.9,224.6z"/>
		<path class="st97" d="M223,220.2c4.8-6.8,19-12.8,11.2-4.9c-3.9,4-4.9,4.1-7.7,9.4C224,231.5,219.2,225.6,223,220.2L223,220.2z"/>
	</g>
	<g>
		<path class="st20" d="M383.1,219.2c-3.2-4.1-7.8-10.3-10.1-13.4c-8-10.5,3.7-17.4,12-12.7c8.2,4.6,12.1,9.2,14.2,18.4
			C402.5,226.3,390.6,228.9,383.1,219.2L383.1,219.2z"/>
		<path class="st21" d="M383.1,219.2c-3.2-4.1-11.9-13.7-12.5-18.2c2.9,4,19.2,25.8,29.2,15.8C399.4,228.3,389.1,226.9,383.1,219.2
			L383.1,219.2z"/>
		<path class="st22" d="M383.5,193.9c7.8,3.8,16.4,17.5,7,10.7c-4.8-3.4-5.1-4.4-11-6.3C372.1,196.8,377.4,190.9,383.5,193.9
			L383.5,193.9z"/>
	</g>
	<g>
		<path class="st51" d="M207.8,189.2c7.1,0,12.9,5.8,12.9,12.9s-5.8,12.9-12.9,12.9s-12.9-5.8-12.9-12.9S200.6,189.2,207.8,189.2
			L207.8,189.2z"/>
		<path class="st50" d="M195.8,206.8c-0.6-1.5-0.9-3.1-0.9-4.7c0-6.7,5.1-12.2,11.7-12.8c12.3,1.2,13.6,12.2,8.6,18.7
			C210.8,213.6,201.6,215.9,195.8,206.8L195.8,206.8z"/>
		<path class="st98" d="M198.9,194.6c3.5-4.4,11.4-5.9,15.9-0.6c2.9,3.4,0.2,1.8-1.3,0.9c-3.9-2.4-8.3-1.5-11.5,3
			c-2.8,3.8-3,9,1,11.9c1.2,0.9,1.9,1.8-0.6,1C195.9,208.7,194.4,200.2,198.9,194.6L198.9,194.6z"/>
		<path class="st13" d="M202.7,194.2c1.3,0,2.4,1.1,2.4,2.4c0,1.3-1.1,2.4-2.4,2.4s-2.4-1.1-2.4-2.4
			C200.2,195.3,201.3,194.2,202.7,194.2L202.7,194.2z"/>
		<path class="st13" d="M199.9,200.2c0.7,0,1.4,0.6,1.4,1.4c0,0.7-0.6,1.4-1.4,1.4c-0.7,0-1.4-0.6-1.4-1.4
			C198.6,200.9,199.2,200.2,199.9,200.2L199.9,200.2z"/>
	</g>
	<g>
		<g>
			<path class="st99" d="M338.7,229c2.6,6.4,5.3,12.6,8.3,20.1c4.3,1.9,7.8,1.5,11.2-1.2c0.2-0.7,3.4-13.9,4.7-20.2
				C356.8,233.5,347.4,235.4,338.7,229L338.7,229z"/>
			<path class="st100" d="M347.1,249.1l0.4,1.1c3.5,8.7,8.1,9.1,10.3-0.2l0.5-2.1C354.9,250.6,351.4,251,347.1,249.1L347.1,249.1z"
				/>
			<path class="st101" d="M333,213.2c1.9,5.9,3.8,10.9,5.7,15.7c8.7,6.4,18,4.5,24.3-1.3c1.2-5.6,2.3-11.3,3.3-18.2
				C355.2,210.7,344.1,212,333,213.2L333,213.2z"/>
		</g>
		<g>
			<path class="st38" d="M353.7,232.6c-3.7,0.8-7.7,0.4-11.7-1.6c1.3,3.5,2.6,6.9,4.1,10.2c1.9,4.2,3.3,6.1,5.3,1.2
				C352.5,239.8,353.2,236.2,353.7,232.6L353.7,232.6z"/>
			<path class="st39" d="M342,231c4,2,8,2.4,11.7,1.6c0.4-2.9,0.8-5.8,1.2-8.1c-5.1,2.9-11.9,1.3-15.9-2
				C340,225.3,341,228.1,342,231L342,231z"/>
		</g>
		<path class="st102" d="M355,249.7c1.1-0.4,2.2-1,3.3-1.9c0.2-0.7,3.4-13.9,4.7-20.2c-0.8,0.8-1.7,1.4-2.6,2.1
			c-1.4,7.2-3,13.9-4.8,18.7C355.4,248.9,355.2,249.3,355,249.7L355,249.7z"/>
		<path class="st103" d="M348.6,252.6c3.3,6.2,7.2,5.6,9.2-2.7l0.5-2.1c-1.1,0.8-2.1,1.5-3.3,1.9
			C353.5,252.8,351.3,254.2,348.6,252.6L348.6,252.6z"/>
		<path class="st104" d="M360.4,229.8c0.9-0.6,1.8-1.3,2.6-2.1c1.2-5.6,2.3-11.3,3.3-18.2l-2.6,0.3
			C362.8,216.2,361.7,223.2,360.4,229.8L360.4,229.8z"/>
		<path class="st105" d="M338.9,219.6c3.7,2.3,7.4,3.1,10.8,3.1c15.6,0,25.7-20.2,4.8-24.5C339.9,195.2,323,209.5,338.9,219.6
			L338.9,219.6z"/>
		<path class="st106" d="M341.2,216.9c2.9,1.8,5.8,2.5,8.5,2.5c12.4,0,20.4-16.1,3.8-19.4C342,197.6,328.6,208.9,341.2,216.9
			L341.2,216.9z"/>
	</g>
	<g>
		<path class="st107" d="M264.1,231.3c-4.8-4.8-11.6-12.1-15.2-15.7c-12-12.2,2-23,13.4-18.3c11.3,4.7,17,10,21.2,21.6
			C290.3,237.4,275.3,242.6,264.1,231.3L264.1,231.3z"/>
		<path class="st108" d="M264.1,231.3c-4.8-4.8-17.5-15.8-19-21.5c4.3,4.7,28.8,30.2,40.1,15.8C286.5,240.5,273,240.2,264.1,231.3
			L264.1,231.3z"/>
		<path class="st109" d="M260.7,198.6c10.7,3.7,23.8,19.9,10.6,12.8c-6.7-3.6-7.2-4.8-15.2-6.4C246.4,204.1,252.3,195.7,260.7,198.6
			L260.7,198.6z"/>
	</g>
	<g>
		<g>
			<path class="st1" d="M278.1,228.9c0-1.5-1.2-2.8-2.8-2.8s-2.8,1.2-2.8,2.8v84.7c0,1.5,1.2,1.9,2.8,1.9s2.8-0.3,2.8-1.9V228.9
				L278.1,228.9z"/>
			<path class="st2" d="M275.2,236.5c0-1-0.4-1.8-0.8-1.8c-0.5,0-0.8,0.8-0.8,1.8v76.2c0,1,0.4,1,0.8,1c0.5,0,0.8,0,0.8-1V236.5
				L275.2,236.5z"/>
		</g>
		<g>
			<path class="st3" d="M277.6,204.4c13.3,0,24.1,10.8,24.1,24.1s-10.8,24.1-24.1,24.1c-13.3,0-24.1-10.8-24.1-24.1
				S264.3,204.4,277.6,204.4L277.6,204.4z"/>
			<path class="st110" d="M301.7,230.1c-0.3,4.7-1.9,9-4.5,12.5l-2.8-0.5l0.8-10.1l2.4-1.9H301.7L301.7,230.1z"/>
			<path class="st110" d="M292.8,209.8c2.8,2.3,5.1,5.2,6.6,8.5l-5-0.2l-8.8-8.8L292.8,209.8L292.8,209.8z"/>
			<path class="st110" d="M277.6,204.4c2.2,0,4.4,0.3,6.4,0.9c-3.1-0.3-7.4,0.1-10.5,0.7c-0.8,0-8.6,2.6-10,3
				C267.5,206.1,272.4,204.4,277.6,204.4L277.6,204.4z"/>
			<path class="st111" d="M261.5,209.2c3.5-2.1,7.7-3.2,12.1-3.2c-7.7,7.1-5.9,19.9,0,24.1C266.3,229.4,258.3,219.2,261.5,209.2
				L261.5,209.2L261.5,209.2z"/>
			<path class="st111" d="M261.5,251c-3.5-2.1-6.6-5-8.8-8.8c10,3.2,20.1-4.9,20.9-12.1C276.5,236.7,271.7,248.7,261.5,251
				L261.5,251L261.5,251z"/>
			<path class="st111" d="M297.6,230.1c0,4.1-1,8.2-3.2,12.1c-2.3-10.2-14.3-15-20.9-12.1C277.8,224.2,290.5,222.4,297.6,230.1
				L297.6,230.1L297.6,230.1z"/>
			<path class="st111" d="M249.4,230.1c0-4.1,1-8.2,3.2-12.1c2.3,10.2,14.3,15,20.9,12.1C269.3,235.9,256.5,237.8,249.4,230.1
				L249.4,230.1L249.4,230.1z"/>
			<path class="st111" d="M285.6,251c-3.5,2.1-7.7,3.2-12.1,3.2c7.7-7.1,5.9-19.9,0-24.1C280.7,230.8,288.7,240.9,285.6,251
				L285.6,251L285.6,251z"/>
			<path class="st111" d="M285.6,209.2c3.5,2,6.6,5,8.8,8.8c-10-3.2-20.1,4.9-20.9,12.1C270.6,223.5,275.3,211.5,285.6,209.2
				L285.6,209.2L285.6,209.2z"/>
			<path class="st6" d="M252.6,218c2.1-3.6,5-6.6,8.8-8.8c-3.2,10,4.9,20.1,12,20.9C266.9,233.1,254.9,228.3,252.6,218L252.6,218
				L252.6,218z"/>
			<path class="st6" d="M273.5,254.2c-4.1,0-8.2-1-12.1-3.2c10.2-2.3,15-14.3,12-20.9C279.4,234.3,281.3,247.1,273.5,254.2
				L273.5,254.2L273.5,254.2z"/>
			<path class="st6" d="M294.4,218c2,3.6,3.2,7.7,3.2,12.1c-7.1-7.7-19.9-5.9-24.1,0C274.2,222.9,284.4,214.9,294.4,218L294.4,218
				L294.4,218z"/>
			<path class="st6" d="M252.6,242.1c-2.1-3.6-3.2-7.7-3.2-12.1c7.1,7.7,19.9,5.9,24.1,0C272.8,237.3,262.7,245.3,252.6,242.1
				L252.6,242.1L252.6,242.1z"/>
			<path class="st6" d="M294.4,242.1c-2,3.6-5,6.6-8.8,8.8c3.2-10-4.9-20.1-12-20.9C280.1,227.1,292.1,231.9,294.4,242.1
				L294.4,242.1L294.4,242.1z"/>
			<path class="st6" d="M273.5,206c4.1,0,8.2,1,12.1,3.2c-10.2,2.3-15,14.3-12,20.9C267.7,225.9,265.8,213.1,273.5,206L273.5,206
				L273.5,206z"/>
		</g>
	</g>
	<g>
		<g>
			<path class="st35" d="M317.1,221.4c1.1,4.7-3.8,7.7-7.8,10c-4.5,2.6-10.8,6.3-14.2,0.1c-1.8-3.2-4-8.8-4.6-10.5
				c-2.1-6.1-6.1-19-5.7-25.3c0.4-6.7,2.4-7.9,8.6-4.1c3.5,2.1,8.6,8.2,13.4,14.1C311.7,211.9,316.3,217.9,317.1,221.4L317.1,221.4z
				"/>
			<path class="st36" d="M317.1,221.4c1.1,4.7-3.8,7.7-7.8,10c-4.5,2.6-10.8,6.3-14.2,0.1c-1.2-2.1-2.5-5.3-3.5-7.6
				c7.7-0.6,15.8-3.4,22-9.2C315.4,217.3,316.7,219.6,317.1,221.4L317.1,221.4z"/>
			<path class="st37" d="M285.5,202.5c-0.5-2.6-0.7-5-0.6-6.9c0.4-6.7,2.4-7.9,8.6-4.1c1.5,0.9,3.2,2.5,5.1,4.4
				C294.4,199,289.8,201.5,285.5,202.5L285.5,202.5z"/>
		</g>
		<path class="st38" d="M293.7,223.6c-2.9-7.6-4.2-11.6-5.7-19.5c-0.2-1.3-0.3-1.6-0.4-2.2c2.1-0.7,4.3-1.8,6.5-3
			c-0.1-0.1-0.1-0.2-0.2-0.2c0.6,0.7,1.2,1.4,1.9,2.3c5,6.3,9.6,12.9,12.1,17.9C303.5,221.4,298.6,223,293.7,223.6L293.7,223.6z"/>
		<path class="st39" d="M293.7,223.6c4.9-0.6,9.8-2.2,14.2-4.8c0.2,0.4,0.4,0.7,0.5,1.1c2.2,4.7,0.6,6.5-5,9c-4.8,2.2-7,1.9-9.6-5
			L293.7,223.6L293.7,223.6z"/>
		<path class="st40" d="M294.1,198.9c-2.1,1.2-4.3,2.3-6.5,3C286.3,193.2,288.1,191.9,294.1,198.9L294.1,198.9z"/>
		<path class="st41" d="M312.4,215.7c-1.5-2.2-3.5-4.6-5.5-7.4c-3-4.3-5.6-7.8-9-11.8c0.2-0.1,0.4-0.3,0.6-0.4
			c2.6,2.8,5.5,6.3,8.3,9.7c2.5,3.1,4.9,6.2,6.8,8.9C313.2,215,312.8,215.4,312.4,215.7L312.4,215.7z"/>
		<path class="st42" d="M317.1,221.4c1.1,4.7-3.8,7.7-7.8,10c-3.9,2.2-9.1,5.3-12.7,2.1c3.3,0.5,7.5-0.6,11.3-2.7
			c9.4-5.3,8.4-9.5,4.5-15c0.4-0.3,0.8-0.7,1.2-1C315.4,217.3,316.7,219.6,317.1,221.4L317.1,221.4z"/>
		<path class="st43" d="M286.8,189.8c1.3-0.8,3.4-0.2,6.7,1.8c1.5,0.9,3.2,2.5,5.1,4.4c-0.2,0.2-0.4,0.3-0.6,0.4
			C294.5,192.7,290,189.1,286.8,189.8L286.8,189.8z"/>
	</g>
	<g>
		<path class="st112" d="M327.1,206.4c7.1,0,12.9,5.8,12.9,12.9s-5.8,12.9-12.9,12.9s-12.9-5.8-12.9-12.9
			C314.2,212.1,320,206.4,327.1,206.4L327.1,206.4z"/>
		<path class="st113" d="M315.1,224c-0.6-1.5-0.9-3.1-0.9-4.7c0-6.7,5.1-12.2,11.7-12.8c12.3,1.2,13.5,12.2,8.6,18.7
			C330.2,230.8,321,233.1,315.1,224L315.1,224z"/>
		<path class="st114" d="M318.2,211.8c3.5-4.4,11.5-5.9,15.9-0.6c2.9,3.4,0.2,1.8-1.3,0.9c-3.9-2.4-8.3-1.5-11.5,3
			c-2.8,3.8-3,9,1,11.9c1.2,0.9,1.9,1.8-0.6,1C315.2,225.9,313.8,217.4,318.2,211.8L318.2,211.8z"/>
		<path class="st13" d="M322,211.4c1.3,0,2.4,1.1,2.4,2.4s-1.1,2.4-2.4,2.4s-2.4-1.1-2.4-2.4S320.7,211.4,322,211.4L322,211.4z"/>
		<path class="st13" d="M319.3,217.4c0.7,0,1.4,0.6,1.4,1.4c0,0.7-0.6,1.4-1.4,1.4c-0.7,0-1.4-0.6-1.4-1.4
			C318,218.1,318.6,217.4,319.3,217.4L319.3,217.4z"/>
	</g>
	<g>
		<path class="st27" d="M300.7,369.2c-3.5-3.5-8.6-8.9-11.2-11.6c-8.8-9,1.5-16.9,9.9-13.5c8.3,3.5,12.6,7.4,15.6,15.9
			C320,373.7,309,377.5,300.7,369.2L300.7,369.2z"/>
		<path class="st26" d="M300.7,369.2c-3.5-3.5-12.9-11.7-14-15.9c3.2,3.5,21.2,22.3,29.5,11.6C317.2,375.9,307.3,375.7,300.7,369.2
			L300.7,369.2z"/>
		<path class="st70" d="M298.2,345c7.9,2.7,17.5,14.7,7.8,9.4c-4.9-2.7-5.3-3.6-11.2-4.7C287.6,349.1,292,342.9,298.2,345L298.2,345
			z"/>
	</g>
</g>
<g id="pumpkin_00000013897189886996620940000001396000496017113512_">
	<g>
		<path class="st115" d="M165.8,182.6c-3.4,2.9-8.6,5.7-14.3,8.8c-44.3,24-56.5,62.1-11.7,90.9c15.9,10.2,35.7,15.8,50.9,16.5
			c0.8,0,1.7,0.1,2.7,0.1c1.6,0,2.8-0.9,2.9-2c0-1.1-1.2-2.1-2.8-2.1c-0.7,0-1.5,0-2.4-0.1c-14.1-0.7-32.6-5.9-47.5-15.5
			c-42.1-27.1-30.1-62.1,11.3-84.5c4.2-2.3,8.1-4.4,11.4-6.5L165.8,182.6L165.8,182.6z"/>
		<path class="st116" d="M195.4,295.4c-0.5-0.4-1.2-0.6-2-0.6c-0.7,0-1.5,0-2.4-0.1c-14.1-0.7-32.6-5.9-47.5-15.5
			c-42.1-27.1-30.1-62.1,11.3-84.5c4.2-2.3,8.1-4.4,11.4-6.5l-0.2-2c-1.6,1.2-3.5,2.2-5.5,3.2C78.6,230.1,118.5,289.7,195.4,295.4
			L195.4,295.4z"/>
	</g>
	<g>
		<path class="st115" d="M439,191.4c2,1.1,4,2.2,6.1,3.4c41.4,22.4,53.4,57.4,11.3,84.5c-14.9,9.6-33.4,14.8-47.5,15.5
			c-0.9,0-1.7,0.1-2.4,0.1c-1.6,0-2.8,1-2.8,2.1c0,1.1,1.3,2.1,2.9,2c1,0,1.8,0,2.7-0.1c15.1-0.7,35-6.3,50.9-16.5
			c44.8-28.8,32.6-66.9-11.7-90.9c-3.5-1.9-6.7-3.6-9.5-5.4V191.4L439,191.4z"/>
		<path class="st116" d="M439,188.3c1.4,0.8,2.8,1.6,4.3,2.4c3,1.6,6.1,3.3,9,5c23.2,13,39,34.4,31.7,54.9
			c-9.1,25.7-40.1,37.5-72.1,48c14.8-1.2,33.3-6.7,48.3-16.3c44.8-28.8,32.6-66.9-11.7-90.9c-3.5-1.9-6.7-3.6-9.5-5.4L439,188.3
			L439,188.3z"/>
	</g>
	<path class="st117" d="M307,243.8c58.1,0,105.3,27.8,105.3,62.1S365.2,368,307,368s-105.3-27.8-105.3-62.1S248.8,243.8,307,243.8
		L307,243.8z"/>
	<path class="st49" d="M431.8,194.2c0,26.7-58.4,48.2-130.5,48.2s-130.5-21.6-130.5-48.2h19.9c1.6,19.2,50.5,34.6,110.6,34.6
		s109-15.4,110.6-34.6L431.8,194.2L431.8,194.2z"/>
	<g>
		<path class="st118" d="M175,182c-16.6,8.4-29.9,26.8-36,61.2c11.8-18.2,23.2-30.5,35.1-38.3c-2.1-3.5-3.3-7.1-3.3-10.8
			C170.8,190,172.3,185.9,175,182L175,182z"/>
		<path class="st49" d="M170.9,192.7c-4.6,2.5-8.9,5.7-12.7,9.4c-11.7,11.6-12.4,25.4-16.1,40.9c11.7-17,20.4-29.4,32.3-37.6
			c-2.3-3.6-3.6-7.4-3.6-11.2C170.8,193.7,170.9,193.2,170.9,192.7L170.9,192.7z"/>
		<path class="st119" d="M174.1,183.3c-4.1,1.8-7.8,4.2-11.2,7.2c3.8-3.5,7.8-6.3,12-8.5C174.7,182.4,174.4,182.8,174.1,183.3
			L174.1,183.3z"/>
		<path class="st118" d="M172.4,201.8c-11.9,6.8-22.6,17.7-30.9,34.4c-20.5,41.4,12.6,115.6,65.6,121.7
			c-24.6-50.3,1.1-92.7,37.7-120.2C207,230.9,179.3,217.6,172.4,201.8L172.4,201.8z"/>
		<path class="st119" d="M209.4,228.4c-14.9,10.2-31.4,28.1-31.5,77.1c0,19.8,8.4,42-20.2,22c12.5,16.1,29.6,28,49.5,30.3
			c-24.6-50.3,1.1-92.7,37.7-120.2C231.7,235.3,219.7,232.2,209.4,228.4L209.4,228.4z"/>
		<path class="st118" d="M217.7,231.2c-57.9,45.4-43.9,162.6,41.8,146.1c0.5-7.8,1.4-15.4,2.7-23c-13.4-8.5-25.5-20.8-35.4-36
			c11.2,7.8,22.9,13.9,34.7,18.3c-1.6,7.6-2.5,7.4,2.3,9.3c8.5-41.9,26.4-79.6,34.4-103.4C267.6,242.1,239.6,238,217.7,231.2
			L217.7,231.2z M237.6,279.7c0.2-30.8,51.4-29.5,36.8,6.7C264,312.1,237.4,302.2,237.6,279.7L237.6,279.7z"/>
		<path class="st49" d="M204.9,243.7c7.5-7.9,13.2-11.2,17.6-11.1c1.2,0.3,2.4,0.7,3.6,1c21.8,13-11.1,145.2-42.1,89.6
			C179.7,296.6,186.6,265.8,204.9,243.7L204.9,243.7z"/>
		<path class="st119" d="M194.9,352.7c34.8,19.1,39.4,1.3,41.6-21.4c7.8,9.3,16.4,17,25.8,22.9c-1.3,7.6-2.2,15.3-2.7,23
			C228.7,383.2,207.1,371.9,194.9,352.7L194.9,352.7z M237.1,324.8c0.5-6.3,1.1-12.8,2.2-18.8c0.8-4.1,1.4-8.2,2.2-12.5
			c7.8,11.4,24.9,12.4,32.8-7.1c8.6-21.4-5.7-30.6-18.9-28.2c3.4-5.4,7.7-11.1,13-17.4c9.5,0.9,19.5,1.4,29.7,1.5
			c-8,23.8-25.8,61.7-34.4,103.5c-4.8-1.9-3.9-1.7-2.3-9.3C253.2,333.4,245.1,329.5,237.1,324.8L237.1,324.8z"/>
		<path class="st120" d="M220.9,374.7c25.2-0.2,23.2-11.3,24.2-34c2.8,2.7,5.6,5.2,8.6,7.5c1.1,9.7,3,19.5,5.8,29.1
			C244.4,380.2,231.6,378.9,220.9,374.7L220.9,374.7z M245.9,329.6c0.8-8.3,2.4-17.9,5.7-28.6c0.9,0.2,1.8,0.4,2.7,0.5
			c-1.4,9.7-2,20.3-1.7,31.3C250.3,331.8,248.1,330.8,245.9,329.6L245.9,329.6z"/>
		<path class="st118" d="M431.7,195.7c3.6,6.1,6.9,13.2,9.7,21.7c-6.7-2.1-13-3.9-18.9-5.4C428,206.9,431.2,201.4,431.7,195.7
			L431.7,195.7z"/>
		<path class="st119" d="M422.5,212c6,1.5,12.2,3.2,18.9,5.4c-2.8-8.4-6.1-15.6-9.7-21.7C431.2,201.4,428,206.9,422.5,212L422.5,212
			z"/>
		<path class="st120" d="M430.1,214c-0.2-3.7-0.5-7-1-10c1.5-2.7,2.4-5.5,2.7-8.3c3.6,6.1,6.9,13.3,9.7,21.7
			C437.5,216.1,433.8,215,430.1,214L430.1,214z"/>
		<path class="st118" d="M430,202.3c17,9.1,30.4,26.6,36.1,57.8c5.2,28.4-8.9,55.9-31.9,73.5c12.5-66.9-8.2-91.7-45.3-103.6
			C410.1,222.8,424.9,213.2,430,202.3L430,202.3z"/>
		<path class="st49" d="M410.3,220.7c6.8,7.6,11.8,18.4,13.3,33.5c-7.9-12.5-20.5-19.9-33.7-24.6
			C397.6,226.9,404.5,223.9,410.3,220.7L410.3,220.7z"/>
		<path class="st118" d="M397,227c34.1,12.6,55.8,39.3,45.5,93.1c-6.4,33.2-58.4,74.4-112.5,53.8c3.5-4.2,6.7-8.3,9.5-12.3
			c18.4-7.6,36.6-22.1,53.3-44.6c-11.3,8.8-23.5,15.3-36.1,20.1c2.6,6.2,2.4,7.4-4.9,10.5c-2,0.8-3.5,1.5-4.7,1.9
			c9.1-16.9,12.1-32.7,10.7-47.8c8.8-1.1,16.6-9.6,16.6-21.8c-0.1-19.1-19.8-25.8-31.3-19.6c-3.8-6.4-8.2-12.7-13.1-18.9
			C356,239.1,379.3,234,397,227L397,227z"/>
		<path class="st119" d="M466.1,260.1c5.2,28.4-8.9,55.9-31.9,73.5c5.5-29.3-14.3-82.7-20.1-98.3c22.6,8.3,29,27.1,34.6,37.8
			c11.1,21.6,16.1-30-8.4-53.8c-4-3.9-8.8-7.4-14.6-10.3c1.8-2.1,3.3-4.3,4.3-6.5C446.9,211.4,460.4,228.9,466.1,260.1L466.1,260.1z
			"/>
		<path class="st120" d="M396.7,227.1c26.3,9.6,45.1,24.9,51.9,56.6c2.1,9.7-1.3,29.7,7.8,17.6c7.6-10.2,9.1-15.5,10.9-28.8
			c-0.4,27.8-10.2,43.6-34.5,60.7c10.3-56.4,7.6-77.7-38.4-105.1C395.1,227.7,395.9,227.4,396.7,227.1L396.7,227.1z"/>
		<path class="st49" d="M357.9,312.1c9.4,9,18.2,12.2,25.6,11.3c3.1-2,6.2-4.2,9.2-6.5c-1.3,1.8-2.6,3.4-3.9,5.1
			c23.6-10,28.6-64.9-14.3-87.9c-13.3,3.3-28.4,5.8-44.6,7.1c4.8,6.2,9.2,12.5,13.1,18.9c11.5-6.2,31.2,0.5,31.3,19.6
			c0.1,12.2-7.8,20.8-16.6,21.8C358,305,358,308.6,357.9,312.1L357.9,312.1z"/>
		<path class="st119" d="M442.4,320c-6.4,33.2-58.4,74.4-112.5,53.8c3.5-4.2,6.7-8.3,9.5-12.3c4.5-1.9,9-4.1,13.4-6.8
			c14.8-2.3,38.9-4,57.9-26.7c33.2-39.6,14.5-78.4-24-97.3c3.6-1.1,7-2.4,10.2-3.7C431.1,239.6,452.8,266.3,442.4,320L442.4,320z"/>
		<path class="st120" d="M343.8,239.8c6.1,5.7,11,12,14.9,19c-3.8-1.1-7.8-1.2-11.5-0.3c-3.4-6.2-7.4-12.1-12-17.7
			C338.1,240.5,341,240.1,343.8,239.8L343.8,239.8z M370.1,293.6c0.7,4.3,1.3,8.8,1.7,13.5c0.8,8.2,0.9,15.8,0.5,22.8
			c-5.2,2.7-10.4,5.1-15.8,7.1c2.6,6.2,2.4,7.4-4.9,10.5c-0.5,0.2-1,0.4-1.5,0.6c5.7-13.3,9.4-27.7,8.7-46.8
			C363.2,300.4,367.3,297.7,370.1,293.6L370.1,293.6z M371.1,341c-0.4,2.2-0.8,4.3-1.3,6.2c-11,43.9,17.3,25.6,42.2,14.7
			c-23.6,14.4-48.4,26.5-75.4,13c2.9-5.5,5.8-10.7,8.4-16C353.9,354.6,362.6,348.7,371.1,341L371.1,341z"/>
		<path class="st49" d="M151.9,224.6c7.1-8.4,17.4-16.1,24.4-16.6c2,2.4,4.4,4.8,7.3,7c0.4,3.2-0.1,7.6-1.5,13.4
			c-4.8,19.1-8.6,37.6-16.4,53.8c-10.9,22.6-19.3,25-24.8,7C132.8,262.8,143.8,234.2,151.9,224.6L151.9,224.6z"/>
		<path class="st118" d="M265.4,384.9c23.4,8.9,54.1,6.9,74.1-3.6c8.6-7.4,16.3-18.5,21.4-32c-38.7,28.4-80.8,22.8-112.3-5.2
			c-0.1,6,0.1,11.8,0.4,17.1C250.1,375.7,255.1,380.9,265.4,384.9L265.4,384.9z M296.4,316.4l12.5-23.8l13.2,23.7L296.4,316.4
			L296.4,316.4z M365.6,333.2c1.8-9.2,2.5-19.2,1.5-29.6c-0.2-2.1-0.4-4-0.6-6c-8.6,7.1-22.3,5.5-29-11.2
			c-8.5-21.2,5.5-30.4,18.6-28.3c-3.8-7.5-8.4-13.3-13.6-18.2c-12.9,1.6-26.7,2.4-41.1,2.4c-8.4,0-16.5-0.3-24.5-0.9
			c-3.8,5.5-7.1,11.4-10,17.6c8.3,3.2,13.6,12.2,7.5,27.3c-4.9,12.1-13.4,16.3-21,14.9c-2,10.1-3.3,20.2-4,29.9
			c4.1,1.9,8.1,3.7,12.2,5.2c-2,9.1-2.9,7,5.8,10.8c9.5,4.1,7.1,4.5,11.4-5.5c20.8,5,40.1,5.7,60.3,0.9c3.8,8,3.6,8.7,12.6,4.8
			c7.3-3.1,7.5-4.3,4.9-10.5C359.6,335.8,362.6,334.6,365.6,333.2L365.6,333.2z"/>
		<path class="st49" d="M274.2,245.5c2.1-1.4,4.2-2.7,6.3-3.7c6.8,0.4,13.7,0.6,20.8,0.6c4.1,0,8.1-0.1,12.1-0.2
			c17.1,11.1,25.7,40.1,19.5,70.2c-3.1,15.2-10.6,26.3-19.9,33.6c-11.2,0.1-22.5-1.3-34.3-4.1c-4.2,9.9-1.9,9.5-11.4,5.5
			c-8.7-3.7-7.8-1.6-5.8-10.8c-3.5-1.3-7-2.8-10.4-4.4c-0.9-4.3-1.2-9.1-0.5-14.5s1.6-10.8,2.6-16.2c7.6,1.4,16.2-2.8,21-14.9
			c6.1-15.1,0.8-24.1-7.5-27.3C269,254.4,271.5,249.9,274.2,245.5L274.2,245.5z M296.4,316.4l12.5-23.8l13.2,23.7L296.4,316.4
			L296.4,316.4z"/>
		<path class="st119" d="M262.8,383.8c21.7,11,60,7.3,76.8-2.5c8.6-7.4,16.3-18.5,21.4-32c-10.4,7.6-21,12.8-31.5,15.7
			C312.9,380.8,289.6,389,262.8,383.8L262.8,383.8z M365.6,333.2c1.8-9.2,2.5-19.2,1.5-29.6c-0.2-2.1-0.4-4-0.6-6
			c-3.3,2.8-7.4,4.2-11.5,4c0.2,17.2-4.4,33.6-12.6,47.2c1.6,1.7,3.7,1.1,9.3-1.3c7.3-3.1,7.5-4.3,4.9-10.5
			C359.6,335.8,362.6,334.6,365.6,333.2L365.6,333.2z M356,258.2c-3.8-7.5-8.4-13.3-13.6-18.2c-3.1,0.4-6.2,0.7-9.4,1
			c4.6,6,8.5,12.1,11.5,18.4C348,257.9,352.1,257.5,356,258.2L356,258.2z"/>
	</g>
	<path class="st121" d="M237.6,279.7c0-5.3,1.6-9.6,4-13c-7,27.5,21.1,36.9,33.5,17.9c-0.2,0.6-0.5,1.2-0.7,1.9
		C264,312.1,237.4,302.2,237.6,279.7L237.6,279.7z"/>
	<path class="st121" d="M374.2,279.7c0-5.3-1.6-9.6-4-13c7,27.5-21.1,36.9-33.5,17.9c0.2,0.6,0.5,1.2,0.7,1.9
		C347.8,312.1,374.3,302.2,374.2,279.7L374.2,279.7z"/>
	<path class="st121" d="M291.2,323.4l17.6-33l19.4,32.6L291.2,323.4L291.2,323.4z M296.4,316.4l12.5-23.8l13.2,23.7L296.4,316.4
		L296.4,316.4z"/>
	<path class="st121" d="M392.6,316.9c-54.9,74.6-127.2,61-165.9,1.3C277.9,379.1,343.5,374.3,392.6,316.9L392.6,316.9z"/>
	<g>
		<path class="st118" d="M432,182.9c1.6-15.6,10.4-12.4,13.6-1.5c2.7,8.9,5,32.7,7.3,44.1c-6.5-7.9-15-15.5-24.1-19.2
			C429.6,199,431,191.7,432,182.9L432,182.9z"/>
		<path class="st119" d="M438.2,172.2c2.8,0.2,5.8,3.8,7.4,9.2c2.7,8.9,5,32.7,7.3,44.1c-2.5-3-5.3-6-8.3-8.8
			C446.8,203.3,446.8,177.4,438.2,172.2L438.2,172.2z"/>
	</g>
	<g>
		<path class="st118" d="M170.2,182.9c-1.6-15.6-10.4-12.4-13.6-1.5c-2.7,8.9-5,32.7-7.3,44.1c6.5-7.9,15.1-15.5,24.1-19.2
			C172.5,199,171.1,191.7,170.2,182.9L170.2,182.9z"/>
		<path class="st122" d="M170.2,182.9c-1-9.9-4.9-12.2-8.4-9.9c4.2,0.2,5,6.6,5,12.2c-0.1,9.7-2.5,19.1-5.5,28.3
			c3.8-3,7.9-5.6,12.1-7.3C172.5,199,171.1,191.7,170.2,182.9L170.2,182.9z"/>
	</g>
	<path class="st123" d="M335.1,343.5c1.3-0.3,2.6-0.6,3.9-0.9c2.4,5.1,3.2,7.2,5.8,7.1C338.6,350.5,337.6,348.6,335.1,343.5
		L335.1,343.5z M345.7,349.7L345.7,349.7L345.7,349.7L345.7,349.7L345.7,349.7z"/>
	<path class="st123" d="M274.1,350c1.9,0.1,2-2.1,4.6-8.1c1,0.2,1.9,0.5,2.9,0.7C280,347.6,280.1,350.4,274.1,350L274.1,350
		L274.1,350z"/>
	<g>
		<path class="st124" d="M173.6,176.9c2.3-0.2,4.5,3.1,4.9,7.5c0.4,4.4-1,8.1-3.3,8.3c-2.3,0.2-4.5-3.1-4.9-7.5
			C169.9,180.9,171.4,177.1,173.6,176.9z"/>
		<path class="st125" d="M176,177.9c1.3,1.3,2.3,3.7,2.6,6.5c0.5,4.4-1,8.1-3.3,8.3c-1.4,0.1-2.7-1-3.6-2.8
			C177.1,192.5,178.5,183.1,176,177.9L176,177.9z"/>
	</g>
	<g>
		<path class="st124" d="M427.9,176.9c2.3,0.1,4,3.7,3.8,8.1s-2.2,7.9-4.5,7.8s-4-3.7-3.8-8.1C423.6,180.3,425.6,176.8,427.9,176.9z
			"/>
		<path class="st125" d="M430.1,178.2c1.1,1.5,1.8,4,1.6,6.8c-0.2,4.4-2.2,7.9-4.5,7.8c-1.4-0.1-2.5-1.4-3.2-3.3
			C429,192.8,431.8,183.7,430.1,178.2L430.1,178.2z"/>
	</g>
</g>
</svg>
