<?xml version="1.0" encoding="utf-8"?>
<!-- Generator: Adobe Illustrator 25.4.1, SVG Export Plug-In . SVG Version: 6.00 Build 0)  -->
<svg version="1.1" id="Layer_1" xmlns="http://www.w3.org/2000/svg" xmlns:xlink="http://www.w3.org/1999/xlink" x="0px" y="0px"
	 viewBox="0 0 595.3 459" style="enable-background:new 0 0 595.3 459;" xml:space="preserve">
<style type="text/css">
	.st0{fill:#FDE5CB;}
	.st1{fill:#E6D5BC;}
	.st2{fill:#FFFCF0;}
	.st3{fill-rule:evenodd;clip-rule:evenodd;fill:#F0E7C5;}
	.st4{fill-rule:evenodd;clip-rule:evenodd;fill:#E87B8D;}
	.st5{fill-rule:evenodd;clip-rule:evenodd;fill:#FFA3B2;}
	.st6{fill-rule:evenodd;clip-rule:evenodd;fill:#FFFAE8;}
	.st7{fill-rule:evenodd;clip-rule:evenodd;fill:#DE0029;}
	.st8{fill-rule:evenodd;clip-rule:evenodd;fill:#B50021;}
	.st9{fill-rule:evenodd;clip-rule:evenodd;fill:#F56273;}
	.st10{fill-rule:evenodd;clip-rule:evenodd;fill:#ED2F46;}
	.st11{fill-rule:evenodd;clip-rule:evenodd;fill:#CC0025;}
	.st12{fill-rule:evenodd;clip-rule:evenodd;fill:#FF7A8A;}
	.st13{fill-rule:evenodd;clip-rule:evenodd;fill:#FFFFFF;}
	.st14{fill-rule:evenodd;clip-rule:evenodd;fill:#C4066F;}
	.st15{fill-rule:evenodd;clip-rule:evenodd;fill:#A6035D;}
	.st16{fill-rule:evenodd;clip-rule:evenodd;fill:#F2A7C8;}
	.st17{fill-rule:evenodd;clip-rule:evenodd;fill:#FF6417;}
	.st18{fill-rule:evenodd;clip-rule:evenodd;fill:#E64E03;}
	.st19{fill-rule:evenodd;clip-rule:evenodd;fill:#FFB894;}
	.st20{fill-rule:evenodd;clip-rule:evenodd;fill:#A3E2E6;}
	.st21{fill-rule:evenodd;clip-rule:evenodd;fill:#4EB6BD;}
	.st22{fill-rule:evenodd;clip-rule:evenodd;fill:#D9FCFF;}
	.st23{fill-rule:evenodd;clip-rule:evenodd;fill:#B0001D;}
	.st24{fill-rule:evenodd;clip-rule:evenodd;fill:#D10023;}
	.st25{fill-rule:evenodd;clip-rule:evenodd;fill:#F06E79;}
	.st26{fill-rule:evenodd;clip-rule:evenodd;fill:#D92B00;}
	.st27{fill-rule:evenodd;clip-rule:evenodd;fill:#FF4517;}
	.st28{fill-rule:evenodd;clip-rule:evenodd;fill:#FF9E75;}
	.st29{fill-rule:evenodd;clip-rule:evenodd;fill:#FFC917;}
	.st30{fill-rule:evenodd;clip-rule:evenodd;fill:#E09E03;}
	.st31{fill-rule:evenodd;clip-rule:evenodd;fill:#FFE89C;}
	.st32{fill-rule:evenodd;clip-rule:evenodd;fill:#CEDE59;}
	.st33{fill-rule:evenodd;clip-rule:evenodd;fill:#ADBD31;}
	.st34{fill-rule:evenodd;clip-rule:evenodd;fill:#F0F7B7;}
	.st35{fill-rule:evenodd;clip-rule:evenodd;fill:#FF6200;}
	.st36{fill-rule:evenodd;clip-rule:evenodd;fill:#FFBF00;}
	.st37{fill-rule:evenodd;clip-rule:evenodd;fill:#FFEEE3;}
	.st38{fill-rule:evenodd;clip-rule:evenodd;fill:#FF8317;}
	.st39{fill-rule:evenodd;clip-rule:evenodd;fill:#FFCA29;}
	.st40{fill-rule:evenodd;clip-rule:evenodd;fill:#FFF9F5;}
	.st41{fill-rule:evenodd;clip-rule:evenodd;fill:#D43C00;}
	.st42{fill-rule:evenodd;clip-rule:evenodd;fill:#ED9200;}
	.st43{fill-rule:evenodd;clip-rule:evenodd;fill:#F5CDB3;}
	.st44{fill-rule:evenodd;clip-rule:evenodd;fill:#119BBD;}
	.st45{fill-rule:evenodd;clip-rule:evenodd;fill:#54CAE8;}
	.st46{fill-rule:evenodd;clip-rule:evenodd;fill:#87DBF0;}
	.st47{fill-rule:evenodd;clip-rule:evenodd;fill:#ED7E00;}
	.st48{fill-rule:evenodd;clip-rule:evenodd;fill:#873400;}
	.st49{fill-rule:evenodd;clip-rule:evenodd;fill:#FF9F00;}
	.st50{fill-rule:evenodd;clip-rule:evenodd;fill:#FF9A17;}
	.st51{fill-rule:evenodd;clip-rule:evenodd;fill:#E37004;}
	.st52{fill-rule:evenodd;clip-rule:evenodd;fill:#FFD7A3;}
	.st53{fill-rule:evenodd;clip-rule:evenodd;fill:#A3005A;}
	.st54{fill-rule:evenodd;clip-rule:evenodd;fill:#800046;}
	.st55{fill-rule:evenodd;clip-rule:evenodd;fill:#F2B8D8;}
	.st56{fill-rule:evenodd;clip-rule:evenodd;fill:#CF9983;}
	.st57{fill-rule:evenodd;clip-rule:evenodd;fill:#632E1A;}
	.st58{fill-rule:evenodd;clip-rule:evenodd;fill:#7B3419;}
	.st59{fill-rule:evenodd;clip-rule:evenodd;fill:#964E34;}
	.st60{fill-rule:evenodd;clip-rule:evenodd;fill:#5F2712;}
	.st61{fill-rule:evenodd;clip-rule:evenodd;fill:#8C462D;}
	.st62{fill-rule:evenodd;clip-rule:evenodd;fill:#FFDECE;}
	.st63{fill-rule:evenodd;clip-rule:evenodd;fill:#FFDD1C;}
	.st64{fill-rule:evenodd;clip-rule:evenodd;fill:#EBC400;}
	.st65{fill-rule:evenodd;clip-rule:evenodd;fill:#FFEA73;}
	.st66{fill-rule:evenodd;clip-rule:evenodd;fill:#FFE96B;}
	.st67{fill-rule:evenodd;clip-rule:evenodd;fill:#F7D00D;}
	.st68{fill-rule:evenodd;clip-rule:evenodd;fill:#FFF1A3;}
	.st69{fill-rule:evenodd;clip-rule:evenodd;fill:#D15079;}
	.st70{fill-rule:evenodd;clip-rule:evenodd;fill:#F7AAB1;}
	.st71{fill-rule:evenodd;clip-rule:evenodd;fill:#F28A92;}
	.st72{fill-rule:evenodd;clip-rule:evenodd;fill:#A1D132;}
	.st73{fill-rule:evenodd;clip-rule:evenodd;fill:#86B31E;}
	.st74{fill-rule:evenodd;clip-rule:evenodd;fill:#E1F7AC;}
	.st75{fill-rule:evenodd;clip-rule:evenodd;fill:#FFF347;}
	.st76{fill-rule:evenodd;clip-rule:evenodd;fill:#E0B714;}
	.st77{fill-rule:evenodd;clip-rule:evenodd;fill:#FFFCD6;}
	.st78{fill-rule:evenodd;clip-rule:evenodd;fill:#D92B71;}
	.st79{fill-rule:evenodd;clip-rule:evenodd;fill:#FC5B9B;}
	.st80{fill-rule:evenodd;clip-rule:evenodd;fill:#FF96C0;}
	.st81{fill-rule:evenodd;clip-rule:evenodd;fill:#6D42AD;}
	.st82{fill-rule:evenodd;clip-rule:evenodd;fill:#8E53E6;}
	.st83{fill-rule:evenodd;clip-rule:evenodd;fill:#B18AED;}
	.st84{fill-rule:evenodd;clip-rule:evenodd;fill:#4D6CBA;}
	.st85{fill-rule:evenodd;clip-rule:evenodd;fill:#678FF5;}
	.st86{fill-rule:evenodd;clip-rule:evenodd;fill:#A8BFFA;}
	.st87{fill-rule:evenodd;clip-rule:evenodd;fill:#BA2C22;}
	.st88{fill-rule:evenodd;clip-rule:evenodd;fill:#DE4035;}
	.st89{fill-rule:evenodd;clip-rule:evenodd;fill:#AFC4E6;}
	.st90{fill-rule:evenodd;clip-rule:evenodd;fill:#D1E3FF;}
	.st91{fill-rule:evenodd;clip-rule:evenodd;fill:#9B36BA;}
	.st92{fill-rule:evenodd;clip-rule:evenodd;fill:#882DA3;}
	.st93{fill-rule:evenodd;clip-rule:evenodd;fill:#BF63DB;}
	.st94{fill-rule:evenodd;clip-rule:evenodd;fill:#9E5BD4;}
	.st95{fill-rule:evenodd;clip-rule:evenodd;fill:#8A49BF;}
	.st96{fill-rule:evenodd;clip-rule:evenodd;fill:#C68AEB;}
	.st97{fill-rule:evenodd;clip-rule:evenodd;fill:#FFC9DF;}
	.st98{fill-rule:evenodd;clip-rule:evenodd;fill:#FFCA85;}
	.st99{fill-rule:evenodd;clip-rule:evenodd;fill:#F55E00;}
	.st100{fill-rule:evenodd;clip-rule:evenodd;fill:#FADFCD;}
	.st101{fill-rule:evenodd;clip-rule:evenodd;fill:#F8B400;}
	.st102{fill-rule:evenodd;clip-rule:evenodd;fill:#BF3600;}
	.st103{fill-rule:evenodd;clip-rule:evenodd;fill:#EDC8B0;}
	.st104{fill-rule:evenodd;clip-rule:evenodd;fill:#E07F00;}
	.st105{fill-rule:evenodd;clip-rule:evenodd;fill:#FFC300;}
	.st106{fill-rule:evenodd;clip-rule:evenodd;fill:#FFD429;}
	.st107{fill-rule:evenodd;clip-rule:evenodd;fill:#514287;}
	.st108{fill-rule:evenodd;clip-rule:evenodd;fill:#362C4D;}
	.st109{fill-rule:evenodd;clip-rule:evenodd;fill:#D6CFE6;}
	.st110{fill-rule:evenodd;clip-rule:evenodd;fill:#F0B800;}
	.st111{fill-rule:evenodd;clip-rule:evenodd;fill:#FFCE2B;}
	.st112{fill-rule:evenodd;clip-rule:evenodd;fill:#E0AD14;}
	.st113{fill-rule:evenodd;clip-rule:evenodd;fill:#FFDA47;}
	.st114{fill-rule:evenodd;clip-rule:evenodd;fill:#FFEF94;}
	.st115{fill:#9C5843;}
	.st116{fill:#7D402D;}
	.st117{fill-rule:evenodd;clip-rule:evenodd;fill:#5E0600;stroke:#000000;stroke-width:0.5669;stroke-miterlimit:2.4142;}
	.st118{fill-rule:evenodd;clip-rule:evenodd;fill:#FF8A00;}
	.st119{fill-rule:evenodd;clip-rule:evenodd;fill:#E76800;}
	.st120{fill-rule:evenodd;clip-rule:evenodd;fill:#AD3600;}
	.st121{fill-rule:evenodd;clip-rule:evenodd;fill:#BA4100;}
	.st122{fill-rule:evenodd;clip-rule:evenodd;fill:#ED6F00;}
	.st123{fill-rule:evenodd;clip-rule:evenodd;fill:#CB5700;}
	.st124{fill-rule:evenodd;clip-rule:evenodd;fill:#9C5843;}
	.st125{fill-rule:evenodd;clip-rule:evenodd;fill:#7D402D;}
</style>
<g id="candies_x5F_front_00000111913141035212865440000010630892126391005070_">
	<rect class="st0" width="595.3" height="459"/>
</g>
<g>
	<g>
		<path class="st1" d="M454.4,315c1.4-0.6,2-2.3,1.3-3.7c-0.6-1.4-2.3-2-3.7-1.3l-76.5,36.4c-1.4,0.6-1.1,1.9-0.5,3.3
			s1.5,2.4,2.9,1.7L454.4,315L454.4,315z"/>
		<path class="st2" d="M446.2,315.7c0.9-0.4,1.5-1.1,1.3-1.5s-1.1-0.4-2,0l-68.8,32.7c-0.9,0.4-0.7,0.8-0.5,1.2
			c0.2,0.4,0.3,0.8,1.2,0.3L446.2,315.7L446.2,315.7z"/>
	</g>
	<g>
		<path class="st3" d="M476.2,304.1c5.7,12,0.6,26.4-11.4,32.1s-26.4,0.6-32.1-11.4s-0.6-26.4,11.4-32.1
			C456.1,286.9,470.5,292,476.2,304.1L476.2,304.1z"/>
		<path class="st4" d="M463.3,336.8c-4.3,1.7-8.9,2.1-13.3,1.3l-0.7-2.7l9.5-3.6l2.8,1.4L463.3,336.8L463.3,336.8z"/>
		<path class="st4" d="M477.9,320.1c-0.9,3.5-2.5,6.8-4.8,9.6l-1.9-4.6l4.2-11.8L477.9,320.1L477.9,320.1z"/>
		<path class="st4" d="M476.2,304.1c1,2,1.6,4.1,2,6.1c-1.1-3-3.3-6.7-5.1-9.2c-0.3-0.7-6-6.6-7-7.7
			C470.3,295.6,473.9,299.3,476.2,304.1L476.2,304.1z"/>
		<path class="st5" d="M464.9,291.5c3.4,2.3,6.2,5.5,8.1,9.5c-9.7-3.9-20.5,3.3-21.8,10.4C448.8,304.6,454.5,293,464.9,291.5
			L464.9,291.5L464.9,291.5z"/>
		<path class="st5" d="M427.2,309.5c0.3-4.1,1.7-8.1,4.2-11.8c1.5,10.4,13.1,16.1,19.9,13.7C446.6,316.9,433.7,317.8,427.2,309.5
			L427.2,309.5L427.2,309.5z"/>
		<path class="st5" d="M461.6,333.2c-3.7,1.8-7.9,2.6-12.3,2.3c8.3-6.5,7.4-19.4,1.9-24C458.4,312.7,465.6,323.4,461.6,333.2
			L461.6,333.2L461.6,333.2z"/>
		<path class="st5" d="M440.9,289.6c3.7-1.8,7.9-2.6,12.3-2.3c-8.3,6.5-7.4,19.4-1.9,24C444.1,310.1,437,299.4,440.9,289.6
			L440.9,289.6L440.9,289.6z"/>
		<path class="st5" d="M437.6,331.2c-3.4-2.3-6.2-5.5-8.1-9.5c9.7,3.9,20.5-3.3,21.8-10.4C453.7,318.2,448,329.8,437.6,331.2
			L437.6,331.2L437.6,331.2z"/>
		<path class="st5" d="M475.3,313.3c-0.3,4.1-1.7,8.1-4.2,11.8c-1.5-10.4-13.1-16.1-19.9-13.7C455.9,305.9,468.8,305,475.3,313.3
			L475.3,313.3L475.3,313.3z"/>
		<path class="st6" d="M453.2,287.4c4.1,0.3,8.1,1.7,11.8,4.2c-10.4,1.5-16.1,13.1-13.7,19.9C445.8,306.7,444.9,293.8,453.2,287.4
			L453.2,287.4L453.2,287.4z"/>
		<path class="st6" d="M429.5,321.8c-1.8-3.7-2.6-7.9-2.3-12.3c6.5,8.3,19.4,7.4,24,1.9C450,318.5,439.2,325.7,429.5,321.8
			L429.5,321.8L429.5,321.8z"/>
		<path class="st6" d="M471.1,325.1c-2.3,3.4-5.5,6.2-9.5,8.1c3.9-9.7-3.3-20.5-10.4-21.8C458.1,309,469.7,314.7,471.1,325.1
			L471.1,325.1L471.1,325.1z"/>
		<path class="st6" d="M431.4,297.7c2.3-3.4,5.5-6.2,9.5-8.1c-3.9,9.7,3.3,20.5,10.4,21.8C444.5,313.8,432.9,308.1,431.4,297.7
			L431.4,297.7L431.4,297.7z"/>
		<path class="st6" d="M449.4,335.4c-4.1-0.3-8.1-1.7-11.8-4.2c10.4-1.5,16.1-13.1,13.7-19.9C456.8,316.1,457.6,329,449.4,335.4
			L449.4,335.4L449.4,335.4z"/>
		<path class="st6" d="M473,301c1.8,3.7,2.6,7.9,2.3,12.3c-6.5-8.3-19.4-7.4-24-1.9C452.5,304.3,463.3,297.1,473,301L473,301
			L473,301z"/>
	</g>
</g>
<g>
	<g>
		<path class="st1" d="M180.6,308.5c-1.2-0.4-1.8-1.7-1.4-2.9s1.7-1.8,2.9-1.4l66.1,23c1.2,0.4,1.1,1.5,0.7,2.6
			c-0.4,1.2-1,2.1-2.2,1.6L180.6,308.5L180.6,308.5z"/>
		<path class="st2" d="M187.4,308.3c-0.8-0.3-1.3-0.8-1.2-1.1c0.1-0.4,0.9-0.4,1.6-0.2l59.4,20.7c0.8,0.3,0.7,0.6,0.5,0.9
			c-0.1,0.4-0.2,0.7-1,0.4L187.4,308.3L187.4,308.3z"/>
	</g>
	<g>
		<path class="st7" d="M167.1,301.4c-3.1,8.7,1.6,18.3,10.3,21.3s18.3-1.6,21.3-10.3c3.1-8.7-1.6-18.3-10.3-21.3
			C179.7,288,170.1,292.6,167.1,301.4L167.1,301.4z"/>
		<path class="st8" d="M196.3,299.8c8.1,22.9-21.9,29.5-27.9,11.7C178.5,322.5,196.4,316.5,196.3,299.8L196.3,299.8z"/>
		<path class="st9" d="M175.9,293c-5.4,2.8-10.9,10.3-7.5,19c0.6-16,23-21.7,29.2-6.2C197.5,294.3,185.8,287.8,175.9,293L175.9,293z
			"/>
		<path class="st10" d="M167.1,301.4c-2.1,5.9-0.6,12.2,3.2,16.6c10-1.7,18.9-8.6,22.5-18.9c0.5-1.5,0.9-3.1,1.2-4.7
			c-1.6-1.4-3.4-2.5-5.6-3.2C179.7,288,170.1,292.6,167.1,301.4L167.1,301.4z"/>
		<path class="st11" d="M172.1,317.6c-1.6-1.5-2.9-3.5-3.7-6c2.2,2.4,4.8,4,7.6,4.8C174.7,316.9,173.4,317.3,172.1,317.6
			L172.1,317.6z"/>
		<path class="st12" d="M175.9,293c-5.4,2.8-10.9,10.3-7.5,19c0.5-13,15.5-19.2,24.3-12.7c0-0.1,0.1-0.2,0.1-0.3
			c0.4-1.1,0.7-2.2,0.9-3.3C189.4,291.1,182.3,289.6,175.9,293L175.9,293z"/>
		<path class="st13" d="M179,297.3c-0.2,0.7,0.1,1.5,0.8,1.8c0.7,0.2,1.5-0.1,1.8-0.8c0.2-0.7-0.1-1.5-0.8-1.8
			S179.3,296.6,179,297.3L179,297.3z"/>
		<path class="st13" d="M172.6,299c-0.5,1.5,0.3,3.1,1.8,3.6s3.1-0.3,3.6-1.8s-0.3-3.1-1.8-3.6C174.7,296.7,173.1,297.5,172.6,299
			L172.6,299z"/>
	</g>
</g>
<g>
	<path class="st14" d="M149.9,336.8c-3.5-3.5-8.6-8.9-11.2-11.6c-8.8-9,1.5-16.9,9.9-13.5c8.3,3.5,12.6,7.4,15.6,15.9
		C169.3,341.3,158.2,345.1,149.9,336.8L149.9,336.8z"/>
	<path class="st15" d="M149.9,336.8c-3.5-3.5-12.9-11.7-14-15.9c3.2,3.5,21.2,22.3,29.5,11.6C166.5,343.5,156.5,343.4,149.9,336.8
		L149.9,336.8z"/>
	<path class="st16" d="M147.5,312.6c7.9,2.7,17.5,14.7,7.8,9.4c-4.9-2.7-5.3-3.6-11.2-4.7C136.9,316.7,141.3,310.5,147.5,312.6
		L147.5,312.6z"/>
</g>
<g>
	<path class="st17" d="M403.9,351.2c-5,0.2-12.4,0.4-16.1,0.5c-12.6,0.5-11.5-12.5-3.3-16.4c8.1-3.8,13.9-4.4,22.3-0.9
		C420.2,340,415.6,350.7,403.9,351.2L403.9,351.2z"/>
	<path class="st18" d="M403.9,351.2c-5,0.2-17.3,1.7-21.1-0.3c4.7,0,30.8-0.7,28.5-14C420,343.5,413.2,350.8,403.9,351.2
		L403.9,351.2z"/>
	<path class="st19" d="M384.3,336.8c7.3-4,22.7-3.1,12.2,0.5c-5.3,1.8-6.2,1.6-11,5.1C380.2,347.4,378.6,340,384.3,336.8
		L384.3,336.8z"/>
</g>
<g>
	<path class="st20" d="M265.2,339.6c-4.9-0.7-12.2-2.1-15.9-2.7c-12.5-2-8.9-14.5,0-16.7c8.7-2.2,14.5-1.5,22,3.5
		C283.4,331.8,276.8,341.4,265.2,339.6L265.2,339.6z"/>
	<path class="st21" d="M265.2,339.6c-4.9-0.7-17.3-1.8-20.7-4.5c4.6,0.9,30.3,5.3,30.7-8.2C282.5,335.2,274.4,341,265.2,339.6
		L265.2,339.6z"/>
	<path class="st22" d="M248.9,321.7c7.9-2.5,22.8,1.4,11.9,2.9c-5.5,0.8-6.4,0.3-11.8,2.8C242.8,331.2,242.6,323.6,248.9,321.7
		L248.9,321.7z"/>
</g>
<g>
	<path class="st23" d="M373.5,321.1c7.1,0,12.9,5.8,12.9,12.9s-5.8,12.9-12.9,12.9s-12.9-5.8-12.9-12.9S366.3,321.1,373.5,321.1
		L373.5,321.1z"/>
	<path class="st24" d="M361.5,338.7c-0.6-1.5-0.9-3.1-0.9-4.7c0-6.7,5.1-12.2,11.7-12.8c12.3,1.2,13.5,12.2,8.6,18.7
		C376.5,345.5,367.3,347.8,361.5,338.7L361.5,338.7z"/>
	<path class="st25" d="M364.5,326.5c3.5-4.4,11.5-5.9,15.9-0.6c2.9,3.5,0.2,1.8-1.3,0.9c-3.9-2.4-8.3-1.5-11.5,3
		c-2.8,3.8-3,9,1,11.9c1.2,0.9,1.9,1.8-0.6,1C361.5,340.6,360.1,332.1,364.5,326.5L364.5,326.5z"/>
	<path class="st13" d="M368.3,326.1c1.3,0,2.4,1.1,2.4,2.4s-1.1,2.4-2.4,2.4s-2.4-1.1-2.4-2.4S367,326.1,368.3,326.1L368.3,326.1z"
		/>
	<path class="st13" d="M365.6,332.1c0.7,0,1.4,0.6,1.4,1.4c0,0.7-0.6,1.4-1.4,1.4c-0.7,0-1.4-0.6-1.4-1.4S364.9,332.1,365.6,332.1
		L365.6,332.1z"/>
</g>
<g>
	<path class="st26" d="M231.4,329.2c5,5.1,4.9,13.3-0.3,18.2s-13.3,4.9-18.2-0.3c-5-5.1-4.9-13.3,0.3-18.2
		C218.3,324,226.5,324.1,231.4,329.2L231.4,329.2z"/>
	<path class="st27" d="M210.4,332.9c0.6-1.4,1.6-2.8,2.8-4c4.8-4.7,12.4-4.9,17.4-0.6c7.7,9.7,0.7,18.2-7.4,19.2
		C216,348.4,208,343.4,210.4,332.9L210.4,332.9z"/>
	<path class="st28" d="M221.3,326.6c5.6-0.6,12.2,4.1,11.5,11c-0.4,4.5-1.2,1.4-1.6-0.3c-1-4.5-4.7-7-10.2-6.2
		c-4.7,0.7-8.5,4.2-7.9,9c0.2,1.5,0,2.6-1.1,0.2C209.1,334.2,214.2,327.3,221.3,326.6L221.3,326.6z"/>
	<path class="st13" d="M224.3,329c0.9,1,0.9,2.5-0.1,3.4s-2.5,0.9-3.4,0s-0.9-2.5,0.1-3.4C221.8,328,223.3,328,224.3,329L224.3,329z
		"/>
	<path class="st13" d="M218,331.3c0.5,0.5,0.5,1.4,0,1.9s-1.4,0.5-1.9,0s-0.5-1.4,0-1.9C216.7,330.8,217.5,330.8,218,331.3
		L218,331.3z"/>
</g>
<g>
	<path class="st29" d="M209,346c-4.9,0.8-12.3,1.8-15.9,2.4c-12.5,1.9-12.9-11.1-5.2-15.9c7.6-4.8,13.3-5.9,22-3.5
		C223.9,332.9,220.6,344.1,209,346L209,346z"/>
	<path class="st30" d="M209,346c-4.9,0.8-17,3.7-21.1,2.2c4.7-0.6,30.5-4.3,26.6-17.3C224.1,336.5,218.2,344.5,209,346L209,346z"/>
	<path class="st31" d="M187.9,334c6.8-4.8,22.2-5.7,12.2-0.9c-5,2.4-6,2.3-10.4,6.3C185.1,344.9,182.6,337.8,187.9,334L187.9,334z"
		/>
</g>
<g>
	<path class="st32" d="M334.7,351.3c-4.9,0.7-12.3,1.4-16,1.9c-12.5,1.5-12.5-11.5-4.7-16s13.5-5.5,22.1-2.8
		C350,338.7,346.3,349.8,334.7,351.3L334.7,351.3z"/>
	<path class="st33" d="M334.7,351.3c-4.9,0.7-17.1,3.1-21.1,1.5c4.7-0.4,30.6-3.3,27.2-16.4C350.1,342.3,343.9,350.1,334.7,351.3
		L334.7,351.3z"/>
	<path class="st34" d="M314,338.6c6.9-4.6,22.3-5,12.2-0.5c-5.1,2.3-6.1,2.1-10.6,6C310.8,349.5,308.5,342.2,314,338.6L314,338.6z"
		/>
</g>
<g>
	<g>
		<path class="st35" d="M359.3,341.7c-2.7,3.7-7.9,2-11.9,0.5c-4.6-1.6-11.2-3.9-8.8-10.1c1.2-3.3,3.9-8.2,4.8-9.7
			c3-5.2,9.9-16,14.7-19.6c5-3.8,7.1-3.1,8.2,3.7c0.6,3.8-0.6,11.2-2,18.3C362.9,332,361.4,339,359.3,341.7L359.3,341.7z"/>
		<path class="st36" d="M359.3,341.7c-2.7,3.7-7.9,2-11.9,0.5c-4.6-1.6-11.2-3.9-8.8-10.1c0.8-2.2,2.2-5,3.4-7.2
			c5.2,5.2,12.2,9.3,20,10.2C361.2,338,360.3,340.3,359.3,341.7L359.3,341.7z"/>
		<path class="st37" d="M353.5,307.4c1.6-2,3.2-3.6,4.5-4.7c5-3.8,7.1-3.1,8.2,3.7c0.2,1.6,0.2,3.8-0.1,6.4
			C361.5,311.7,356.9,309.8,353.5,307.4L353.5,307.4z"/>
	</g>
	<path class="st38" d="M343.4,326.2c3.8-6.8,5.8-10.2,10.5-16c0.8-1,1-1.2,1.4-1.6c1.9,1.1,3.9,2,6.1,2.8c0-0.1,0-0.2,0-0.3
		c-0.1,0.8-0.3,1.8-0.5,2.8c-1.4,7.5-3.5,14.8-5.5,19.7C350.9,332,346.8,329.3,343.4,326.2L343.4,326.2z"/>
	<path class="st39" d="M343.4,326.2c3.4,3.1,7.6,5.7,12.1,7.3c-0.1,0.4-0.3,0.7-0.5,1.1c-2,4.5-4.3,4.4-9.6,2
		c-4.5-2.1-5.7-3.9-2.3-10L343.4,326.2L343.4,326.2z"/>
	<path class="st40" d="M361.4,311.4c-2.2-0.8-4.3-1.7-6.1-2.8C360.7,302.3,362.8,302.8,361.4,311.4L361.4,311.4z"/>
	<path class="st41" d="M360.5,334.8c0.6-2.5,1.2-5.4,2-8.5c1.2-4.8,2.1-8.8,3-13.7c0.2,0.1,0.5,0.1,0.7,0.2
		c-0.4,3.6-1.1,7.8-1.9,11.9c-0.7,3.7-1.5,7.3-2.3,10.4C361.5,335,361,334.9,360.5,334.8L360.5,334.8z"/>
	<path class="st42" d="M359.3,341.7c-2.7,3.7-7.9,2-11.9,0.5c-4-1.4-9.5-3.3-9.3-7.8c1.7,2.7,5.1,5,8.9,6.5c9.6,3.6,12,0.2,13.6-6
		c0.5,0.1,1,0.1,1.5,0.2C361.2,338,360.3,340.3,359.3,341.7L359.3,341.7z"/>
	<path class="st43" d="M363.5,300.5c1.4,0.5,2.2,2.3,2.8,5.9c0.2,1.6,0.2,3.8-0.1,6.4c-0.2,0-0.5-0.1-0.7-0.2
		C366,307.8,365.9,302.4,363.5,300.5L363.5,300.5z"/>
</g>
<g>
	<path class="st44" d="M413,304.6c6.5,0,11.8,5.3,11.8,11.8s-5.3,11.8-11.8,11.8s-11.8-5.3-11.8-11.8
		C401.1,309.9,406.4,304.6,413,304.6L413,304.6z"/>
	<path class="st45" d="M402,320.8c-0.5-1.4-0.8-2.8-0.8-4.4c0-6.2,4.7-11.2,10.7-11.8c11.2,1.1,12.4,11.2,7.9,17.1
		C415.7,327,407.3,329.1,402,320.8L402,320.8z"/>
	<path class="st46" d="M404.8,309.6c3.2-4,10.5-5.4,14.6-0.6c2.7,3.2,0.1,1.7-1.2,0.8c-3.6-2.2-7.6-1.4-10.6,2.7
		c-2.5,3.5-2.7,8.3,0.9,10.9c1.1,0.8,1.7,1.6-0.6,0.9C402,322.5,400.7,314.7,404.8,309.6L404.8,309.6z"/>
	<path class="st13" d="M408.3,309.2c1.2,0,2.2,1,2.2,2.2s-1,2.2-2.2,2.2s-2.2-1-2.2-2.2C406,310.2,407,309.2,408.3,309.2
		L408.3,309.2z"/>
	<path class="st13" d="M405.8,314.8c0.7,0,1.2,0.5,1.2,1.2s-0.5,1.2-1.2,1.2s-1.2-0.5-1.2-1.2C404.6,315.3,405.1,314.8,405.8,314.8
		L405.8,314.8z"/>
</g>
<g id="pumpkin_x5F_back_00000109724275641326027190000014234016265398112920_">
	<path class="st47" d="M301.3,88.6c61.1,0,110.7,15.9,110.7,35.6s-49.5,35.6-110.7,35.6s-110.7-15.9-110.7-35.6
		S240.2,88.6,301.3,88.6L301.3,88.6z"/>
	<path class="st48" d="M374.8,140.4c76.8,26.8,62.5,93.8,18.3,134.1c-45.7,41.6-102.9,36.8-151.6,16.9c-43.7-17.8-63-51.7-58.9-88.3
		c2.4-21.9,16-36.4,29.4-48.1C252.7,119.5,327.7,124,374.8,140.4L374.8,140.4z"/>
	<path class="st49" d="M301.3,76.9c72.1,0,130.5,21.6,130.5,48.2s-58.4,48.2-130.5,48.2s-130.5-21.6-130.5-48.2
		C170.8,98.5,229.2,76.9,301.3,76.9L301.3,76.9z M301.3,88.6c61.1,0,110.7,15.9,110.7,35.6s-49.5,35.6-110.7,35.6
		s-110.7-15.9-110.7-35.6C190.6,104.5,240.2,88.6,301.3,88.6L301.3,88.6z"/>
</g>
<g id="candies_00000140008363173433060540000008358353291295047313_">
	<g>
		<path class="st50" d="M335.8,136.5c-5.4-0.7-13.5-2.1-17.5-2.7c-13.7-2-9.9-15.8-0.3-18.4c9.6-2.5,15.9-1.9,24.2,3.5
			C355.7,127.6,348.6,138.2,335.8,136.5L335.8,136.5z"/>
		<path class="st51" d="M335.8,136.5c-5.4-0.7-19-1.7-22.8-4.6c5.1,0.9,33.4,5.4,33.6-9.5C354.7,131.4,345.9,137.9,335.8,136.5
			L335.8,136.5z"/>
		<path class="st52" d="M317.6,117c8.7-2.9,25.1,1.2,13.1,3c-6.1,0.9-7,0.4-12.9,3.3C311.1,127.6,310.7,119.3,317.6,117L317.6,117z"
			/>
	</g>
	<g>
		<path class="st53" d="M370,158c-4.2-4.2-10.2-10.6-13.3-13.8c-10.5-10.7,1.8-20.1,11.8-16c9.9,4.1,14.9,8.8,18.6,18.9
			C392.9,163.4,379.9,167.9,370,158L370,158z"/>
		<path class="st54" d="M370,158c-4.2-4.2-15.3-13.9-16.6-18.9c3.8,4.1,25.2,26.5,35.1,13.8C389.7,166,377.8,165.9,370,158L370,158z
			"/>
		<path class="st55" d="M367.1,129.3c9.4,3.2,20.9,17.5,9.3,11.2c-5.8-3.2-6.3-4.2-13.3-5.6C354.5,134.2,359.7,126.8,367.1,129.3
			L367.1,129.3z"/>
	</g>
	<g>
		<path class="st56" d="M239,82l29.5-8.2c1.4-0.4,2.9,0.3,3.2,1.5l11.1,39.7c0.3,1.2-0.6,2.6-2,3l-29.5,8.2
			c-1.4,0.4-2.9-0.3-3.2-1.5l-12.5-39.4C235.2,84.1,237.5,82.4,239,82L239,82z"/>
		<path class="st57" d="M237,83.5l29.3-8.2c1.5-0.4,3,0.5,3.4,1.9l10.8,38.8c0.4,1.5-0.5,3-1.9,3.4l-29.4,8.2
			c-1.5,0.4-3-0.5-3.4-1.9L235,86.9C234.6,85.5,235.5,83.9,237,83.5L237,83.5z"/>
		<path class="st58" d="M236.9,83.5l29.5-8.2c0.6-0.2,1.3-0.1,1.9,0.1c-1.4,4.7-6.3,4.9-11.5,6.4c-13.6,3.9-16.2,5.5-20.5,2.1
			C236.4,83.7,236.7,83.6,236.9,83.5L236.9,83.5z"/>
		<path class="st58" d="M245.6,124.6l-3.1-11.1l-7.1-25.4l0,0l0,0l-0.4-1.5c0-0.1-0.1-0.2-0.1-0.3c-0.1-0.9,0.4-1.9,1.4-2.4
			c3.1,1.6,3.8,3.7,4.6,7.3c1.9,8.4,4.4,16.7,6.7,25c1.6,5.7,2.8,6.2-0.2,10.7C246.5,126.3,245.8,125.6,245.6,124.6L245.6,124.6z"/>
		<path class="st59" d="M241.9,86.4l21.7-6.1c1.2-0.3,2.4,0.4,2.7,1.5l8.9,32c0.3,1.2-0.4,2.4-1.5,2.7l-21.7,6.1
			c-1.2,0.3-2.4-0.4-2.7-1.5l-8.9-32C240,88,240.7,86.8,241.9,86.4L241.9,86.4z"/>
		<path class="st60" d="M244.4,88l17.9-5c0.9-0.2,1.8,0.3,2,1.2l8,28.7c0.2,0.9-0.3,1.8-1.2,2.1l-17.9,5c-0.9,0.2-1.8-0.3-2.1-1.2
			l-8-28.7C243,89.2,243.5,88.3,244.4,88L244.4,88z"/>
		<path class="st58" d="M252.7,119.9c-2.3-1.7,1.2-3.4,2.3-3.7c3.8-1.1,9.1-2.6,10.2-2.9c3.4-1.1,3.3-1.9,2.5-4.8
			c-1.4-4.9-5.2-16.8-6.2-21.3c-0.5-2.1,0.9-4,1.9-4.1c0.5,0.3,0.6,1.1,0.8,1.7l7.6,27.3c0.4,1.3-0.6,2.6-2.1,3.1l-16.2,4.6
			C253.3,119.9,253,119.9,252.7,119.9L252.7,119.9z"/>
		<path class="st61" d="M246.8,89.9l14.5-4.1c0.6-0.2,1.2,0.2,1.4,0.8l7,25.1c0.2,0.6-0.2,1.2-0.8,1.4l-14.5,4.1
			c-0.6,0.2-1.2-0.2-1.4-0.8l-7-25.1C245.8,90.7,246.2,90.1,246.8,89.9L246.8,89.9z"/>
		<path class="st62" d="M265.2,86.9c1.9,6.8,4.5,16.4,6.3,22.7c0.6,2.2,1.5,4.3,0.3,5.3c-0.5,0.4-4.5,1.5-5.4,1.7
			c-1.6,0.5-5.2,1.5-7.7,2.2c-1,0.3-3.6,1.1-4.9,1.3c-0.5,0.1-0.9,0.1-1.2,0.1c-1.4-0.1-1.4-0.9-1.5-2.1c0.4,1,0.6,1.8,1.8,1.8
			c1.5,0,4.7-1,5.9-1.4c3.1-0.9,7.3-2.3,9.6-3c4.5-1.3,3.8-1.6,2.7-5.6c-1.9-6.7-4.6-17-6.6-24c-0.1-0.6-0.3-1.1-0.5-1.7
			c-0.5-1.6-3.1-0.5-4.6-0.2c2.7-0.8,4.5-1.9,5.3,0.5C264.9,85.2,265.1,86.3,265.2,86.9L265.2,86.9z"/>
		<path class="st62" d="M235.7,84.2c0.2-0.2,0.6-0.4,0.9-0.5c3,2,5,2.1,9.1,0.9c4.4-1.3,9.8-3,14.3-4.1c4.2-1,5.4-1.1,8.1-4.9
			c-1.6,3.9-2.4,3.7-1.1,8.5c-2-4.1-2.4-3.8-6.7-2.7c-5.3,1.3-8.8,2.3-14,3.8c-5.9,1.7-6.1,2.1-4.7,7.2c1.6,5.8,5.4,20,6.9,25.8
			c0.8,3.3,0.2,3-0.6,0.2L240.6,92C239.9,89.3,239,85.9,235.7,84.2L235.7,84.2z"/>
	</g>
	<g>
		<path class="st56" d="M376.2,72.7l27.2,14c1.3,0.7,1.9,2.2,1.4,3.3L386,126.7c-0.6,1.1-2.1,1.5-3.5,0.8l-27.2-14
			c-1.3-0.7-1.9-2.2-1.4-3.3l17.6-37.4C372,71.6,374.9,72,376.2,72.7L376.2,72.7z"/>
		<path class="st57" d="M373.7,72.4l27.1,13.9c1.4,0.7,1.9,2.4,1.2,3.7l-18.4,36c-0.7,1.4-2.4,1.9-3.7,1.2l-27.1-13.9
			c-1.4-0.7-1.9-2.4-1.2-3.7l18.4-36C370.7,72.3,372.3,71.8,373.7,72.4L373.7,72.4z"/>
		<path class="st58" d="M373.6,72.4l27.2,14c0.6,0.3,1.1,0.8,1.3,1.3c-4.2,2.5-8-0.7-12.8-3.1c-12.6-6.4-15.6-7-16.5-12.4
			C373.2,72.2,373.4,72.3,373.6,72.4L373.6,72.4z"/>
		<path class="st58" d="M352.1,108.4l5.3-10.3l12-23.4l0,0l0,0l0.7-1.4c0.1-0.1,0.1-0.2,0.2-0.3c0.5-0.8,1.6-1.1,2.6-0.8
			c1.2,3.3,0.3,5.3-1.6,8.5c-4.3,7.5-8.1,15.2-12,22.9c-2.7,5.2-2.2,6.5-7.4,7.7C351.6,110.3,351.6,109.3,352.1,108.4L352.1,108.4z"
			/>
		<path class="st59" d="M375.3,77.9l20.1,10.3c1.1,0.6,1.5,1.9,1,3l-15.1,29.5c-0.6,1.1-1.9,1.5-3,1l-20.1-10.3
			c-1.1-0.6-1.5-1.9-1-3l15.1-29.5C372.9,77.8,374.2,77.4,375.3,77.9L375.3,77.9z"/>
		<path class="st60" d="M376.1,80.8l16.6,8.5c0.8,0.4,1.1,1.4,0.7,2.2L379.8,118c-0.4,0.8-1.4,1.1-2.2,0.7l-16.6-8.5
			c-0.8-0.4-1.1-1.4-0.7-2.2l13.6-26.5C374.2,80.7,375.3,80.4,376.1,80.8L376.1,80.8z"/>
		<path class="st58" d="M360.5,109.8c-0.5-2.8,3.2-1.7,4.2-1.1c3.5,1.8,8.4,4.3,9.4,4.8c3.2,1.5,3.7,0.8,5.1-1.8
			c2.3-4.5,7.6-15.8,9.9-19.8c1.1-1.9,3.4-2.3,4.2-1.7c0.2,0.6-0.3,1.2-0.5,1.8l-13,25.2c-0.6,1.2-2.2,1.5-3.6,0.8l-15-7.6
			C361,110.2,360.7,110,360.5,109.8L360.5,109.8z"/>
		<path class="st61" d="M376.5,83.8l13.4,6.9c0.5,0.3,0.8,0.9,0.5,1.5l-11.9,23.2c-0.3,0.5-1,0.8-1.5,0.5l-13.4-6.9
			c-0.5-0.3-0.8-0.9-0.5-1.5L375,84.3C375.3,83.7,376,83.5,376.5,83.8L376.5,83.8z"/>
		<path class="st62" d="M392.2,94.1c-3.2,6.3-7.9,15.1-10.8,20.9c-1,2-1.8,4.2-3.4,4.1c-0.6-0.1-4.3-2-5.1-2.4
			c-1.5-0.8-4.8-2.4-7.2-3.6c-1-0.5-3.4-1.7-4.5-2.4c-0.4-0.3-0.7-0.5-0.9-0.8c-1-1.1-0.4-1.6,0.3-2.6c-0.4,1-0.8,1.7,0.1,2.5
			c1.1,1,4.1,2.4,5.2,3c2.9,1.4,6.9,3.2,9,4.3c4.2,2.1,3.9,1.4,5.8-2.3c3.1-6.1,8.1-15.6,11.5-22.1c0.3-0.5,0.5-1,0.8-1.5
			c0.7-1.5-2-2.5-3.2-3.3c2.5,1.2,4.6,1.7,3.6,3.9C393,92.6,392.4,93.6,392.2,94.1L392.2,94.1z"/>
		<path class="st62" d="M372.4,72.1c0.3,0,0.7,0.1,1,0.2c0.9,3.5,2.2,5,6,6.9c4.1,2.1,9.2,4.5,13.2,6.7c3.8,2.1,4.7,2.9,9.3,1.9
			c-3.8,1.7-4.3,1.1-6.6,5.5c1.3-4.4,0.8-4.4-3.1-6.6c-4.8-2.6-8-4.3-12.9-6.7c-5.5-2.7-5.9-2.6-8.3,2.1
			c-2.8,5.3-9.6,18.4-12.5,23.6c-1.6,3-1.9,2.3-0.5-0.2l12.6-24.3C371.9,78.6,373.6,75.6,372.4,72.1L372.4,72.1z"/>
	</g>
	<g>
		<g>
			<path class="st1" d="M293.3,90.4c0-1.3-1-2.3-2.3-2.3s-2.3,1-2.3,2.3v70c0,1.3,1,1.5,2.3,1.5s2.3-0.3,2.3-1.5V90.4L293.3,90.4z"
				/>
			<path class="st2" d="M290.9,96.7c0-0.8-0.3-1.5-0.7-1.5s-0.7,0.7-0.7,1.5v62.9c0,0.8,0.3,0.8,0.7,0.8c0.4,0,0.7,0,0.7-0.8V96.7
				L290.9,96.7z"/>
		</g>
		<g>
			<path class="st63" d="M291,75.3c9.2,0,16.8,7.5,16.8,16.8s-7.5,16.8-16.8,16.8s-16.8-7.5-16.8-16.8S281.8,75.3,291,75.3L291,75.3
				z"/>
			<path class="st64" d="M280,102.3c18.9,15.2,35.1-11,20.3-22.5C307.2,93,295.6,108,280,102.3L280,102.3z"/>
			<path class="st65" d="M280.2,80.8c4.4-4.2,13.3-6.9,20.4-0.8c-15.3-4.7-28,14.6-15.5,25.5C274.3,101.7,272,88.5,280.2,80.8
				L280.2,80.8z"/>
			<path class="st66" d="M291,75.3c6.2,0,11.7,3.4,14.6,8.5c-4.9,8.9-14.4,15-25.3,15c-1.6,0-3.2-0.1-4.8-0.4
				c-0.8-1.9-1.2-4.1-1.2-6.3C274.3,82.8,281.8,75.3,291,75.3L291,75.3z"/>
			<path class="st67" d="M304.7,85.3c-0.9-2-2.4-3.9-4.5-5.5c1.5,2.9,2.2,5.9,2.1,8.7C303.1,87.6,304,86.5,304.7,85.3L304.7,85.3z"
				/>
			<path class="st68" d="M280.2,80.8c4.4-4.2,13.3-6.9,20.4-0.8c-12.5-3.8-23.2,8.3-20,18.8c-0.1,0-0.2,0-0.3,0
				c-1.1,0-2.3-0.1-3.4-0.2C274,93,274.9,85.8,280.2,80.8L280.2,80.8z"/>
			<path class="st13" d="M283.3,85.2c0.8,0,1.4,0.6,1.4,1.4s-0.6,1.4-1.4,1.4s-1.4-0.6-1.4-1.4C281.9,85.8,282.5,85.2,283.3,85.2
				L283.3,85.2z"/>
			<path class="st13" d="M287,79.7c1.6,0,2.9,1.3,2.9,2.9s-1.3,2.8-2.9,2.8s-2.9-1.3-2.9-2.8C284.1,80.9,285.4,79.7,287,79.7
				L287,79.7z"/>
		</g>
	</g>
	<g>
		<path class="st15" d="M297.7,112c3.9,6,2.1,14-3.8,17.8c-6,3.9-14,2.1-17.8-3.8c-3.9-6-2.1-14,3.8-17.8
			C285.9,104.3,293.9,106,297.7,112L297.7,112z"/>
		<path class="st14" d="M276.4,111.5c0.9-1.3,2.1-2.4,3.5-3.3c5.6-3.7,13.1-2.3,17.1,2.8c5.6,11-2.9,18-11.1,17.3
			C278.8,127.8,272,121.3,276.4,111.5L276.4,111.5z"/>
		<path class="st69" d="M288.3,107.4c5.6,0.6,11.1,6.4,9.1,13c-1.3,4.3-1.5,1.1-1.5-0.6c-0.1-4.6-3.2-7.8-8.8-8.1
			c-4.7-0.3-9.2,2.4-9.5,7.3c-0.1,1.5-0.5,2.6-1.2,0C274.9,112.6,281.2,106.8,288.3,107.4L288.3,107.4z"/>
		<path class="st13" d="M290.8,110.4c0.7,1.1,0.4,2.6-0.7,3.4s-2.6,0.4-3.4-0.7c-0.7-1.1-0.4-2.6,0.7-3.4S290,109.3,290.8,110.4
			L290.8,110.4z"/>
		<path class="st13" d="M284.2,111.4c0.4,0.6,0.2,1.5-0.4,1.9s-1.5,0.2-1.9-0.4s-0.2-1.5,0.4-1.9S283.8,110.8,284.2,111.4
			L284.2,111.4z"/>
	</g>
	<g>
		<path class="st32" d="M301.8,136.6c3.2-3.8,7.8-9.6,10.2-12.4c8.1-9.7-2.9-16.8-11-12.6c-8,4.1-11.9,8.4-14.3,17.1
			C282.9,142.7,294.2,145.6,301.8,136.6L301.8,136.6z"/>
		<path class="st33" d="M301.8,136.6c3.2-3.8,11.9-12.7,12.7-16.9c-2.9,3.7-19.4,23.9-28.5,14C285.8,144.7,295.7,143.7,301.8,136.6
			L301.8,136.6z"/>
		<path class="st34" d="M302.3,112.3c-7.6,3.3-16.3,16.1-7,10c4.7-3.1,5-4,10.8-5.6C313.1,115.6,308.3,109.7,302.3,112.3
			L302.3,112.3z"/>
	</g>
	<g>
		<g>
			<path class="st35" d="M266.1,133.1c-3.1,3.7-8.4,1.6-12.6-0.2c-4.8-2-11.6-4.8-8.7-11.3c1.5-3.4,4.6-8.4,5.6-9.9
				c3.6-5.3,11.5-16.3,16.8-19.8c5.6-3.7,7.7-2.9,8.4,4.4c0.4,4.1-1.4,11.8-3.3,19.2C270.5,123,268.4,130.3,266.1,133.1L266.1,133.1
				z"/>
			<path class="st36" d="M266.1,133.1c-3.1,3.7-8.4,1.6-12.6-0.2c-4.8-2-11.6-4.8-8.7-11.3c1-2.2,2.7-5.2,4-7.4
				c5.1,5.8,12.3,10.6,20.5,12C268.3,129.2,267.3,131.7,266.1,133.1L266.1,133.1z"/>
			<path class="st37" d="M262.2,96.4c1.8-2,3.6-3.6,5.1-4.6c5.6-3.7,7.7-2.9,8.4,4.4c0.2,1.7,0,4-0.5,6.7
				C270.4,101.5,265.6,99.2,262.2,96.4L262.2,96.4z"/>
		</g>
		<path class="st38" d="M250.3,115.7c4.4-6.9,6.8-10.4,12.2-16.2c0.9-1,1.1-1.2,1.5-1.6c1.9,1.3,4,2.4,6.3,3.4c0-0.1,0-0.2,0.1-0.3
			c-0.2,0.9-0.4,1.8-0.7,2.9c-2,7.8-4.6,15.4-7.1,20.4C257.9,122.2,253.7,119.2,250.3,115.7L250.3,115.7z"/>
		<path class="st39" d="M250.3,115.7c3.4,3.5,7.6,6.5,12.3,8.5c-0.2,0.4-0.4,0.7-0.6,1.1c-2.5,4.6-4.9,4.4-10.2,1.4
			c-4.6-2.6-5.7-4.5-1.8-10.7L250.3,115.7L250.3,115.7z"/>
		<path class="st40" d="M270.3,101.2c-2.3-1-4.4-2.1-6.3-3.4C270.1,91.5,272.3,92.2,270.3,101.2L270.3,101.2z"/>
		<path class="st41" d="M267.9,125.9c0.8-2.6,1.6-5.6,2.6-8.9c1.6-5,2.9-9.2,4-14.3c0.2,0.1,0.5,0.2,0.7,0.2
			c-0.6,3.8-1.7,8.2-2.8,12.4c-1,3.9-2,7.7-3.1,10.8C268.9,126.1,268.4,126,267.9,125.9L267.9,125.9z"/>
		<path class="st42" d="M266.1,133.1c-3.1,3.7-8.4,1.6-12.6-0.2c-4.1-1.8-9.8-4.1-9.3-8.9c1.6,3,5,5.6,9,7.4
			c9.9,4.4,12.6,1,14.7-5.4c0.5,0.1,1,0.2,1.5,0.3C268.3,129.2,267.3,131.7,266.1,133.1L266.1,133.1z"/>
		<path class="st43" d="M273.1,89.8c1.4,0.6,2.2,2.6,2.6,6.4c0.2,1.7,0,4-0.5,6.7c-0.2-0.1-0.5-0.1-0.7-0.2
			C275.4,97.7,275.6,92,273.1,89.8L273.1,89.8z"/>
	</g>
	<g>
		<path class="st27" d="M237.6,127.2c-3.5-3.5-8.6-8.9-11.2-11.6c-8.8-9,1.5-16.9,9.9-13.5c8.3,3.4,12.6,7.4,15.6,15.9
			C257,131.7,245.9,135.5,237.6,127.2L237.6,127.2z"/>
		<path class="st26" d="M237.6,127.2c-3.5-3.5-12.9-11.7-14-15.9c3.2,3.5,21.2,22.3,29.5,11.6C254.2,133.9,244.2,133.8,237.6,127.2
			L237.6,127.2z"/>
		<path class="st70" d="M235.2,103.1c7.9,2.7,17.5,14.7,7.8,9.4c-4.9-2.7-5.3-3.6-11.2-4.7C224.6,107.2,229,100.9,235.2,103.1
			L235.2,103.1z"/>
	</g>
	<g>
		<path class="st24" d="M264.3,233.8c-3.5-3.5-8.6-8.9-11.2-11.6c-8.8-9,1.5-16.9,9.9-13.5c8.3,3.4,12.6,7.4,15.6,15.9
			C283.6,238.3,272.6,242.1,264.3,233.8L264.3,233.8z"/>
		<path class="st23" d="M264.3,233.8c-3.5-3.5-12.9-11.7-14-15.9c3.2,3.5,21.2,22.3,29.5,11.6C280.8,240.6,270.9,240.4,264.3,233.8
			L264.3,233.8z"/>
		<path class="st71" d="M261.8,209.7c7.9,2.7,17.5,14.7,7.8,9.4c-4.9-2.7-5.3-3.6-11.2-4.7C251.3,213.8,255.6,207.6,261.8,209.7
			L261.8,209.7z"/>
	</g>
	<g>
		<path class="st29" d="M343.1,221c-3.5-3.5-8.6-8.9-11.2-11.6c-8.8-9,1.5-16.9,9.9-13.5c8.3,3.4,12.6,7.4,15.7,15.9
			C362.4,225.5,351.4,229.3,343.1,221L343.1,221z"/>
		<path class="st30" d="M343.1,221c-3.5-3.5-12.9-11.7-14-15.9c3.2,3.5,21.2,22.3,29.5,11.6C359.6,227.7,349.7,227.6,343.1,221
			L343.1,221z"/>
		<path class="st31" d="M340.6,196.8c7.9,2.7,17.5,14.7,7.8,9.4c-4.9-2.7-5.3-3.6-11.2-4.7C330,200.9,334.4,194.7,340.6,196.8
			L340.6,196.8z"/>
	</g>
	<g>
		<path class="st72" d="M360,119.9c-3.5-3.5-8.6-8.9-11.2-11.6c-8.8-9,1.5-16.9,9.9-13.5c8.3,3.4,12.6,7.4,15.6,15.9
			C379.3,124.4,368.3,128.2,360,119.9L360,119.9z"/>
		<path class="st73" d="M360,119.9c-3.5-3.5-12.9-11.7-14-15.9c3.2,3.5,21.2,22.3,29.5,11.6C376.6,126.7,366.6,126.5,360,119.9
			L360,119.9z"/>
		<path class="st74" d="M357.6,95.8c7.9,2.7,17.5,14.7,7.8,9.4c-4.9-2.7-5.3-3.6-11.2-4.7C347,99.8,351.3,93.6,357.6,95.8
			L357.6,95.8z"/>
	</g>
	<g>
		<path class="st75" d="M360.4,132.4c-5,0.1-12.4,0-16.1,0c-12.6,0.1-11.2-12.8-2.8-16.5c8.3-3.6,14-3.9,22.3-0.3
			C377,121.6,372.1,132.2,360.4,132.4L360.4,132.4z"/>
		<path class="st76" d="M360.4,132.4c-5,0.1-17.3,1.2-21.1-0.9c4.7,0.1,30.8,0.1,28.9-13.2C376.7,125.2,369.7,132.2,360.4,132.4
			L360.4,132.4z"/>
		<path class="st77" d="M341.3,117.4c7.4-3.8,22.8-2.4,12.2,0.9c-5.3,1.7-6.3,1.4-11.2,4.8C336.9,127.9,335.4,120.4,341.3,117.4
			L341.3,117.4z"/>
	</g>
	<g>
		<path class="st53" d="M304.8,159.2c-3.5-3.5-8.6-8.9-11.2-11.6c-8.8-9,1.5-16.9,9.9-13.5c8.3,3.4,12.6,7.4,15.6,15.9
			C324.1,163.7,313.1,167.5,304.8,159.2L304.8,159.2z"/>
		<path class="st54" d="M304.8,159.2c-3.5-3.5-12.9-11.7-14-15.9c3.2,3.5,21.2,22.3,29.5,11.6C321.4,165.9,311.4,165.8,304.8,159.2
			L304.8,159.2z"/>
		<path class="st55" d="M302.4,135c7.9,2.7,17.5,14.7,7.8,9.4c-4.9-2.7-5.3-3.6-11.2-4.7C291.8,139.1,296.2,132.9,302.4,135
			L302.4,135z"/>
	</g>
	<g>
		<path class="st78" d="M277.2,116.6c7.1,0,12.9,5.8,12.9,12.9c0,7.1-5.8,12.9-12.9,12.9s-12.9-5.8-12.9-12.9S270,116.6,277.2,116.6
			L277.2,116.6z"/>
		<path class="st79" d="M265.2,134.3c-0.6-1.5-0.9-3.1-0.9-4.7c0-6.7,5.1-12.2,11.7-12.8c12.3,1.2,13.5,12.2,8.6,18.7
			C280.2,141.1,271,143.3,265.2,134.3L265.2,134.3z"/>
		<path class="st80" d="M268.2,122.1c3.5-4.4,11.5-5.9,15.9-0.6c2.9,3.4,0.2,1.8-1.3,0.9c-3.9-2.4-8.3-1.5-11.5,3
			c-2.8,3.8-3,9,1,11.9c1.2,0.9,1.9,1.8-0.6,1C265.2,136.1,263.8,127.7,268.2,122.1L268.2,122.1z"/>
		<path class="st13" d="M272,121.6c1.3,0,2.4,1.1,2.4,2.4s-1.1,2.4-2.4,2.4s-2.4-1.1-2.4-2.4S270.7,121.6,272,121.6L272,121.6z"/>
		<path class="st13" d="M269.3,127.7c0.7,0,1.4,0.6,1.4,1.3s-0.6,1.4-1.4,1.4c-0.7,0-1.4-0.6-1.4-1.4
			C268,128.3,268.6,127.7,269.3,127.7L269.3,127.7z"/>
	</g>
	<g>
		<path class="st81" d="M363.9,194c7.1,0,12.9,5.8,12.9,12.9s-5.8,12.9-12.9,12.9S351,214,351,206.9S356.7,194,363.9,194L363.9,194z
			"/>
		<path class="st82" d="M351.9,211.6c-0.6-1.5-0.9-3.1-0.9-4.7c0-6.7,5.1-12.2,11.7-12.8c12.3,1.2,13.5,12.2,8.6,18.7
			C366.9,218.4,357.7,220.7,351.9,211.6L351.9,211.6z"/>
		<path class="st83" d="M354.9,199.4c3.5-4.4,11.5-5.9,15.9-0.6c2.9,3.4,0.2,1.8-1.3,0.9c-3.9-2.4-8.3-1.5-11.5,3
			c-2.8,3.8-3,9,1,11.9c1.2,0.9,1.9,1.8-0.6,1C352,213.5,350.5,205,354.9,199.4L354.9,199.4z"/>
		<path class="st13" d="M358.7,199c1.3,0,2.4,1.1,2.4,2.4s-1.1,2.4-2.4,2.4s-2.4-1.1-2.4-2.4C356.3,200.1,357.4,199,358.7,199
			L358.7,199z"/>
		<path class="st13" d="M356,205.1c0.7,0,1.4,0.6,1.4,1.4c0,0.7-0.6,1.4-1.4,1.4c-0.7,0-1.4-0.6-1.4-1.4
			C354.7,205.7,355.3,205.1,356,205.1L356,205.1z"/>
	</g>
	<g>
		<path class="st84" d="M254.5,181.6c7.1,0,12.9,5.8,12.9,12.9s-5.8,12.9-12.9,12.9s-12.9-5.8-12.9-12.9
			C241.6,187.4,247.3,181.6,254.5,181.6L254.5,181.6z"/>
		<path class="st85" d="M242.5,199.2c-0.6-1.5-0.9-3.1-0.9-4.7c0-6.7,5.1-12.2,11.7-12.8c12.3,1.2,13.5,12.2,8.6,18.7
			C257.5,206.1,248.3,208.3,242.5,199.2L242.5,199.2z"/>
		<path class="st86" d="M245.6,187.1c3.5-4.4,11.4-5.9,15.9-0.6c2.9,3.4,0.2,1.8-1.3,0.9c-3.9-2.4-8.3-1.5-11.5,3
			c-2.8,3.8-3,9,1,11.9c1.2,0.9,1.9,1.8-0.6,1C242.6,201.1,241.1,192.6,245.6,187.1L245.6,187.1z"/>
		<path class="st13" d="M249.4,186.6c1.3,0,2.4,1.1,2.4,2.4s-1.1,2.4-2.4,2.4s-2.4-1.1-2.4-2.4C246.9,187.7,248,186.6,249.4,186.6
			L249.4,186.6z"/>
		<path class="st13" d="M246.6,192.7c0.7,0,1.4,0.6,1.4,1.4c0,0.7-0.6,1.4-1.4,1.4c-0.7,0-1.4-0.6-1.4-1.4
			C245.3,193.3,245.9,192.7,246.6,192.7L246.6,192.7z"/>
	</g>
	<g>
		<path class="st44" d="M327.4,128.3c4.7,5.4,4.1,13.5-1.3,18.2s-13.5,4.1-18.2-1.3c-4.7-5.4-4.1-13.5,1.3-18.2
			C314.6,122.4,322.7,123,327.4,128.3L327.4,128.3z"/>
		<path class="st45" d="M306.2,130.8c0.7-1.4,1.7-2.7,3-3.8c5.1-4.4,12.6-4.1,17.4,0.4c7.1,10.1-0.3,18.2-8.5,18.7
			C310.9,146.6,303.2,141.1,306.2,130.8L306.2,130.8z"/>
		<path class="st46" d="M317.4,125.2c5.6-0.2,11.9,4.8,10.9,11.6c-0.7,4.5-1.3,1.3-1.6-0.4c-0.8-4.5-4.3-7.2-9.8-6.8
			c-4.7,0.4-8.8,3.7-8.4,8.6c0.1,1.5-0.1,2.6-1.1,0.2C304.8,132.1,310.3,125.5,317.4,125.2L317.4,125.2z"/>
		<path class="st13" d="M320.2,127.8c0.9,1,0.8,2.6-0.2,3.4c-1,0.9-2.5,0.8-3.4-0.2s-0.8-2.6,0.2-3.4
			C317.8,126.6,319.4,126.7,320.2,127.8L320.2,127.8z"/>
		<path class="st13" d="M313.9,129.7c0.5,0.6,0.4,1.4-0.1,1.9c-0.6,0.5-1.4,0.4-1.9-0.1c-0.5-0.6-0.4-1.4,0.1-1.9
			C312.5,129.1,313.4,129.1,313.9,129.7L313.9,129.7z"/>
	</g>
	<g>
		<g>
			<path class="st1" d="M333,94.8c0-1.5-1.2-2.8-2.8-2.8s-2.8,1.2-2.8,2.8v84.7c0,1.5,1.2,1.9,2.8,1.9s2.8-0.3,2.8-1.9V94.8
				L333,94.8z"/>
			<path class="st2" d="M330.1,102.5c0-1-0.4-1.8-0.8-1.8c-0.5,0-0.8,0.8-0.8,1.8v76.2c0,1,0.4,1,0.8,1c0.5,0,0.8,0,0.8-1V102.5
				L330.1,102.5z"/>
		</g>
		<g>
			<path class="st3" d="M332.5,70.4c13.3,0,24.1,10.8,24.1,24.1s-10.8,24.1-24.1,24.1s-24.1-10.8-24.1-24.1S319.1,70.4,332.5,70.4
				L332.5,70.4z"/>
			<path class="st87" d="M356.5,96.1c-0.3,4.7-1.9,9-4.5,12.5l-2.8-0.5L350,98l2.4-1.9H356.5L356.5,96.1z"/>
			<path class="st87" d="M347.6,75.8c2.8,2.3,5.1,5.2,6.6,8.5l-5-0.2l-8.8-8.8L347.6,75.8L347.6,75.8z"/>
			<path class="st87" d="M332.5,70.4c2.2,0,4.4,0.3,6.4,0.9c-3.1-0.3-7.4,0.1-10.5,0.7c-0.8,0-8.6,2.6-10,3
				C322.4,72.1,327.2,70.4,332.5,70.4L332.5,70.4z"/>
			<path class="st88" d="M316.3,75.2c3.5-2.1,7.7-3.2,12.1-3.2c-7.7,7.1-5.9,19.9,0,24.1C321.2,95.3,313.2,85.2,316.3,75.2
				L316.3,75.2L316.3,75.2z"/>
			<path class="st88" d="M316.3,116.9c-3.5-2.1-6.6-5-8.8-8.8c10,3.2,20.1-4.9,20.9-12.1C331.3,102.7,326.6,114.7,316.3,116.9
				L316.3,116.9L316.3,116.9z"/>
			<path class="st88" d="M352.5,96.1c0,4.1-1,8.2-3.2,12.1C347,98,335,93.2,328.4,96.1C332.6,90.2,345.4,88.3,352.5,96.1L352.5,96.1
				L352.5,96.1z"/>
			<path class="st88" d="M304.3,96.1c0-4.1,1-8.2,3.2-12.1c2.3,10.2,14.3,15,20.9,12.1C324.1,101.9,311.4,103.8,304.3,96.1
				L304.3,96.1L304.3,96.1z"/>
			<path class="st88" d="M340.4,116.9c-3.5,2.1-7.7,3.2-12.1,3.2c7.7-7.1,5.9-19.9,0-24.1C335.6,96.8,343.6,106.9,340.4,116.9
				L340.4,116.9L340.4,116.9z"/>
			<path class="st88" d="M340.4,75.2c3.5,2,6.6,5,8.8,8.8c-10-3.2-20.1,4.9-20.9,12.1C325.4,89.5,330.2,77.5,340.4,75.2L340.4,75.2
				L340.4,75.2z"/>
			<path class="st6" d="M307.5,84c2-3.6,5-6.6,8.8-8.8c-3.2,10,4.9,20.2,12,20.9C321.8,99,309.8,94.3,307.5,84L307.5,84L307.5,84z"
				/>
			<path class="st6" d="M328.4,120.2c-4.1,0-8.2-1-12-3.2c10.2-2.3,15-14.3,12-20.9C334.2,100.3,336.1,113.1,328.4,120.2
				L328.4,120.2L328.4,120.2z"/>
			<path class="st6" d="M349.2,84c2,3.6,3.2,7.7,3.2,12.1c-7.1-7.7-19.9-5.9-24.1,0C329.1,88.9,339.2,80.9,349.2,84L349.2,84
				L349.2,84z"/>
			<path class="st6" d="M307.5,108.1c-2-3.6-3.2-7.7-3.2-12.1c7.1,7.7,19.9,5.9,24.1,0C327.6,103.3,317.5,111.3,307.5,108.1
				L307.5,108.1L307.5,108.1z"/>
			<path class="st6" d="M349.2,108.1c-2,3.6-5,6.6-8.8,8.8c3.2-10-4.9-20.2-12-20.9C335,93.1,347,97.9,349.2,108.1L349.2,108.1
				L349.2,108.1z"/>
			<path class="st6" d="M328.4,72c4.1,0,8.2,1,12,3.2c-10.2,2.3-15,14.3-12,20.9C322.5,91.8,320.6,79.1,328.4,72L328.4,72L328.4,72z
				"/>
		</g>
	</g>
	<g>
		<g>
			<path class="st1" d="M207.6,102.6c-0.5-1.4-2.1-2.1-3.6-1.6c-1.4,0.5-2.1,2.1-1.6,3.6l30.3,79.1c0.5,1.4,1.8,1.3,3.2,0.7
				s2.4-1.3,1.9-2.7L207.6,102.6L207.6,102.6z"/>
			<path class="st2" d="M207.6,110.8c-0.4-0.9-1-1.6-1.4-1.4s-0.5,1.1-0.1,2l27.3,71.1c0.4,0.9,0.7,0.8,1.1,0.6
				c0.4-0.2,0.8-0.3,0.4-1.2L207.6,110.8L207.6,110.8z"/>
		</g>
		<g>
			<path class="st3" d="M198.4,80c12.4-4.8,26.4,1.4,31.1,13.9s-1.4,26.4-13.9,31.1s-26.4-1.4-31.1-13.9
				C179.7,98.7,185.9,84.8,198.4,80L198.4,80z"/>
			<path class="st89" d="M230,95.4c1.4,4.5,1.4,9.1,0.3,13.3l-2.8,0.5l-2.9-9.7l1.6-2.7L230,95.4L230,95.4z"/>
			<path class="st89" d="M214.4,79.6c3.4,1.1,6.6,3,9.2,5.5l-4.8,1.6l-11.4-5.1L214.4,79.6L214.4,79.6z"/>
			<path class="st89" d="M198.4,80c2.1-0.8,4.2-1.3,6.3-1.5c-3,0.8-6.9,2.8-9.6,4.4c-0.7,0.3-7.1,5.5-8.2,6.4
				C189.5,85.2,193.4,81.9,198.4,80L198.4,80z"/>
			<path class="st90" d="M185,90.2c2.6-3.2,6-5.8,10.1-7.3c-4.7,9.4,1.6,20.7,8.6,22.5C196.8,107.3,185.6,100.7,185,90.2L185,90.2
				L185,90.2z"/>
			<path class="st90" d="M199.9,129.2c-4.1-0.6-8-2.3-11.4-5.1c10.5-0.6,17.1-11.8,15.2-18.7C208.8,110.5,208.7,123.4,199.9,129.2
				L199.9,129.2L199.9,129.2z"/>
			<path class="st90" d="M226.2,96.8c1.5,3.8,2,8.1,1.3,12.4c-5.8-8.8-18.7-8.9-23.8-3.8C205.6,98.4,216.8,92.1,226.2,96.8
				L226.2,96.8L226.2,96.8z"/>
			<path class="st90" d="M181.2,114.1c-1.5-3.8-2-8.1-1.3-12.4c5.8,8.8,18.7,8.9,23.8,3.8C201.9,112.4,190.6,118.7,181.2,114.1
				L181.2,114.1L181.2,114.1z"/>
			<path class="st90" d="M222.4,120.6c-2.6,3.2-6,5.8-10.1,7.3c4.7-9.4-1.6-20.7-8.6-22.5C210.7,103.5,221.8,110.1,222.4,120.6
				L222.4,120.6L222.4,120.6z"/>
			<path class="st90" d="M207.5,81.6c4.1,0.6,8,2.3,11.4,5.1c-10.5,0.6-17.1,11.8-15.2,18.7C198.6,100.3,198.7,87.4,207.5,81.6
				L207.5,81.6L207.5,81.6z"/>
			<path class="st6" d="M179.9,101.6c0.6-4.1,2.3-8,5.1-11.4c0.6,10.5,11.8,17.1,18.7,15.2C198.6,110.5,185.7,110.4,179.9,101.6
				L179.9,101.6L179.9,101.6z"/>
			<path class="st6" d="M212.4,127.9c-3.8,1.5-8.1,2-12.4,1.3c8.8-5.8,8.9-18.7,3.8-23.8C210.7,107.3,217,118.5,212.4,127.9
				L212.4,127.9L212.4,127.9z"/>
			<path class="st6" d="M218.9,86.7c3.2,2.6,5.8,6,7.3,10.1c-9.4-4.7-20.7,1.7-22.5,8.6C201.8,98.4,208.4,87.3,218.9,86.7
				L218.9,86.7L218.9,86.7z"/>
			<path class="st6" d="M188.5,124.2c-3.2-2.6-5.8-6-7.3-10.1c9.4,4.7,20.7-1.7,22.5-8.6C205.6,112.4,199,123.5,188.5,124.2
				L188.5,124.2L188.5,124.2z"/>
			<path class="st6" d="M227.5,109.2c-0.6,4.1-2.3,8-5.1,11.4c-0.6-10.5-11.8-17.1-18.7-15.2C208.8,100.3,221.7,100.4,227.5,109.2
				L227.5,109.2L227.5,109.2z"/>
			<path class="st6" d="M195.1,82.9c3.8-1.5,8.1-2,12.4-1.3c-8.8,5.8-8.9,18.7-3.8,23.8C196.7,103.6,190.4,92.3,195.1,82.9
				L195.1,82.9L195.1,82.9z"/>
		</g>
	</g>
	<g>
		<path class="st24" d="M227.2,150c-4.9-1-12.1-2.8-15.7-3.6c-12.3-2.7-8-15,0.9-16.7s14.6-0.7,21.8,4.7
			C245.8,143.2,238.6,152.4,227.2,150L227.2,150z"/>
		<path class="st23" d="M227.2,150c-4.9-1-17.2-2.7-20.4-5.6c4.6,1.2,29.9,7,31.1-6.4C244.7,146.6,236.3,151.9,227.2,150L227.2,150z
			"/>
		<path class="st71" d="M211.9,131.1c8.1-2,22.7,2.7,11.7,3.6c-5.6,0.4-6.4-0.1-12,2.1C205.3,140.3,205.5,132.7,211.9,131.1
			L211.9,131.1z"/>
	</g>
	<g>
		<g>
			<path class="st1" d="M396.6,115.6c0.6-1.3,0-2.7-1.3-3.3c-1.3-0.6-2.7,0-3.3,1.3l-31.4,70.3c-0.6,1.3,0.3,2,1.6,2.6
				s2.4,0.8,3-0.5L396.6,115.6L396.6,115.6z"/>
			<path class="st2" d="M391.4,120.9c0.4-0.8,0.4-1.7,0-1.8c-0.4-0.2-1,0.4-1.4,1.2l-28.3,63.2c-0.4,0.8,0,0.9,0.3,1.1
				c0.4,0.2,0.7,0.3,1.1-0.5L391.4,120.9L391.4,120.9z"/>
		</g>
		<g>
			<path class="st7" d="M401.1,99.4c9.3,4.2,13.5,15.1,9.3,24.3c-4.2,9.3-15.1,13.5-24.4,9.3c-9.3-4.1-13.5-15.1-9.3-24.3
				C380.9,99.4,391.8,95.2,401.1,99.4L401.1,99.4z"/>
			<path class="st8" d="M377.8,121.6c12.2,23.8,40.2,4.7,30.5-13.5C409.4,124.4,391,134.3,377.8,121.6L377.8,121.6z"/>
			<path class="st9" d="M387.8,100.1c6.3-2.2,16.5-1,20.9,8.3c-13.2-11.6-34.7,2.1-27,18.7C372.4,118.4,376.1,104.1,387.8,100.1
				L387.8,100.1z"/>
			<path class="st10" d="M401.1,99.4c6.3,2.8,10.2,8.7,10.8,15.1c-8.9,6.8-21.2,8.6-32.1,3.7c-1.6-0.7-3.2-1.6-4.6-2.6
				c0.1-2.3,0.6-4.7,1.6-6.9C380.9,99.4,391.8,95.2,401.1,99.4L401.1,99.4z"/>
			<path class="st11" d="M410.3,115.6c0-2.4-0.7-5-2-7.5c0.2,3.6-0.5,6.9-1.8,9.7C407.8,117.2,409,116.5,410.3,115.6L410.3,115.6z"
				/>
			<path class="st12" d="M387.8,100.1c6.3-2.2,16.5-1,20.9,8.3c-10.8-9.4-27.1-2.1-28.5,9.9c-0.1-0.1-0.2-0.1-0.3-0.1
				c-1.2-0.5-2.3-1.1-3.3-1.7C376,109.6,380.2,102.7,387.8,100.1L387.8,100.1z"/>
			<path class="st13" d="M388.9,105.9c0.8,0.3,1.1,1.2,0.8,2c-0.3,0.8-1.2,1.1-2,0.8c-0.8-0.3-1.1-1.2-0.8-2
				S388.1,105.6,388.9,105.9L388.9,105.9z"/>
			<path class="st13" d="M395.1,102c1.6,0.7,2.3,2.6,1.6,4.2c-0.7,1.6-2.6,2.3-4.1,1.6c-1.6-0.7-2.3-2.6-1.6-4.2
				C391.6,102,393.5,101.3,395.1,102L395.1,102z"/>
		</g>
	</g>
	<g>
		<g>
			<path class="st1" d="M242.7,121.9c0.5-1.2-0.1-2.5-1.2-3c-1.2-0.5-2.5,0.1-3,1.2l-27,64.6c-0.5,1.2,0.4,1.8,1.5,2.3
				c1.2,0.5,2.2,0.6,2.7-0.5L242.7,121.9L242.7,121.9z"/>
			<path class="st2" d="M238.1,126.8c0.3-0.8,0.3-1.5-0.1-1.7c-0.4-0.2-0.9,0.3-1.2,1.1l-24.3,58.1c-0.3,0.8,0,0.9,0.3,1
				s0.6,0.3,0.9-0.5L238.1,126.8L238.1,126.8z"/>
		</g>
		<g>
			<path class="st91" d="M246.5,107.1c8.5,3.6,12.6,13.4,9,21.9s-13.4,12.6-21.9,9s-12.6-13.4-9-21.9
				C228.1,107.5,237.9,103.5,246.5,107.1L246.5,107.1z"/>
			<path class="st92" d="M225.8,127.8c11.6,21.3,36.6,3.4,27.4-12.9C254.6,129.6,238.1,139,225.8,127.8L225.8,127.8z"/>
			<path class="st93" d="M234.4,108c5.7-2.1,14.9-1.3,19.1,7.1c-12.3-10.2-31.5,2.6-24.1,17.6C220.8,125,223.8,111.9,234.4,108
				L234.4,108z"/>
			<path class="st94" d="M246.5,107.1c5.8,2.4,9.5,7.7,10.2,13.5c-8,6.3-19.1,8.3-29.1,4.1c-1.5-0.6-2.9-1.4-4.3-2.2
				c0-2.1,0.4-4.2,1.3-6.3C228.1,107.5,237.9,103.5,246.5,107.1L246.5,107.1z"/>
			<path class="st95" d="M255.2,121.6c-0.1-2.2-0.7-4.5-2-6.8c0.3,3.3-0.3,6.3-1.4,8.8C252.9,123.1,254.1,122.4,255.2,121.6
				L255.2,121.6z"/>
			<path class="st96" d="M234.4,108c5.7-2.1,14.9-1.3,19.1,7.1c-10-8.3-24.6-1.3-25.7,9.6c-0.1,0-0.2-0.1-0.3-0.1
				c-1.1-0.4-2.1-0.9-3.1-1.5C223.9,116.8,227.6,110.5,234.4,108L234.4,108z"/>
			<path class="st13" d="M235.5,113.3c0.7,0.3,1,1.1,0.7,1.8c-0.3,0.7-1.1,1-1.8,0.7s-1-1.1-0.7-1.8
				C234,113.3,234.8,113,235.5,113.3L235.5,113.3z"/>
			<path class="st13" d="M241.1,109.6c1.4,0.6,2.1,2.3,1.5,3.7s-2.3,2.1-3.7,1.5s-2.1-2.3-1.5-3.7
				C237.9,109.6,239.6,108.9,241.1,109.6L241.1,109.6z"/>
		</g>
	</g>
	<g>
		<path class="st79" d="M246.9,155.6c-4.4,2.4-11,5.8-14.2,7.5c-11.1,6-15.9-6.2-10.2-13.2c5.6-7,10.6-10,19.6-10.6
			C256.6,138.3,257.1,149.9,246.9,155.6L246.9,155.6z"/>
		<path class="st78" d="M246.9,155.6c-4.4,2.4-14.8,9.1-19.1,9c4.2-2.1,27.3-14.2,19.4-25.1C258,141.6,255,151.1,246.9,155.6
			L246.9,155.6z"/>
		<path class="st97" d="M223,151.2c4.8-6.8,19-12.8,11.2-4.9c-3.9,4-4.9,4.1-7.7,9.4C224,162.5,219.2,156.6,223,151.2L223,151.2z"/>
	</g>
	<g>
		<path class="st20" d="M383.1,150.2c-3.2-4.1-7.8-10.3-10.1-13.4c-8-10.5,3.7-17.4,12-12.7c8.2,4.6,12.1,9.2,14.2,18.4
			C402.5,157.3,390.6,159.9,383.1,150.2L383.1,150.2z"/>
		<path class="st21" d="M383.1,150.2c-3.2-4.1-11.9-13.7-12.5-18.2c2.9,4,19.2,25.8,29.2,15.8C399.4,159.3,389.1,157.9,383.1,150.2
			L383.1,150.2z"/>
		<path class="st22" d="M383.5,124.9c7.8,3.8,16.4,17.5,7,10.7c-4.8-3.4-5.1-4.4-11-6.3C372.1,127.8,377.4,121.9,383.5,124.9
			L383.5,124.9z"/>
	</g>
	<g>
		<path class="st51" d="M207.8,120.2c7.1,0,12.9,5.8,12.9,12.9s-5.8,12.9-12.9,12.9s-12.9-5.8-12.9-12.9S200.6,120.2,207.8,120.2
			L207.8,120.2z"/>
		<path class="st50" d="M195.8,137.8c-0.6-1.5-0.9-3.1-0.9-4.7c0-6.7,5.1-12.2,11.7-12.8c12.3,1.2,13.6,12.2,8.6,18.7
			C210.8,144.6,201.6,146.9,195.8,137.8L195.8,137.8z"/>
		<path class="st98" d="M198.9,125.6c3.5-4.4,11.4-5.9,15.9-0.6c2.9,3.4,0.2,1.8-1.3,0.9c-3.9-2.4-8.3-1.5-11.5,3
			c-2.8,3.8-3,9,1,11.9c1.2,0.9,1.9,1.8-0.6,1C195.9,139.7,194.4,131.2,198.9,125.6L198.9,125.6z"/>
		<path class="st13" d="M202.7,125.2c1.3,0,2.4,1.1,2.4,2.4c0,1.3-1.1,2.4-2.4,2.4s-2.4-1.1-2.4-2.4
			C200.2,126.3,201.3,125.2,202.7,125.2L202.7,125.2z"/>
		<path class="st13" d="M199.9,131.2c0.7,0,1.4,0.6,1.4,1.4c0,0.7-0.6,1.4-1.4,1.4c-0.7,0-1.4-0.6-1.4-1.4
			C198.6,131.9,199.2,131.2,199.9,131.2L199.9,131.2z"/>
	</g>
	<g>
		<g>
			<path class="st99" d="M338.7,160c2.6,6.4,5.3,12.6,8.3,20.1c4.3,1.9,7.8,1.5,11.2-1.2c0.2-0.7,3.4-13.9,4.7-20.2
				C356.8,164.5,347.4,166.4,338.7,160L338.7,160z"/>
			<path class="st100" d="M347.1,180.1l0.4,1.1c3.5,8.7,8.1,9.1,10.3-0.2l0.5-2.1C354.9,181.6,351.4,182,347.1,180.1L347.1,180.1z"
				/>
			<path class="st101" d="M333,144.2c1.9,5.9,3.8,10.9,5.7,15.7c8.7,6.4,18,4.5,24.3-1.3c1.2-5.6,2.3-11.3,3.3-18.2
				C355.2,141.7,344.1,143,333,144.2L333,144.2z"/>
		</g>
		<g>
			<path class="st38" d="M353.7,163.6c-3.7,0.8-7.7,0.4-11.7-1.6c1.3,3.5,2.6,6.9,4.1,10.2c1.9,4.2,3.3,6.1,5.3,1.2
				C352.5,170.8,353.2,167.2,353.7,163.6L353.7,163.6z"/>
			<path class="st39" d="M342,162c4,2,8,2.4,11.7,1.6c0.4-2.9,0.8-5.8,1.2-8.1c-5.1,2.9-11.9,1.3-15.9-2
				C340,156.3,341,159.1,342,162L342,162z"/>
		</g>
		<path class="st102" d="M355,180.7c1.1-0.4,2.2-1,3.3-1.9c0.2-0.7,3.4-13.9,4.7-20.2c-0.8,0.8-1.7,1.4-2.6,2.1
			c-1.4,7.2-3,13.9-4.8,18.7C355.4,179.9,355.2,180.3,355,180.7L355,180.7z"/>
		<path class="st103" d="M348.6,183.6c3.3,6.2,7.2,5.6,9.2-2.7l0.5-2.1c-1.1,0.8-2.1,1.5-3.3,1.9
			C353.5,183.8,351.3,185.2,348.6,183.6L348.6,183.6z"/>
		<path class="st104" d="M360.4,160.8c0.9-0.6,1.8-1.3,2.6-2.1c1.2-5.6,2.3-11.3,3.3-18.2l-2.6,0.3
			C362.8,147.2,361.7,154.2,360.4,160.8L360.4,160.8z"/>
		<path class="st105" d="M338.9,150.6c3.7,2.3,7.4,3.1,10.8,3.1c15.6,0,25.7-20.2,4.8-24.5C339.9,126.2,323,140.5,338.9,150.6
			L338.9,150.6z"/>
		<path class="st106" d="M341.2,147.9c2.9,1.8,5.8,2.5,8.5,2.5c12.4,0,20.4-16.1,3.8-19.4C342,128.6,328.6,139.9,341.2,147.9
			L341.2,147.9z"/>
	</g>
	<g>
		<path class="st107" d="M264.1,162.3c-4.8-4.8-11.6-12.1-15.2-15.7c-12-12.2,2-23,13.4-18.3c11.3,4.7,17,10,21.2,21.6
			C290.3,168.4,275.3,173.6,264.1,162.3L264.1,162.3z"/>
		<path class="st108" d="M264.1,162.3c-4.8-4.8-17.5-15.8-19-21.5c4.3,4.7,28.8,30.2,40.1,15.8C286.5,171.5,273,171.2,264.1,162.3
			L264.1,162.3z"/>
		<path class="st109" d="M260.7,129.6c10.7,3.7,23.8,19.9,10.6,12.8c-6.7-3.6-7.2-4.8-15.2-6.4C246.4,135.1,252.3,126.7,260.7,129.6
			L260.7,129.6z"/>
	</g>
	<g>
		<g>
			<path class="st1" d="M278.1,159.9c0-1.5-1.2-2.8-2.8-2.8s-2.8,1.2-2.8,2.8v84.7c0,1.5,1.2,1.9,2.8,1.9s2.8-0.3,2.8-1.9V159.9
				L278.1,159.9z"/>
			<path class="st2" d="M275.2,167.5c0-1-0.4-1.8-0.8-1.8c-0.5,0-0.8,0.8-0.8,1.8v76.2c0,1,0.4,1,0.8,1c0.5,0,0.8,0,0.8-1V167.5
				L275.2,167.5z"/>
		</g>
		<g>
			<path class="st3" d="M277.6,135.4c13.3,0,24.1,10.8,24.1,24.1s-10.8,24.1-24.1,24.1c-13.3,0-24.1-10.8-24.1-24.1
				S264.3,135.4,277.6,135.4L277.6,135.4z"/>
			<path class="st110" d="M301.7,161.1c-0.3,4.7-1.9,9-4.5,12.5l-2.8-0.5l0.8-10.1l2.4-1.9H301.7L301.7,161.1z"/>
			<path class="st110" d="M292.8,140.8c2.8,2.3,5.1,5.2,6.6,8.5l-5-0.2l-8.8-8.8L292.8,140.8L292.8,140.8z"/>
			<path class="st110" d="M277.6,135.4c2.2,0,4.4,0.3,6.4,0.9c-3.1-0.3-7.4,0.1-10.5,0.7c-0.8,0-8.6,2.6-10,3
				C267.5,137.1,272.4,135.4,277.6,135.4L277.6,135.4z"/>
			<path class="st111" d="M261.5,140.2c3.5-2.1,7.7-3.2,12.1-3.2c-7.7,7.1-5.9,19.9,0,24.1C266.3,160.4,258.3,150.2,261.5,140.2
				L261.5,140.2L261.5,140.2z"/>
			<path class="st111" d="M261.5,182c-3.5-2.1-6.6-5-8.8-8.8c10,3.2,20.1-4.9,20.9-12.1C276.5,167.7,271.7,179.7,261.5,182
				L261.5,182L261.5,182z"/>
			<path class="st111" d="M297.6,161.1c0,4.1-1,8.2-3.2,12.1c-2.3-10.2-14.3-15-20.9-12.1C277.8,155.2,290.5,153.4,297.6,161.1
				L297.6,161.1L297.6,161.1z"/>
			<path class="st111" d="M249.4,161.1c0-4.1,1-8.2,3.2-12.1c2.3,10.2,14.3,15,20.9,12.1C269.3,166.9,256.5,168.8,249.4,161.1
				L249.4,161.1L249.4,161.1z"/>
			<path class="st111" d="M285.6,182c-3.5,2.1-7.7,3.2-12.1,3.2c7.7-7.1,5.9-19.9,0-24.1C280.7,161.8,288.7,171.9,285.6,182
				L285.6,182L285.6,182z"/>
			<path class="st111" d="M285.6,140.2c3.5,2,6.6,5,8.8,8.8c-10-3.2-20.1,4.9-20.9,12.1C270.6,154.5,275.3,142.5,285.6,140.2
				L285.6,140.2L285.6,140.2z"/>
			<path class="st6" d="M252.6,149c2.1-3.6,5-6.6,8.8-8.8c-3.2,10,4.9,20.1,12,20.9C266.9,164.1,254.9,159.3,252.6,149L252.6,149
				L252.6,149z"/>
			<path class="st6" d="M273.5,185.2c-4.1,0-8.2-1-12.1-3.2c10.2-2.3,15-14.3,12-20.9C279.4,165.3,281.3,178.1,273.5,185.2
				L273.5,185.2L273.5,185.2z"/>
			<path class="st6" d="M294.4,149c2,3.6,3.2,7.7,3.2,12.1c-7.1-7.7-19.9-5.9-24.1,0C274.2,153.9,284.4,145.9,294.4,149L294.4,149
				L294.4,149z"/>
			<path class="st6" d="M252.6,173.1c-2.1-3.6-3.2-7.7-3.2-12.1c7.1,7.7,19.9,5.9,24.1,0C272.8,168.3,262.7,176.3,252.6,173.1
				L252.6,173.1L252.6,173.1z"/>
			<path class="st6" d="M294.4,173.1c-2,3.6-5,6.6-8.8,8.8c3.2-10-4.9-20.1-12-20.9C280.1,158.1,292.1,162.9,294.4,173.1
				L294.4,173.1L294.4,173.1z"/>
			<path class="st6" d="M273.5,137c4.1,0,8.2,1,12.1,3.2c-10.2,2.3-15,14.3-12,20.9C267.7,156.9,265.8,144.1,273.5,137L273.5,137
				L273.5,137z"/>
		</g>
	</g>
	<g>
		<g>
			<path class="st35" d="M317.1,152.4c1.1,4.7-3.8,7.7-7.8,10c-4.5,2.6-10.8,6.3-14.2,0.1c-1.8-3.2-4-8.8-4.6-10.5
				c-2.1-6.1-6.1-19-5.7-25.3c0.4-6.7,2.4-7.9,8.6-4.1c3.5,2.1,8.6,8.2,13.4,14.1C311.7,142.9,316.3,148.9,317.1,152.4L317.1,152.4z
				"/>
			<path class="st36" d="M317.1,152.4c1.1,4.7-3.8,7.7-7.8,10c-4.5,2.6-10.8,6.3-14.2,0.1c-1.2-2.1-2.5-5.3-3.5-7.6
				c7.7-0.6,15.8-3.4,22-9.2C315.4,148.3,316.7,150.6,317.1,152.4L317.1,152.4z"/>
			<path class="st37" d="M285.5,133.5c-0.5-2.6-0.7-5-0.6-6.9c0.4-6.7,2.4-7.9,8.6-4.1c1.5,0.9,3.2,2.5,5.1,4.4
				C294.4,130,289.8,132.5,285.5,133.5L285.5,133.5z"/>
		</g>
		<path class="st38" d="M293.7,154.6c-2.9-7.6-4.2-11.6-5.7-19.5c-0.2-1.3-0.3-1.6-0.4-2.2c2.1-0.7,4.3-1.8,6.5-3
			c-0.1-0.1-0.1-0.2-0.2-0.2c0.6,0.7,1.2,1.4,1.9,2.3c5,6.3,9.6,12.9,12.1,17.9C303.5,152.4,298.6,154,293.7,154.6L293.7,154.6z"/>
		<path class="st39" d="M293.7,154.6c4.9-0.6,9.8-2.2,14.2-4.8c0.2,0.4,0.4,0.7,0.5,1.1c2.2,4.7,0.6,6.5-5,9c-4.8,2.2-7,1.9-9.6-5
			L293.7,154.6L293.7,154.6z"/>
		<path class="st40" d="M294.1,129.9c-2.1,1.2-4.3,2.3-6.5,3C286.3,124.2,288.1,122.9,294.1,129.9L294.1,129.9z"/>
		<path class="st41" d="M312.4,146.7c-1.5-2.2-3.5-4.6-5.5-7.4c-3-4.3-5.6-7.8-9-11.8c0.2-0.1,0.4-0.3,0.6-0.4
			c2.6,2.8,5.5,6.3,8.3,9.7c2.5,3.1,4.9,6.2,6.8,8.9C313.2,146,312.8,146.4,312.4,146.7L312.4,146.7z"/>
		<path class="st42" d="M317.1,152.4c1.1,4.7-3.8,7.7-7.8,10c-3.9,2.2-9.1,5.3-12.7,2.1c3.3,0.5,7.5-0.6,11.3-2.7
			c9.4-5.3,8.4-9.5,4.5-15c0.4-0.3,0.8-0.7,1.2-1C315.4,148.3,316.7,150.6,317.1,152.4L317.1,152.4z"/>
		<path class="st43" d="M286.8,120.8c1.3-0.8,3.4-0.2,6.7,1.8c1.5,0.9,3.2,2.5,5.1,4.4c-0.2,0.2-0.4,0.3-0.6,0.4
			C294.5,123.7,290,120.1,286.8,120.8L286.8,120.8z"/>
	</g>
	<g>
		<path class="st112" d="M327.1,137.4c7.1,0,12.9,5.8,12.9,12.9s-5.8,12.9-12.9,12.9s-12.9-5.8-12.9-12.9
			C314.2,143.1,320,137.4,327.1,137.4L327.1,137.4z"/>
		<path class="st113" d="M315.1,155c-0.6-1.5-0.9-3.1-0.9-4.7c0-6.7,5.1-12.2,11.7-12.8c12.3,1.2,13.5,12.2,8.6,18.7
			C330.2,161.8,321,164.1,315.1,155L315.1,155z"/>
		<path class="st114" d="M318.2,142.8c3.5-4.4,11.5-5.9,15.9-0.6c2.9,3.4,0.2,1.8-1.3,0.9c-3.9-2.4-8.3-1.5-11.5,3
			c-2.8,3.8-3,9,1,11.9c1.2,0.9,1.9,1.8-0.6,1C315.2,156.9,313.8,148.4,318.2,142.8L318.2,142.8z"/>
		<path class="st13" d="M322,142.4c1.3,0,2.4,1.1,2.4,2.4s-1.1,2.4-2.4,2.4s-2.4-1.1-2.4-2.4S320.7,142.4,322,142.4L322,142.4z"/>
		<path class="st13" d="M319.3,148.4c0.7,0,1.4,0.6,1.4,1.4c0,0.7-0.6,1.4-1.4,1.4c-0.7,0-1.4-0.6-1.4-1.4
			C318,149.1,318.6,148.4,319.3,148.4L319.3,148.4z"/>
	</g>
	<g>
		<path class="st27" d="M300.7,300.2c-3.5-3.5-8.6-8.9-11.2-11.6c-8.8-9,1.5-16.9,9.9-13.5c8.3,3.5,12.6,7.4,15.6,15.9
			C320,304.7,309,308.5,300.7,300.2L300.7,300.2z"/>
		<path class="st26" d="M300.7,300.2c-3.5-3.5-12.9-11.7-14-15.9c3.2,3.5,21.2,22.3,29.5,11.6C317.2,306.9,307.3,306.7,300.7,300.2
			L300.7,300.2z"/>
		<path class="st70" d="M298.2,276c7.9,2.7,17.5,14.7,7.8,9.4c-4.9-2.7-5.3-3.6-11.2-4.7C287.6,280.1,292,273.9,298.2,276L298.2,276
			z"/>
	</g>
</g>
<g id="pumpkin_00000013897189886996620940000001396000496017113512_">
	<g>
		<path class="st115" d="M165.8,113.6c-3.4,2.9-8.6,5.7-14.3,8.8c-44.3,24-56.5,62.1-11.7,90.9c15.9,10.2,35.7,15.8,50.9,16.5
			c0.8,0,1.7,0.1,2.7,0.1c1.6,0,2.8-0.9,2.9-2c0-1.1-1.2-2.1-2.8-2.1c-0.7,0-1.5,0-2.4-0.1c-14.1-0.7-32.6-5.9-47.5-15.5
			c-42.1-27.1-30.1-62.1,11.3-84.5c4.2-2.3,8.1-4.4,11.4-6.5L165.8,113.6L165.8,113.6z"/>
		<path class="st116" d="M195.4,226.4c-0.5-0.4-1.2-0.6-2-0.6c-0.7,0-1.5,0-2.4-0.1c-14.1-0.7-32.6-5.9-47.5-15.5
			c-42.1-27.1-30.1-62.1,11.3-84.5c4.2-2.3,8.1-4.4,11.4-6.5l-0.2-2c-1.6,1.2-3.5,2.2-5.5,3.2C78.6,161.1,118.5,220.7,195.4,226.4
			L195.4,226.4z"/>
	</g>
	<g>
		<path class="st115" d="M439,122.4c2,1.1,4,2.2,6.1,3.4c41.4,22.4,53.4,57.4,11.3,84.5c-14.9,9.6-33.4,14.8-47.5,15.5
			c-0.9,0-1.7,0.1-2.4,0.1c-1.6,0-2.8,1-2.8,2.1s1.3,2.1,2.9,2c1,0,1.8,0,2.7-0.1c15.1-0.7,35-6.3,50.9-16.5
			c44.8-28.8,32.6-66.9-11.7-90.9c-3.5-1.9-6.7-3.6-9.5-5.4V122.4L439,122.4z"/>
		<path class="st116" d="M439,119.3c1.4,0.8,2.8,1.6,4.3,2.4c3,1.6,6.1,3.3,9,5c23.2,13,39,34.4,31.7,54.9
			c-9.1,25.7-40.1,37.5-72.1,48c14.8-1.2,33.3-6.7,48.3-16.3c44.8-28.8,32.6-66.9-11.7-90.9c-3.5-1.9-6.7-3.6-9.5-5.4L439,119.3
			L439,119.3z"/>
	</g>
	<path class="st117" d="M307,174.8c58.1,0,105.3,27.8,105.3,62.1S365.2,299,307,299s-105.3-27.8-105.3-62.1S248.8,174.8,307,174.8
		L307,174.8z"/>
	<path class="st49" d="M431.8,125.2c0,26.7-58.4,48.2-130.5,48.2s-130.5-21.6-130.5-48.2h19.9c1.6,19.2,50.5,34.6,110.6,34.6
		s109-15.4,110.6-34.6L431.8,125.2L431.8,125.2z"/>
	<g>
		<path class="st118" d="M175,113c-16.6,8.4-29.9,26.8-36,61.2c11.8-18.2,23.2-30.5,35.1-38.3c-2.1-3.5-3.3-7.1-3.3-10.8
			C170.8,121,172.3,116.9,175,113L175,113z"/>
		<path class="st49" d="M170.9,123.7c-4.6,2.5-8.9,5.7-12.7,9.4c-11.7,11.6-12.4,25.4-16.1,40.9c11.7-17,20.4-29.4,32.3-37.6
			c-2.3-3.6-3.6-7.4-3.6-11.2C170.8,124.7,170.9,124.2,170.9,123.7L170.9,123.7z"/>
		<path class="st119" d="M174.1,114.3c-4.1,1.8-7.8,4.2-11.2,7.2c3.8-3.5,7.8-6.3,12-8.5C174.7,113.4,174.4,113.8,174.1,114.3
			L174.1,114.3z"/>
		<path class="st118" d="M172.4,132.8c-11.9,6.8-22.6,17.7-30.9,34.4c-20.5,41.4,12.6,115.6,65.6,121.7
			c-24.6-50.3,1.1-92.7,37.7-120.2C207,161.9,179.3,148.6,172.4,132.8L172.4,132.8z"/>
		<path class="st119" d="M209.4,159.4c-14.9,10.2-31.4,28.1-31.5,77.1c0,19.8,8.4,42-20.2,22c12.5,16.1,29.6,28,49.5,30.3
			c-24.6-50.3,1.1-92.7,37.7-120.2C231.7,166.3,219.7,163.2,209.4,159.4L209.4,159.4z"/>
		<path class="st118" d="M217.7,162.2c-57.9,45.4-43.9,162.6,41.8,146.1c0.5-7.8,1.4-15.4,2.7-23c-13.4-8.5-25.5-20.8-35.4-36
			c11.2,7.8,22.9,13.9,34.7,18.3c-1.6,7.6-2.5,7.4,2.3,9.3c8.5-41.9,26.4-79.6,34.4-103.4C267.6,173.1,239.6,169,217.7,162.2
			L217.7,162.2z M237.6,210.7c0.2-30.8,51.4-29.5,36.8,6.7C264,243.1,237.4,233.2,237.6,210.7L237.6,210.7z"/>
		<path class="st49" d="M204.9,174.7c7.5-7.9,13.2-11.2,17.6-11.1c1.2,0.3,2.4,0.7,3.6,1c21.8,13-11.1,145.2-42.1,89.6
			C179.7,227.6,186.6,196.8,204.9,174.7L204.9,174.7z"/>
		<path class="st119" d="M194.9,283.7c34.8,19.1,39.4,1.3,41.6-21.4c7.8,9.3,16.4,17,25.8,22.9c-1.3,7.6-2.2,15.3-2.7,23
			C228.7,314.2,207.1,302.9,194.9,283.7L194.9,283.7z M237.1,255.8c0.5-6.3,1.1-12.8,2.2-18.8c0.8-4.1,1.4-8.2,2.2-12.5
			c7.8,11.4,24.9,12.4,32.8-7.1c8.6-21.4-5.7-30.6-18.9-28.2c3.4-5.4,7.7-11.1,13-17.4c9.5,0.9,19.5,1.4,29.7,1.5
			c-8,23.8-25.8,61.7-34.4,103.5c-4.8-1.9-3.9-1.7-2.3-9.3C253.2,264.4,245.1,260.5,237.1,255.8L237.1,255.8z"/>
		<path class="st120" d="M220.9,305.7c25.2-0.2,23.2-11.3,24.2-34c2.8,2.7,5.6,5.2,8.6,7.5c1.1,9.7,3,19.5,5.8,29.1
			C244.4,311.2,231.6,309.9,220.9,305.7L220.9,305.7z M245.9,260.6c0.8-8.3,2.4-17.9,5.7-28.6c0.9,0.2,1.8,0.4,2.7,0.5
			c-1.4,9.7-2,20.3-1.7,31.3C250.3,262.8,248.1,261.8,245.9,260.6L245.9,260.6z"/>
		<path class="st118" d="M431.7,126.7c3.6,6.1,6.9,13.2,9.7,21.7c-6.7-2.1-13-3.9-18.9-5.4C428,137.9,431.2,132.4,431.7,126.7
			L431.7,126.7z"/>
		<path class="st119" d="M422.5,143c6,1.5,12.2,3.2,18.9,5.4c-2.8-8.4-6.1-15.6-9.7-21.7C431.2,132.4,428,137.9,422.5,143L422.5,143
			z"/>
		<path class="st120" d="M430.1,145c-0.2-3.7-0.5-7-1-10c1.5-2.7,2.4-5.5,2.7-8.3c3.6,6.1,6.9,13.3,9.7,21.7
			C437.5,147.1,433.8,146,430.1,145L430.1,145z"/>
		<path class="st118" d="M430,133.3c17,9.1,30.4,26.6,36.1,57.8c5.2,28.4-8.9,55.9-31.9,73.5c12.5-66.9-8.2-91.7-45.3-103.6
			C410.1,153.8,424.9,144.2,430,133.3L430,133.3z"/>
		<path class="st49" d="M410.3,151.7c6.8,7.6,11.8,18.4,13.3,33.5c-7.9-12.5-20.5-19.9-33.7-24.6
			C397.6,157.9,404.5,154.9,410.3,151.7L410.3,151.7z"/>
		<path class="st118" d="M397,158c34.1,12.6,55.8,39.3,45.5,93.1c-6.4,33.2-58.4,74.4-112.5,53.8c3.5-4.2,6.7-8.3,9.5-12.3
			c18.4-7.6,36.6-22.1,53.3-44.6c-11.3,8.8-23.5,15.3-36.1,20.1c2.6,6.2,2.4,7.4-4.9,10.5c-2,0.8-3.5,1.5-4.7,1.9
			c9.1-16.9,12.1-32.7,10.7-47.8c8.8-1.1,16.6-9.6,16.6-21.8c-0.1-19.1-19.8-25.8-31.3-19.6c-3.8-6.4-8.2-12.7-13.1-18.9
			C356,170.1,379.3,165,397,158L397,158z"/>
		<path class="st119" d="M466.1,191.1c5.2,28.4-8.9,55.9-31.9,73.5c5.5-29.3-14.3-82.7-20.1-98.3c22.6,8.3,29,27.1,34.6,37.8
			c11.1,21.6,16.1-30-8.4-53.8c-4-3.9-8.8-7.4-14.6-10.3c1.8-2.1,3.3-4.3,4.3-6.5C446.9,142.4,460.4,159.9,466.1,191.1L466.1,191.1z
			"/>
		<path class="st120" d="M396.7,158.1c26.3,9.6,45.1,24.9,51.9,56.6c2.1,9.7-1.3,29.7,7.8,17.6c7.6-10.2,9.1-15.5,10.9-28.8
			c-0.4,27.8-10.2,43.6-34.5,60.7c10.3-56.4,7.6-77.7-38.4-105.1C395.1,158.7,395.9,158.4,396.7,158.1L396.7,158.1z"/>
		<path class="st49" d="M357.9,243.1c9.4,9,18.2,12.2,25.6,11.3c3.1-2,6.2-4.2,9.2-6.5c-1.3,1.8-2.6,3.4-3.9,5.1
			c23.6-10,28.6-64.9-14.3-87.9c-13.3,3.3-28.4,5.8-44.6,7.1c4.8,6.2,9.2,12.5,13.1,18.9c11.5-6.2,31.2,0.5,31.3,19.6
			c0.1,12.2-7.8,20.8-16.6,21.8C358,236,358,239.6,357.9,243.1L357.9,243.1z"/>
		<path class="st119" d="M442.4,251c-6.4,33.2-58.4,74.4-112.5,53.8c3.5-4.2,6.7-8.3,9.5-12.3c4.5-1.9,9-4.1,13.4-6.8
			c14.8-2.3,38.9-4,57.9-26.7c33.2-39.6,14.5-78.4-24-97.3c3.6-1.1,7-2.4,10.2-3.7C431.1,170.6,452.8,197.3,442.4,251L442.4,251z"/>
		<path class="st120" d="M343.8,170.8c6.1,5.7,11,12,14.9,19c-3.8-1.1-7.8-1.2-11.5-0.3c-3.4-6.2-7.4-12.1-12-17.7
			C338.1,171.5,341,171.1,343.8,170.8L343.8,170.8z M370.1,224.6c0.7,4.3,1.3,8.8,1.7,13.5c0.8,8.2,0.9,15.8,0.5,22.8
			c-5.2,2.7-10.4,5.1-15.8,7.1c2.6,6.2,2.4,7.4-4.9,10.5c-0.5,0.2-1,0.4-1.5,0.6c5.7-13.3,9.4-27.7,8.7-46.8
			C363.2,231.4,367.3,228.7,370.1,224.6L370.1,224.6z M371.1,272c-0.4,2.2-0.8,4.3-1.3,6.2c-11,43.9,17.3,25.6,42.2,14.7
			c-23.6,14.4-48.4,26.5-75.4,13c2.9-5.5,5.8-10.7,8.4-16C353.9,285.6,362.6,279.7,371.1,272L371.1,272z"/>
		<path class="st49" d="M151.9,155.6c7.1-8.4,17.4-16.1,24.4-16.6c2,2.4,4.4,4.8,7.3,7c0.4,3.2-0.1,7.6-1.5,13.4
			c-4.8,19.1-8.6,37.6-16.4,53.8c-10.9,22.6-19.3,25-24.8,7C132.8,193.8,143.8,165.2,151.9,155.6L151.9,155.6z"/>
		<path class="st118" d="M265.4,315.9c23.4,8.9,54.1,6.9,74.1-3.6c8.6-7.4,16.3-18.5,21.4-32c-38.7,28.4-80.8,22.8-112.3-5.2
			c-0.1,6,0.1,11.8,0.4,17.1C250.1,306.7,255.1,311.9,265.4,315.9L265.4,315.9z M296.4,247.4l12.5-23.8l13.2,23.7L296.4,247.4
			L296.4,247.4z M365.6,264.2c1.8-9.2,2.5-19.2,1.5-29.6c-0.2-2.1-0.4-4-0.6-6c-8.6,7.1-22.3,5.5-29-11.2
			c-8.5-21.2,5.5-30.4,18.6-28.3c-3.8-7.5-8.4-13.3-13.6-18.2c-12.9,1.6-26.7,2.4-41.1,2.4c-8.4,0-16.5-0.3-24.5-0.9
			c-3.8,5.5-7.1,11.4-10,17.6c8.3,3.2,13.6,12.2,7.5,27.3c-4.9,12.1-13.4,16.3-21,14.9c-2,10.1-3.3,20.2-4,29.9
			c4.1,1.9,8.1,3.7,12.2,5.2c-2,9.1-2.9,7,5.8,10.8c9.5,4.1,7.1,4.5,11.4-5.5c20.8,5,40.1,5.7,60.3,0.9c3.8,8,3.6,8.7,12.6,4.8
			c7.3-3.1,7.5-4.3,4.9-10.5C359.6,266.8,362.6,265.6,365.6,264.2L365.6,264.2z"/>
		<path class="st49" d="M274.2,176.5c2.1-1.4,4.2-2.7,6.3-3.7c6.8,0.4,13.7,0.6,20.8,0.6c4.1,0,8.1-0.1,12.1-0.2
			c17.1,11.1,25.7,40.1,19.5,70.2c-3.1,15.2-10.6,26.3-19.9,33.6c-11.2,0.1-22.5-1.3-34.3-4.1c-4.2,9.9-1.9,9.5-11.4,5.5
			c-8.7-3.7-7.8-1.6-5.8-10.8c-3.5-1.3-7-2.8-10.4-4.4c-0.9-4.3-1.2-9.1-0.5-14.5s1.6-10.8,2.6-16.2c7.6,1.4,16.2-2.8,21-14.9
			c6.1-15.1,0.8-24.1-7.5-27.3C269,185.4,271.5,180.9,274.2,176.5L274.2,176.5z M296.4,247.4l12.5-23.8l13.2,23.7L296.4,247.4
			L296.4,247.4z"/>
		<path class="st119" d="M262.8,314.8c21.7,11,60,7.3,76.8-2.5c8.6-7.4,16.3-18.5,21.4-32c-10.4,7.6-21,12.8-31.5,15.7
			C312.9,311.8,289.6,320,262.8,314.8L262.8,314.8z M365.6,264.2c1.8-9.2,2.5-19.2,1.5-29.6c-0.2-2.1-0.4-4-0.6-6
			c-3.3,2.8-7.4,4.2-11.5,4c0.2,17.2-4.4,33.6-12.6,47.2c1.6,1.7,3.7,1.1,9.3-1.3c7.3-3.1,7.5-4.3,4.9-10.5
			C359.6,266.8,362.6,265.6,365.6,264.2L365.6,264.2z M356,189.2c-3.8-7.5-8.4-13.3-13.6-18.2c-3.1,0.4-6.2,0.7-9.4,1
			c4.6,6,8.5,12.1,11.5,18.4C348,188.9,352.1,188.5,356,189.2L356,189.2z"/>
	</g>
	<path class="st121" d="M237.6,210.7c0-5.3,1.6-9.6,4-13c-7,27.5,21.1,36.9,33.5,17.9c-0.2,0.6-0.5,1.2-0.7,1.9
		C264,243.1,237.4,233.2,237.6,210.7L237.6,210.7z"/>
	<path class="st121" d="M374.2,210.7c0-5.3-1.6-9.6-4-13c7,27.5-21.1,36.9-33.5,17.9c0.2,0.6,0.5,1.2,0.7,1.9
		C347.8,243.1,374.3,233.2,374.2,210.7L374.2,210.7z"/>
	<path class="st121" d="M291.2,254.4l17.6-33l19.4,32.6L291.2,254.4L291.2,254.4z M296.4,247.4l12.5-23.8l13.2,23.7L296.4,247.4
		L296.4,247.4z"/>
	<path class="st121" d="M392.6,247.9c-54.9,74.6-127.2,61-165.9,1.3C277.9,310.1,343.5,305.3,392.6,247.9L392.6,247.9z"/>
	<g>
		<path class="st118" d="M432,113.9c1.6-15.6,10.4-12.4,13.6-1.5c2.7,8.9,5,32.7,7.3,44.1c-6.5-7.9-15-15.5-24.1-19.2
			C429.6,130,431,122.7,432,113.9L432,113.9z"/>
		<path class="st119" d="M438.2,103.2c2.8,0.2,5.8,3.8,7.4,9.2c2.7,8.9,5,32.7,7.3,44.1c-2.5-3-5.3-6-8.3-8.8
			C446.8,134.3,446.8,108.4,438.2,103.2L438.2,103.2z"/>
	</g>
	<g>
		<path class="st118" d="M170.2,113.9c-1.6-15.6-10.4-12.4-13.6-1.5c-2.7,8.9-5,32.7-7.3,44.1c6.5-7.9,15.1-15.5,24.1-19.2
			C172.5,130,171.1,122.7,170.2,113.9L170.2,113.9z"/>
		<path class="st122" d="M170.2,113.9c-1-9.9-4.9-12.2-8.4-9.9c4.2,0.2,5,6.6,5,12.2c-0.1,9.7-2.5,19.1-5.5,28.3
			c3.8-3,7.9-5.6,12.1-7.3C172.5,130,171.1,122.7,170.2,113.9L170.2,113.9z"/>
	</g>
	<path class="st123" d="M335.1,274.5c1.3-0.3,2.6-0.6,3.9-0.9c2.4,5.1,3.2,7.2,5.8,7.1C338.6,281.5,337.6,279.6,335.1,274.5
		L335.1,274.5z M345.7,280.7L345.7,280.7L345.7,280.7L345.7,280.7L345.7,280.7z"/>
	<path class="st123" d="M274.1,281c1.9,0.1,2-2.1,4.6-8.1c1,0.2,1.9,0.5,2.9,0.7C280,278.6,280.1,281.4,274.1,281L274.1,281
		L274.1,281z"/>
	<g>
		<path class="st124" d="M173.6,107.9c2.3-0.2,4.5,3.1,4.9,7.5s-1,8.1-3.3,8.3c-2.3,0.2-4.5-3.1-4.9-7.5
			C169.9,111.9,171.4,108.1,173.6,107.9z"/>
		<path class="st125" d="M176,108.9c1.3,1.3,2.3,3.7,2.6,6.5c0.5,4.4-1,8.1-3.3,8.3c-1.4,0.1-2.7-1-3.6-2.8
			C177.1,123.5,178.5,114.1,176,108.9L176,108.9z"/>
	</g>
	<g>
		<path class="st124" d="M427.9,107.9c2.3,0.1,4,3.7,3.8,8.1s-2.2,7.9-4.5,7.8s-4-3.7-3.8-8.1S425.6,107.8,427.9,107.9z"/>
		<path class="st125" d="M430.1,109.2c1.1,1.5,1.8,4,1.6,6.8c-0.2,4.4-2.2,7.9-4.5,7.8c-1.4-0.1-2.5-1.4-3.2-3.3
			C429,123.8,431.8,114.7,430.1,109.2L430.1,109.2z"/>
	</g>
</g>
</svg>
