<?xml version="1.0" encoding="utf-8"?>
<!-- Generator: Adobe Illustrator 25.4.1, SVG Export Plug-In . SVG Version: 6.00 Build 0)  -->
<svg version="1.1" id="halloween_cookies" xmlns="http://www.w3.org/2000/svg" xmlns:xlink="http://www.w3.org/1999/xlink" x="0px"
	 y="0px" viewBox="0 0 2226 1000" style="enable-background:new 0 0 2226 1000;" xml:space="preserve">
<style type="text/css">
	.st0{fill:#FFFFFF;}
	.st1{fill:#FDE5CB;}
	.st2{fill:#A55614;}
	.st3{fill:#B5702F;}
	.st4{opacity:0.3;}
	.st5{opacity:0.4;}
	.st6{opacity:0.7;enable-background:new    ;}
	.st7{fill:#9BDC37;}
	.st8{fill:#BDEB4C;}
	.st9{opacity:0.3;fill:#FFFFFF;enable-background:new    ;}
	.st10{opacity:0.2;fill:#FFFFFF;enable-background:new    ;}
	.st11{fill:#ECD8B2;}
	.st12{fill:#F1EADE;}
	.st13{opacity:0.7;fill:#FFFFFF;enable-background:new    ;}
	.st14{fill:#2E1251;}
	.st15{fill:#4B247A;}
	.st16{opacity:0.1;fill:#FFFFFF;enable-background:new    ;}
	.st17{opacity:0.4;fill:#FFFFFF;enable-background:new    ;}
</style>
<rect id="bg" x="-0.2" y="1" class="st0" width="2226.3" height="998"/>
<rect x="781.3" y="279.8" class="st1" width="593.7" height="382.4"/>
<g>
	<g>
		<path class="st2" d="M925.8,640c-17.4-6.9-29.4-58.7-20-77.4c9.3-18.7,41.4-24,52.7-30s24.7-66.6,52.7-73.3
			c28-6.7-21-168.9,113.1-172.9s109,229.3,108.4,235.6c-0.4,3.9,13.8,7.4,18.4,19.4c6.3,16.6,2.7,43.6-7,58.7
			C1226.6,627.3,991.2,666,925.8,640z"/>
		<path class="st3" d="M930.3,637.6c-16.5-6.6-17.8-56.8-8.9-74.7c8.9-17.9,31.7-17.3,42.5-23c10.8-5.7,19.9-77.4,51.8-78.2
			c56.8-1.6-22.3-161.3,105.2-165.2c127.5-3.8,103.8,219.2,103,225.2c-1.1,8.5,13.1,7,17.5,18.5c6,15.8,2.5,41.7-6.7,56.2
			C1218.1,622.5,992.5,662.5,930.3,637.6z"/>
		<g class="st4">
			<path d="M940.2,605.2c-2.3,1.2-5.5,0.2-3.4-3.5c2.2-3.8,2.5-5.4,3.6-8.5c1-3.1,5.5-2.5,5.7,1.2
				C946.3,598,943.3,603.5,940.2,605.2z"/>
			<path d="M921.5,594c-1.6,2.4-10.1-0.4-8.4-5.7C914.7,583,924.6,589.5,921.5,594z"/>
			<path d="M931.3,618.7c-1.7,3.3-5.7,6.1-3.3,8.3c2.5,2.2,7.1-1.6,8.7-5.8C938.4,617.1,935.1,611.2,931.3,618.7z"/>
			<path class="st0" d="M949.3,633.8c-2.7-2.6-3.3-7.2-3.2-10.3s2.7-3.8,4.7-1.9s3.8,7,3.8,10.2C954.6,635,951.7,636.2,949.3,633.8z
				"/>
			<path d="M969.3,618.3c-1.6-1.2-2.5-1.9-5.8-1.1c-3.3,0.8-5.4-3-0.8-6c3.4-2.2,7.1-1.8,9.6,0.1
				C976.7,614.8,973.5,621.3,969.3,618.3z"/>
			<path d="M966.6,572.2c-1.6-1.2-2.5-1.9-5.8-1.1c-3.3,0.8-5.4-3-0.8-6c3.4-2.2,7.1-1.8,9.6,0.1
				C974.1,568.7,970.8,575.2,966.6,572.2z"/>
			<path d="M979.6,588.4c-2.4-1-3.7-4.2,0.6-4.9c4.3-0.7,5.8-1.5,8.9-2.6c3.1-1.2,5.4,2.7,2.7,5.2
				C989,588.6,982.8,589.8,979.6,588.4z"/>
			<path d="M935.3,560c2.2,3,2.1,7.6,1.4,10.7c-0.7,3.1-3.4,3.3-4.9,1.1c-1.6-2.2-2.5-7.5-2-10.7C930.2,558,933.3,557.3,935.3,560z"
				/>
			<path d="M918.6,557.6c0.5,2.1,2.9,5.6-2,6.8c-5,1.2-6.4-2.5-6.2-5.2C910.7,554.9,917.4,552.3,918.6,557.6z"/>
			<path d="M984.3,508c-0.8-2-3.8-5,0.8-7.1c4.7-2,6.8,1.3,7,4C992.5,509.4,986.3,513.1,984.3,508z"/>
			<path class="st0" d="M999.8,521.9c-2.4-1-3.7-4.2,0.6-4.9c4.3-0.7,5.8-1.5,8.9-2.6s5.4,2.7,2.7,5.2
				C1009.2,522.1,1003,523.3,999.8,521.9z"/>
			<path d="M998.2,487.6c-2.8,0.2-6-8.1-0.9-10.1C1002.4,475.4,1003.7,487.2,998.2,487.6z"/>
			<path d="M965.6,541.5c6.1-3,5.1-10.5-1.7-7.1C958.3,537.1,957.1,545.7,965.6,541.5z"/>
			<path d="M1004.6,616.9c-3.7,0.4-7.7-1.9-10-4.1c-2.4-2.1-1.2-4.5,1.4-4.8c2.7-0.3,7.8,1.5,10.3,3.5
				C1008.9,613.5,1007.9,616.6,1004.6,616.9z"/>
			<path d="M1005.2,591.7c-1.9,0.5-3,0.7-4.5,3.8s-5.7,2.3-5.2-3.2c0.4-4,3.1-6.7,6.2-7.4C1007.2,583.7,1010.2,590.2,1005.2,591.7z"
				/>
			<path d="M1014.9,603.6c-2.1-0.6-6.3-0.2-5-5.1s5.3-4.4,7.6-2.9C1021.2,598,1020.1,605.2,1014.9,603.6z"/>
			<path d="M1023.1,617.8c3.1-1.3,3.7-3.6,1.5-5.1c-2-1.4-6.3-0.3-9.5,3.9c-3.3,4.2,0,7.1,2,6.2
				C1018.8,622,1019.2,619.4,1023.1,617.8z"/>
			<path d="M1034.9,601.3c-2.3,1.2-5.5,0.2-3.4-3.5c2.2-3.8,2.5-5.4,3.6-8.5c1-3.1,5.5-2.5,5.7,1.2
				C1041,594.1,1038,599.7,1034.9,601.3z"/>
			<path d="M1024.9,587.1c-1.6,2.4-10.1-0.4-8.4-5.7S1028,582.5,1024.9,587.1z"/>
			<path d="M1025.3,636.1c1.5-6.6-5-10.6-6.6-3.2C1017.3,639,1023.3,645.4,1025.3,636.1z"/>
			<path d="M1069.5,626.4c-0.8-2-3.8-5,0.8-7.1c4.7-2,6.8,1.3,7,4C1077.8,627.8,1071.6,631.5,1069.5,626.4z"/>
			<path d="M1063.7,641.8c3,1.6,5.2,0.6,4.9-2.1c-0.2-2.5-3.7-5.1-9.1-4.9c-5.4,0.1-5.5,4.5-3.6,5.5
				C1057.7,641.1,1059.9,639.7,1063.7,641.8z"/>
			<path d="M1088.6,623.8c-2.8,0.2-6-8.1-0.9-10.1C1092.9,611.6,1094.1,623.3,1088.6,623.8z"/>
			<path d="M1047.2,634.9c-0.3-5.6-5.5-5.6-7.4-0.4C1038,639.6,1047.6,642.7,1047.2,634.9z"/>
			<path d="M1056.2,568.4c-2.7-2.6-3.3-7.2-3.2-10.3c0.2-3.2,2.7-3.8,4.7-1.9c1.9,1.9,3.8,7,3.8,10.2
				C1061.5,569.5,1058.6,570.7,1056.2,568.4z"/>
			<path d="M1076.1,552.9c-1.6-1.2-2.5-1.9-5.8-1.1c-3.3,0.8-5.4-3-0.8-6c3.4-2.2,7.1-1.8,9.6,0.1
				C1083.6,549.4,1080.4,555.8,1076.1,552.9z"/>
			<path d="M1073,567.9c-0.8-2-3.8-5,0.8-7.1c4.7-2,6.8,1.3,7,4C1081.3,569.3,1075.1,573,1073,567.9z"/>
			<path d="M1067.2,583.2c3,1.6,5.2,0.6,4.9-2.1c-0.2-2.5-3.7-5.1-9.1-4.9c-5.4,0.1-5.5,4.5-3.6,5.5
				C1061.2,582.5,1063.5,581.2,1067.2,583.2z"/>
			<path d="M1082.9,581.5c-2.4-1-3.7-4.2,0.6-4.9c4.3-0.7,5.8-1.5,8.9-2.6c3.1-1.2,5.4,2.7,2.7,5.2
				C1092.4,581.7,1086.1,582.8,1082.9,581.5z"/>
			<path d="M1092.1,565.2c-2.8,0.2-6-8.1-0.9-10.1C1096.4,553,1097.6,564.8,1092.1,565.2z"/>
			<path d="M1079.1,588.4c-3.6,0.8-8.3-0.6-8.5,2.7c-0.2,3.3,5.7,4.5,10,3.1C1084.9,592.9,1087.4,586.6,1079.1,588.4z"/>
			<path d="M1048.1,576.5c-0.3-5.6-5.5-5.6-7.4-0.4C1038.9,581.2,1048.6,584.3,1048.1,576.5z"/>
			<path d="M1054.2,600.7c6.1-3,5.1-10.5-1.7-7.1C1046.9,596.3,1045.7,604.9,1054.2,600.7z"/>
			<path d="M1038.7,553.1c2.2,3,2.1,7.6,1.4,10.7c-0.7,3.1-3.4,3.3-4.9,1.1c-1.6-2.2-2.5-7.5-2-10.7
				C1033.6,551.1,1036.7,550.3,1038.7,553.1z"/>
			<path d="M1020.6,565.3c1.4,1.1,2.1,1.8,5.5,1.5c3.4-0.3,4.8,2.9-0.3,4.8c-3.7,1.3-7.3,0.6-9.4-1.2
				C1012.6,567.1,1017,562.5,1020.6,565.3z"/>
			<path d="M1022,550.7c0.5,2.1,2.9,5.6-2,6.8c-5,1.2-6.4-2.5-6.2-5.2C1014,547.9,1020.8,545.3,1022,550.7z"/>
			<path d="M1030.3,536.6c-2.7-2.1-5-1.5-5.2,1.2c-0.2,2.5,2.8,5.6,8.1,6.4c5.3,0.8,6.2-3.5,4.5-4.8
				C1036.1,538.3,1033.7,539.2,1030.3,536.6z"/>
			<path d="M1014.5,535.6c2.2,1.4,2.9,4.7-1.4,4.7c-4.3,0-6,0.5-9.2,1.1c-3.2,0.6-4.9-3.6-1.8-5.5
				C1005.2,533.9,1011.6,533.7,1014.5,535.6z"/>
			<path d="M1002.7,550.1c2.8,0.2,4.6,9-0.8,10.2C996.5,561.4,997.2,549.6,1002.7,550.1z"/>
			<path class="st0" d="M1045.4,546.1c-0.6,5.6,4.5,6.5,7.2,1.6C1055.3,543.1,1046.3,538.4,1045.4,546.1z"/>
			<path d="M1045.2,525.6c-6.5,2-6.8,9.5,0.5,7.3C1051.7,531.1,1054.3,522.8,1045.2,525.6z"/>
			<path d="M1024.4,467.2c-1.9,0.5-3,0.7-4.5,3.8s-5.7,2.3-5.2-3.2c0.4-4,3.1-6.7,6.2-7.4C1026.4,459.2,1029.4,465.8,1024.4,467.2z"
				/>
			<path d="M1042.3,493.3c3.1-1.3,3.7-3.6,1.5-5.1c-2-1.4-6.3-0.3-9.5,3.9c-3.3,4.2,0,7.1,2,6.2
				C1038,497.5,1038.4,494.9,1042.3,493.3z"/>
			<path d="M1054.1,476.8c-2.3,1.2-5.5,0.2-3.4-3.5c2.2-3.8,2.5-5.4,3.6-8.5c1-3.1,5.5-2.5,5.7,1.2
				C1060.2,469.6,1057.2,475.2,1054.1,476.8z"/>
			<path d="M1053.8,487.3c-1.7,3.3-5.7,6.1-3.3,8.3c2.5,2.2,7.1-1.6,8.7-5.8C1061,485.7,1057.7,479.7,1053.8,487.3z"/>
			<path d="M1044.5,511.7c1.5-6.6-5-10.6-6.6-3.2C1036.5,514.6,1042.4,520.9,1044.5,511.7z"/>
			<path d="M1071.9,502.4c-2.7-2.6-3.3-7.2-3.2-10.3c0.2-3.2,2.7-3.8,4.7-1.9c1.9,1.9,3.8,7,3.8,10.2
				C1077.2,503.6,1074.3,504.8,1071.9,502.4z"/>
			<path d="M1091.8,486.9c-1.6-1.2-2.5-1.9-5.8-1.1c-3.3,0.8-5.4-3-0.8-6c3.4-2.2,7.1-1.8,9.6,0.1
				C1099.3,483.4,1096.1,489.9,1091.8,486.9z"/>
			<path d="M1088.7,501.9c-0.8-2-3.8-5,0.8-7.1c4.7-2,6.8,1.3,7,4C1097,503.3,1090.8,507,1088.7,501.9z"/>
			<path d="M1082.9,517.3c3,1.6,5.2,0.6,4.9-2.1c-0.2-2.5-3.7-5.1-9.1-4.9c-5.4,0.1-5.5,4.5-3.6,5.5
				C1076.9,516.6,1079.1,515.3,1082.9,517.3z"/>
			<path d="M1098.6,515.6c-2.4-1-3.7-4.2,0.6-4.9c4.3-0.7,5.8-1.5,8.9-2.6c3.1-1.2,5.4,2.7,2.7,5.2
				C1108,515.7,1101.8,516.9,1098.6,515.6z"/>
			<path d="M1107.8,499.3c-2.8,0.2-6-8.1-0.9-10.1C1112,487.1,1113.3,498.8,1107.8,499.3z"/>
			<path d="M1094.8,522.5c-3.6,0.8-8.3-0.6-8.5,2.7s5.7,4.5,10,3.1C1100.6,527,1103.1,520.7,1094.8,522.5z"/>
			<path d="M1066.4,510.4c-0.3-5.6-5.5-5.6-7.4-0.4C1057.2,515.1,1066.8,518.2,1066.4,510.4z"/>
			<path d="M1070.1,530.6c6.1-3,5.1-10.5-1.7-7.1C1062.7,526.2,1061.5,534.9,1070.1,530.6z"/>
			<path d="M1080.6,441.2c-2.7-2.6-3.3-7.2-3.2-10.3c0.2-3.2,2.7-3.8,4.7-1.9c1.9,1.9,3.8,7,3.8,10.2
				C1086,442.4,1083,443.6,1080.6,441.2z"/>
			<path d="M1102.6,418.4c-1.6-1.2-2.5-1.9-5.8-1.1c-3.3,0.8-5.4-3-0.8-6c3.4-2.2,7.1-1.8,9.6,0.1
				C1110.1,414.9,1106.9,421.3,1102.6,418.4z"/>
			<path d="M1094.9,438.2c-0.8-2-3.8-5,0.8-7.1c4.7-2,6.8,1.3,7,4C1103.2,439.6,1097,443.3,1094.9,438.2z"/>
			<path d="M1086.4,458.7c3,1.6,5.2,0.6,4.9-2.1c-0.2-2.5-3.7-5.1-9.1-4.9c-5.4,0.1-5.5,4.5-3.6,5.5
				C1080.4,458,1082.7,456.7,1086.4,458.7z"/>
			<path d="M1102.1,457c-2.4-1-3.7-4.2,0.6-4.9c4.3-0.7,5.8-1.5,8.9-2.6c3.1-1.2,5.4,2.7,2.7,5.2
				C1111.6,457.2,1105.3,458.4,1102.1,457z"/>
			<path d="M1118.1,443.3c-2.8,0.2-6-8.1-0.9-10.1C1122.4,431.1,1123.6,442.8,1118.1,443.3z"/>
			<path d="M1098.3,463.9c-3.6,0.8-8.3-0.6-8.5,2.7c-0.2,3.3,5.7,4.5,10,3.1C1104.1,468.4,1106.6,462.1,1098.3,463.9z"/>
			<path d="M1067.3,452c-0.3-5.6-5.5-5.6-7.4-0.4C1058.1,456.7,1067.8,459.8,1067.3,452z"/>
			<path d="M1073.4,476.2c6.1-3,5.1-10.5-1.7-7.1C1066.1,471.8,1064.9,480.4,1073.4,476.2z"/>
			<path d="M1057.9,428.6c2.2,3,2.1,7.6,1.4,10.7c-0.7,3.1-3.4,3.3-4.9,1.1c-1.6-2.2-2.5-7.5-2-10.7
				C1052.8,426.6,1055.9,425.9,1057.9,428.6z"/>
			<path d="M1030,425.2c2.8,0.2,4.6,9-0.8,10.2C1023.8,436.5,1024.5,424.7,1030,425.2z"/>
			<path d="M1038.6,405c3.6-0.2,8.1,2,8.9-1.3c0.7-3.3-4.9-5.4-9.3-4.8C1033.7,399.6,1030.2,405.4,1038.6,405z"/>
			<path d="M1064.6,421.6c-0.6,5.6,4.5,6.5,7.2,1.6C1074.5,418.6,1065.5,413.9,1064.6,421.6z"/>
			<path d="M1064.4,401.1c-6.5,2-6.8,9.5,0.5,7.3C1070.9,406.7,1073.5,398.3,1064.4,401.1z"/>
			<path d="M1111.5,585c-1.9,0.5-3,0.7-4.5,3.8c-1.5,3.1-5.7,2.3-5.2-3.2c0.4-4,3.1-6.7,6.2-7.4C1113.5,577,1116.5,583.6,1111.5,585
				z"/>
			<path d="M1129.4,611.1c3.1-1.3,3.7-3.6,1.5-5.1c-2-1.4-6.3-0.3-9.5,3.9c-3.3,4.2,0,7.1,2,6.2
				C1125.1,615.3,1125.5,612.7,1129.4,611.1z"/>
			<path d="M1141.3,594.6c-2.3,1.2-5.5,0.2-3.4-3.5c2.2-3.8,2.5-5.4,3.6-8.5c1-3.1,5.5-2.5,5.7,1.2
				C1147.3,587.4,1144.3,593,1141.3,594.6z"/>
			<path d="M1131.2,580.4c-1.6,2.4-10.1-0.4-8.4-5.7C1124.4,569.4,1134.3,575.9,1131.2,580.4z"/>
			<path d="M1131.7,629.5c1.5-6.6-5-10.6-6.6-3.2C1123.7,632.4,1129.6,638.7,1131.7,629.5z"/>
			<path d="M1175.9,619.7c-0.8-2-3.8-5,0.8-7.1c4.7-2,6.8,1.3,7,4C1184.2,621.1,1177.9,624.9,1175.9,619.7z"/>
			<path class="st0" d="M1150.4,623.7c-0.3-5.6-5.5-5.6-7.4-0.4C1141.2,628.4,1150.9,631.5,1150.4,623.7z"/>
			<path d="M1162.5,561.7c-2.7-2.6-3.3-7.2-3.2-10.3c0.2-3.2,2.7-3.8,4.7-1.9c1.9,1.9,3.8,7,3.8,10.2
				C1167.9,562.8,1164.9,564,1162.5,561.7z"/>
			<path class="st0" d="M1185.3,542c-1.6-1.2-2.5-1.9-5.8-1.1c-3.3,0.8-5.4-3-0.8-6c3.4-2.2,7.1-1.8,9.6,0.1
				C1192.8,538.5,1189.5,545,1185.3,542z"/>
			<path d="M1179.4,561.2c-0.8-2-3.8-5,0.8-7.1c4.7-2,6.8,1.3,7,4C1187.7,562.6,1181.4,566.3,1179.4,561.2z"/>
			<path d="M1173.6,576.5c3,1.6,5.2,0.6,4.9-2.1c-0.2-2.5-3.7-5.1-9.1-4.9c-5.4,0.1-5.5,4.5-3.6,5.5
				C1167.6,575.8,1169.8,574.5,1173.6,576.5z"/>
			<path d="M1198.5,558.6c-2.8,0.2-6-8.1-0.9-10.1C1202.7,546.3,1204,558.1,1198.5,558.6z"/>
			<path d="M1154.5,569.8c-0.3-5.6-5.5-5.6-7.4-0.4C1145.3,574.5,1154.9,577.6,1154.5,569.8z"/>
			<path d="M1160.6,594c6.1-3,5.1-10.5-1.7-7.1C1153.3,589.6,1152.1,598.2,1160.6,594z"/>
			<path d="M1145,546.4c2.2,3,2.1,7.6,1.4,10.7c-0.7,3.1-3.4,3.3-4.9,1.1c-1.6-2.2-2.5-7.5-2-10.7
				C1140,544.4,1143.1,543.7,1145,546.4z"/>
			<path d="M1126.9,558.6c1.4,1.1,2.1,1.8,5.5,1.5c3.4-0.3,4.8,2.9-0.3,4.8c-3.7,1.3-7.3,0.6-9.4-1.2
				C1118.9,560.5,1123.3,555.8,1126.9,558.6z"/>
			<path d="M1128.3,544c0.5,2.1,2.9,5.6-2,6.8c-5,1.2-6.4-2.5-6.2-5.2C1120.4,541.3,1127.2,538.7,1128.3,544z"/>
			<path d="M1136.7,529.9c-2.7-2.1-5-1.5-5.2,1.2c-0.2,2.5,2.8,5.6,8.1,6.4c5.3,0.8,6.2-3.5,4.5-4.8
				C1142.5,531.6,1140,532.5,1136.7,529.9z"/>
			<path d="M1111.4,536.8c2.2,1.4,2.9,4.7-1.4,4.7c-4.3,0-6,0.5-9.2,1.1c-3.2,0.6-4.9-3.6-1.8-5.5
				C1102.1,535,1108.5,534.9,1111.4,536.8z"/>
			<path d="M1111.9,552.6c2.8,0.2,4.6,9-0.8,10.2C1105.6,563.9,1106.4,552.2,1111.9,552.6z"/>
			<path d="M1121.5,524.1c3.6-0.2,8.1,2,8.9-1.3c0.7-3.3-4.9-5.4-9.3-4.8C1116.6,518.7,1113.1,524.5,1121.5,524.1z"/>
			<path d="M1151.8,539.5c-0.6,5.6,4.5,6.5,7.2,1.6C1161.6,536.4,1152.6,531.7,1151.8,539.5z"/>
			<path d="M1151.6,518.9c-6.5,2-6.8,9.5,0.5,7.3C1158,524.5,1160.7,516.2,1151.6,518.9z"/>
			<path d="M1129,484.9c-3.7,0.4-7.7-1.9-10-4.1c-2.4-2.1-1.2-4.5,1.4-4.8c2.7-0.3,7.8,1.5,10.3,3.5
				C1133.3,481.5,1132.4,484.5,1129,484.9z"/>
			<path d="M1129.6,459.6c-1.9,0.5-3,0.7-4.5,3.8c-1.5,3.1-5.7,2.3-5.2-3.2c0.4-4,3.1-6.7,6.2-7.4
				C1131.6,451.6,1134.6,458.2,1129.6,459.6z"/>
			<path d="M1139.3,471.5c-2.1-0.6-6.3-0.2-5-5.1c1.4-4.9,5.3-4.4,7.6-2.9C1145.6,466,1144.6,473.1,1139.3,471.5z"/>
			<path d="M1147.5,485.7c3.1-1.3,3.7-3.6,1.5-5.1c-2-1.4-6.3-0.3-9.5,3.9c-3.3,4.2,0,7.1,2,6.2
				C1143.2,489.9,1143.6,487.4,1147.5,485.7z"/>
			<path d="M1159.4,469.3c-2.3,1.2-5.5,0.2-3.4-3.5c2.2-3.7,2.5-5.4,3.6-8.5c1-3.1,5.5-2.5,5.7,1.2
				C1165.4,462.1,1162.4,467.6,1159.4,469.3z"/>
			<path d="M1149.3,455c-1.6,2.4-10.1-0.4-8.4-5.7C1142.5,444,1152.4,450.5,1149.3,455z"/>
			<path d="M1159.1,479.7c-1.7,3.3-5.7,6.1-3.3,8.3c2.5,2.2,7.1-1.6,8.7-5.8C1166.2,478.2,1162.9,472.2,1159.1,479.7z"/>
			<path d="M1131.5,499.1c-4.5-3.3-7.9,0.7-5,5.5C1129.3,509.2,1137.8,503.6,1131.5,499.1z"/>
			<path d="M1149.8,504.1c1.5-6.6-5-10.6-6.6-3.2C1141.8,507,1147.7,513.4,1149.8,504.1z"/>
			<path d="M1197.1,479.4c-1.6-1.2-2.5-1.9-5.8-1.1s-5.4-3-0.8-6c3.4-2.2,7.1-1.8,9.6,0.1C1204.5,475.9,1201.3,482.3,1197.1,479.4z"
				/>
			<path d="M1194,494.4c-0.8-2-3.8-5,0.8-7.1c4.7-2,6.8,1.3,7,4C1202.2,495.8,1196,499.5,1194,494.4z"/>
			<path d="M1188.1,509.7c3,1.6,5.2,0.6,4.9-2.1c-0.2-2.5-3.7-5.1-9.1-4.9c-5.4,0.1-5.5,4.5-3.6,5.5
				C1182.1,509,1184.4,507.7,1188.1,509.7z"/>
			<path d="M1203.9,508c-2.4-1-3.7-4.2,0.6-4.9c4.3-0.7,5.8-1.5,8.9-2.6c3.1-1.2,5.4,2.7,2.7,5.2
				C1213.3,508.2,1207.1,509.4,1203.9,508z"/>
			<path d="M1199.7,519.7c-3.6,0.8-8.3-0.6-8.5,2.7c-0.2,3.3,5.7,4.5,10,3.1C1205.5,524.3,1208,517.9,1199.7,519.7z"/>
			<path d="M1171.6,502.9c-0.3-5.6-5.5-5.6-7.4-0.4C1162.4,507.5,1172.1,510.7,1171.6,502.9z"/>
			<path d="M1175.3,523.1c6.1-3,5.1-10.5-1.7-7.1C1168,518.7,1166.8,527.3,1175.3,523.1z"/>
			<path d="M1180.6,436.3c-2.7-2.6-3.3-7.2-3.2-10.3c0.2-3.2,2.7-3.8,4.7-1.9c1.9,1.9,3.8,7,3.8,10.2
				C1185.9,437.5,1183,438.7,1180.6,436.3z"/>
			<path d="M1200.6,420.8c-1.6-1.2-2.5-1.9-5.8-1.1c-3.3,0.8-5.4-3-0.8-6c3.4-2.2,7.1-1.8,9.6,0.1
				C1208,417.3,1204.8,423.8,1200.6,420.8z"/>
			<path d="M1191.6,451.2c3,1.6,5.2,0.6,4.9-2.1c-0.2-2.5-3.7-5.1-9.1-4.9c-5.4,0.1-5.5,4.5-3.6,5.5
				C1185.6,450.5,1187.9,449.2,1191.6,451.2z"/>
			<path d="M1207.4,449.5c-2.4-1-3.7-4.2,0.6-4.9c4.3-0.7,5.8-1.5,8.9-2.6c3.1-1.2,5.4,2.7,2.7,5.2
				C1216.8,449.6,1210.6,450.8,1207.4,449.5z"/>
			<path d="M1172.6,444.5c-0.3-5.6-5.5-5.6-7.4-0.4C1163.3,449.1,1173,452.3,1172.6,444.5z"/>
			<path d="M1163.1,421c2.2,3,2.1,7.6,1.4,10.7c-0.7,3.1-3.4,3.3-4.9,1.1c-1.6-2.2-2.5-7.5-2-10.7C1158,419,1161.1,418.3,1163.1,421
				z"/>
			<path d="M1145,433.2c1.4,1.1,2.1,1.8,5.5,1.5c3.4-0.3,4.8,2.9-0.3,4.8c-3.7,1.3-7.3,0.6-9.4-1.2
				C1137,435.1,1141.4,430.4,1145,433.2z"/>
			<path d="M1146.4,418.7c0.5,2.1,2.9,5.6-2,6.8s-6.4-2.5-6.2-5.2C1138.5,415.9,1145.2,413.3,1146.4,418.7z"/>
			<path d="M1154.7,404.5c-2.7-2.1-5-1.5-5.2,1.2c-0.2,2.5,2.8,5.6,8.1,6.4s6.2-3.5,4.5-4.8C1160.5,406.2,1158.1,407.2,1154.7,404.5
				z"/>
			<path d="M1138.9,403.6c2.2,1.4,2.9,4.7-1.4,4.7c-4.3,0-6,0.5-9.2,1.1c-3.2,0.6-4.9-3.6-1.8-5.5
				C1129.7,401.8,1136,401.7,1138.9,403.6z"/>
			<path d="M1127.1,418.1c2.8,0.2,4.6,9-0.8,10.2S1121.7,417.6,1127.1,418.1z"/>
			<path d="M1143.9,397.4c3.6-0.2,8.1,2,8.9-1.3c0.7-3.3-4.9-5.4-9.3-4.8C1139,392,1135.4,397.8,1143.9,397.4z"/>
			<path d="M1169.9,414.1c-0.6,5.6,4.5,6.5,7.2,1.6C1179.7,411,1170.7,406.3,1169.9,414.1z"/>
			<path d="M1169.6,393.5c-6.5,2-6.8,9.5,0.5,7.3C1176.1,399.1,1178.7,390.8,1169.6,393.5z"/>
			<path d="M1214.3,603.3c-3.7,0.4-7.7-1.9-10-4.1c-2.4-2.1-1.2-4.5,1.4-4.8c2.7-0.3,7.8,1.5,10.3,3.5
				C1218.6,599.9,1217.7,603,1214.3,603.3z"/>
			<path d="M1214.9,578.1c-1.9,0.5-3,0.7-4.5,3.8c-1.5,3.1-5.7,2.3-5.2-3.2c0.4-4,3.1-6.7,6.2-7.4
				C1216.9,570.1,1219.9,576.6,1214.9,578.1z"/>
			<path d="M1232.8,604.2c3.1-1.3,3.7-3.6,1.5-5.1c-2-1.4-6.3-0.3-9.5,3.9c-3.3,4.2,0,7.1,2,6.2
				C1228.5,608.4,1228.9,605.8,1232.8,604.2z"/>
			<path d="M1244.6,587.7c-2.3,1.2-5.5,0.2-3.4-3.5s2.5-5.4,3.6-8.5c1-3.1,5.5-2.5,5.7,1.2C1250.7,580.5,1247.7,586.1,1244.6,587.7z
				"/>
			<path d="M1239.5,570.1c-0.3-5.6-5.5-5.6-7.4-0.4C1230.2,574.8,1239.9,577.9,1239.5,570.1z"/>
			<path d="M1248.4,539.5c2.2,3,2.1,7.6,1.4,10.7c-0.7,3.1-3.4,3.3-4.9,1.1c-1.6-2.2-2.5-7.5-2-10.7
				C1243.3,537.4,1246.4,536.7,1248.4,539.5z"/>
			<path class="st0" d="M1230.3,551.7c1.4,1.1,2.1,1.8,5.5,1.5c3.4-0.3,4.8,2.9-0.3,4.8c-3.7,1.3-7.3,0.6-9.4-1.2
				C1222.3,553.5,1226.7,548.9,1230.3,551.7z"/>
			<path d="M1224.2,522c2.2,1.4,2.9,4.7-1.4,4.7c-4.3,0-6,0.5-9.2,1.1c-3.2,0.6-4.9-3.6-1.8-5.5C1215,520.3,1221.3,520.2,1224.2,522
				z"/>
			<path d="M1230,479.9c-3.7,0.4-7.7-1.9-10-4.1s-1.2-4.5,1.4-4.8c2.7-0.3,7.8,1.5,10.3,3.5C1234.3,476.4,1233.4,479.5,1230,479.9z"
				/>
			<path d="M1147.5,359.4c-3.7,0.4-7.7-1.9-10-4.1c-2.4-2.1-1.2-4.5,1.4-4.8c2.7-0.3,7.8,1.5,10.3,3.5
				C1151.7,356,1150.8,359.1,1147.5,359.4z"/>
			<path d="M1148.1,334.2c-1.9,0.5-3,0.7-4.5,3.8c-1.5,3.1-5.7,2.3-5.2-3.2c0.4-4,3.1-6.7,6.2-7.4
				C1150,326.2,1153,332.7,1148.1,334.2z"/>
			<path d="M1157.8,346c-2.1-0.6-6.3-0.2-5-5.1c1.4-4.9,5.3-4.4,7.6-2.9C1164.1,340.5,1163,347.7,1157.8,346z"/>
			<path d="M1166,360.3c3.1-1.3,3.7-3.6,1.5-5.1c-2-1.4-6.3-0.3-9.5,3.9c-3.3,4.2,0,7.1,2,6.2C1161.6,364.5,1162,361.9,1166,360.3z"
				/>
			<path d="M1184.9,364c-1.7,3.3-5.7,6.1-3.3,8.3c2.5,2.2,7.1-1.6,8.7-5.8C1192.1,362.4,1188.8,356.4,1184.9,364z"/>
			<path d="M1150.2,368.7c-4.5-3.3-7.9,0.7-5,5.5C1148,378.8,1156.6,373.3,1150.2,368.7z"/>
			<path d="M1168.2,378.6c1.5-6.6-5-10.6-6.6-3.2C1160.2,381.5,1166.1,387.9,1168.2,378.6z"/>
			<path d="M1206.4,374.4c-0.8-2-3.8-5,0.8-7.1c4.7-2,6.8,1.3,7,4C1214.7,375.7,1208.4,379.5,1206.4,374.4z"/>
			<path d="M1214.7,394.7c-3.6,0.8-8.3-0.6-8.5,2.7s5.7,4.5,10,3.1C1220.4,399.3,1223,392.9,1214.7,394.7z"/>
			<path d="M1193.7,397.6c6.1-3,5.1-10.5-1.7-7.1C1186.4,393.2,1185.2,401.8,1193.7,397.6z"/>
			<path d="M1191,317.1c-0.3-5.6-5.5-5.6-7.4-0.4C1181.8,321.8,1191.5,324.9,1191,317.1z"/>
			<path class="st0" d="M1190.8,344.5c6.1-3,5.1-10.5-1.7-7.1C1183.5,340.1,1182.3,348.7,1190.8,344.5z"/>
			<path d="M1163.4,307.8c1.4,1.1,2.1,1.8,5.5,1.5c3.4-0.3,4.8,2.9-0.3,4.8c-3.7,1.3-7.3,0.6-9.4-1.2
				C1155.5,309.6,1159.8,305,1163.4,307.8z"/>
			<path d="M1130.7,294.4c2.8,0.2,4.6,9-0.8,10.2C1124.5,305.7,1125.3,293.9,1130.7,294.4z"/>
			<path d="M1045.3,364.4c-3.7,0.4-7.7-1.9-10-4.1s-1.2-4.5,1.4-4.8c2.7-0.3,7.8,1.5,10.3,3.5C1049.5,361,1048.6,364.1,1045.3,364.4
				z"/>
			<path d="M1072.1,350.9c-2.3,1.2-5.5,0.2-3.4-3.5c2.2-3.7,2.5-5.4,3.6-8.5c1-3.1,5.5-2.5,5.7,1.2
				C1078.2,343.7,1075.2,349.3,1072.1,350.9z"/>
			<path d="M1062,336.7c-1.6,2.4-10.1-0.4-8.4-5.7C1055.3,325.7,1065.1,332.1,1062,336.7z"/>
			<path d="M1071.8,361.4c-1.7,3.3-5.7,6.1-3.3,8.3c2.5,2.2,7.1-1.6,8.7-5.8C1078.9,359.8,1075.6,353.8,1071.8,361.4z"/>
			<path d="M1044.5,375.8c-4.5-3.3-7.9,0.7-5,5.5C1042.3,385.9,1050.9,380.4,1044.5,375.8z"/>
			<path d="M1089.8,376.5c-2.7-2.6-3.3-7.2-3.2-10.3c0.2-3.2,2.7-3.8,4.7-1.9c1.9,1.9,3.8,7,3.8,10.2
				C1095.2,377.6,1092.2,378.9,1089.8,376.5z"/>
			<path d="M1109.8,361c-1.6-1.2-2.5-1.9-5.8-1.1c-3.3,0.8-5.4-3-0.8-6c3.4-2.2,7.1-1.8,9.6,0.1C1117.3,357.5,1114,364,1109.8,361z"
				/>
			<path d="M1106.7,376c-0.8-2-3.8-5,0.8-7.1c4.7-2,6.8,1.3,7,4C1115,377.4,1108.8,381.1,1106.7,376z"/>
			<path d="M1100.9,391.3c3,1.6,5.2,0.6,4.9-2.1c-0.2-2.5-3.7-5.1-9.1-4.9c-5.4,0.1-5.5,4.5-3.6,5.5
				C1094.9,390.7,1097.1,389.3,1100.9,391.3z"/>
			<path d="M1122.8,390c-2.4-1-3.7-4.2,0.6-4.9c4.3-0.7,5.8-1.5,8.9-2.6c3.1-1.2,5.4,2.7,2.7,5.2
				C1132.2,390.2,1126,391.3,1122.8,390z"/>
			<path d="M1125.8,373.4c-2.8,0.2-6-8.1-0.9-10.1C1130,361.2,1131.3,372.9,1125.8,373.4z"/>
			<path d="M1112.8,396.5c-3.6,0.8-8.3-0.6-8.5,2.7c-0.2,3.3,5.7,4.5,10,3.1C1118.5,401.1,1121.1,394.7,1112.8,396.5z"/>
			<path d="M1084.4,384.5c-0.3-5.6-5.5-5.6-7.4-0.4C1075.1,389.2,1084.8,392.3,1084.4,384.5z"/>
			<path d="M1086.2,409.9c6.1-3,5.1-10.5-1.7-7.1C1078.9,405.5,1077.7,414.1,1086.2,409.9z"/>
			<path class="st0" d="M1093.3,318c-2.7-2.6-3.3-7.2-3.2-10.3c0.2-3.2,2.7-3.8,4.7-1.9c1.9,1.9,3.8,7,3.8,10.2
				C1098.7,319.1,1095.7,320.3,1093.3,318z"/>
			<path d="M1104.4,332.8c3,1.6,5.2,0.6,4.9-2.1c-0.2-2.5-3.7-5.1-9.1-4.9c-5.4,0.1-5.5,4.5-3.6,5.5
				C1098.4,332.1,1100.6,330.8,1104.4,332.8z"/>
			<path d="M1120.1,331.1c-2.4-1-3.7-4.2,0.6-4.9c4.3-0.7,5.8-1.5,8.9-2.6c3.1-1.2,5.4,2.7,2.7,5.2
				C1129.5,331.2,1123.3,332.4,1120.1,331.1z"/>
			<path d="M1116.3,338c-3.6,0.8-8.3-0.6-8.5,2.7s5.7,4.5,10,3.1C1122,342.5,1124.6,336.2,1116.3,338z"/>
			<path d="M1085.3,326.1c-0.3-5.6-5.5-5.6-7.4-0.4C1076.1,330.8,1085.8,333.9,1085.3,326.1z"/>
			<path d="M1091.4,350.2c6.1-3,5.1-10.5-1.7-7.1C1084.1,345.9,1082.9,354.5,1091.4,350.2z"/>
			<path d="M1062.5,311.8c1.4,1.1,2.1,1.8,5.5,1.5c3.4-0.3,4.8,2.9-0.3,4.8c-3.7,1.3-7.3,0.6-9.4-1.2
				C1054.5,313.7,1058.9,309,1062.5,311.8z"/>
		</g>
		<g class="st5">
			<path d="M1244.1,600c9.7-15.1,13.3-42.2,7-58.7c-4.6-12-18.8-15.4-18.4-19.4c0.5-5.2,17.9-166.9-52.9-219.3
				c34.7,29.2,47.9,94.9,49.7,122.4c2.3,34.4-20,104.3,1.5,105.1c21.5,0.8,15.5,28.7,15.4,42.6c-0.1,14-6.3,35.7-39.4,43.5
				c-33.1,7.8-69,12.2-104.1,14.4c-35,2.2-60.9,15-121,13.9c-60.1-1.1-74.8-41.4-79.4-66.4c-0.8,23,9.5,56.5,23.2,61.9
				C991.2,666,1226.6,627.3,1244.1,600z"/>
		</g>
	</g>
	<g>
		<g>
			<path class="st6" d="M1222.8,549.5c-6.5,1.7-4.5,14.8-8.4,14.2c-3.8-0.7-5.4-27.5-14.3-27.2c-5.5,0.2-3.1,31.4-9.7,31
				c-6.6-0.4-14.3-15.4-19.5-14s-4.2,13.9-8.6,14.5c-4.3,0.6-16.4-22.6-21.9-22.3c-8.5,0.5-3,26.1-9.3,25.9
				c-6.3-0.2-18.9-32.6-25.8-28.9c-7,3.7-1.2,32-5.1,32.1c-3.9,0.1-8.9-17.6-13.9-15.3c-5,2.3-2,25.8-5.9,26.1
				c-3.9,0.3-15.5-31-19.9-29.8c-4.4,1.2-4.1,25-9.1,24.2c-4.9-0.8-4-41.4-11.8-40.2c-7.8,1.2-15.3,36.5-19.1,35
				c-3.8-1.5-3.7-28.6-11.4-26c-7.6,2.6-10.7,21.3-16,20.8c-5.3-0.5-12.2-25.4-18.5-23.5c-6.2,1.9-7,36.4-13.6,33.4
				c-6.6-3-16.2-34.2-22.7-27.8c-6.5,6.4-4,44.1-0.6,57.7c2.9,11.6,27.5,16.2,109,16.2c81.5-0.1,170.2-13.3,177.8-26.4
				C1232.2,585.8,1229.3,547.7,1222.8,549.5z"/>
			<path class="st6" d="M1015,533.6c-1.4,5.6,14,10.2,21,5.2c6.9-5,16.2-0.9,16.5-7c0.3-6.1,11.1-20.1,9.7-25.9
				c-1.5-5.8-6.1-22.4-10-19c-3.8,3.4,2.2,14.3,0.6,17.6c-1.6,3.3-5.8,11.4-7.4,6.6c-1.7-4.8,1.3-15.7,2.4-18.3
				c1.1-2.7,1.5-23.1-1.3-23c-2.8,0.1-0.9,9.9-2,12.4c-1,2.5-7.2,12.8-8.1,12c-0.9-0.9,1.2-8.4,2.7-11.7c2.1-4.5,1.5-17.7-1.8-18.1
				c-2.1-0.3-2.3,10.9-3.4,13.3c-0.7,1.5-6.8,12.8-8.1,11.7c-1.3-1,1.8-8.9,2.6-12.1c1.1-4.1,1.9-15.5-1.1-14.8
				c-3,0.6-5,13.3-6.1,15.4s-4.9,11.6-5.3,8.7s-0.1-6.4,0.4-8.3c0.7-2.6-0.3-11.7-2.7-11.4c-3,0.4-2.9,10.1-4.5,14
				c-1.5,3.7-3.8,18.7,0.8,24.1C1014.7,510.5,1016.5,527.7,1015,533.6z"/>
			<path class="st6" d="M1067.5,483.6c5.5,9.1-1.8,33-4,42.5c-3.5,15.2,136.1,3.9,138.5-4.2c2.4-8.1,11.8-86.1,4-117
				c-7.8-30.8-27.2-95.7-96.1-88.1c-69,7.6-66.8,131.9-65.5,139C1045.6,463,1062,474.5,1067.5,483.6z"/>
		</g>
		<g>
			<g>
				<path class="st7" d="M934,605.1c-3.3-13.5-3.4-46.5,3.1-52.9c6.5-6.4,13.6,20.1,20.2,23c6.6,3,11.3-27.6,17.5-29.5
					c6.2-1.9,9.3,19.1,14.6,19.6c5.3,0.5,12.2-14.3,19.8-16.8s3.7,20.6,7.5,22.1c3.8,1.5,14.3-29.9,22.1-31.1
					c7.8-1.2,3.9,35.6,8.8,36.4c4.9,0.8,8.5-19.1,12.9-20.3c4.4-1.2,12.1,26.1,16,25.9c3.9-0.3,4.2-19.7,9.2-22s6.7,11.3,10.6,11.2
					c3.9-0.1,1.4-23.7,8.4-27.4c7-3.7,16.3,24,22.5,24.2c6.3,0.2,6.1-19,11.2-21.3c5.1-2.3,15.6,18.3,20,17.7
					c4.3-0.6,3.3-13.1,8.6-14.5c5.2-1.4,12.9,13.6,19.5,14c6.6,0.4,8.3-24.4,13.1-26.9s7,22.5,10.9,23.1c3.8,0.7,4.9-8.5,11.5-10.2
					s6.3,32.4-1.2,45.4c-7.5,13.1-96.2,26.4-177.8,26.4C961.5,621.4,936.9,616.8,934,605.1z"/>
				<path class="st8" d="M943.6,610.2c-7.9-2.6-10-9.1-8.3-16.1c1.7-6.9-2.9-3.7-2.7-10.1c0.2-6.4,2.1-27.9,6.5-27.8
					c4.4,0.1,8.7,21.4,17.6,21.9c8.9,0.5,10.3-6.9,11.2-10.2c1-3.2-2.6-3.7,0.9-8.5c3.6-4.8,6.7-9.2,10,1.1
					c3.3,10.3,7.6,13.7,13.7,7.2c6.1-6.6,10.4-17,15.1-15.6c4.7,1.3-1.8,30.9,4.2,36.9s12.6-8.5,9.9-10.3c-2.8-1.8-2.2-5.7,2.1-11.2
					c4.3-5.4,7.4-21.8,12.5-22c5.2-0.2-2.1,35.6,8.2,36.7c10.3,1.1,9.5-18.1,14.7-18.7c5.3-0.6,11.4,26.2,18.3,24.4
					c6.9-1.8,3.2-22.6,6.9-25.2c3.7-2.6,9.5,13.2,14.2,9.3c4.6-3.9,2.3-23.8,6.6-26c4.3-2.2,8.5,27.8,19.8,27.7
					c11.3-0.1,8.5-26.1,14.9-24.7s8.1,31.9,18.6,32c10.5,0,4.4-15.9,11.5-17.4c7.1-1.5,15.1,9.8,19.5,6.1
					c4.4-3.7,6.9-29.9,10.2-30.9c3.4-1,2.2,15.2,7.4,20.5c5.1,5.3-4.1,6.9-2.1,11.5c2,4.6,9.4-14.4,14-14.9c4.6-0.5,5,31-2.9,38.7
					c-7.8,7.6-28.5,3.8-43.7,10.9c-15.2,7.1-48.3,11.4-69.1,11.3c-20.9-0.1-70.6-4.6-93-0.6c-22.4,4-29.6-3-42.4-2.5
					C955.1,614.2,948.1,611.7,943.6,610.2z"/>
				<path class="st9" d="M936.4,561.9c-0.6,1.9-4.3,20.5-1.8,23c2.5,2.5,2.4,4.1,1.4,10.2c-1,6.2,7.1,5.5,6.4-3
					c-0.8-8.5-6-6.4-5.6-14.3C937.1,570.1,937.3,559,936.4,561.9z"/>
				<path class="st9" d="M950.9,577.1c3.7,3.8,10.2,4.3,14,0.5c3.8-3.8,2.1,2.9-1.7,7.2c-3.8,4.4-10.1,0.2-12.1-3.7
					c-1.9-3.8-3.9-1.5-4.3-5.6C946.5,571.6,949.3,575.4,950.9,577.1z"/>
				<path class="st9" d="M969.7,611.7c7.2,0.1,20.2,6.3,32.1,4c11.9-2.3,4.2-4.6-6.3-4.3c-10.5,0.3-10.8-4.5-21.9-3.5
					C962.4,609,958.6,611.7,969.7,611.7z"/>
				<path class="st9" d="M1007,559.6c2.3,3.8,1.8,17.1-0.5,23.2c-2.3,6.1-5.7-1.9-3.7-10.8C1004.7,563.2,1005.7,557.4,1007,559.6z"
					/>
				<path class="st9" d="M1030.6,554.1c-1.4,4.3-2.3,8.5-5.4,13.4c-3.1,4.9-6,9.3-2,10.6c4,1.3,5.4-6.9,6.5-12.4
					C1030.6,560.1,1032.2,549,1030.6,554.1z"/>
				<path class="st9" d="M1057.1,569.4c-2.1,5.4-0.9,13.1-9.9,14.7c-9,1.7-8.6-10.4-10.8-9.7c-2.2,0.7,0,13.9,9.3,14.9
					c9.3,1,12.5-7.5,12.3-13.2S1058.6,565.7,1057.1,569.4z"/>
				<path class="st9" d="M1071.9,586c2.1,3.6,7.1,6.5,9.9,1.3c2.8-5.2,1.1,5.2-3.3,8.5c-4.4,3.3-7.4-5.8-8.3-9.4
					C1069.2,582.9,1070.2,583.1,1071.9,586z"/>
				<path class="st9" d="M1083.4,614c12.3-0.7,22.2,4,45.1-0.2c22.9-4.2,24.7-3.8,33.9-7.4s-1.3-4.3-11.9-0.7
					c-10.6,3.6-26.5,2.4-37.7,3.1c-11.2,0.7-4.4,4-11.2,3.8c-6.8-0.1-10.5-4-18.8-1.6C1074.5,613.5,1075.9,614.5,1083.4,614z"/>
				<path class="st9" d="M1112.7,564.8c2.3,7.7,10.5,14,15.4,10.2c5-3.8,1.9,7.1-6.4,6.3c-8.2-0.9-10-9.9-10.9-15.1
					S1111.1,559.3,1112.7,564.8z"/>
				<path class="st9" d="M1161.5,581.8c7.4-1,3.7-13.5,6.7-15.9c3-2.4,0.8,6.2,2.2,11.4c1.4,5.3-1.2,10.7-7.9,10.5
					C1155.7,587.6,1157.6,582.3,1161.5,581.8z"/>
				<path class="st9" d="M1197.1,554.6c-1.1,6.6-1.2,14.6-7.8,19.5s3.8,10.7,6.6,1.3C1198.6,566.1,1198,548.7,1197.1,554.6z"/>
				<path class="st10" d="M979.5,587.2c-16.2,8.8-8.6,19.1,7.5,16.8c16.1-2.4,20.5,2.6,33.4,5.6c12.9,3,29.8-4.5,10.9-9
					C1012.4,596.1,992.9,579.9,979.5,587.2z"/>
				<path class="st10" d="M1097.5,604.8c13.5,1.1,22.7-7.6,44.8-5.4c22.1,2.2,10.3-17.4-11.7-14.9c-22,2.5-25.1,10.1-47,14.1
					c-21.9,4-34.2,5.8-23.6,10.4C1070.6,613.7,1088.8,604.1,1097.5,604.8z"/>
			</g>
			<g>
				<path class="st11" d="M1015.7,533.1c1.5-5.9-4.9-26.4-9.5-31.9c-4.6-5.4-2.3-20.4-0.8-24.1c1.6-3.9,4.7-9.8,7.7-10.2
					c2.4-0.3,0.1,5-0.5,7.6c-0.5,2-0.7,5.4-0.4,8.3c0.3,2.9,4.2-6.5,5.3-8.7c1-2.2,6.3-10.9,9.4-11.5c3-0.6-1,6.7-2.2,10.9
					c-0.9,3.2-4,11.1-2.6,12.1c1.3,1,7.4-10.2,8.1-11.7c1.1-2.4,5.1-9.7,7.3-9.4c3.2,0.4,0,9.6-2.1,14.1c-1.5,3.2-3.6,10.8-2.7,11.7
					c0.9,0.9,7.1-9.5,8.1-12s2.7-8.5,5.5-8.6c2.8-0.1-1,16.6-2.2,19.2c-1.1,2.7-4.1,13.6-2.4,18.3s5.8-3.4,7.4-6.6
					s-1.7-9.7,2.2-13.1c3.8-3.4,5.7,8.7,7.2,14.5c1.5,5.8-9.4,19.8-9.7,25.9c-0.3,6.1-9.6,2-16.5,7
					C1025.2,539.8,1014.3,538.7,1015.7,533.1z"/>
				<path class="st12" d="M1011.8,469.2c-1.3-0.7-5.2,4.4-6.6,11.5c-1.4,7.1-0.5,14.6,1.9,19c2.4,4.4,4.5,0.1,6,4.9s5,17.3,4.3,24
					c-0.8,6.7,3.4,7.8,8.8,5.4c5.3-2.4,5.2-5.1,10.2-4.1c5,1.1,5.9-2.5,8.3-3.2s2.7-2.1,6.1-9.8c3.5-7.7,7-8.9,6.4-14.4
					c-0.6-5.5-2.4-15.6-5.2-13.5c-2.7,2.1-1,6.8-1.4,10.6c-0.4,3.8-4,5.8-1.4,6.7c2.6,0.8-3.8,8.6-8.6,4.7c-4.8-4-1.1-11.4,0.4-15.9
					c1.5-4.4,6.7-22.8,4.7-23.9c-2-1.1-3.2,6.6-5.7,10.6c-2.5,4-6.2,10.2-8,9.2c-1.8-1.1-1-7.3,1.2-10.1c2.2-2.8,0.8-6.3,2.7-8.5
					c1.8-2.2,3.2-6.6,1.1-6.9c-2.1-0.2-5.8,7.1-6.8,10.3c-1,3.2-6.8,11.6-9.5,10.8c-2.7-0.8,0-7.5,2-10.5c2-3,4.7-11.4,3.7-12.3
					c-1-1-6.5,5.9-8.2,11.3c-1.7,5.3-3.4,10.3-6.3,10.7c-2.8,0.5-2.7-3.4-1.8-5.9c1-2.5,0.8-2,1.2-5
					C1011.7,472.1,1013.1,469.9,1011.8,469.2z"/>
				<path class="st9" d="M1017.8,498.3c-1.7,4.2,4.4,11.9,4.3,20.7c-0.1,8.9,4.5,11,9.2,4s2.1-10.5,2.2-18.7
					C1033.6,496.1,1020.5,491.5,1017.8,498.3z"/>
				<path class="st13" d="M1006.8,477.3c-0.7,2.4-3.1,13.4-0.2,18.7c2.9,5.2,3.5,1,1.8-3.7c-1.6-4.8-1.8-10.4-0.8-13.7
					C1008.5,475.2,1008,473.3,1006.8,477.3z"/>
				<path class="st13" d="M1021.1,470.5c-1.4,1.9-2.4,5.2-2.9,8c-0.5,2.8,2.4-2,3.9-5.5C1023.6,469.6,1023.7,466.8,1021.1,470.5z"/>
				<path class="st13" d="M1033.1,470.7c-1.7,2.5-2,5.2-3.3,7.8s1.9,1.6,2.9-1.3c1-2.9,1.2-4.2,2.1-6.2
					C1035.8,469.1,1034.8,468.2,1033.1,470.7z"/>
				<path class="st13" d="M1039,485.3c-2.6,3.2-8.6,12-4.4,11.1S1041.5,482.3,1039,485.3z"/>
				<path class="st13" d="M1052.2,498.1c-0.5,3.4-4.4,7.8-1.8,7.6c2.7-0.2,3.5-4.1,3.4-7.5C1053.6,494.8,1052.5,496.2,1052.2,498.1z
					"/>
				<path class="st13" d="M1016.4,512.5c0.4,5.1,3.1,10.8,2.5,15.7c-0.6,4.8,1.3,7.6,6.4,5.3c5.1-2.4,1-4-1.8-4
					c-2.9,0-2.1-4.2-2.9-9C1019.9,515.7,1016.1,508.4,1016.4,512.5z"/>
			</g>
			<g>
				<path class="st14" d="M1063.5,525.6c2.2-9.5,5.6-36.8,0.1-45.9c-5.5-9.1-21.9-20.6-23.2-27.7c-1.3-7.1-3.4-131.4,65.5-139
					c69-7.6,88.3,57.3,96.1,88.1s-1.6,108.9-4,117C1195.7,526.1,1060,540.8,1063.5,525.6z"/>
				<path class="st15" d="M1043,445.3c0.7,6.8,6.7,15.2,18.2,19.3c11.5,4.1,12.4,6.7,9.9,19.3c-2.5,12.6,5.9,12.3,3.7,23.6
					c-2.2,11.4-3.7,20.3,12,20.2c15.7-0.1,16.2-7.8,33.8-4.6c17.7,3.2,38.2,0.8,51-4.1c12.8-5,25.9-3.4,24.9-20.2
					c-0.9-16.8-6.1-40.8,1.2-53.1c7.3-12.3,2.5-58.8-21.1-95.9s-53.3-37.4-68.7-35.6c-15.4,1.8-31.8,7.8-43.6,31.1
					c-11.8,23.3-2.1,16.8-6.1,29.5C1054.4,387.5,1040.1,415.2,1043,445.3z"/>
				<path class="st16" d="M1058.9,410.6c-7.2,17.9-5.9,39.6,16.5,46.2s-6.5,32.7,16.7,45.4c23.2,12.8,58.5-19.2,65.3-64.7
					C1164.3,392.1,1078.3,362.3,1058.9,410.6z"/>
				<path class="st16" d="M1120.5,340.2c-25.1,2.6-19.6,19.1,5,28.7c24.6,9.6,26.8,12,36.9,30.3c10.1,18.3,22.8,1.8,9.8-28.6
					C1159.2,340.2,1137.6,338.4,1120.5,340.2z"/>
				<path class="st17" d="M1074.2,332c-8.2,8.3-14.7,21.9-14.5,28.2c0.2,6.4,4.9,7.8-0.4,18.7c-5.3,10.9,5.1,10.7,7.2,2
					c2.1-8.6-0.8-15.2-2.6-20s4.7-20.3,9.8-25.3C1078.9,330.6,1079,327.2,1074.2,332z"/>
				<path class="st17" d="M1045.6,439.8c-1,10.5,2.6,18,12.7,20.6c10,2.6,16,7.5,15.7,13.6c-0.2,6.1,8.9-1.3,2.6-9.4
					c-6.2-8.2-14.2-6.7-20-8.9c-5.8-2.2-9.5-5.7-9.3-12.3C1047.4,436.8,1046.1,434.1,1045.6,439.8z"/>
				<path class="st17" d="M1084.9,525.7c8.1,1.1,14.5,0.3,21.5-4.3c7-4.5,11.1-0.2,21.3,1.1c10.2,1.3,7.8-4.8-2.3-5.6
					c-10-0.8-12.4-3.2-20.1,2.2c-7.8,5.4-10.8,3.4-18.4,1.7C1079.2,519.2,1080.4,525.1,1084.9,525.7z"/>
				<path class="st17" d="M1194.1,447.8c-4.6,5.8-5.1,17.7-1.6,30.9c3.5,13.2,1,18.3-2.6,18.3c-3.6,0-1.2-14.5-2.5-22.1
					s-2.3-15.1,1.7-22.9C1193.2,444.3,1197.2,443.8,1194.1,447.8z"/>
				<path class="st17" d="M1120.6,315.1c10,0,27.6,4.6,40.7,17.9c13.1,13.3,20.1,23.2,15.1,24.4c-5,1.2-10.3-11.8-14.5-18.1
					c-4.2-6.3-11.8-14.6-21.9-17.9c-10.2-3.3-12.5-4.3-20.6-4.6C1111.3,316.4,1115.6,315.1,1120.6,315.1z"/>
				<path class="st17" d="M1106.7,315.6c-5.5,0.4-6.6,3.2-1.7,2.4C1109.8,317.1,1112.2,315.2,1106.7,315.6z"/>
				<path class="st17" d="M1183.9,504.2c-4.9,4.2-18.4,4.2-19.6,10.4c-1.2,6.2,13.1-0.8,20.6-2.3
					C1192.4,510.9,1189,499.9,1183.9,504.2z"/>
				<g class="st5">
					<path class="st6" d="M1097.4,441.8c-2.6,3.6,2.6,9.1,7.3,7C1109.5,446.6,1104.8,431.8,1097.4,441.8z"/>
					<path class="st6" d="M1143,442.6c-2.6,3.6,2.6,9.1,7.3,7C1155,447.4,1150.3,432.6,1143,442.6z"/>
					<path class="st6" d="M1183.3,444c-2.6,3.6,2.6,9.1,7.3,7C1195.3,448.8,1190.6,434.1,1183.3,444z"/>
					<path class="st6" d="M1117.4,400.3c-2.8,2.6,5.6,3.9,5.2,9.2c-0.4,5.3-1.4,30.1-4.1,31.2c-2.7,1.1-2.7,0.7-4.7,1.7
						c-4.2,2,3.2,4.7,10.3,5.3c7.1,0.6,9.7-0.8,6-5.8c-3.7-4.9-1.5-25.3,0.2-30.6c1.7-5.3,8.3-3.3,7.5-8.3
						C1137.1,398,1120.2,397.7,1117.4,400.3z"/>
					<path class="st6" d="M1074,426.7c9.9-3.3,20.5-16.6,9.4-22.4c-11.1-5.8-30.3-3.5-28.7,6.2c1.6,9.7,2.4,23.6,1.4,33.8
						c-1.1,10.2,3.3,14.2,8.6,8.8s-2.2-19.8-0.3-20.7c2.7-1.2,9.2,4,15.7,11.5c6.5,7.6,12.7,2.5,9.8-2.6
						C1086.9,436.4,1064.1,430.1,1074,426.7z M1065.3,407.7c6-1.7,13.5,0.8,13.5,5.5c0.1,7.5-12,10.9-14.8,9.5
						C1061.3,421.3,1059.4,409.4,1065.3,407.7z"/>
					<path class="st6" d="M1179.8,421.2c10-3,20.5-16.6,9.4-22.4c-11.1-5.8-30.3-3.5-28.7,6.2c1.6,9.7,2.4,23.6,1.4,33.8
						c-1.1,10.2,3.3,14.2,8.6,8.8s-0.1-18.6-0.3-20.7C1170,423.8,1172.4,423.4,1179.8,421.2z M1169.9,417.2
						c-2.8-1.4-4.7-13.3,1.2-15c6-1.7,13.5,0.8,13.5,5.5C1184.7,415.2,1172.6,418.5,1169.9,417.2z"/>
				</g>
				<g>
					<path class="st12" d="M1095.4,439c-2.6,3.6,2.6,9.1,7.3,7C1107.4,443.8,1102.8,429.1,1095.4,439z"/>
					<path class="st12" d="M1140.9,439.8c-2.6,3.6,2.6,9.1,7.3,7C1153,444.6,1148.3,429.8,1140.9,439.8z"/>
					<path class="st12" d="M1181.3,441.2c-2.6,3.6,2.6,9.1,7.3,7C1193.3,446.1,1188.6,431.3,1181.3,441.2z"/>
					<path class="st12" d="M1111.8,439.6c-4.2,2,3.2,4.7,10.3,5.3c7.1,0.6,9.7-0.8,6-5.8c-3.7-4.9-1.5-25.3,0.2-30.6
						c1.7-5.3,8.3-3.3,7.5-8.3c-0.8-5-17.6-5.2-20.5-2.7c-2.8,2.6,5.6,3.9,5.2,9.2c-0.4,5.3-1.4,30.1-4.1,31.2
						C1113.9,438.9,1113.8,438.6,1111.8,439.6z"/>
					<path class="st12" d="M1072,424c9.9-3.3,20.5-16.6,9.4-22.4c-11.1-5.8-30.3-3.5-28.7,6.2c1.6,9.7,2.4,23.6,1.4,33.8
						c-1.1,10.2,3.3,14.2,8.6,8.8c5.3-5.4-2.2-19.8-0.3-20.7c2.7-1.2,9.2,4,15.7,11.5c6.5,7.6,12.7,2.5,9.8-2.6
						C1084.9,433.6,1062.1,427.3,1072,424z M1062.1,419.9c-2.8-1.4-4.7-13.3,1.2-15c6-1.7,13.5,0.8,13.5,5.5
						C1077,418,1064.8,421.3,1062.1,419.9z"/>
					<path class="st12" d="M1177.8,418.4c10-3,20.5-16.6,9.4-22.4c-11.1-5.8-30.3-3.5-28.7,6.2c1.6,9.7,2.4,23.6,1.4,33.8
						c-1.1,10.2,3.3,14.2,8.6,8.8c5.3-5.4-0.1-18.6-0.3-20.7C1168,421,1170.4,420.6,1177.8,418.4z M1167.9,414.4
						c-2.8-1.4-4.7-13.3,1.2-15c6-1.7,13.5,0.8,13.5,5.5C1182.7,412.4,1170.6,415.7,1167.9,414.4z"/>
					<path class="st13" d="M1055.5,402.2c-2.8,2.1-1.9,8.1-0.3,15.8c1.6,7.7,0.1,20.7,1,24.1c1,3.4,4-4.2,3.3-11.2
						c-0.7-7,3.1-4.1,5-6.3c1.9-2.2-3.5-1.3-5.1-4.1c-1.5-2.7-4.5-10-1.5-14.5C1060.9,401.5,1058.5,400,1055.5,402.2z"/>
					<path class="st13" d="M1071,403c6.8,1.8,8.6,5.4,8.2,9.5s5.3-1.3,3.4-5.5c-1.8-4.2-7.7-6.2-11.3-5.8
						C1067.8,401.6,1068.9,402.4,1071,403z"/>
					<path class="st13" d="M1071.2,431.4c2.9,3,10.6,13.7,13.4,11.7c2.8-2-0.9-5.4-6.3-8.8C1072.9,430.8,1068.8,428.8,1071.2,431.4z
						"/>
					<path class="st13" d="M1097.2,437.8c-2.3,1.4-2.8,5.7,0.7,5.7C1101.4,443.5,1100.1,435.9,1097.2,437.8z"/>
					<path class="st13" d="M1118.2,397.3c-2,0.5,1.3,4,3.3,5.5c2,1.6-1.2,25.7-2,30.9c-0.8,5.2,1.4,7,2.6,2.5
						c1.2-4.6,4.1-30.6,5.5-32.5C1129.1,401.9,1127.1,395.2,1118.2,397.3z"/>
					<path class="st13" d="M1113.5,440.4c-1.7,0.8,1.3,3,4.3,2.8S1116.4,439.2,1113.5,440.4z"/>
					<path class="st13" d="M1142.3,439.6c-1.3,1.4-1.4,5.4,1,4.7c2.4-0.7,5.1-3.7,4.1-5.4C1146.5,437.3,1144.7,437.1,1142.3,439.6z"
						/>
					<path class="st13" d="M1161.1,396.9c-3.8,2.5-0.7,7.1-0.2,12.5c0.5,5.4,1.3,19.9,0.4,27.2c-0.9,7.2,4.8,6,4.7-1.2
						c-0.1-7.2-1.8-13.7,0.7-16.2s-1.4-2.3-2.3-5.6s-3.7-14.8,4.4-17.3c8.1-2.5,15.6,1.6,16.5,6.6c0.9,5,4.9,1.1,3.7-2.6
						c-1.2-3.7-8-7.5-15.7-6.8C1165.5,394.3,1163.1,395.6,1161.1,396.9z"/>
					<path class="st13" d="M1175.1,416.1c3.9-1.5,7.6-3.8,9.4-6.6c1.8-2.8,2.6,0.7-0.2,3.8c-2.8,3.1-6.2,4.1-9.3,4.2
						C1171.9,417.6,1172.2,417.3,1175.1,416.1z"/>
					<path class="st13" d="M1183.5,440.4c-2.6,1.8-2.1,5.5,0.5,5.1C1186.6,445.2,1186,438.8,1183.5,440.4z"/>
				</g>
			</g>
		</g>
	</g>
</g>
</svg>
