<?xml version="1.0" encoding="utf-8"?>
<!-- Generator: Adobe Illustrator 25.4.1, SVG Export Plug-In . SVG Version: 6.00 Build 0)  -->
<svg version="1.1" id="Vrstva_1" xmlns="http://www.w3.org/2000/svg" xmlns:xlink="http://www.w3.org/1999/xlink" x="0px" y="0px"
	 viewBox="0 0 4000 4000" style="enable-background:new 0 0 4000 4000;" xml:space="preserve">
<style type="text/css">
	.st0{fill:#FDE5CB;stroke:#000000;stroke-miterlimit:10;}
	.st1{fill:#333333;}
	.st2{fill:#8A43F9;}
	.st3{fill:#F96703;}
	.st4{fill:#21DB6C;}
	.st5{fill:#F77F08;}
</style>
<rect x="-70.36" y="-20.91" class="st0" width="4109.09" height="4020.91"/>
<g>
	<path class="st1" d="M2813.59,1742.66c126.39,31.54,191.02,164.47,155.61,288.22c-19.89,69.45-65.58,116.94-122.66,147.82
		c-61.6,33.31-136.43,47.22-206.33,48.44c-15.13,0.34-30,0-44.47-0.83c-64.29-3.8-126.85-16.66-188.88-32.6
		c-92.49-23.8-183.79-54.5-277.56-72.46c-19.11-3.75-38.42-6.9-57.79-9.32c-82.84-10.42-164.25-3.07-244.81,12.41
		c-88.51,16.91-175.94,43.6-263.04,67.15c-14.55,3.94-29.08,7.8-43.64,11.47c-65.71,16.66-144.15,32.87-220.29,32.87
		c-76.77,0-151.17-16.47-207.87-65.47c-13.01-11.26-25.1-24.26-36.11-39.21c-50.9-69.19-44.2-168.6,1.16-238.72
		c44.09-68.13,130.85-94.58,204.33-112.4c17.12-3.93,34.36-7.48,51.74-10.48c7.46,8.26,23.29,6.67,27.28-4.54
		c140.82-21.37,287.81-16.13,427.41,3.34c181.67,25.32,352.47,105.78,539.24,80.07c118.67-16.25,233.08-83,351.31-106.7
		c-0.77,9.25-1.28,18.57-1.4,27.89c-0.26,21.11,12.83,21.11,13.09,0c0.13-11.09-5.46-22.17-4.56-33.18
		c30.65-3.81,86.97-4.27,118.31,0.34C2793.57,1738.2,2803.55,1740.18,2813.59,1742.66z M2854.46,1887.06
		c15.13,14.43,18.83-2.36,3.64-16.86c-33.92-32.25-53.52-20.33-93.17-42.22c-18.28-10.09-34.49-0.86-16.21,9.24
		C2785.27,1857.43,2823.32,1857.49,2854.46,1887.06z M2804.03,1996.97c9.02-18.94-6-29.18-15.02-10.15
		c-16.15,33.82-20.41,57.06-32,92.72c-6.51,20.13,5.51,22.31,11.94,2.36C2779.65,2048.99,2789.17,2028.25,2804.03,1996.97z
		 M2643.29,1962.88c9.21,18.95,17.87,15.08,8.67-3.81c-15.38-31.73-29.15-51.41-40.29-84.92c-6.7-19.88-18.71-17.71-12,2.34
		C2611.77,1912.64,2626.7,1928.72,2643.29,1962.88z M2619.57,2123.62c7.59,19.34,32.38,23.67,24.66,4
		c-10.68-27.27-21.31-42.11-38.35-66.05c-12.05-16.9-27.25-6.94-15.02,10.24C2606.23,2093.45,2609.84,2098.9,2619.57,2123.62z
		 M2513.13,2037.7c16.36-12.92,6.1-29.63-10.06-16.85c-43.43,34.37-81.08,61.45-126.71,92.68c-17.12,11.67-1.04,27.41,16.22,15.55
		C2440.51,2096.34,2467.52,2073.78,2513.13,2037.7z M2458.09,1959.99c3.41,20.79,21.71,11.94,18.3-8.72
		c-5.22-32.06-10.44-45.07-15.7-77.12c-3.42-20.8-21.72-11.94-18.31,8.7C2447.59,1914.93,2452.87,1927.92,2458.09,1959.99z
		 M2343.79,1995.48c17.96,10.56,21.46-5.05,3.51-15.61c-33.86-19.81-47.15-28.88-77.34-54.18c-15.89-13.32-32.37-2.95-16.35,10.49
		C2285.85,1963.27,2307.56,1974.22,2343.79,1995.48z M2147.14,1989.62c15.89-13.63,5.77-24-10-10.48
		c-29.42,25.18-50.46,39.81-77.56,67.42c-14.68,14.94,1.68,25.45,16.36,10.5C2103.1,2029.38,2117.73,2014.82,2147.14,1989.62z
		 M1930.04,1952.19c9.38,18.89,24.41,15.01,15.08-3.82c-15.59-31.43-25.07-46.46-40.8-78.1c-9.41-18.89-18.07-2.3-8.74,16.52
		C1910.77,1917.36,1914.92,1921.63,1930.04,1952.19z M1830.93,2070.3c17.75,11.08,27.56-4.59,9.92-15.61
		c-25.55-15.88-42.48-22.05-63.78-43.49c-14.81-14.87-24.87-4.39-10.07,10.5C1790.17,2044.99,1803.13,2052.99,1830.93,2070.3z
		 M1678.28,1928.06c16.93-11.94,13.56-27.7-3.55-15.63c-34.11,24.14-52.02,45.51-80.78,75.37c-14.55,15.07-4.55,25.57,9.99,10.5
		C1630.65,1970.61,1646.76,1950.34,1678.28,1928.06z M1531.95,1789.61c10.99-18.04,2.21-21.77-8.67-3.88
		c-27.66,45.46-52.57,73.21-69.82,123.85c-6.83,20,11.54,28.51,18.29,8.71C1488.09,1870.35,1505.81,1832.57,1531.95,1789.61z
		 M1534.69,2100.98c4.05-20.64-14.24-29.44-18.3-8.72c-5.6,28.39-11.01,37.78-15.78,66.38c-3.4,20.72,14.9,29.57,18.38,8.72
		C1523.69,2138.77,1529.1,2129.38,1534.69,2100.98z M1359.57,2053.71c11.13,17.77,32.56,14.11,21.44-3.8
		c-26.32-42.17-57.61-74.44-83.92-116.55c-11.14-17.77-19.86-1.36-8.73,16.53C1314.69,1992.05,1333.24,2011.6,1359.57,2053.71z
		 M1188.59,2067.88c4.05-20.67-7.88-23.09-11.93-2.37c-5.28,26.75-10.49,40.73-15.77,67.49c-4.06,20.59,7.89,23.07,12.01,2.3
		C1178.09,2108.6,1183.31,2094.62,1188.59,2067.88z"/>
	<path class="st2" d="M2873.05,1873.68c15.01,14.05-7.51,36.51-22.45,22.51c-30.79-28.68-74.66-34.91-110.79-54.5
		c-18.06-9.79-2.03-37.26,16.03-27.47C2795.02,1835.46,2839.54,1842.39,2873.05,1873.68z"/>
	<path class="st3" d="M2849.66,2190.44c7.38,244.01,13.59,496.38-45.38,734.84c-24.16,97.61-63.67,206.53-147.51,268.75
		c-23.23,17.25-48.9,28.09-75.93,34.74l81.04-989.76c36.69-1.88,73.38-7.32,109.89-17.24
		C2799.18,2214.33,2825.37,2203.76,2849.66,2190.44z"/>
	<path class="st4" d="M2785.93,1980.58c8.9-18.45,36.31-2.35,27.41,16.02c-14.7,30.34-24.1,62.76-34.66,94.69
		c-6.36,19.33-37.07,11.07-30.65-8.46C2759.48,2048.24,2769.97,2013.39,2785.93,1980.58z"/>
	<path class="st1" d="M2767.87,1587c12.31,39.98,13.43,95.43,11.22,137.04c-26.78-2.79-78.98-2.06-105.62,1.17
		c0.4-6.03,0.65-18.42,0.72-24.45c0.27-20.87-13.08-20.87-13.34,0c-0.06,7.79-0.52,15.56-1.09,23.27
		c-50.7,9.72-107.42,33.52-157.13,51.61c-0.2-1.29-6.95-15.38-7.53-16.87c-10.62-25.54-26.31-42.13-36.94-67.61
		c-7.91-18.98-20.21-16.98-12.17,2.27c10.62,25.54,26.32,48.48,36.94,73.96c1.04,2.39,8.77,10.78,10.44,12.27
		c-41.03,15.03-87.96,29.62-127.96,39.79c-206.27,52.46-398.12-40.33-599.66-67.92c-140.65-19.21-288.32-23.92-430.21-3.38
		c-2.99-35.32-3.5-70.26-8.09-105.46c-2.73-20.42-22.48-20.68-19.71,0c4.87,36.9,12.13,73.5,14.86,110.58
		c-18.74,3.18-56.43,6.86-74.9,11.09c-6.67,1.55-13.29,3.23-19.9,5.05c-58.54-64.68-69.68-163.47-13.94-234.53
		c49.91-63.45,126.28-96.44,205.03-100.65c6.47-0.33,13.03-0.52,19.59-0.45c24.88,0.12,68.2-2.86,91.99,2.58
		c-0.51,8.17-0.84,16.4-0.9,24.56c-0.27,20.93,13.06,20.87,13.33,0c0.08-5.38,0.21-10.77,0.46-16.07
		c30.99,9.46,86.81,28.08,116.82,40.65c-20.35,21.92-46.74,44.14-67.8,65.4c-14.72,14.85-4.5,25.09,10.24,10.23
		c24.16-24.37,46.86-50.05,70.45-75.01c7.12,2.99,14.34,12.33,21.45,15.19c83.56,33.56,162.43,55.07,252.73,61.89
		c183.06,13.88,335.9-94.88,513.32-114.53c40.39-4.47,83.94-5.12,125.48,1.1h0.06c2.67,1.18,5.65,1.68,8.63,1.44
		c0.06,0,0.06,0,0.06,0C2672.72,1464.61,2742.01,1503.17,2767.87,1587z M2537.75,1603.37c14.84,14.8,31.38,4.56,16.59-10.21
		c-29.11-29.12-51.65-45.57-78.17-77.07c-13.47-16.01-23.51-5.71-10.16,10.17C2492.46,1557.82,2508.71,1574.28,2537.75,1603.37z
		 M2361.44,1587.45c8.48-18.86-0.39-35.4-8.93-16.34c-16.34,36.43-34.8,54.76-57.04,87.63c-11.72,17.35-2.67,33.57,8.93,16.33
		C2326.61,1642.21,2345.09,1623.88,2361.44,1587.45z M2112.08,1708.98c13.17,16.26,23.2,5.9,10.23-10.17
		c-20.48-25.28-30.26-35.97-50.69-61.24c-13.14-16.27-23.26-5.92-10.21,10.21C2081.83,1673.01,2091.66,1683.77,2112.08,1708.98z
		 M1886.62,1660.89c16.47-12.39,13.05-27.86-3.68-15.29c-21.13,15.82-29.54,18.97-50.68,34.79c-16.46,12.38-13.05,27.86,3.69,15.29
		C1857.08,1679.8,1865.5,1676.7,1886.62,1660.89z M1713.91,1718.77c7.92,19.05,20.21,10.7,12.17-8.63
		c-11.08-26.96-19.44-39.52-30.59-66.47c-7.85-19.06-20.14-10.7-12.16,8.6C1694.46,1679.23,1702.82,1691.81,1713.91,1718.77z
		 M1495.19,1650.89c14.84,14.72,31.43,4.49,16.53-10.16c-22.17-21.91-40.12-28.75-62.29-50.66c-14.85-14.73-25.06-4.56-10.24,10.14
		C1461.37,1622.13,1473.03,1628.98,1495.19,1650.89z"/>
	<path class="st4" d="M2654.16,1693.21c-0.06,7.63-0.51,15.26-1.08,22.82c-0.76,11.07-1.84,22.06-2.67,33.07
		c-0.77,8.97-1.27,18-1.4,27.03c-0.25,20.47,31.54,20.47,31.8,0c0.12-10.75,0.89-21.5,1.78-32.18c0.89-11,1.97-22.01,2.68-33.01
		c0.38-5.91,0.63-11.83,0.7-17.74C2686.22,1672.73,2654.42,1672.73,2654.16,1693.21z"/>
	<path d="M2663.07,1959.85c9.09,18.31-18.31,34.4-27.41,16.03c-16.41-33.13-31.16-67.22-43.12-102.26
		c-6.61-19.46,24.1-27.73,30.72-8.46C2634.26,1897.66,2647.87,1929.07,2663.07,1959.85z"/>
	<path class="st5" d="M2631.27,2252.12l-46.1,563.56l-33.13,405.54c10.94-1.47,21.75-3.44,32.37-5.98l78.92-963.94
		C2652.64,2251.87,2641.95,2252.12,2631.27,2252.12z"/>
	<path class="st2" d="M2649.14,2129.45c7.63,19.08-23.15,27.22-30.65,8.46c-9.61-23.97-19.46-47.76-34.66-68.74
		c-12.08-16.66,15.51-32.5,27.4-16.09C2628.09,2076.29,2638.58,2103,2649.14,2129.45z"/>
	<path class="st3" d="M2393.95,2201.02l-15.85,193.23c21.69,27.4,38.72,55.11,53.44,80.6c28.58,49.47,78.31,131.54,61.22,161.1
		c-12.94,22.47-65.56,31.63-118.83,34.12l-10.32,241.49c21.22-8.27,55.06-21.47,75.22-31.65l-33.74-57.19
		c-4.2-8.02-2.4-10.77,5.69-14.91c8.08-4.21,9.85-5.49,14,2.59l29.83,57.81c32.38-18.46,62.99-39.81,91.18-64.31
		c10.91-9.44,18.54-2.05,19.52,8.19l-2.51-0.74c-0.41,3.28-4.83,5.28-8.18,8.17c-30.68,26.67-57.29,48.44-92.7,68.55l27.35,63.21
		c4.15,8.01,8.43,7.23,0.36,11.36c-2.37,1.26-2.84,2.13-5.33,2.13c-5.98,0-3.08-6.43-6.04-12.07l-37.65-53.99
		c-25.36,12.88-53.39,24.7-80.27,34.81l-10.66,304.75c8.15,0,16.23,0,24.37,0.06c57.42,0.28,120.75,7.1,179.94-0.58l34.24-418.93
		l47.62-582.19C2554.72,2236.49,2473.58,2221.05,2393.95,2201.02z"/>
	<path d="M2562.15,1593.87c14.5,14.5-7.95,37.02-22.51,22.51c-28.49-28.55-56.92-57.17-82.86-88.14
		c-13.1-15.57,9.22-38.16,22.45-22.44C2505.23,1536.7,2533.59,1565.32,2562.15,1593.87z"/>
	<path class="st1" d="M2576.11,1424.88c-62.05-6.86-145.96,0.98-207.92,15.8c25.06-39.69,51.86-78.1,76.87-117.86
		c11.14-17.67,2.17-33.94-8.9-16.32c-25.71,40.88-53.43,74.14-79.14,115.01c-4.92,7.81,4.09,15.34,9.6,19.74
		c-33.36,9.21-71.97,20.07-102.21,31.54c-84.5,32-169.47,69.95-260.85,75.71c-95.21,5.95-188.13-15.66-276.08-49.06
		c-12.77-4.81-31.75-9.93-44.37-15.11c5.95-14.25,5.6-30.7-7.42-17.55c-1.56,1.55-9.41,3.1-10.89,4.65
		c-37.18-15.4-80.72-36.99-119.17-48.13c1.81-19.36,4.4-32.31,7.18-51.61c2.92-20.39-9.22-29.2-12.13-8.53
		c-2.78,19.48-5.5,38.91-7.57,58.47c-11.08-2.45-41.36-4.54-52.69-6.03c-16.32-2.2-32.71-3.23-48.96-3.17
		c0-97.27,102.06-153.82,187.61-169.37c13.01-2.39,26.1-3.61,39.24-3.89c46.77-1.24,93.78,2.78,139.11,13.27
		c68.13,15.86,135.09,34.91,204.85,42.29c10.29,1.04,26.82,1.61,36.92,1.67c2.01,10.3,4.09,26.96,5.89,37.33
		c3.62,20.53,15.76,11.8,12.2-8.68c-1.36-7.84-2.91-15.68-4.47-23.51c113.59-9.7,229.03-70.58,344.75-73.7
		c4.8-0.13,9.53-0.07,14.18,0.13c3.94,1.87,7.71,1.94,11.08,0.83C2520.02,1239.06,2571.18,1331.17,2576.11,1424.88z
		 M2243.07,1346.12c16-13.41,5.66-29.83-10.2-16.49c-30.62,25.7-52.32,47.46-78.03,78.08c-13.33,15.87-3.32,32.51,10.15,16.52
		C2190.7,1393.56,2212.45,1371.88,2243.07,1346.12z M1992.86,1500.63c6.92-4.09,11.07-8.75,5.82-15.8
		c-14.37-19.17-27.91-38.85-42.22-58.02c-5.3-7.05-7.56-4.33-15.77,0.53c-7.01,4.09,1.57,8.67,6.88,15.8
		c14.31,19.17,15.19,26.14,29.51,45.32C1982.31,1495.5,1984.56,1505.49,1992.86,1500.63z M1794.87,1423.09
		c15.81,13.47,32.51,3.4,16.52-10.14c-27.92-23.7-50.9-44.49-71.31-74.79c-11.6-17.22-14.26-1.04-2.54,16.32
		C1759.42,1387.05,1764.9,1397.71,1794.87,1423.09z"/>
	<path d="M2503.39,2013.58c15.96-12.4,38.67,9.99,22.51,22.52c-45.08,34.97-90.61,69.18-137.99,100.92
		c-17.04,11.51-32.94-16.09-16.02-27.41C2416.97,2079.34,2460.46,2046.91,2503.39,2013.58z"/>
	<path class="st2" d="M2505.17,1760.42c-0.19-1.27-0.57-2.61-1.14-4.07c-10.43-25.06-25.82-47.57-36.25-72.56
		c-7.76-18.63-38.54-10.43-30.65,8.46c10.42,25.06,25.81,47.57,36.24,72.56c1.02,2.36,2.36,4.33,4.01,5.79
		C2487.49,1780.27,2507.21,1774.16,2505.17,1760.42z"/>
	<path class="st4" d="M2483.29,1958.45c3.38,20.03-27.28,28.62-30.64,8.46c-5.15-31.09-10.37-62.2-15.52-93.29
		c-3.38-20.03,27.27-28.61,30.65-8.46C2472.99,1896.26,2478.14,1927.35,2483.29,1958.45z"/>
	<path class="st2" d="M2428.35,1301.73c-25.25,40.13-52.46,79.05-77.71,119.17c-4.84,7.69-2.23,15.07,3.18,19.4
		c6.87,5.65,18.18,6.36,24.29-3.31c0.76-1.15,1.47-2.35,2.23-3.49c24.61-38.98,50.94-76.7,75.49-115.74
		C2466.76,1300.4,2439.22,1284.43,2428.35,1301.73z"/>
	<path d="M2345.42,1566.02c8.4-18.7,35.81-2.48,27.47,16.03c-16.03,35.74-40.38,66.2-62.19,98.44
		c-11.39,16.92-38.98,1.02-27.48-16.02C2305.04,1632.22,2329.4,1601.76,2345.42,1566.02z"/>
	<g>
		<path class="st5" d="M2365.58,2209.52l-6.48,152.56c9.86,7.95,20.22,19.27,30.46,32.18l7.56-176.6
			C2386.57,2215.04,2376.07,2212.31,2365.58,2209.52z"/>
		<path class="st5" d="M2335.44,2917.36c10.87-3.69,21.62-7.7,32.3-11.9l9.99-233.76c-11.13,0.51-21.94,0.83-31.86,0.95
			L2335.44,2917.36z"/>
		<path class="st5" d="M2322.47,3221.59c10.62,0,21.17,0.06,31.79,0.13l12.02-281.84c-10.69,4-21.43,7.75-32.31,11.38
			L2322.47,3221.59z"/>
	</g>
	<path class="st3" d="M2369.59,2193.65l-10.49,182.25c-9.67-7.82-15.51-11.28-23.66-11.28c-34.25,0-71.31,63.73-99.97,113.41
		c-28.64,49.55-74.32,126.24-57.23,155.8c17.09,29.57,63.52,24.39,120.82,24.39c0,0,28.71-0.2,50.62,2.12l-11.24,264.79
		c-17.08,5.84-34.5,11.17-51.98,16.04l-18.07-62.83c-2.5-8.74-11.57-13.73-20.31-11.23c-8.75,2.49-5,10.28-2.5,19.02l18.51,64.34
		c-43.83,10.58-98.02,16.99-142.51,22.24v-842.47c58.16,10.78,115.59,26.75,172.31,42.59
		C2318.92,2179.85,2344.15,2186.88,2369.59,2193.65z"/>
	<path class="st2" d="M2362.02,1980.01c17.74,10.24,1.72,37.72-16.03,27.47c-35.79-20.6-69.82-43.56-101.68-69.82
		c-15.83-13.04,6.75-35.42,22.45-22.51C2296.59,1939.69,2328.57,1960.8,2362.02,1980.01z"/>
	<path class="st1" d="M2421.53,2493.53c-11.12-19.37-21.77-36.36-31.56-50.94c-11.92-17.65-22.58-31.83-31.57-42.49
		c-11.79-14.04-20.58-22.1-25.44-24.24c-11.52,5-46.28,44.29-88.64,117.67c-42.35,73.33-59,123.07-57.53,135.53
		c10.05,7.53,61.46,17.99,146.17,17.99c5.13,0,10.05-0.08,14.92-0.14c11.86-0.13,23.05-0.53,33.36-1.07
		c55.95-2.99,89.91-10.78,97.89-16.78C2480.6,2616.6,2463.88,2566.86,2421.53,2493.53z"/>
	<path class="st3" d="M2335.44,2939.88l-12.97,298.01c-67.81-0.26-133.07,1.15-200.89,1.03V2988.9
		c47.51-5.46,97.16-17.25,143.95-28.75l16.33,66.76c2.11,7.24,2.86,6.75,9.95,6.75c1.52,0,2.75,1.11,4.26,0.71
		c8.73-2.5,9.24-2.62,6.75-11.36l-17.05-68.55C2299.71,2950.58,2321.78,2944.34,2335.44,2939.88z"/>
	<path class="st1" d="M2241.6,1034.34c25.03,70.37,67.38,127.07,124.85,170.33c-40.14,4.57-80.07,16.23-117.23,27.89
		c-64.38,20.2-131.08,40.07-196.1,44.5c-2.61-15.06-4.5-30.17-4.76-45.54c-0.39-20.99-20.26-20.99-19.87,0
		c0.25,15.7,2.09,31.07,4.56,46.4c-8.14-0.15-22.77-0.53-31.12-1.25c-112.34-9.44-220.06-58.25-331.74-60.79
		c-17.53-73.25,39.15-132.94,92.4-175.82c50.64-40.71,109.81-63.79,170.73-84.06c52.66-17.51,106.03-40.77,152.81-71.32
		c37.14-24.3,64.7-51.31,84.45-89.69C2199.89,873.06,2213.57,955.69,2241.6,1034.34z M2194.29,1131.49
		c12.57,16.43,21.78,6.55,9.01-10.13c-19.81-25.93-24.21-42.93-34.43-73.62c-6.64-19.81-19.04-11.33-12.34,8.66
		C2167.54,1089.5,2172.77,1103.47,2194.29,1131.49z M2039.77,991.23c11.81-17.46,2.59-33.75-9.08-16.42
		c-20.92,31.16-43.07,54.71-58.38,89.24c-8.47,18.97,6.89,29.22,15.37,10.06C2003.05,1039.64,2018.79,1022.38,2039.77,991.23z
		 M1856.55,1168.62c11.47,17.54,20.61,7.54,9.01-10.05c-20.07-30.56-30.39-50.23-46.68-82.89c-9.45-18.76-24.81-8.63-15.44,10.07
		C1819.74,1118.46,1836.49,1138.06,1856.55,1168.62z"/>
	<path class="st4" d="M2228.74,1324.43c15.57-13.1,38.21,9.28,22.51,22.45c-30.08,25.3-57.68,52.84-82.92,82.92
		c-13.23,15.71-35.56-6.87-22.46-22.45C2171.11,1377.28,2198.66,1349.68,2228.74,1324.43z"/>
	<path d="M2217.41,1125.52c12.47,16.28-15.14,32.11-27.41,16.09c-20.98-27.35-32.3-59.59-43.05-91.89
		c-6.55-19.52,24.16-27.78,30.65-8.45C2187.58,1071.21,2198.08,1100.21,2217.41,1125.52z"/>
	<path d="M2135.5,1966.97c15.59-13.1,38.16,9.28,22.45,22.52c-29.06,24.42-56.09,50.87-82.93,77.71
		c-14.5,14.5-36.94-8.01-22.44-22.51C2079.35,2017.91,2106.44,1991.39,2135.5,1966.97z"/>
	<g>
		<path class="st5" d="M2102.25,3060c0.9,6.8-2.67,13.22-8.46,16.22v144.73c10.62,0,21.24,0.06,31.79,0.06v-225.24
			c-10.49,1.28-21.04,2.36-31.48,3.3L2102.25,3060z"/>
		<path class="st5" d="M2093.79,2142.87v823.9c10.55-0.95,21.17-2.09,31.79-3.36v-815.26
			C2115.03,2146.24,2104.41,2144.4,2093.79,2142.87z"/>
	</g>
	<path class="st3" d="M2093.79,3068.13v175.79c-61.39-0.07-117.67,1.23-179.13,1.23l-16.9-249.38c22.99,0.87,47.83-3.52,70.15-3.64
		c31.15-0.14,65.58,2.26,97.67,0l11.36,65.7c1.13,8.38-1.14,10.66,7.1,10.66c0.73,0,3.91,0.71,3.91,0.71
		C2089.96,3068.93,2093.79,3068.13,2093.79,3068.13z"/>
	<path class="st3" d="M2098.97,2118.88v860.83c-1.39,0.2-17.98,6.63-19.3,6.76l-3.18-69.1c-1.2-9.04-0.18-19.77-9.28-18.45
		c-9.03,1.2-15.48,9.56-14.22,18.67l8.7,65.11c-27.64,1.93-55.01,3.06-81.86,3.52c-25.58,0.47-51.82,0.27-78.41-0.6l-2.32-45.91
		l2.92-22.12c0.74-5.38-1.19-10.5-4.78-14.09l-39.93-781.22c52.96-8.38,106.51-12.82,160.13-11.04
		C2044.75,2112.18,2071.93,2114.9,2098.97,2118.88z M2025.62,2757.87c21-37.87-1.84-108.05-25.62-148.38
		c-11.23-19-7.58-24.38-21.86-24.38c-15.75,0-14.36,7.15-26.72,30.74c-23.46,44.73-48.69,111.58-25.44,145.2
		c12.89,18.61,35.43,18.02,57.23,18.02C2011.12,2779.07,2016.38,2774.54,2025.62,2757.87z"/>
	<path class="st4" d="M2024.15,970.09c11.39-16.92,38.99-1.02,27.47,16.02c-20.48,30.4-42.03,59.66-57.04,93.3
		c-8.27,18.69-35.68,2.48-27.42-16.03C1982.12,1029.68,2003.74,1000.5,2024.15,970.09z"/>
	<path class="st1" d="M1999.29,2625.74c19.68,50.8,24.44,116.17,14.56,134.03c-2.86,5.04-15.44,10.39-33.38,10.39
		c-19.1,0-34.77-6.07-38.8-11.92c-9.38-13.47-7.18-66.83,9.74-118c10.75-32.64,22.11-46.98,26.8-49.7
		C1981.44,2592.52,1989.92,2601.45,1999.29,2625.74z"/>
	<path d="M2005.01,1483.09c5.15,6.93,1.08,17.74-5.72,21.75c-8.14,4.77-16.6,1.21-21.75-5.72c-14.05-18.83-27.41-38.16-41.47-56.98
		c-5.22-6.99-1.14-17.74,5.73-21.75c8.07-4.77,16.53-1.2,21.75,5.73C1977.61,1444.94,1990.9,1464.27,2005.01,1483.09z"/>
	<path d="M1958.34,1949.48c9.21,18.25-18.19,34.34-27.48,16.03c-14.95-29.64-31.6-58.44-46.62-88.08
		c-9.21-18.26,18.19-34.34,27.48-16.02C1926.73,1891.05,1943.32,1919.79,1958.34,1949.48z"/>
	<path class="st4" d="M1884.75,1632.85c16.41-12.33,32.24,15.33,16.1,27.48c-20.73,15.51-41.46,31.03-62.2,46.61
		c-16.41,12.34-32.23-15.32-16.08-27.47C1843.3,1663.96,1864.03,1648.37,1884.75,1632.85z"/>
	<g>
		<path class="st5" d="M1906.32,3003.85c-4.58-0.19-9.15-0.38-13.8-0.63l-8.14,60.98c-0.57,4.39-2.93,8.14-6.24,10.68l7.44,145.95
			c10.55,0,21.17,0,31.8,0L1906.32,3003.85z"/>
		<path class="st5" d="M1904.73,2972.43l-2.23-43.94l-5.85,43.63C1899.39,2972.24,1902.06,2972.3,1904.73,2972.43z"/>
		<path class="st5" d="M1891.69,2889.45c3.56,0.44,6.67,2.03,9.03,4.38l-38.22-747.73c-10.55,1.66-21.11,3.5-31.6,5.54l39.69,775.7
			l3.24-24.3C1874.96,2894.4,1882.98,2888.17,1891.69,2889.45z"/>
	</g>
	<path class="st3" d="M1878.14,3065.29l8.44,174.22c-70.03,0-135.83,0.05-205.86,0.11l-16.84-209.91c3.81-1.97,6.9-5.52,8.22-10.07
		l16.52-51.03c58.11,12.91,123.96,20.74,182.67,24.74l-8.09,73.33c-1.19,9.02-3.39,3.74,5.62,5c0.73,0.06,5.65,0.71,6.38,0.71
		C1878.89,3072.38,1878.14,3065.29,1878.14,3065.29z"/>
	<path class="st2" d="M1875.41,1161.83c11.32,17.16-16.22,33.13-27.41,16.02c-19.59-29.82-35.93-61.37-51.83-93.29
		c-9.15-18.25,18.26-34.34,27.48-16.03C1839.54,1100.4,1855.83,1132,1875.41,1161.83z"/>
	<path class="st3" d="M1834.13,2132.98l41.08,802.78l-5.99,44.62c-57-3.69-121.86-6.76-178.53-19.33l15.9-70.73
		c2.5-8.76,8.17-20.51-0.59-23.01c-8.76-2.49-10.68,4.72-13.19,13.47l-20.14,69.68c-3.88-0.99-14.92-3.45-18.8-4.5l-31.72-285.63
		c58.17-0.59,137.02-4.02,153.08-31.79c17.11-29.61-27.3-101.94-55.92-151.56c-28.7-49.76-62.93-105.99-97.16-105.99
		c-5.86,0-14.75,0.54-21.52,4.88l-15.14-178.83c48.77-13.7,96.68-28.11,142.96-40.15
		C1763.32,2147.79,1798.6,2139.56,1834.13,2132.98z"/>
	<path class="st4" d="M1849.03,2052.57c17.42,10.69,1.46,38.22-16.09,27.47c-27.47-16.78-52.85-36.88-75.74-59.46
		c-14.63-14.44,7.89-36.95,22.51-22.51C1800.75,2018.86,1823.77,2037.18,1849.03,2052.57z"/>
	<path class="st4" d="M1821.1,1412.51c15.71,13.29-6.93,35.68-22.45,22.45c-29.45-24.93-53.55-54.12-75.04-86.1
		c-11.51-17.04,16.09-32.94,27.47-16.03C1771.12,1362.58,1793.7,1389.23,1821.1,1412.51z"/>
	<path d="M1737.09,1714.89c7.89,18.95-22.89,27.15-30.65,8.46c-10.88-26.46-25.31-51.26-36.24-77.71
		c-7.83-18.95,22.95-27.15,30.64-8.45C1711.79,1663.64,1726.22,1688.44,1737.09,1714.89z"/>
	<path class="st2" d="M1672.3,1902.3c16.91-11.7,32.81,15.9,16.08,27.47c-31.15,21.62-53.35,53.61-79.74,80.44
		c-14.37,14.63-36.83-7.88-22.45-22.51C1614.62,1958.77,1638.59,1925.69,1672.3,1902.3z"/>
	<path class="st3" d="M1631.7,2950.11l30.96,287.92c-37.62,0.06-81.59,0.13-119.22,0.2c-32.48,0.06-66.42,2.36-99.83,2.04
		l-55.68-413.52c26.83,22.62,74.78,48.84,105.23,66.14l-32.33,56.73c-4.15,8.02-0.99,5.23,7.09,9.38c2.37,1.26-1.36-4.51,1.14-4.51
		c5.99,0,5.35,3.14,8.24-2.52l32.13-49.98C1548.32,2921.58,1589.42,2937.42,1631.7,2950.11z"/>
	<path class="st2" d="M1669.12,1459.12c-1.53,1.52-2.99,3.05-4.46,4.58c-7.95,8.07-15.71,16.27-23.41,24.54
		c-19.97,21.5-39.62,43.31-60.28,64.17c-14.44,14.57,8.07,37.08,22.51,22.52c23.72-23.92,45.97-49.1,69.13-73.58
		c6.23-6.62,12.52-13.23,18.95-19.71c1.66-1.66,2.86-3.43,3.57-5.28C1700.98,1462.37,1681.9,1446.21,1669.12,1459.12z"/>
	<path class="st3" d="M1604.48,2664.39l24.07,276.5c-36.05-11.52-83.74-31.81-117.02-48.59l34.46-66.81
		c4.2-8.02,13.77-11.59,5.68-15.73c-8.09-4.21-18.02-7.4-22.16,0.69l-34.19,72.64c-30.97-17.88-60.18-38.41-86.95-62.08
		c-5.85-5.13-19.11-11.61-24.64-8.92l-64.47-566.37c80.76-1.11,162.7-19.14,242.67-40.71l21.62,179.83
		c-24.8,28.68-43.55,56.47-60.27,85.46c-28.54,49.59-73.99,137.12-56.89,166.65C1481.39,2662.99,1546.87,2663.21,1604.48,2664.39z"
		/>
	<g>
		<path class="st5" d="M1666.38,3042.7c-2.22,1.21-4.76,1.84-7.31,1.84c-1.46,0-2.92-0.25-4.39-0.63
			c-8.46-2.42-13.35-11.26-10.94-19.72l15.51-54.12c-10.88-2.8-21.62-5.79-32.3-9.03l23.79,259.97c10.62,0,21.31-0.06,31.93-0.06
			L1666.38,3042.7z"/>
		<path class="st5" d="M1632.56,2672.65c-3.63,0.07-7.06,0.07-10.44,0.07c-6.68,0-13.86-0.07-21.49-0.26l23.27,255.07
			c10.81,3.43,21.81,6.68,32.82,9.67L1632.56,2672.65z"/>
		<path class="st5" d="M1590.64,2213.52c-10.36,2.92-20.73,5.78-31.15,8.58l14.75,161.59c10.12-11.64,20.1-21.3,29.45-27.22
			L1590.64,2213.52z"/>
	</g>
	<path class="st1" d="M1710.74,2493.54c-42.34-73.38-77.1-112.65-88.62-117.65c-3.4,1.47-8.72,5.86-15.64,13.19
		c-8.06,8.44-18.31,20.89-30.03,37.27c-12.79,17.78-27.37,40.15-42.88,67.18c-42.34,73.3-59.06,123.04-57.59,135.49
		c9.06,6.72,51.13,15.78,120.58,17.64c8.13,0.2,16.65,0.33,25.57,0.33c2.67,0,5.26,0,7.86-0.07c80.03-0.6,128.58-10.65,138.36-17.9
		C1769.72,2616.58,1753.09,2566.84,1710.74,2493.54z"/>
	<path d="M1516.37,1773.27c10.75-17.35,38.29-1.4,27.41,16.09c-25.82,41.65-49.61,84.45-65.76,130.94
		c-6.67,19.21-37.4,10.94-30.65-8.46C1464.41,1862.74,1489.02,1817.34,1516.37,1773.27z"/>
	<path d="M1509.57,2082.83c4.01-20.09,34.65-11.57,30.65,8.46c-5.53,27.54-10.87,55.13-15.51,82.86
		c-3.44,20.22-34.09,11.64-30.71-8.46C1498.69,2137.97,1504.03,2110.37,1509.57,2082.83z"/>
	<path class="st4" d="M1520.57,1640.55c14.62,14.38-7.89,36.88-22.46,22.45c-21.75-21.5-45.65-40.7-67.4-62.2
		c-14.57-14.43,7.95-36.88,22.51-22.44C1474.97,1599.85,1498.82,1619.06,1520.57,1640.55z"/>
	<path class="st3" d="M1367.14,2831.31l51.05,408.07c-8.63-0.65-17.18-1.65-25.6-2.96c-44.79-7.1-83.01-31.44-113.92-63.8
		c-77.15-80.71-107.55-202.66-129.31-308.62c-45.52-221.87-47.5-451.94-49.14-677.75c33.61,22.89,72.68,39.53,113.72,48.75
		c26.38,5.91,53.02,9.2,79.87,10.45L1367.14,2831.31z"/>
	<path class="st5" d="M1397.39,2841.75c-2.99-2.48-5.91-5.03-8.84-7.63c-3.18-2.86-4.7-6.04-5.09-9.22
		c-0.69-6.42,3.69-12.84,9.86-15.77l-68.49-547.66c-10.74,0.12-21.49,0-32.18-0.51l70.91,566.41l49.35,394.53
		c10.62,0.83,21.37,1.21,32.17,1.27L1397.39,2841.75z"/>
	<path class="st4" d="M1388.36,2047.92c11,17.36-16.47,33.26-27.47,16.02c-26.01-40.83-56.92-78.28-82.93-119.17
		c-10.99-17.36,16.47-33.26,27.47-16.02C1331.44,1969.58,1362.35,2007.03,1388.36,2047.92z"/>
	<path class="st2" d="M1347.72,1739.69c-2.92-34.65-9.66-68.93-14.18-103.46c-2.67-20.03-34.53-20.29-31.8,0
		c4.77,36.19,11.89,72.11,14.56,108.49c0.51,6.99,0.83,13.99,0.96,21.05c0.06,4.39,1.58,7.82,3.87,10.31
		c7.38,8.01,23.02,6.48,26.96-4.39c0.64-1.78,1.02-3.68,0.96-5.91C1348.93,1757.05,1348.42,1748.34,1347.72,1739.69z"/>
	<path d="M1167.57,2056.89c4.01-20.09,34.65-11.58,30.65,8.45c-5.21,25.95-10.37,51.83-15.52,77.71
		c-4.07,20.16-34.72,11.57-30.72-8.4C1157.2,2108.72,1162.35,2082.83,1167.57,2056.89z"/>
	<g>
		<path d="M2827.59,1723.79c-10.75-3.68-21.43-6.62-32.18-8.9c5.66-104.35-16.98-213.35-117.96-264.67
			c-25.37-12.91-52.08-21.75-79.62-27.28c-2.61-99.84-51.32-193.84-155.36-218.69c-9.48-2.29-19.08-3.82-28.74-4.65
			c-80.32-47.19-128.78-114.08-156.63-202.79c-24.49-78.09-39.23-157.9-71.22-233.45c-1.47-3.69-3.06-7.31-4.71-10.94
			c-6.23-13.86-24.87-7.56-29.06,3.82c-23.78,64.16-67.66,107.03-128.83,135.83c-54.76,25.76-114.66,39.11-170.56,62.26
			c-97.3,40.39-230.08,138.13-206.55,257.88c-16.6,1.08-33.26,3.36-50.05,7.18c-91.7,20.73-188.36,86.23-186.13,188.11
			c-44.45,4.44-87.57,17.92-127.06,40.88c-59.4,34.53-107.92,91-120.38,159.55c-10.69,59.01,9.6,116.88,46.1,162.48
			c-102.19,33.39-187.34,93.23-205.78,210.62c-12.78,81.08,18.38,149.63,71.79,198.35c-0.7,1.79-1.08,3.81-1.08,6.11
			c1.91,255,1.08,519.81,69.19,767.56c25.43,92.65,65.12,193.76,143.33,254.56c38.29,29.77,82.04,41.21,127.63,45.21
			c46.87,4.07,95.58,0.26,142.26,0.12c32.11-0.06,64.29-0.12,96.47-0.12c78.03-0.13,156.06-0.19,234.08-0.19
			c69.06,0,138.19,0.07,207.25,0.13c86.55,0.13,173.1,0.38,259.71,0.77c12.85,0,25.69,0.06,38.54,0.12
			c63.53,0.32,130.05,6.74,191.92-6.23c28.56-5.98,56.09-16.03,81.98-32.69c80.5-51.96,123.87-146.07,151.99-234.14
			c40.63-127.44,53.16-263.91,59.71-396.82c6.49-130.94,3.94-262.13-0.07-393.07c-0.06-2.04-0.44-3.88-1.08-5.53
			c68.93-48.27,116.82-121.9,122.93-210.49C3007.36,1860.39,2934.03,1760.04,2827.59,1723.79z M1768.7,1039.99
			c49.41-39.75,107.16-62.26,166.61-82.04c51.38-17.1,103.47-33.58,149.13-63.4c36.25-23.72,63.15-56.28,82.41-93.74
			c28.62,76.18,41.97,156.82,69.32,233.58c24.42,68.68,65.75,124,121.84,166.23c-39.17,4.45-78.15,15.84-114.4,27.22
			c-62.83,19.71-121.72,39.11-185.18,43.44c-2.55-14.7-4.4-29.45-4.65-44.45c-0.38-20.48-32.18-20.48-31.8,0
			c0.25,15.32,2.03,30.33,4.45,45.28c-7.95-0.13-16.02-0.51-24.16-1.21c-109.63-9.22-214.76-56.85-323.75-59.33
			C1661.43,1140.07,1716.75,1081.83,1768.7,1039.99z M2802.02,2919.66c-23.53,95.06-62,201.14-143.66,261.74
			c-22.63,16.79-47.63,27.35-73.96,33.83c-10.62,2.54-21.43,4.51-32.37,5.98c-57.3,7.44-118.6,0.82-174.18,0.57
			c-7.88-0.06-15.71-0.06-23.59-0.06c-10.62-0.07-21.18-0.13-31.79-0.13c-65.62-0.26-131.25-0.45-196.89-0.57
			c-10.55,0-21.17-0.06-31.79-0.06c-58.76-0.06-117.58-0.13-176.4-0.13c-10.63,0-21.25,0-31.8,0c-67.66,0-135.26,0.07-202.92,0.13
			c-10.62,0-21.31,0.06-31.93,0.06c-36.38,0.06-72.75,0.12-109.13,0.19c-31.41,0.06-64.23,2.29-96.53,1.97
			c-10.81-0.06-21.55-0.45-32.17-1.27c-8.33-0.63-16.6-1.59-24.74-2.86c-43.31-6.87-80.25-30.39-110.14-61.69
			c-74.6-78.03-103.98-195.93-125.02-298.37c-44.01-214.5-45.92-436.94-47.51-655.25c32.5,22.12,70.28,38.21,109.95,47.12
			c25.51,5.72,51.26,8.89,77.2,10.11c10.68,0.51,21.44,0.63,32.18,0.51c78.09-1.08,157.33-18.51,234.66-39.37
			c10.42-2.8,20.79-5.66,31.15-8.58c47.12-13.23,93.42-27.16,138.13-38.79c33.7-8.78,67.79-16.73,102.13-23.08
			c10.49-2.04,21.05-3.88,31.6-5.54c50.69-8.01,101.94-12.27,153.26-10.55c26.13,0.9,52.14,3.5,78.03,7.32
			c10.62,1.53,21.24,3.37,31.79,5.28c56.29,10.43,111.86,25.88,166.74,41.21c24.23,6.81,48.65,13.61,73.26,20.16
			c10.49,2.79,20.98,5.53,31.54,8.13c77.07,19.4,155.61,34.34,234.15,34.47c10.68,0,21.37-0.25,32.06-0.83
			c35.74-1.84,71.47-7.12,107.02-16.78c26.7-7.25,52.21-17.55,75.86-30.53C2853.4,2441.63,2859.44,2687.41,2802.02,2919.66z
			 M2957.7,2029.48c-19.65,67.34-64.8,113.39-121.21,143.34c-60.85,32.31-134.82,45.79-203.88,46.99c-14.95,0.33-29.63,0-43.94-0.83
			c-63.53-3.69-125.34-16.15-186.64-31.6c-91.38-23.08-181.63-52.84-274.28-70.27c-18.89-3.62-37.96-6.68-57.1-9.03
			c-81.85-10.12-162.29-3-241.9,12.01c-87.44,16.41-173.87,42.29-259.91,65.12c-14.37,3.81-28.74,7.57-43.12,11.13
			c-64.93,16.15-142.44,31.86-217.67,31.86c-75.86,0-149.38-15.96-205.4-63.46c-12.85-10.95-24.8-23.53-35.68-38.03
			c-50.31-67.09-43.69-163.5,1.14-231.48c43.57-66.07,129.28-91.7,201.9-109c16.92-3.81,33.96-7.24,51.13-10.17
			c-2.28-2.48-3.81-5.92-3.87-10.31c-0.14-7.06-0.45-14.05-0.96-21.05c-18.37,3.12-36.63,6.74-54.75,10.87
			c-6.54,1.53-13.03,3.18-19.52,4.96c-57.43-63.46-68.36-154.15-13.67-223.84c48.97-62.26,123.88-94.62,201.14-98.76
			c6.36-0.32,12.78-0.51,19.21-0.44c24.42,0.12,48.2,3.44,71.54,8.78c-0.51,8.01-0.83,16.09-0.9,24.1
			c-0.25,20.54,31.54,20.47,31.8,0c0.07-5.28,0.19-10.56,0.44-15.77c30.4,9.28,60.22,21.3,89.66,33.63
			c7.7-8.27,15.46-16.47,23.41-24.54c-36.5-15.13-73.01-30.08-110.78-41.02c1.78-19.02,4.32-37.96,7.05-56.92
			c2.86-20.03-27.79-28.68-30.65-8.39c-2.74,19.14-5.41,38.22-7.44,57.42c-10.88-2.41-21.88-4.45-33.01-5.91
			c-16.02-2.16-32.11-3.18-48.07-3.12c0-95.52,100.22-144.8,184.23-160.06c12.78-2.35,25.63-3.56,38.54-3.81
			c45.92-1.21,92.08,8.97,136.6,19.26c66.89,15.58,132.65,34.28,201.14,41.53c10.11,1.02,20.09,1.59,30.01,1.65
			c1.98,10.12,4.01,20.23,5.79,30.4c3.56,20.16,34.22,11.58,30.72-8.52c-1.33-7.7-2.87-15.39-4.39-23.08
			c111.54-9.54,212.4-69.32,326.04-72.37c4.71-0.13,9.35-0.07,13.93,0.13c3.88,1.84,7.57,1.91,10.88,0.83
			c95.45,10.05,145.69,94.25,150.52,186.26c-60.92-6.73-124.58,0.96-185.44,15.52c-0.76,1.14-1.46,2.35-2.23,3.49
			c-6.11,9.67-17.42,8.97-24.29,3.31c-32.75,9.03-64.42,19.71-94.13,30.96c-82.98,31.41-166.42,68.69-256.14,74.35
			c-93.48,5.85-184.74-21.63-271.09-54.44c-12.53-4.7-24.93-9.73-37.33-14.82c-0.7,1.85-1.91,3.62-3.57,5.28
			c-6.42,6.49-12.72,13.1-18.95,19.71c6.99,2.93,14.06,5.85,21.04,8.65c81.97,32.94,165.59,60.28,254.18,66.96
			c179.59,13.61,329.54-105.56,503.59-124.83c39.62-4.39,82.36-5.02,123.12,1.08h0.07c2.6,1.15,5.53,1.65,8.46,1.41
			c0.06,0,0.06,0,0.06,0c76.44,13.16,144.42,51,169.79,133.22c12.08,39.23,13.17,81.15,11,121.97c-26.27-2.74-52.53-2.04-78.66,1.14
			c-0.7,11-1.78,22.01-2.68,33.01c30.28-3.69,60.8-4.14,91.77,0.31c9.79,1.4,19.65,3.31,29.56,5.72
			C2928.82,1780.58,2992.67,1909.48,2957.7,2029.48z"/>
		<path d="M2477.38,1770.6c-40.25,14.76-80.06,29.06-119.3,39.04c-202.35,51.45-390.58-39.55-588.3-66.64
			c-137.99-18.82-282.85-23.47-422.06-3.31c0.7,8.65,1.21,17.36,1.34,26.08c0.06,2.23-0.32,4.13-0.96,5.91
			c139.14-20.73,284.38-15.64,422.32,3.24c179.51,24.55,348.29,102.58,532.84,77.64c117.26-15.76,230.33-80.5,347.15-103.46
			c0.82-11.01,1.91-22,2.67-33.07c-49.73,9.54-99.13,26.65-147.91,44.39C2507.21,1774.16,2487.49,1780.27,2477.38,1770.6z"/>
		<path d="M2544.09,2801.24c-27.29,23.72-56.92,44.38-88.27,62.26l-28.87-55.96c-4.01-7.82-13.62-10.88-21.43-6.8
			c-7.82,4-10.87,13.6-6.81,21.36l29.13,56.54c-19.53,9.86-39.55,18.83-60.1,26.83c-10.68,4.2-21.43,8.21-32.3,11.9
			c-16.53,5.65-33.39,10.81-50.3,15.52l-17.49-60.8c-2.41-8.46-11.19-13.29-19.65-10.87c-8.46,2.41-13.35,11.19-10.94,19.64
			l17.24,59.91c-42.42,10.24-85.66,17.55-128.72,22.64c-10.62,1.27-21.24,2.41-31.79,3.36c-1.33,0.19-2.67,0.25-3.95,0.39
			l-8.58-64.11c-1.15-8.65-9.16-14.88-17.87-13.6c-8.65,1.14-14.81,9.15-13.61,17.87l8.34,62.32c-26.46,1.85-52.66,2.93-78.35,3.37
			c-24.48,0.45-49.6,0.25-75.04-0.57c-2.67-0.13-5.34-0.19-8.08-0.31l5.85-43.63l2.8-21.17c0.71-5.15-1.14-10.05-4.57-13.48
			c-2.36-2.36-5.47-3.95-9.03-4.38c-8.71-1.27-16.73,4.95-17.87,13.6l-3.24,24.3l-5.79,43.11c-55.07-3.56-111.16-10.75-165.91-22.89
			l19.14-66.71c2.41-8.46-2.48-17.23-10.94-19.64c-8.46-2.42-17.23,2.41-19.65,10.87l-19.53,68.11c-3.75-0.95-7.44-1.97-11.19-2.99
			c-11-2.99-22.01-6.24-32.82-9.67c-34.85-11.13-68.68-24.6-100.86-40.83l33.32-64.61c4.07-7.76,1.02-17.36-6.8-21.36
			c-7.82-4.07-17.42-1.02-21.44,6.8l-33.06,64.1c-29.96-17.29-58.19-37.14-84.08-60.03c-5.65-4.96-12.34-5.09-17.68-2.48
			c-6.17,2.92-10.55,9.35-9.86,15.77c0.39,3.18,1.91,6.36,5.09,9.22c2.93,2.6,5.85,5.14,8.84,7.63
			c25.94,21.87,53.85,41.08,83.3,57.81l-25.12,48.71c-4,7.76-0.95,17.36,6.87,21.37c2.29,1.21,4.83,1.78,7.25,1.78
			c5.79,0,11.32-3.12,14.11-8.58l24.93-48.33c37.59,18.96,77.33,34.28,118.22,46.55c10.69,3.25,21.43,6.23,32.3,9.03l-15.51,54.12
			c-2.41,8.46,2.48,17.3,10.94,19.72c1.46,0.38,2.93,0.63,4.39,0.63c2.54,0,5.09-0.63,7.31-1.84c3.69-1.91,6.68-5.35,7.95-9.73
			l15.96-55.45c56.15,12.46,113.64,20.03,170.37,23.91l-7.83,58.57c-1.14,8.71,4.97,16.66,13.68,17.87c0.69,0.06,1.4,0.12,2.09,0.12
			c3.57,0,6.87-1.21,9.54-3.12c3.31-2.54,5.66-6.29,6.24-10.68l8.14-60.98c4.64,0.25,9.21,0.44,13.8,0.63
			c22.01,0.83,43.75,1.15,65.13,1.01c29.82-0.12,60.22-1.14,90.93-3.3l8.33,62.63c1.08,8.01,7.89,13.8,15.77,13.8
			c0.7,0,1.4-0.06,2.1-0.12c1.91-0.26,3.62-0.83,5.21-1.65c5.79-2.99,9.36-9.41,8.46-16.22l-8.14-60.92
			c10.43-0.95,20.99-2.03,31.48-3.3c45.99-5.28,92.21-13.23,137.49-24.36l17.68,61.56c2.04,7,8.4,11.57,15.26,11.57
			c1.47,0,2.93-0.25,4.39-0.63c8.46-2.42,13.35-11.26,10.94-19.72l-17.49-60.79c13.48-3.75,26.9-7.83,40.13-12.15
			c10.87-3.63,21.62-7.38,32.31-11.38c26.01-9.8,51.45-20.8,75.99-33.27l28.94,56.22c2.86,5.46,8.39,8.58,14.17,8.58
			c2.41,0,4.96-0.57,7.25-1.78c7.83-4.01,10.88-13.61,6.86-21.37l-29.25-56.72c34.28-19.46,66.58-41.97,96.28-67.79
			c3.25-2.8,4.77-5.98,5.16-9.16C2573.02,2802.52,2556.3,2790.69,2544.09,2801.24z"/>
		<path class="st2" d="M2109.56,1719.98c12.91,15.96,35.23-6.67,22.51-22.45c-20.1-24.8-42.16-47.76-62.2-72.56
			c-12.91-15.96-35.29,6.69-22.52,22.51C2067.4,1672.22,2089.53,1695.24,2109.56,1719.98z"/>
		<path d="M1980.08,2790.18c26.71,0,47.95-9.48,56.79-25.43c20.09-36.25,0.76-128.4-22-167c-10.74-18.19-23.08-27.41-36.75-27.41
			c-15.08,0-28.75,11.38-40.57,33.96c-22.45,42.8-39.62,129.61-17.36,161.78C1932.52,2783.88,1959.22,2790.18,1980.08,2790.18z
			 M1954.84,2645.51c9.35-28.37,19.2-40.83,23.28-43.18c2.79,1.72,10.17,9.47,18.31,30.59c17.1,44.14,21.24,100.92,12.65,116.44
			c-2.48,4.39-13.42,9.03-29,9.03c-16.59,0-30.2-5.28-33.7-10.36C1938.24,2736.32,1940.15,2689.96,1954.84,2645.51z"/>
		<path d="M1600.63,2672.47c7.63,0.19,14.81,0.26,21.49,0.26c3.38,0,6.81,0,10.44-0.07c56.22-0.57,141.42-5.97,156.94-32.81
			c16.53-28.62-27.41-113.32-55.07-161.28c-27.73-48.07-79.23-128.65-112.31-128.65c-5.66,0-11.89,2.35-18.44,6.55
			c-9.35,5.92-19.33,15.58-29.45,27.22c-23.97,27.73-48.27,66.89-64.42,94.94c-27.59,47.95-71.54,132.59-55,161.14
			C1469.31,2664.96,1544.92,2671.32,1600.63,2672.47z M1537.55,2494.35c14.81-25.82,28.74-47.2,40.95-64.17
			c11.19-15.65,20.98-27.54,28.68-35.61c6.61-6.99,11.7-11.19,14.94-12.6c11,4.77,44.2,42.29,84.65,112.38
			c40.44,70.01,56.34,117.51,55,129.41c-9.34,6.93-55.7,16.53-132.14,17.1c-2.49,0.07-4.96,0.07-7.51,0.07
			c-8.52,0-16.66-0.13-24.42-0.31c-66.33-1.79-106.52-10.44-115.17-16.86C1481.14,2611.86,1497.1,2564.36,1537.55,2494.35z"/>
		<path d="M2332.96,2672.72c4.07,0,8.4,0,12.92-0.07c9.92-0.12,20.73-0.44,31.86-0.95c51.57-2.41,110.01-10.11,122.54-31.86
			c16.54-28.62-27.35-113.26-55.01-161.15c-14.24-24.67-34.72-57.93-55.7-84.45c-10.24-12.91-20.61-24.23-30.46-32.18
			c-9.35-7.57-18.25-12.15-26.14-12.15c-33.13,0-84.51,80.58-112.24,128.65c-27.73,47.96-71.67,132.66-55.14,161.28
			C2182.12,2668.46,2277.51,2672.72,2332.96,2672.72z M2248.32,2494.35c40.44-70.08,73.64-107.61,84.64-112.38
			c4.64,2.04,13.04,9.73,24.3,23.15c8.58,10.18,18.75,23.72,30.14,40.57c9.35,13.92,19.52,30.14,30.14,48.65
			c40.45,70.01,56.4,117.51,55.01,129.41c-7.63,5.72-40.07,13.16-93.48,16.02c-9.85,0.51-20.54,0.89-31.86,1.02
			c-4.64,0.06-9.35,0.13-14.25,0.13c-80.89,0-129.98-9.99-139.58-17.17C2191.98,2611.86,2207.87,2564.36,2248.32,2494.35z"/>
	</g>
</g>
</svg>
