<?xml version="1.0" encoding="utf-8"?>
<!-- Generator: Adobe Illustrator 25.4.1, SVG Export Plug-In . SVG Version: 6.00 Build 0)  -->
<svg version="1.1" id="Layer_1" xmlns="http://www.w3.org/2000/svg" xmlns:xlink="http://www.w3.org/1999/xlink" x="0px" y="0px"
	 viewBox="0 0 4000 4000" style="enable-background:new 0 0 4000 4000;" xml:space="preserve">
<style type="text/css">
	.st0{fill:#FDE5CB;}
	.st1{fill:#ED8525;}
	.st2{fill:#80511A;}
	.st3{fill:#573713;}
	.st4{fill:#301C08;}
	.st5{fill:#734410;}
	.st6{fill:#8C3C0C;}
	.st7{fill:#EB7825;}
	.st8{fill:#F6D54C;}
	.st9{fill:#F69E29;}
	.st10{fill:#FFF5F4;}
	.st11{fill:#F45D25;}
	.st12{fill:#F4B14E;}
	.st13{fill:#B23506;}
	.st14{fill:#FF7F52;}
	.st15{fill:#DB3207;}
	.st16{fill:#A32605;}
	.st17{fill:#631C03;}
	.st18{fill:#6E1802;}
	.st19{fill:#FFB9A3;}
	.st20{fill:#FF8C36;}
	.st21{fill:#EB6607;}
	.st22{fill:#99410D;}
	.st23{fill:#FF7E27;}
	.st24{fill:#CE5611;}
	.st25{fill:#FFE6DD;}
	.st26{fill:#E2CBBA;}
	.st27{fill:#6D544B;}
	.st28{fill:#534039;}
	.st29{fill:#C82B1B;}
	.st30{fill:#F6B629;}
	.st31{fill:#F6930F;}
	.st32{fill:#F17F00;}
	.st33{fill:#A35700;}
	.st34{fill:#804B16;}
	.st35{fill:#633A11;}
	.st36{fill:#9B4E15;}
	.st37{fill:#7A3B10;}
	.st38{fill:#8E581A;}
	.st39{fill:#A3641E;}
	.st40{fill:#CE7E25;}
	.st41{fill:#4D2D0D;}
	.st42{fill:#F6C429;}
	.st43{fill:#F18114;}
	.st44{fill:#F17014;}
	.st45{fill:#8EA500;}
	.st46{fill:#7E8900;}
	.st47{fill:#B2CC0D;}
	.st48{fill:#E5FF70;}
	.st49{fill:#F6920D;}
	.st50{fill:#E38013;}
	.st51{fill:#9E2A08;}
	.st52{fill:#3F302B;}
	.st53{fill:#B58162;}
	.st54{fill:#FFFFFF;}
	.st55{fill:#F16014;}
	.st56{fill:#F69412;}
	.st57{fill:#C14300;}
	.st58{fill:#2B1C16;}
	.st59{fill:#4A2A1E;}
	.st60{fill:#8E543C;}
	.st61{fill:#ED3F20;}
	.st62{fill:#C11E00;}
	.st63{fill:#BC7506;}
	.st64{fill:#F6BD40;}
	.st65{fill:#F6E147;}
	.st66{fill:#73584F;}
	.st67{fill:#AECD64;}
	.st68{fill:#8AAA3E;}
	.st69{fill:#3F4D1B;}
	.st70{fill:#302521;}
	.st71{fill:#C7EA72;}
	.st72{fill:#788888;}
	.st73{fill:#496666;}
	.st74{fill:#38130D;}
	.st75{fill:#591E15;}
	.st76{fill:#210B08;}
	.st77{fill:#F4DCD3;}
	.st78{fill:#80480F;}
	.st79{fill:#A38068;}
	.st80{fill:#BC6B0E;}
	.st81{fill:#A35802;}
	.st82{fill:#9E2403;}
	.st83{fill:#7B920D;}
	.st84{fill:#85A80F;}
	.st85{fill:#576E06;}
	.st86{fill:#C9B5A5;}
	.st87{fill:#FF8014;}
	.st88{fill:#FF9514;}
	.st89{fill:#AD3207;}
	.st90{fill:#3F1D12;}
	.st91{fill:#1C0D08;}
</style>
<g id="background">
</g>
<g id="icon_x5F_9">
	<rect class="st0" width="4000" height="4000"/>
</g>
<g id="icon_x5F_1">
	<g>
		<g>
			<g>
				<polygon class="st1" points="510.4,894.4 823.1,753.2 522.2,639.3 233.8,753.3 				"/>
				<polygon class="st2" points="521.7,880.6 796,757.8 527.8,646.7 266.5,750.4 				"/>
				<path class="st3" d="M622.3,685l13.3,146.9l34.9-14.9l-12.4-115.8C646.4,693,633.8,693.5,622.3,685z"/>
				<polygon class="st3" points="490.2,864.5 521.7,880.6 557.5,865.3 527.8,646.7 463.4,672.2 				"/>
				<polygon class="st4" points="823.1,753.2 824.7,861.9 511.9,998.7 510.4,894.4 				"/>
				<polygon class="st5" points="233.8,753.3 235.4,857.6 511.9,998.7 510.4,894.4 				"/>
				<polygon class="st1" points="496.6,882.2 512.8,981.9 538.6,877.8 				"/>
				<polygon class="st6" points="757.3,825.7 513.1,924.1 511.4,957.4 767.3,863.2 				"/>
				<polygon class="st7" points="233.8,791.5 513.1,924.1 513.1,962.4 234.6,828.2 				"/>
				<path class="st8" d="M349.3,811.5c0,0-68.6-48.7-47.5-66.9c25.8-22.2,143.9-72.8,138.2-72.7c-5.7,0.1-206.1,81.4-206.1,81.4
					L349.3,811.5z"/>
			</g>
			<g>
				<polygon class="st1" points="912.5,914.6 1254.2,883.3 1006.9,677.3 697.2,691 				"/>
				<polygon class="st2" points="927.7,905.3 1227.1,878.8 1009.9,686.2 729,698.9 				"/>
				<path class="st3" d="M1086.7,753.3l-35.4,143.2l37.8-2.7l26.1-113.5C1106.8,768.7,1094.7,765,1086.7,753.3z"/>
				<polygon class="st3" points="903.2,879.8 927.7,905.3 966.5,902.5 1009.9,686.2 940.6,689.3 				"/>
				<polygon class="st4" points="1254.2,883.3 1220.2,986.6 879.8,1013.7 912.5,914.6 				"/>
				<polygon class="st5" points="697.2,691 664.6,790 879.8,1013.7 912.5,914.6 				"/>
				<polygon class="st1" points="903.4,898.6 889.3,996.6 944.5,908.1 				"/>
				<polygon class="st6" points="1239.8,927.1 907.4,949.9 894.9,983.3 1228.8,960.6 				"/>
				<polygon class="st7" points="684.8,727.3 907.4,949.9 889.1,984.9 674,760.7 				"/>
				<path class="st8" d="M787.2,783.7c0,0-49-68.4-23.1-78.7c31.6-12.6,159.8-21.8,154.3-23.6c-5.5-1.8-221.3,9.6-221.3,9.6
					L787.2,783.7z"/>
			</g>
			<g>
				<polygon class="st1" points="658.9,1125.9 965.6,971.9 660.1,870.6 376.8,996.5 				"/>
				<polygon class="st2" points="669.7,1111.7 938.7,977.6 666.1,877.7 409.3,992.2 				"/>
				<path class="st3" d="M762.1,912.1l19.4,146.2l34.2-16.3l-17.2-115.2C786.5,919.1,773.9,920.1,762.1,912.1z"/>
				<polygon class="st3" points="637.6,1097 669.7,1111.7 704.8,1094.9 666.1,877.7 602.8,906 				"/>
				<polygon class="st4" points="965.6,971.9 971.7,1080.5 664.8,1230.1 658.9,1125.9 				"/>
				<polygon class="st5" points="376.8,996.5 382.6,1100.6 664.8,1230.1 658.9,1125.9 				"/>
				<polygon class="st1" points="644.7,1114.4 665,1213.2 686.4,1108.2 				"/>
				<path class="st8" d="M494.5,1049.8c0,0-70.6-45.8-50.2-64.8c24.8-23.3,140.8-78.7,135-78.4c-5.7,0.3-202.5,89.8-202.5,89.8
					L494.5,1049.8z"/>
			</g>
			<polygon class="st7" points="379.5,1045.8 665.4,1172 665,1213.2 381.4,1078.5 			"/>
			<polygon class="st6" points="968.4,1016 665.4,1172 665,1213.2 969.9,1057.3 			"/>
			<g>
				<g>
					<path class="st6" d="M606.3,707.8c-61.8-27.3-130.5-27.2-188,0.2c-57.5,27.4-55,58.9,6.9,86.1s130.5,27.2,188-0.2
						C670.7,766.5,668.1,735.1,606.3,707.8z M491.3,694.1l21.8,43.6C513.1,737.8,442.9,742.1,491.3,694.1z M428.4,732
						c0,0,5.2,9.2,16.4,20.1c-4.4,2.4-8.9,6.2-4.4,10.6c4.2,4.2,12.9,3.4,19.5,1.8c15.5,10.9,37.2,20.7,65.9,22.1
						C525.8,786.7,407,806.9,428.4,732z M531.2,742.1l73.7,13.8C604.8,755.8,521.3,791.2,531.2,742.1z"/>
					<path class="st6" d="M580.9,702.8c0,0,26.4-11.5,25.9-18.4l22.4,6c0,0-21.9,22.4-22.9,27.9S580.9,702.8,580.9,702.8z"/>
					<polygon class="st6" points="629.2,690.3 629.2,685.8 618.9,692.3 					"/>
					<path class="st9" d="M606.3,701.8c-61.8-27.3-130.5-27.2-188,0.2c-57.5,27.4-55,58.9,6.9,86.1s130.5,27.2,188-0.2
						C670.7,760.6,668.1,729.1,606.3,701.8z M491.3,688.2l21.8,43.6C513.1,731.8,442.9,736.1,491.3,688.2z M428.4,726.1
						c0,0,5.2,9.2,16.4,20.1c-4.4,2.4-8.9,6.2-4.4,10.6c4.2,4.2,12.9,3.4,19.5,1.8c15.5,10.9,37.2,20.7,65.9,22.1
						C525.8,780.7,407,800.9,428.4,726.1z M531.2,736.1l73.7,13.8C604.8,749.9,521.3,785.2,531.2,736.1z"/>
					<path class="st9" d="M580.9,698.3c0,0,26.4-11.5,25.9-18.4l22.4,6c0,0-21.9,22.4-22.9,27.9
						C605.3,719.2,580.9,698.3,580.9,698.3z"/>
				</g>
				<path class="st8" d="M630.4,752.2c-9,9.6-21.1,15.7-33.2,20.8c-53.9,22.8-116,30-171.5,11.3c-13.9-4.7-27.7-11.2-37.8-21.8
					c-4.7-5-8.5-11-10.9-17.4c1.1,14.7,17.2,29.4,48.2,43c61.8,27.3,130.5,27.2,188-0.2c42.4-20.2,52.1-42.6,29.4-64
					C642.4,734.3,637.5,744.6,630.4,752.2z"/>
			</g>
			<g>
				<g>
					<path class="st6" d="M747.5,951.3c-62.6-25.5-131.2-23.5-188,5.5c-56.7,29-53.3,60.4,9.3,85.9s131.2,23.5,188-5.5
						C813.5,1008.2,810.1,976.9,747.5,951.3z M632.2,940.9l23,43C655.2,983.9,585.2,990.2,632.2,940.9z M570.4,980.6
						c0,0,5.5,9.1,16.9,19.6c-4.3,2.5-8.7,6.4-4.2,10.7c4.4,4.1,13,3,19.6,1.3c15.8,10.4,37.7,19.6,66.5,20.3
						C669.3,1032.4,551.1,1056,570.4,980.6z M673.4,987.7l74,11.7C747.4,999.4,664.9,1037.1,673.4,987.7z"/>
					<path class="st6" d="M722,947c0,0,26.1-12.2,25.4-19.2l22.6,5.3c0,0-21.3,23-22.1,28.5C747,967.2,722,947,722,947z"/>
					<polygon class="st6" points="770,933.2 769.8,928.7 759.7,935.5 					"/>
					<path class="st9" d="M747.4,945.4c-62.6-25.5-131.2-23.5-188,5.5c-56.7,29-53.3,60.4,9.3,85.9s131.2,23.5,188-5.5
						C813.4,1002.3,810,970.9,747.4,945.4z M632,934.9l23,43C655,977.9,585,984.2,632,934.9z M570.2,974.6c0,0,5.5,9.1,16.9,19.6
						c-4.3,2.5-8.7,6.4-4.2,10.7c4.4,4.1,13,3,19.6,1.3c15.8,10.4,37.7,19.6,66.5,20.3C669.1,1026.5,551,1050,570.2,974.6z
						 M673.2,981.7l74,11.7C747.3,993.4,664.8,1031.1,673.2,981.7z"/>
					<path class="st9" d="M721.9,942.5c0,0,26.1-12.2,25.4-19.2l22.6,5.3c0,0-21.3,23-22.1,28.5
						C746.9,962.7,721.9,942.5,721.9,942.5z"/>
				</g>
				<path class="st8" d="M772.8,995.1c-8.8,9.8-20.7,16.3-32.6,21.8c-53.3,24.4-115.1,33.2-171.1,16.1c-14-4.3-28-10.4-38.4-20.7
					c-4.9-4.8-8.8-10.7-11.4-17.1c1.6,14.7,18.1,28.9,49.4,41.7c62.6,25.5,131.2,23.5,188-5.5c41.8-21.4,50.8-44.1,27.6-64.8
					C784.4,976.8,779.8,987.2,772.8,995.1z"/>
			</g>
			<g>
				<g>
					<path class="st6" d="M1077.2,791.6c-46.1-49.4-109.2-76.5-172.9-74c-63.7,2.5-73.7,32.4-27.7,81.9
						c46.1,49.4,109.2,76.5,172.9,74C1113.2,870.9,1123.3,841,1077.2,791.6z M976.9,733.7l2.8,48.7
						C979.7,782.3,913.5,758.7,976.9,733.7z M904.2,743.7c0,0,1.1,10.5,7.1,24.9c-5,0.5-10.6,2.2-8.2,8c2.2,5.6,10.5,8.2,17.2,9.4
						c10,16.1,26,33.6,51.9,46.3C972.2,832.3,855,804.1,904.2,743.7z M994.7,793.4l62.3,41.7C1057,835.1,966.3,834.7,994.7,793.4z"
						/>
					<path class="st6" d="M1055.9,776.9c0,0,28.8-0.1,31.1-6.7l18.2,14.3c0,0-29,12-32,16.6S1055.9,776.9,1055.9,776.9z"/>
					<polygon class="st6" points="1105.2,784.5 1106.9,780.4 1094.9,782.4 					"/>
					<path class="st9" d="M1079.6,786.1c-46.1-49.4-109.2-76.5-172.9-74C843,714.7,833,744.6,879,794c46.1,49.4,109.2,76.5,172.9,74
						C1115.6,865.5,1125.7,835.5,1079.6,786.1z M979.3,728.2l2.8,48.7C982.1,776.9,915.9,753.2,979.3,728.2z M906.5,738.2
						c0,0,1.1,10.5,7.1,24.9c-5,0.5-10.6,2.2-8.2,8c2.2,5.6,10.5,8.2,17.2,9.4c10,16.1,26,33.6,51.9,46.3
						C974.5,826.8,857.4,798.6,906.5,738.2z M997,788l62.3,41.7C1059.3,829.7,968.6,829.2,997,788z"/>
					<path class="st9" d="M1057.7,772.8c0,0,28.8-0.1,31.1-6.7l18.2,14.3c0,0-29,12-32,16.6C1071.8,801.7,1057.7,772.8,1057.7,772.8
						z"/>
				</g>
				<path class="st8" d="M1081.8,841.9c-12.1,5.3-25.6,6.1-38.8,6c-58.6-0.3-118.4-18.2-162.1-57.2c-11-9.8-21-21.2-26.1-34.9
					c-2.4-6.4-3.5-13.4-3.1-20.3c-4.7,14,4.2,33.8,27.3,58.6c46.1,49.4,109.2,76.5,172.9,74c47-1.8,64.7-18.7,52.3-47.2
					C1100,830.2,1091.4,837.7,1081.8,841.9z"/>
			</g>
		</g>
		<ellipse class="st10" cx="662" cy="1117.2" rx="15.8" ry="13.5"/>
		<ellipse class="st10" cx="932.5" cy="906.5" rx="15.8" ry="14.7"/>
		<ellipse class="st10" cx="522.3" cy="876.1" rx="15.8" ry="11.3"/>
	</g>
</g>
<g id="icon_x5F_2">
	<g>
		<g>
			<path class="st11" d="M2081.3,596.9c0,0,180.3-218.7,156.4-239.9c-23.9-21.2-96.3-39.7-145.4-5.9c-49.1,33.8-121-12.4-148.7-16.3
				c-27.7-3.9-79.9,12.5-97.8,46.9l154.9,265.9L2081.3,596.9z"/>
			<path class="st12" d="M2064.8,554.7c0,0,143.8-148.2,73.1-149.4C2067.2,404.1,2064.8,554.7,2064.8,554.7z"/>
			<path class="st13" d="M2064.8,554.7c0,0,133.8-139.5,68-140.5S2064.8,554.7,2064.8,554.7z"/>
			<path class="st12" d="M2007.3,565.4c0,0-11.5-180.1-60.8-146.3C1882.3,463.2,2007.3,565.4,2007.3,565.4z"/>
			<path class="st13" d="M2007.3,565.4c0,0-11-169.3-58.1-137.5C1887.8,469.3,2007.3,565.4,2007.3,565.4z"/>
			<path class="st12" d="M1860.7,387.2c23.8-22.5,58.1-33.3,90.5-28.6c14.1,2.1,27.6,6.9,41.4,10.5c29.5,7.9,60.8,10.5,90.8,4.6
				c22.6-4.4,44.1-13.6,66.7-17.7s48.1-2.3,65.6,12.8c-18.4,25.7-22.4,58.6-32.3,88.7c-1.5,4.6-3.2,9.2-5,13.8
				c38.1-52.9,70.4-104.5,59.4-114.2c-23.9-21.2-96.3-39.7-145.4-5.9s-121-12.4-148.7-16.3c-27.7-3.9-79.9,12.5-97.8,46.9
				L1971,596.4l0.9,0.2C1932.6,528,1895.5,458.2,1860.7,387.2z"/>
		</g>
		<g>
			<path class="st12" d="M2386.1,870c118.3,233.2-224,293.8-354.9,293.8c-130.9,0-473.2-60.6-354.9-293.8
				c64.4-126.9,209-296,354.9-296C2177.1,574,2321.8,743.1,2386.1,870z"/>
			<path class="st11" d="M2386.1,870c114.9,223.8-235.5,273.3-354.9,273.3c-119.5,0-469.8-49.5-354.9-273.3
				c67.4-131.3,211.3-275.3,354.9-275.3C2174.8,594.7,2318.7,738.7,2386.1,870z"/>
			<path class="st14" d="M2230.9,682.1c-66.9-54-134.2-89.8-199.7-87.5c-144,5.1-275.9,135.3-346.5,258.1c-0.8,2.9-1.2,4.3-2,7.2
				c29.7-49,75.8-91.9,118.3-122.7c42.5-30.8,83.2-50.8,120.9-67.8c26.7-12.1,52.1-22.8,76.9-29.8
				C2073.4,618.8,2144.2,634.4,2230.9,682.1z"/>
			<path class="st14" d="M1986.5,1027c-112-10.4-215.9-36.4-296.5-73.8c9,22.1,18.3,44.7,32.9,65.3c16,22.7,41.3,39.2,54.1,64.4
				c29.8,9,63.8,17,96.1,19.5c165.8,12.7,358.8,7.6,498.2-114.5C2248.1,1030.8,2115.3,1039,1986.5,1027z"/>
			<path class="st15" d="M1659.7,922.7c-25.4,199,249.1,213.4,371.5,220.6c119.8,7.1,413.3-36.2,370-228.3c-1.3-1.1-2.5-2.2-3.8-3.3
				c-4.3,52.5-48.8,88.8-108.9,107.9c-60,19.2-132.7,23.1-204.1,24.5c-52,1-104.6,0.8-155.4-4.7
				C1812.2,1026.9,1710.9,986.3,1659.7,922.7z"/>
			<path class="st16" d="M1971.1,602.8c-31.9,8.3-63.2,22.8-93.1,41.6c-68.6,57.6-114.8,144.4-135.7,228.7
				c-17.5,71-9.6,146.9,17.9,214.1c0.1,0.3,0.2,0.5,0.3,0.8c19.1,9.1,39.5,16.9,60.7,23.4c-14.4-14.7-27.4-31.5-37.7-54.4
				c-27.2-60.5-25.2-134.8-14.1-198.6C1790.6,737.8,1875.3,664.3,1971.1,602.8z"/>
			<path class="st16" d="M1941.5,978.6c-20.4-133.7-1-265.1,64.8-382.5c-2.9,0.3-5.9,0.8-8.8,1.2c-78.6,100.7-89.2,234.6-82.5,358.5
				c3.4,62.7,18.2,124.4,40.9,182.7c11.3,1.3,22.2,2.3,32.4,3C1963.8,1090.5,1950,1034.2,1941.5,978.6z"/>
			<path class="st16" d="M2185.6,939.4c-9.7-64.6-29.3-127.2-53.6-187.6c-21.6-53.7-48.8-117-92.5-156.8c-2.6-0.1-5.1-0.2-7.7-0.2
				c16.9,50.1,49.2,95.8,70.1,144.5c22.4,52.3,37.4,107.5,49,163.1c12.7,60.7,16.4,123.3,14.9,185.2c-0.3,14.5-1.7,28.8-3.6,42.9
				c11.7-2.1,23.6-4.6,35.5-7.3C2201.6,1056.6,2192.7,986.8,2185.6,939.4z"/>
			<path class="st16" d="M2135.5,618.3c-17.3-7.6-34.9-13.6-52.7-17.6c123.6,71.2,195.1,203.2,202.5,344.9
				c2.7,51.2,0.5,103.6-10,154c10-3.9,19.6-8.1,28.9-12.7c7.7-49.8,9.5-99.8,9-142.5C2311.8,813.3,2245.4,686,2135.5,618.3z"/>
		</g>
		<g>
			<ellipse class="st13" cx="1910.4" cy="786.2" rx="69.2" ry="62.4"/>
			<path class="st17" d="M1864.3,819.2c0,5.2,0.8,10.3,2.1,15.1c11.9,8.9,27.2,14.2,43.9,14.2c38.2,0,69.2-27.9,69.2-62.4
				c0-5.2-0.8-10.3-2.1-15.1c-11.9-8.9-27.2-14.2-43.9-14.2C1895.3,756.8,1864.3,784.8,1864.3,819.2z"/>
		</g>
		<g>
			<ellipse class="st13" cx="2136.2" cy="783.2" rx="69.1" ry="62.4"/>
			<path class="st17" d="M2090.2,816.3c0,5.2,0.8,10.3,2.1,15.1c11.9,8.9,27.2,14.2,43.9,14.2c38.2,0,69.1-27.9,69.1-62.4
				c0-5.2-0.8-10.3-2.1-15.1c-11.9-8.9-27.2-14.2-43.9-14.2C2121.1,753.9,2090.2,781.8,2090.2,816.3z"/>
		</g>
		<path class="st13" d="M2106.1,914.3c0.6,2.8,1.1,5.6,1.1,8.6c0,18.2-13,33-29.1,33c-16,0-28.9-14.6-29.1-32.7
			c-9.6,0.8-19.4,1.4-29.7,1.4c-15.9,0-31-1.2-45.3-3c-1.6,16.5-13.8,29.4-28.8,29.4c-16.1,0-29.1-14.8-29.1-33c0-2.6,0.3-5,0.8-7.5
			c-44-11.2-70.8-23-70.9-9.3c-0.2,17.4,42.8,70.8,110.1,93.8c1.1-17,13.5-30.5,28.9-30.5c16.1,0,29.1,14.8,29.1,33
			c0,2.8-0.4,5.4-1,8c2.1,0.1,4.1,0.3,6.2,0.3c102.4,0,173.5-82.2,173.2-104.5C2192.4,886.1,2159.4,902.4,2106.1,914.3z"/>
		<g>
			<path class="st18" d="M1962.8,970.4c-12.5,0-23-8.9-27.1-21.4c-9.3-3.8-16.4-12.6-18.6-23.7c-33.5-9.3-53.3-16.4-53.4-4.6
				c-0.1,5.6,4.3,14.8,12.5,25.6c19.1,18.3,46.6,37.3,80.1,48.8c0.7-11.2,6.5-20.8,14.6-26.1
				C1968.3,969.8,1965.6,970.4,1962.8,970.4z"/>
			<path class="st18" d="M2186.8,917c-14.9,3.7-36.6,10.7-63.2,16.7c0.6,2.8,1.1,5.6,1.1,8.6c0,18.2-13,33-29.1,33
				c-12.4,0-23-8.9-27.1-21.4c-5.3-2.1-9.8-5.9-13.1-10.7c-6.1,0.4-12.1,0.8-18.5,0.8c-15.9,0-31-1.2-45.3-3
				c-1,10.8-6.6,19.9-14.5,25c2.6-0.8,5.2-1.4,8-1.4c12.5,0,23,8.9,27.1,21.4c8.1,3.2,14.4,10.3,17.4,19.4
				C2109.7,1001,2168.8,947.7,2186.8,917z"/>
		</g>
		
			<ellipse transform="matrix(0.9425 -0.3341 0.3341 0.9425 -106.819 687.1232)" class="st19" cx="1944.1" cy="654.1" rx="29" ry="19.1"/>
		<ellipse class="st19" cx="2312.6" cy="999.1" rx="23.6" ry="19.1"/>
	</g>
</g>
<g id="icon_x5F_3">
	<g>
		<g>
			<path class="st20" d="M3474.4,641.2l-184.5-44.7c0,0-184.2-21.5-207.7,38.7c-0.7,0-1.2,0-1.2,0s-20.8,46.4-15.5,107.5
				c5.3,60.8,27.9,91.6,51.9,105.2c35.8,28.1,94,46.4,159.9,46.4c98.1,0,179.4-40.6,194.5-93.7c0.3-0.7,0.7-1.4,1-2.2
				C3505.1,701.8,3474.4,641.2,3474.4,641.2z"/>
			<path class="st21" d="M3462.8,647.3l-173.6-42.1c0,0-173.4-20.2-195.5,36.5c-0.7,0-1.1,0-1.1,0s-19.6,43.7-14.6,101.2
				c5,57.2,26.3,86.2,48.9,99c33.7,26.5,88.5,43.7,150.5,43.7c92.3,0,168.9-38.2,183-88.2c0.3-0.7,0.7-1.3,0.9-2.1
				C3491.7,704.2,3462.8,647.3,3462.8,647.3z"/>
			<path class="st8" d="M3144.4,849.8c-37.2-28.2-57.3-77.4-50.3-123.6c1.1-7.1,2.9-14.5,8-19.6c5.1-5.1,14.2-6.7,19.3-1.7
				l-27.2-64.5c-0.2,0.4-0.4,0.8-0.6,1.2c-0.7,0-1.1,0-1.1,0s-19.6,43.7-14.6,101.2c5,57.2,26.3,86.2,48.9,99
				c14.9,11.7,33.9,21.6,55.9,29C3169.1,865.3,3156.1,858.6,3144.4,849.8z"/>
			<path class="st22" d="M3462.8,647.3l-17.3-4.2l-145.9,71.5c2.1,57.2-2.4,114.5-13,170.7c88.1-2.5,160.1-39.6,173.8-87.9
				c0.3-0.7,0.7-1.3,0.9-2.1C3491.7,704.2,3462.8,647.3,3462.8,647.3z"/>
			<path class="st23" d="M3236,741.5c1.7,0.4,3.4,0.7,5,1.1c9.6,11,17.4,23.7,22.9,37.2c3.1,7.7,5.6,15.6,7.8,23.5
				c7.4,26.8,12.4,54.6,11,82.4c4.1-9.8,8.2-19.7,12.4-29.5c8.6-20.6,17.3-41.3,25.5-62.1c4.6-11.6,9-23.3,13.3-35
				c4.8-13.1,9.3-28.2,2.5-40.4c-3.8,0.5-7.5,1-11.3,1.6l-82.9,14.9C3242.2,736.7,3236,740.1,3236,741.5z"/>
			<ellipse class="st8" cx="3277.5" cy="641.2" rx="197" ry="111.4"/>
			<ellipse class="st9" cx="3277.5" cy="641.2" rx="182.9" ry="103.4"/>
			<path class="st24" d="M3329.6,881.3c67.8-11.2,119.5-43.7,130.9-83.9c0.3-0.7,0.7-1.3,0.9-2.1c6.4-19.1,10-36.5,12-52.4
				C3413.2,773.5,3362.5,822.4,3329.6,881.3z"/>
		</g>
		<path class="st8" d="M3384.9,571c-42.1-21-99.8-20.8-144.4-11.6c-20.3,4.2-93.9,24.8-91.2,54.9c3.2,36.8,54.4,45.9,82.8,50.1
			c40.9,6.1,112.5,0.7,125.1-31.2c0.5-1.3,1.2-5.4,0.9-6.8c-11-45.5-72.9-34.4-109.6-14.5c-2.3,1.2-0.5,4.9,1.9,4
			c11.4-4,22.6-8.1,34.3-11.5c10.3-3,21-4.3,31.5-2.2c37.8,12.9,30.4,40.8,2.3,47c-40.1,14-76.5,6-110.4-1.2
			c-8.7-1.9-77.8-21.2-33.4-48c14-8.5,30.5-13.6,46-18.9c35.6-12.3,72.9-15.1,110.2-11.4c34.8,3.4,88.6,17.2,82.7,64.9
			c-5.5,44.6-73.5,56.4-107.9,61c-68.8,9.2-194.2-1.6-204.2-89.6c-0.4-3.2-4.6-2.9-4.9,0.2c-8.5,106.6,152.4,117,225.4,103.4
			c36.4-6.8,90.2-20.3,104-61.1C3439,609.2,3415.2,586.2,3384.9,571z"/>
		<g>
			<path class="st20" d="M3741.7,841.7L3557.2,797c0,0-184.2-21.5-207.7,38.7c-0.7,0-1.2,0-1.2,0s-20.8,46.4-15.5,107.5
				c5.3,60.8,27.9,91.6,51.9,105.2c35.8,28.1,94,46.4,159.9,46.4c98.1,0,179.4-40.6,194.4-93.7c0.3-0.7,0.7-1.4,1-2.2
				C3772.4,902.2,3741.7,841.7,3741.7,841.7z"/>
			<path class="st21" d="M3730,847.7l-173.6-42.1c0,0-173.4-20.2-195.5,36.5c-0.7,0-1.1,0-1.1,0s-19.6,43.7-14.6,101.2
				c5,57.2,26.3,86.2,48.9,99c33.7,26.4,88.5,43.7,150.5,43.7c92.3,0,168.9-38.2,183-88.2c0.3-0.7,0.7-1.3,0.9-2.1
				C3758.9,904.7,3730,847.7,3730,847.7z"/>
			<path class="st8" d="M3411.7,1050.2c-37.2-28.2-57.3-77.4-50.3-123.6c1.1-7.1,2.9-14.5,8-19.6c5.1-5.1,14.2-6.7,19.3-1.7
				l-27.2-64.5c-0.2,0.4-0.4,0.8-0.6,1.2c-0.7,0-1.1,0-1.1,0s-19.6,43.7-14.6,101.2c5,57.2,26.3,86.2,48.9,99
				c14.9,11.7,33.9,21.6,55.9,29C3436.4,1065.8,3423.4,1059.1,3411.7,1050.2z"/>
			<path class="st22" d="M3730,847.7l-17.3-4.2L3566.9,915c2.1,57.2-2.4,114.5-13,170.7c88.1-2.4,160.1-39.6,173.8-87.9
				c0.3-0.7,0.7-1.3,0.9-2.1C3758.9,904.7,3730,847.7,3730,847.7z"/>
			<path class="st23" d="M3503.2,941.9c1.7,0.4,3.4,0.7,5,1.1c9.6,11,17.4,23.7,22.9,37.2c3.1,7.7,5.6,15.6,7.8,23.5
				c7.4,26.8,12.4,54.6,11,82.4c4.1-9.8,8.2-19.7,12.4-29.5c8.6-20.6,17.3-41.3,25.5-62.1c4.6-11.6,9-23.3,13.3-35
				c4.8-13.1,9.3-28.2,2.5-40.4c-3.8,0.5-7.5,1-11.3,1.6l-82.9,14.9C3509.4,937.1,3503.2,940.6,3503.2,941.9z"/>
			<ellipse class="st8" cx="3544.7" cy="841.7" rx="197" ry="111.4"/>
			<ellipse class="st9" cx="3544.7" cy="841.7" rx="182.9" ry="103.4"/>
			<path class="st24" d="M3596.8,1081.7c67.8-11.2,119.5-43.7,130.9-83.9c0.3-0.7,0.7-1.3,0.9-2.1c6.4-19.1,10-36.5,12-52.4
				C3680.4,974,3629.8,1022.9,3596.8,1081.7z"/>
		</g>
		<path class="st8" d="M3652.1,771.5c-42.1-21-99.8-20.8-144.4-11.6c-20.3,4.2-93.9,24.8-91.2,54.9c3.2,36.8,54.4,45.9,82.8,50.1
			c40.9,6.1,112.5,0.7,125.1-31.2c0.5-1.3,1.2-5.4,0.9-6.8c-11-45.5-72.9-34.4-109.6-14.5c-2.3,1.2-0.5,4.9,1.9,4
			c11.4-4,22.6-8.1,34.3-11.5c10.3-3,21-4.3,31.5-2.2c37.8,12.9,30.4,40.8,2.3,47c-40.1,14-76.5,6-110.4-1.2
			c-8.7-1.9-77.8-21.2-33.4-48c14-8.5,30.5-13.6,46-18.9c35.6-12.3,72.9-15.1,110.2-11.4c34.8,3.4,88.6,17.2,82.7,64.9
			c-5.5,44.6-73.5,56.4-107.9,61c-68.8,9.2-194.2-1.6-204.2-89.6c-0.4-3.2-4.6-2.9-4.9,0.2c-8.5,106.6,152.4,117,225.4,103.4
			c36.4-6.8,90.2-20.3,104-61.1C3706.2,809.7,3682.5,786.7,3652.1,771.5z"/>
		<g>
			<path class="st20" d="M3262.4,867.8l-184.5-44.7c0,0-184.2-21.5-207.7,38.7c-0.7,0-1.2,0-1.2,0s-20.8,46.4-15.5,107.5
				c5.3,60.8,27.9,91.6,51.9,105.2c35.8,28.1,94,46.4,159.9,46.4c98.1,0,179.4-40.6,194.5-93.7c0.3-0.7,0.7-1.4,1-2.2
				C3293.1,928.3,3262.4,867.8,3262.4,867.8z"/>
			<path class="st21" d="M3250.7,873.8l-173.6-42.1c0,0-173.4-20.2-195.5,36.5c-0.7,0-1.1,0-1.1,0s-19.6,43.7-14.6,101.2
				c5,57.2,26.3,86.2,48.9,99c33.7,26.4,88.5,43.7,150.5,43.7c92.3,0,168.9-38.2,183-88.2c0.3-0.7,0.7-1.3,0.9-2.1
				C3279.6,930.8,3250.7,873.8,3250.7,873.8z"/>
			<path class="st8" d="M2932.4,1076.4c-37.2-28.2-57.3-77.4-50.3-123.6c1.1-7.1,2.9-14.5,8-19.6c5.1-5.1,14.2-6.7,19.3-1.7
				l-27.2-64.5c-0.2,0.4-0.4,0.8-0.6,1.2c-0.7,0-1.1,0-1.1,0s-19.6,43.7-14.6,101.2c5,57.2,26.3,86.2,48.9,99
				c14.9,11.7,33.9,21.6,55.9,29C2957.1,1091.9,2944.1,1085.2,2932.4,1076.4z"/>
			<path class="st22" d="M3250.7,873.8l-17.3-4.2l-145.9,71.5c2.1,57.2-2.4,114.5-13,170.7c88.1-2.4,160.1-39.6,173.8-87.9
				c0.3-0.7,0.7-1.3,0.9-2.1C3279.6,930.8,3250.7,873.8,3250.7,873.8z"/>
			<path class="st23" d="M3023.9,968.1c1.7,0.4,3.4,0.7,5,1.1c9.6,11,17.4,23.7,22.9,37.2c3.1,7.7,5.6,15.6,7.8,23.5
				c7.4,26.8,12.4,54.6,11,82.4c4.1-9.8,8.2-19.7,12.4-29.5c8.6-20.6,17.3-41.3,25.5-62.1c4.6-11.6,9-23.3,13.3-35
				c4.8-13.1,9.3-28.2,2.5-40.4c-3.8,0.5-7.5,1-11.3,1.6l-82.9,14.9C3030.1,963.2,3023.9,966.7,3023.9,968.1z"/>
			<ellipse class="st8" cx="3065.4" cy="867.8" rx="197" ry="111.4"/>
			<ellipse class="st9" cx="3065.4" cy="867.8" rx="182.9" ry="103.4"/>
			<path class="st24" d="M3117.5,1107.8c67.8-11.2,119.5-43.7,130.9-83.9c0.3-0.7,0.7-1.3,0.9-2.1c6.4-19.1,10-36.5,12-52.4
				C3201.2,1000.1,3150.5,1049,3117.5,1107.8z"/>
		</g>
		<path class="st8" d="M3172.8,797.6c-42.1-21-99.8-20.8-144.4-11.6c-20.3,4.2-93.9,24.8-91.2,54.9c3.2,36.8,54.4,45.9,82.8,50.1
			c40.9,6.1,112.5,0.7,125.1-31.2c0.5-1.3,1.2-5.4,0.9-6.8c-11-45.5-72.9-34.4-109.6-14.5c-2.3,1.2-0.5,4.9,1.9,4
			c11.4-4,22.6-8.1,34.3-11.5c10.3-3,21-4.3,31.5-2.2c37.8,12.9,30.4,40.8,2.3,47c-40.1,14-76.5,6-110.4-1.2
			c-8.7-1.9-77.8-21.2-33.4-48c14-8.5,30.5-13.6,46-18.9c35.6-12.3,72.9-15.1,110.2-11.4c34.8,3.4,88.6,17.2,82.7,64.9
			c-5.5,44.6-73.5,56.4-107.9,61c-68.8,9.2-194.2-1.6-204.2-89.6c-0.4-3.2-4.6-2.9-4.9,0.2c-8.5,106.6,152.4,117,225.4,103.4
			c36.4-6.8,90.2-20.3,104-61.1C3226.9,835.8,3203.2,812.8,3172.8,797.6z"/>
		<g>
			<path class="st25" d="M3421.9,601.7c0,64-61.3,73.9-141.6,73.9s-149.4-9.9-149.4-73.9s65.1-115.9,145.5-115.9
				C3356.8,485.8,3421.9,537.7,3421.9,601.7z"/>
			<path class="st26" d="M3280.3,675.6c80.4,0,141.6-9.9,141.6-73.9c0-44.5-31.5-83.1-77.6-102.5c0.8,9.2,0.8,18.7,0.6,27.7
				c-0.5,21.9-1.2,44.4-9.9,64.5c-9.7,22.4-28.4,39.6-47.8,54.3c-14.2,10.8-29.6,20.9-45.7,28.8
				C3254,675.3,3266.9,675.6,3280.3,675.6z"/>
			<g>
				<ellipse class="st27" cx="3226.7" cy="562.1" rx="43.9" ry="39.6"/>
				<path class="st28" d="M3197.5,583.1c0,3.3,0.5,6.5,1.4,9.6c7.6,5.6,17.3,9,27.9,9c24.2,0,43.9-17.7,43.9-39.6
					c0-3.3-0.5-6.5-1.4-9.6c-7.6-5.6-17.3-9-27.9-9C3217.1,543.5,3197.5,561.2,3197.5,583.1z"/>
			</g>
			<g>
				<ellipse class="st27" cx="3333" cy="562.1" rx="43.9" ry="39.6"/>
				<path class="st28" d="M3303.8,583.1c0,3.3,0.5,6.5,1.4,9.6c7.6,5.6,17.3,9,27.9,9c24.2,0,43.9-17.7,43.9-39.6
					c0-3.3-0.5-6.5-1.4-9.6c-7.6-5.6-17.3-9-27.9-9C3323.4,543.5,3303.8,561.2,3303.8,583.1z"/>
			</g>
			<g>
				<ellipse class="st27" cx="3256.8" cy="630.3" rx="16.4" ry="14.8"/>
				<path class="st28" d="M3245.9,638.2c0,1.2,0.2,2.4,0.5,3.6c2.8,2.1,6.5,3.4,10.4,3.4c9.1,0,16.4-6.6,16.4-14.8
					c0-1.2-0.2-2.4-0.5-3.6c-2.8-2.1-6.5-3.4-10.4-3.4C3253.2,623.4,3245.9,630,3245.9,638.2z"/>
			</g>
			<g>
				<ellipse class="st27" cx="3296.1" cy="630.3" rx="16.4" ry="14.8"/>
				<path class="st28" d="M3285.1,638.2c0,1.2,0.2,2.4,0.5,3.6c2.8,2.1,6.5,3.4,10.4,3.4c9.1,0,16.4-6.6,16.4-14.8
					c0-1.2-0.2-2.4-0.5-3.6c-2.8-2.1-6.5-3.4-10.4-3.4C3292.5,623.4,3285.1,630,3285.1,638.2z"/>
			</g>
			<g>
				<ellipse class="st25" cx="3197.4" cy="669.8" rx="40.3" ry="34.4"/>
				<path class="st26" d="M3237.7,669.8c0-12.6-8-23.5-19.9-29.5c1.6,4,2.6,8.3,2.7,12.7c0.2,9.8-3,19.5-7.8,28.1
					c-5,9.2-12.1,17.4-21,22.6c1.9,0.2,3.8,0.5,5.7,0.5C3219.7,704.2,3237.7,688.8,3237.7,669.8z"/>
			</g>
			<g>
				<ellipse class="st25" cx="3274.1" cy="681.6" rx="40.3" ry="34.4"/>
				<path class="st26" d="M3314.3,681.6c0-12.6-8-23.5-19.9-29.5c1.6,4,2.6,8.3,2.7,12.7c0.2,9.8-3,19.5-7.8,28.1
					c-5,9.2-12.1,17.4-21,22.6c1.9,0.2,3.8,0.5,5.7,0.5C3296.3,716,3314.3,700.6,3314.3,681.6z"/>
			</g>
			<g>
				<ellipse class="st25" cx="3349.7" cy="671.8" rx="40.3" ry="34.4"/>
				<path class="st26" d="M3390,671.8c0-12.6-8-23.5-19.9-29.5c1.6,4,2.6,8.3,2.7,12.7c0.2,9.8-3,19.5-7.8,28.1
					c-5,9.2-12.1,17.4-21,22.6c1.9,0.2,3.8,0.5,5.7,0.5C3371.9,706.2,3390,690.8,3390,671.8z"/>
			</g>
		</g>
		<g>
			<path class="st25" d="M3207.7,831.4c0,64-61.3,73.9-141.6,73.9s-149.4-9.9-149.4-73.9s65.1-115.9,145.5-115.9
				C3142.6,715.5,3207.7,767.4,3207.7,831.4z"/>
			<path class="st26" d="M3066.1,905.3c80.4,0,141.6-9.9,141.6-73.9c0-44.5-31.5-83.1-77.6-102.5c0.8,9.2,0.8,18.7,0.6,27.7
				c-0.5,21.9-1.2,44.4-9.9,64.5c-9.7,22.4-28.4,39.6-47.8,54.3c-14.2,10.8-29.6,20.9-45.7,28.8
				C3039.7,905,3052.7,905.3,3066.1,905.3z"/>
			<g>
				<ellipse class="st27" cx="3012.4" cy="791.8" rx="43.9" ry="39.6"/>
				<path class="st28" d="M2983.2,812.8c0,3.3,0.5,6.5,1.4,9.6c7.6,5.6,17.3,9,27.9,9c24.2,0,43.9-17.7,43.9-39.6
					c0-3.3-0.5-6.5-1.4-9.6c-7.6-5.6-17.3-9-27.9-9C3002.9,773.2,2983.2,791,2983.2,812.8z"/>
			</g>
			<g>
				<ellipse class="st27" cx="3118.8" cy="791.8" rx="43.9" ry="39.6"/>
				<path class="st28" d="M3089.6,812.8c0,3.3,0.5,6.5,1.4,9.6c7.6,5.6,17.3,9,27.9,9c24.2,0,43.9-17.7,43.9-39.6
					c0-3.3-0.5-6.5-1.4-9.6c-7.6-5.6-17.3-9-27.9-9C3109.2,773.2,3089.6,791,3089.6,812.8z"/>
			</g>
			<g>
				<ellipse class="st27" cx="3042.6" cy="860.1" rx="16.4" ry="14.8"/>
				<path class="st28" d="M3031.6,867.9c0,1.2,0.2,2.4,0.5,3.6c2.8,2.1,6.5,3.4,10.4,3.4c9.1,0,16.4-6.6,16.4-14.8
					c0-1.2-0.2-2.4-0.5-3.6c-2.8-2.1-6.5-3.4-10.4-3.4C3039,853.1,3031.6,859.7,3031.6,867.9z"/>
			</g>
			<g>
				<ellipse class="st27" cx="3081.8" cy="860.1" rx="16.4" ry="14.8"/>
				<path class="st28" d="M3070.9,867.9c0,1.2,0.2,2.4,0.5,3.6c2.8,2.1,6.5,3.4,10.4,3.4c9.1,0,16.4-6.6,16.4-14.8
					c0-1.2-0.2-2.4-0.5-3.6c-2.8-2.1-6.5-3.4-10.4-3.4C3078.2,853.1,3070.9,859.7,3070.9,867.9z"/>
			</g>
			<g>
				<ellipse class="st25" cx="2983.2" cy="899.5" rx="40.3" ry="34.4"/>
				<path class="st26" d="M3023.5,899.5c0-12.6-8-23.5-19.9-29.5c1.6,4,2.6,8.3,2.7,12.7c0.2,9.8-3,19.5-7.8,28.1
					c-5,9.2-12.1,17.4-21,22.6c1.9,0.2,3.8,0.5,5.7,0.5C3005.4,933.9,3023.5,918.5,3023.5,899.5z"/>
			</g>
			<g>
				<ellipse class="st25" cx="3059.8" cy="911.3" rx="40.3" ry="34.4"/>
				<path class="st26" d="M3100.1,911.3c0-12.6-8-23.5-19.9-29.5c1.6,4,2.6,8.3,2.7,12.7c0.2,9.8-3,19.5-7.8,28.1
					c-5,9.2-12.1,17.4-21,22.6c1.9,0.2,3.8,0.5,5.7,0.5C3082.1,945.7,3100.1,930.3,3100.1,911.3z"/>
			</g>
			<g>
				<ellipse class="st25" cx="3135.5" cy="901.5" rx="40.3" ry="34.4"/>
				<path class="st26" d="M3175.7,901.5c0-12.6-8-23.5-19.9-29.5c1.6,4,2.6,8.3,2.7,12.7c0.2,9.8-3,19.5-7.8,28.1
					c-5,9.2-12.1,17.4-21,22.6c1.9,0.2,3.8,0.5,5.7,0.5C3157.7,935.9,3175.7,920.5,3175.7,901.5z"/>
			</g>
		</g>
		<g>
			<path class="st25" d="M3689.5,796.1c0,64-61.2,73.9-141.6,73.9s-149.4-9.9-149.4-73.9s65.1-115.9,145.5-115.9
				S3689.5,732.1,3689.5,796.1z"/>
			<path class="st26" d="M3547.9,870.1c80.4,0,141.6-9.9,141.6-73.9c0-44.5-31.5-83.1-77.6-102.5c0.8,9.2,0.8,18.7,0.6,27.7
				c-0.5,21.9-1.2,44.4-9.9,64.5c-9.7,22.4-28.4,39.6-47.8,54.3c-14.2,10.8-29.6,20.9-45.7,28.8
				C3521.5,869.8,3534.5,870.1,3547.9,870.1z"/>
			<g>
				<ellipse class="st27" cx="3494.2" cy="756.6" rx="43.9" ry="39.6"/>
				<path class="st28" d="M3465,777.5c0,3.3,0.5,6.5,1.4,9.6c7.6,5.6,17.3,9,27.9,9c24.2,0,43.9-17.7,43.9-39.6
					c0-3.3-0.5-6.5-1.4-9.6c-7.6-5.6-17.3-9-27.9-9C3484.7,738,3465,755.7,3465,777.5z"/>
			</g>
			<g>
				<ellipse class="st27" cx="3600.6" cy="756.6" rx="43.9" ry="39.6"/>
				<path class="st28" d="M3571.4,777.5c0,3.3,0.5,6.5,1.4,9.6c7.6,5.6,17.3,9,27.9,9c24.2,0,43.9-17.7,43.9-39.6
					c0-3.3-0.5-6.5-1.4-9.6c-7.6-5.6-17.3-9-27.9-9C3591,738,3571.4,755.7,3571.4,777.5z"/>
			</g>
			<g>
				<ellipse class="st27" cx="3524.4" cy="824.8" rx="16.4" ry="14.8"/>
				<path class="st28" d="M3513.4,832.7c0,1.2,0.2,2.4,0.5,3.6c2.8,2.1,6.5,3.4,10.4,3.4c9.1,0,16.4-6.6,16.4-14.8
					c0-1.2-0.2-2.4-0.5-3.6c-2.8-2.1-6.5-3.4-10.4-3.4C3520.8,817.8,3513.4,824.5,3513.4,832.7z"/>
			</g>
			<g>
				<ellipse class="st27" cx="3563.6" cy="824.8" rx="16.4" ry="14.8"/>
				<path class="st28" d="M3552.7,832.7c0,1.2,0.2,2.4,0.5,3.6c2.8,2.1,6.5,3.4,10.4,3.4c9.1,0,16.4-6.6,16.4-14.8
					c0-1.2-0.2-2.4-0.5-3.6c-2.8-2.1-6.5-3.4-10.4-3.4C3560,817.8,3552.7,824.5,3552.7,832.7z"/>
			</g>
			<g>
				<ellipse class="st25" cx="3465" cy="864.3" rx="40.3" ry="34.4"/>
				<path class="st26" d="M3505.3,864.3c0-12.6-8-23.5-19.9-29.5c1.6,4,2.6,8.3,2.7,12.7c0.2,9.8-3,19.5-7.8,28.1
					c-5,9.2-12.1,17.4-21,22.6c1.9,0.2,3.8,0.5,5.7,0.5C3487.2,898.7,3505.3,883.3,3505.3,864.3z"/>
			</g>
			<g>
				<ellipse class="st25" cx="3541.6" cy="876.1" rx="40.3" ry="34.4"/>
				<path class="st26" d="M3581.9,876.1c0-12.6-8-23.5-19.9-29.5c1.6,4,2.6,8.3,2.7,12.7c0.2,9.8-3,19.5-7.8,28.1
					c-5,9.2-12.1,17.4-21,22.6c1.9,0.2,3.8,0.5,5.7,0.5C3563.9,910.5,3581.9,895.1,3581.9,876.1z"/>
			</g>
			<g>
				<ellipse class="st25" cx="3617.3" cy="866.2" rx="40.3" ry="34.4"/>
				<path class="st26" d="M3657.6,866.2c0-12.6-8-23.5-19.9-29.5c1.6,4,2.6,8.3,2.7,12.7c0.2,9.8-3,19.5-7.8,28.1
					c-5,9.2-12.1,17.4-21,22.6c1.9,0.2,3.8,0.5,5.7,0.5C3639.5,900.6,3657.6,885.2,3657.6,866.2z"/>
			</g>
		</g>
	</g>
</g>
<g id="icon_x5F_4">
	<g>
		<g>
			<g>
				<ellipse class="st29" cx="744" cy="2113.6" rx="542.1" ry="166.4"/>
				<ellipse class="st30" cx="744" cy="2102.3" rx="534.6" ry="155.1"/>
				<ellipse class="st31" cx="744" cy="2092.1" rx="509.7" ry="138.8"/>
				<ellipse class="st32" cx="744" cy="2095.7" rx="371.8" ry="101.2"/>
				<ellipse class="st31" cx="744" cy="2095.7" rx="330.2" ry="89.9"/>
				<ellipse class="st33" cx="788.3" cy="2094.8" rx="252" ry="69.5"/>
			</g>
			<g>
				<g>
					<g>
						<path class="st34" d="M1001.5,2027.3c-11.5-108.8,19.1-202.1,50.2-265.8H415.1c18.4,38.8,36,87.1,44.6,141.8
							c22.3,141-8.5,196.2,18,201.2c30,24.4,133.1-9.8,258.2-8.9c186.3,1.3,283,49.9,265.8-63.8
							C1001.6,2030.2,1001.7,2028.9,1001.5,2027.3z"/>
						<g>
							<path class="st35" d="M996.6,2081.9c0,39.7-120.6,76.5-265,76.5S466,2126.7,466,2087c0-39.7,121.2-72.3,265.6-72.3
								C876,2014.6,996.6,2042.2,996.6,2081.9z"/>
						</g>
						<ellipse class="st36" cx="736.3" cy="1808.3" rx="279.3" ry="213.4"/>
						<path class="st37" d="M737.9,2021.7c-1.2-2.5-3.4-4.7-7-5.9c-51.6-17.7-94.9-34.7-136.1-72c-42.2-38.2-84.9-102.4-80.2-161.5
							c0-0.4-0.7-0.6-0.8-0.2c-19.6,50.2,21.5,115.8,50.9,154.7c21.8,28.8,52.8,56,87.2,75c26.6,6.4,54.9,9.9,84.3,9.9
							C736.8,2021.7,737.4,2021.7,737.9,2021.7z"/>
						<path class="st37" d="M760.5,2020.9c-14.9-24.6-38.9-46.1-53.3-70.6c-29-49.4-35.2-100.4-39.9-156.2c0-0.2-0.3-0.2-0.4,0
							c-16.7,49.8-6.3,106.1,13,153.7c9,22.2,22.8,51.2,41,73.6c5.1,0.2,10.2,0.3,15.3,0.3C744.4,2021.7,752.5,2021.4,760.5,2020.9z
							"/>
						<path class="st35" d="M1001.5,2027.3c-11.5-108.8,19.1-202.1,50.2-265.8H782.6c-1.6,107.5-18.9,221.7-60.1,334.1
							c4.4-0.1,8.8-0.1,13.3,0c186.3,1.3,283,49.9,265.8-63.8C1001.6,2030.2,1001.7,2028.9,1001.5,2027.3z"/>
					</g>
				</g>
				<path class="st38" d="M750.9,1809.4c4.4,30.9-9.4,129.4-13.6,160.4c-1.2,9.1-2.1,18.3-3.1,27.4c-4.5,41-11.2,81.7-20.2,121.9
					c16.4-21.5,23.2-48.7,29.6-75c4.1-16.9,8.2-33.8,12.3-50.7c5.3-21.6,10.5-43.2,13.6-65.2c1.5-10.8,2.5-21.6,3.6-32.4
					c1.5-1.3,12.4-86.7,11.5-85L750.9,1809.4z"/>
				<ellipse class="st39" cx="527.8" cy="1947.3" rx="21.6" ry="27.5"/>
				<ellipse class="st39" cx="611.6" cy="2033.6" rx="16.8" ry="15.6"/>
				<ellipse class="st40" cx="735.5" cy="1747.2" rx="325.5" ry="76"/>
				<ellipse class="st38" cx="735.5" cy="1743.3" rx="318.7" ry="69.3"/>
				<ellipse class="st41" cx="735.5" cy="1741.9" rx="296.3" ry="63.9"/>
				<path class="st9" d="M1033.9,1720c0,65-138.7,70.7-302.8,70.7s-291.6-5.6-291.6-70.7s132-138,296.1-138
					S1033.9,1654.9,1033.9,1720z"/>
				<path class="st42" d="M839.2,1591.9c-32.3-6.3-67.2-9.9-103.7-9.9c-164.2,0-296.1,72.9-296.1,138c0,14,5.9,25.2,16.9,34.3
					c-0.6-15.9,5.8-33.2,14.7-46.9c28.3-43.3,76.5-69.4,125.2-86.8C673.7,1592.7,757.5,1583.1,839.2,1591.9z"/>
				<path class="st43" d="M527.3,1780.3c52.1,9,123.5,10.3,203.8,10.3c164.1,0,302.8-5.6,302.8-70.7c0-40.7-52.5-84.4-132-111.5
					c0.1,1.9,0.2,3.9,0.1,5.9c-1.2,15.9-11.9,29.3-22.9,40.8c-38.2,40.1-86.1,71-138.7,88.4c-36.8,12.2-75.4,17.7-113.8,23.2
					C593.6,1771.5,560.5,1776.2,527.3,1780.3z"/>
				<path class="st44" d="M732.1,1618.3c-60-3.3-121.3,34.5-166.6,70.2c-28.6,22.6-57.9,51.3-67,85.4c7.1,2,14.8,3.8,23,5.3
					c2.7-12.3,7.3-24.3,17-36.7c16.8-21.2,37.5-39.3,58.8-55.8c41.1-31.8,89.8-44.6,134.8-68.1
					C732.4,1618.6,732.3,1618.3,732.1,1618.3z"/>
				<path class="st44" d="M734.3,1617.9c0.6-1.3-0.8-2.7-2-1.9c-34.5,22.3-50.6,61.6-62.1,99.7c-6,20-12.5,47.3-14.6,74.3
					c9.3,0.2,18.7,0.3,28.3,0.4c-0.5-9.1-0.8-18.2-0.4-26.9C686.1,1708.4,710.8,1665.7,734.3,1617.9z"/>
				<path class="st44" d="M841.8,1727.9c-22.7-42.3-61-93.5-106-113.2c-3.2-1.4-6.3,1.8-4.6,5c21.9,39.4,61.9,66.8,85.3,106.7
					c11.4,19.4,15.9,41.1,19.6,62.8c9.9-0.3,19.6-0.8,29-1.3C859.4,1765.4,850.4,1743.9,841.8,1727.9z"/>
				<path class="st44" d="M947.5,1667.8c-64.7-38.4-139-69.6-216.1-53.7c-2,0.4-1.8,3.7,0.2,4c65.3,9.4,125.3,14.5,183.2,49.4
					c29.6,17.8,59.8,33.6,81.4,61.4c7,9.1,11.3,18.8,14.5,28.9c6.7-4.3,12.1-9.2,15.9-14.8C1008.5,1711,974.9,1684,947.5,1667.8z"/>
				<path class="st44" d="M734.9,1610c-76,1.2-148.1,24.8-215.3,59.3c-27.2,13.9-55.3,33.5-79.6,57.1c1,7.1,3.7,13.4,7.9,19
					c22.7-24.4,48.2-45.9,79.6-63.8c64.2-36.8,136-54.5,208.1-68C737.6,1613.2,736.9,1610,734.9,1610z"/>
				<g>
					<g>
						<g>
							<path class="st45" d="M733.8,1607.9c-5-17.9-2.5-37.1,2.6-55c15.4-54.2,54-100,100.9-131.2c46.9-31.2,101.8-48.8,157.2-58.8
								c14.3,67.5-15.6,139.9-67,185.9s-121.5,67.6-190.5,69.6L733.8,1607.9z"/>
							<path class="st46" d="M995.7,1369.7c-2.9,10-7.8,19.7-12.7,28.9c-10.4,19.6-20.9,39.3-34.6,56.7
								c-20.7,26.3-48,46.6-75.7,65.3c-5.7,3.8-11.5,7.5-17.2,11.2c-0.8,0.6-1.7,1.3-2.4,1.9c-29.2,22.7-60.1,42.8-90,64.4
								c-8.7,6.3-17.4,12.9-26.5,19l0.3,1.2c69-2,139.1-23.6,190.5-69.6C977.2,1504.3,1006.6,1435.2,995.7,1369.7z"/>
							<path class="st47" d="M996.8,1377.1c-0.6-4.8-1.3-9.5-2.3-14.2c-55.4,10.1-110.3,27.7-157.2,58.8s-85.5,77-100.9,131.2
								c-5.1,17.9-7.6,37.1-2.6,55l2.6,8.8c1.2-51.3,24.4-101.9,62.8-136c7.6-6.8,15.7-12.9,24-18.8
								c52.2-37.3,110.6-65.9,172.1-84.3C995.8,1377.4,996.3,1377.2,996.8,1377.1z"/>
						</g>
						<path class="st47" d="M974.1,1383.3c1.2-3-236.6,229.2-236.6,229.2S944.3,1455.8,974.1,1383.3z"/>
					</g>
					<circle class="st48" cx="898.7" cy="1412.1" r="15"/>
					<circle class="st48" cx="820.9" cy="1454.9" r="9"/>
				</g>
				<g>
					<g>
						<g>
							<path class="st45" d="M735.8,1612.2c2.9-10.5,1.4-21.8-1.5-32.2c-9-31.8-31.6-58.6-59.1-76.9s-59.7-28.6-92.2-34.5
								c-8.4,39.6,9.2,82,39.3,109s71.2,39.6,111.7,40.8L735.8,1612.2z"/>
							<path class="st46" d="M582.3,1472.6c1.7,5.8,4.6,11.6,7.5,17c6.1,11.5,12.3,23,20.3,33.3c12.1,15.4,28.1,27.3,44.4,38.3
								c3.3,2.2,6.7,4.4,10.1,6.6c0.5,0.4,1,0.8,1.4,1.1c17.1,13.3,35.2,25.1,52.7,37.8c5.1,3.7,10.2,7.6,15.5,11.2l-0.2,0.7
								c-40.5-1.2-81.5-13.8-111.7-40.8C593.2,1551.5,575.9,1511,582.3,1472.6z"/>
							<path class="st47" d="M581.6,1476.9c0.3-2.8,0.8-5.6,1.3-8.3c32.5,5.9,64.7,16.2,92.2,34.5s50.1,45.1,59.1,76.9
								c3,10.5,4.4,21.7,1.5,32.2l-1.5,5.2c-0.7-30.1-14.3-59.7-36.8-79.7c-4.5-4-9.2-7.6-14.1-11c-30.6-21.8-64.9-38.6-100.9-49.4
								C582.2,1477.1,581.9,1477,581.6,1476.9z"/>
						</g>
						<path class="st47" d="M594.9,1480.6c-0.7-1.7,138.7,134.3,138.7,134.3S612.4,1523.1,594.9,1480.6z"/>
					</g>
					<ellipse class="st48" cx="639.2" cy="1497.5" rx="8.8" ry="8.8"/>
					<path class="st48" d="M679.5,1522.6c0,2.9,2.4,5.3,5.3,5.3c2.9,0,5.3-2.4,5.3-5.3s-2.4-5.3-5.3-5.3S679.5,1519.7,679.5,1522.6z
						"/>
				</g>
			</g>
		</g>
		<ellipse class="st10" cx="557.3" cy="1639.9" rx="19.2" ry="13.5"/>
	</g>
</g>
<g id="icon_x5F_5">
	<g>
		<g>
			<g>
				<g>
					<g>
						<path class="st49" d="M2367.6,1990.8c-10.6-99.8,17.5-185.4,46-243.8h-583.8c16.8,35.6,33,79.9,40.9,130
							c20.4,129.3-7.8,180,16.5,184.5c27.6,22.4,122.1-9,236.8-8.2c170.8,1.2,259.6,45.7,243.8-58.5
							C2367.7,1993.6,2367.8,1992.3,2367.6,1990.8z"/>
						<path class="st43" d="M2367.6,1990.8c-10.6-99.8,17.5-185.4,46-243.8h-246.8c-1.5,98.6-17.4,203.3-55.1,306.4
							c4.1,0,8.1-0.1,12.2,0c170.8,1.2,259.6,45.7,243.8-58.5C2367.7,1993.6,2367.8,1992.3,2367.6,1990.8z"/>
					</g>
				</g>
				<g>
					<path class="st50" d="M2367.1,2034c0,37.9-112.8,79.8-247,79.8c-134.2,0-243.6-28.7-243.6-66.6c0-37.9,109.3-70.6,243.6-70.6
						S2367.1,1996.1,2367.1,2034z"/>
				</g>
				<ellipse class="st30" cx="1933.1" cy="1917.5" rx="19.8" ry="25.3"/>
				<ellipse class="st30" cx="2123.7" cy="1734" rx="298.5" ry="69.7"/>
				<ellipse class="st9" cx="2123.7" cy="1730.4" rx="292.3" ry="63.6"/>
				<ellipse class="st51" cx="2123.7" cy="1729.1" rx="271.8" ry="58.6"/>
				<path class="st28" d="M2397.4,1709c0,59.7-127.2,64.8-277.7,64.8s-267.4-5.2-267.4-64.8c0-59.7,121-126.5,271.6-126.5
					S2397.4,1649.3,2397.4,1709z"/>
				<path class="st52" d="M1932.7,1764.3c47.8,8.2,113.3,9.5,186.9,9.5c150.6,0,277.7-5.2,277.7-64.8c0-37.3-48.1-77.4-121-102.3
					c0.1,1.8,0.2,3.6,0.1,5.4c-1.1,14.6-10.9,26.9-21,37.4c-35.1,36.7-79,65.2-127.2,81.1c-33.7,11.2-69.1,16.2-104.3,21.3
					C1993.6,1756.3,1963.2,1760.6,1932.7,1764.3z"/>
				<g>
					<path class="st53" d="M2138.4,1556.5c-71.7,4.9-127.6,40.7-124.9,79.9c0.4,5.4,1.9,10.6,4.4,15.6c-9.6,4.2-15.8,11.9-15.3,20.4
						c0.8,11.9,14.8,20.7,31.2,19.6c2.7-0.2,5.2-0.7,7.6-1.3c-0.1,0.8-0.2,1.7-0.2,2.5c0.8,11.9,14.8,20.7,31.2,19.6
						c7.9-0.6,14.9-3.3,20-7.4c3,10.1,15.7,17.1,30.5,16.1c16.2-1.1,28.6-11.4,28.2-23.2c70.2-5.7,124.6-41,122-79.7
						C2270.3,1579.3,2210,1551.5,2138.4,1556.5z M2103.2,1628.3c-23.1,1.6-42.6-8.6-43.6-22.8c-1-14.2,17-26.9,40.1-28.5
						c23.1-1.6,42.6,8.6,43.6,22.8C2144.3,1613.9,2126.3,1626.7,2103.2,1628.3z M2202.1,1646.8c-23.1,1.6-42.6-8.6-43.6-22.8
						c-1-14.2,17-26.9,40.1-28.5c23.1-1.6,42.6,8.6,43.6,22.8C2243.2,1632.4,2225.3,1645.2,2202.1,1646.8z"/>
					<path class="st25" d="M2137.6,1546c-71.7,4.9-127.6,40.7-124.9,79.9c0.4,5.4,1.9,10.6,4.4,15.6c-9.6,4.2-15.8,11.9-15.3,20.4
						c0.8,11.9,14.8,20.7,31.2,19.6c2.7-0.2,5.2-0.7,7.6-1.3c-0.1,0.8-0.2,1.7-0.2,2.5c0.8,11.9,14.8,20.7,31.2,19.6
						c7.9-0.6,14.9-3.3,20-7.4c3,10.1,15.7,17.1,30.5,16.1c16.2-1.1,28.6-11.4,28.2-23.2c70.2-5.7,124.6-41,122-79.7
						C2269.6,1568.9,2209.3,1541.1,2137.6,1546z M2102.5,1617.8c-23.1,1.6-42.6-8.6-43.6-22.8c-1-14.2,17-26.9,40.1-28.5
						c23.1-1.6,42.6,8.6,43.6,22.8C2143.6,1603.5,2125.6,1616.2,2102.5,1617.8z M2201.4,1636.3c-23.1,1.6-42.6-8.6-43.6-22.8
						c-1-14.2,17-26.9,40.1-28.5c23.1-1.6,42.6,8.6,43.6,22.8C2242.5,1622,2224.5,1634.8,2201.4,1636.3z"/>
					<path class="st54" d="M2272.3,1608.2c-0.1-1.8-0.5-3.6-0.9-5.4c-5.8,16.9-20.3,30.9-35.2,41.8c-26.8,19.6-58.6,34.8-91.8,34
						c-5.8,10.7-17.6,17.8-29.8,18c-6.6,0.1-14.2-2.6-16.1-9c-8.8,5.2-19.5,6-29.7,5.2c-6-0.5-12.3-1.6-16.9-5.5
						c-4.6-3.9-6.8-11.2-3.3-16.1c-6.2,3.3-12.8,6.5-19.8,7.1s-14.7-1.9-18.6-7.9c-5-7.8-1.9-17.6,2.4-26.2
						c-6.8,4.4-11.1,10.9-10.6,17.9c0.8,11.9,14.8,20.7,31.2,19.6c2.7-0.2,5.2-0.7,7.6-1.3c-0.1,0.8-0.2,1.7-0.2,2.5
						c0.8,11.9,14.8,20.7,31.2,19.6c7.9-0.6,14.9-3.3,20-7.4c3,10.1,15.7,17.1,30.5,16.1c16.2-1.1,28.6-11.4,28.2-23.2
						C2220.6,1682.1,2275,1646.8,2272.3,1608.2z"/>
				</g>
				<path class="st55" d="M1941,2017.2c0,0-88.8-250.2-65.9-254.2S1941,2017.2,1941,2017.2z"/>
				<path class="st55" d="M1994.8,2017.2c0,0-65.9-238.1-43-240.7C1974.7,1773.7,1994.8,2017.2,1994.8,2017.2z"/>
				<path class="st55" d="M2044.6,2025.2c0,0-47-246.4-25.6-243.4C2048.6,1785.8,2044.6,2025.2,2044.6,2025.2z"/>
				<path class="st55" d="M2102.4,2019.8c0,0-43.2-238.9-21.5-238.1C2117.2,1783.1,2102.4,2019.8,2102.4,2019.8z"/>
				<path class="st55" d="M2311.4,2017.2c0,0,88.8-250.2,65.9-254.2S2311.4,2017.2,2311.4,2017.2z"/>
				<path class="st55" d="M2257.6,2017.2c0,0,65.9-238.1,43-240.7C2277.8,1773.7,2257.6,2017.2,2257.6,2017.2z"/>
				<path class="st55" d="M2207.9,2025.2c0,0,47-246.4,25.6-243.4C2203.9,1785.8,2207.9,2025.2,2207.9,2025.2z"/>
				<path class="st55" d="M2150.1,2019.8c0,0,43.2-238.9,21.5-238.1C2135.3,1783.1,2150.1,2019.8,2150.1,2019.8z"/>
			</g>
			<g>
				<g>
					<g>
						<path class="st56" d="M1961.5,2123.5c-10.6-99.8,17.5-185.4,46-243.8h-583.8c16.8,35.6,33,79.9,40.9,130
							c20.4,129.4-7.8,180,16.5,184.5c27.6,22.4,122.1-9,236.8-8.2c170.8,1.2,259.6,45.7,243.8-58.5
							C1961.6,2126.2,1961.7,2125,1961.5,2123.5z"/>
						<path class="st43" d="M1961.5,2123.5c-10.6-99.8,17.5-185.4,46-243.8h-246.8c-1.5,98.6-17.4,203.3-55.1,306.4
							c4.1,0,8.1-0.1,12.2,0c170.8,1.2,259.6,45.7,243.8-58.5C1961.6,2126.2,1961.7,2125,1961.5,2123.5z"/>
					</g>
				</g>
				<g>
					<path class="st43" d="M1960.9,2166.7c0,37.9-112.8,79.8-247,79.8s-243.6-28.7-243.6-66.6c0-37.9,109.3-70.6,243.6-70.6
						S1960.9,2128.8,1960.9,2166.7z"/>
				</g>
				<path class="st30" d="M1731.6,1923.7c4,28.4-8.7,118.7-12.5,147.1c-1.1,8.4-1.9,16.8-2.8,25.1c-4.1,37.6-10.3,74.9-18.5,111.8
					c15.1-19.8,21.3-44.6,27.2-68.8c3.8-15.5,7.6-31,11.3-46.5c4.8-19.8,9.7-39.6,12.5-59.8c1.4-9.9,2.3-19.8,3.3-29.7
					c1.3-1.2,11.4-79.5,10.5-77.9L1731.6,1923.7z"/>
				<ellipse class="st30" cx="1527" cy="2050.2" rx="19.8" ry="25.3"/>
				<ellipse class="st30" cx="1603.9" cy="2129.3" rx="15.4" ry="14.3"/>
				<ellipse class="st30" cx="1717.5" cy="1866.7" rx="298.5" ry="69.7"/>
				<ellipse class="st9" cx="1717.5" cy="1863.1" rx="292.3" ry="63.6"/>
				<ellipse class="st51" cx="1717.5" cy="1861.8" rx="271.8" ry="58.6"/>
				<path class="st55" d="M1991.2,1841.7c0,59.7-127.2,64.8-277.7,64.8s-267.4-5.2-267.4-64.8c0-59.7,121-126.5,271.6-126.5
					S1991.2,1782,1991.2,1841.7z"/>
				<path class="st57" d="M1526.6,1897c47.8,8.2,113.3,9.5,186.9,9.5c150.6,0,277.7-5.2,277.7-64.8c0-37.3-48.1-77.4-121-102.3
					c0.1,1.8,0.2,3.6,0.1,5.4c-1.1,14.6-10.9,26.9-21,37.4c-35.1,36.7-79,65.2-127.2,81.1c-33.7,11.2-69.1,16.2-104.3,21.3
					C1587.4,1888.9,1557.1,1893.2,1526.6,1897z"/>
				<g>
					<path class="st58" d="M1732.2,1689.2c-71.7,4.9-127.6,40.7-124.9,79.9c0.4,5.4,1.9,10.6,4.4,15.6c-9.6,4.2-15.8,11.9-15.3,20.4
						c0.8,11.9,14.8,20.7,31.2,19.6c2.7-0.2,5.2-0.7,7.6-1.3c-0.1,0.8-0.2,1.7-0.2,2.5c0.8,11.9,14.8,20.7,31.2,19.6
						c7.9-0.6,14.9-3.3,20-7.4c3,10.1,15.7,17.1,30.5,16.1c16.2-1.1,28.6-11.4,28.2-23.2c70.2-5.7,124.6-41,122-79.7
						C1864.2,1712,1803.9,1684.2,1732.2,1689.2z M1697.1,1760.9c-23.1,1.6-42.6-8.6-43.6-22.8c-1-14.2,17-26.9,40.1-28.5
						c23.1-1.6,42.6,8.6,43.6,22.8C1738.2,1746.6,1720.2,1759.4,1697.1,1760.9z M1796,1779.5c-23.1,1.6-42.6-8.6-43.6-22.8
						c-1-14.2,17-26.9,40.1-28.5c23.1-1.6,42.6,8.6,43.6,22.8C1837.1,1765.1,1819.1,1777.9,1796,1779.5z"/>
					<path class="st59" d="M1731.5,1678.7c-71.7,4.9-127.6,40.7-124.9,79.9c0.4,5.4,1.9,10.6,4.4,15.6c-9.6,4.2-15.8,11.9-15.3,20.4
						c0.8,11.9,14.8,20.7,31.2,19.6c2.7-0.2,5.2-0.7,7.6-1.3c-0.1,0.8-0.2,1.7-0.2,2.5c0.8,11.9,14.8,20.7,31.2,19.6
						c7.9-0.6,14.9-3.3,20-7.4c3,10.1,15.7,17.1,30.5,16.1c16.2-1.1,28.6-11.4,28.2-23.2c70.2-5.7,124.6-41,122-79.7
						C1863.5,1701.6,1803.2,1673.8,1731.5,1678.7z M1696.4,1750.5c-23.1,1.6-42.6-8.6-43.6-22.8c-1-14.2,17-26.9,40.1-28.5
						c23.1-1.6,42.6,8.6,43.6,22.8C1737.4,1736.2,1719.5,1748.9,1696.4,1750.5z M1795.3,1769.1c-23.1,1.6-42.6-8.6-43.6-22.8
						c-1-14.2,17-26.9,40.1-28.5c23.1-1.6,42.6,8.6,43.6,22.8C1836.4,1754.7,1818.4,1767.5,1795.3,1769.1z"/>
					<path class="st60" d="M1866.2,1740.8c-0.1-1.8-0.5-3.6-0.9-5.4c-5.8,16.9-20.3,30.9-35.2,41.8c-26.8,19.6-58.6,34.8-91.8,34
						c-5.8,10.7-17.6,17.8-29.8,18c-6.6,0.1-14.2-2.6-16.1-9c-8.8,5.2-19.5,6-29.7,5.2c-6-0.5-12.3-1.6-16.9-5.5
						c-4.6-3.9-6.8-11.2-3.3-16.1c-6.2,3.3-12.8,6.5-19.8,7.1s-14.7-1.9-18.6-7.9c-5-7.8-1.9-17.6,2.4-26.2
						c-6.8,4.4-11.1,10.9-10.6,17.9c0.8,11.9,14.8,20.7,31.2,19.6c2.7-0.2,5.2-0.7,7.6-1.3c-0.1,0.8-0.2,1.7-0.2,2.5
						c0.8,11.9,14.8,20.7,31.2,19.6c7.9-0.6,14.9-3.3,20-7.4c3,10.1,15.7,17.1,30.5,16.1c16.2-1.1,28.6-11.4,28.2-23.2
						C1814.5,1814.8,1868.8,1779.5,1866.2,1740.8z"/>
				</g>
				<path class="st55" d="M1534.9,2149.8c0,0-88.8-250.2-65.9-254.2C1491.9,1891.6,1534.9,2149.8,1534.9,2149.8z"/>
				<path class="st55" d="M1588.7,2149.8c0,0-65.9-238.1-43-240.7C1568.5,1906.4,1588.7,2149.8,1588.7,2149.8z"/>
				<path class="st55" d="M1638.5,2157.9c0,0-47-246.4-25.6-243.4C1642.5,1918.5,1638.5,2157.9,1638.5,2157.9z"/>
				<path class="st55" d="M1696.3,2152.5c0,0-43.2-238.9-21.5-238.1C1711.1,1915.8,1696.3,2152.5,1696.3,2152.5z"/>
				<path class="st55" d="M1905.3,2149.8c0,0,88.8-250.2,65.9-254.2C1948.4,1891.6,1905.3,2149.8,1905.3,2149.8z"/>
				<path class="st55" d="M1851.5,2149.8c0,0,65.9-238.1,43-240.7C1871.7,1906.4,1851.5,2149.8,1851.5,2149.8z"/>
				<path class="st55" d="M1801.8,2157.9c0,0,47-246.4,25.6-243.4C1797.7,1918.5,1801.8,2157.9,1801.8,2157.9z"/>
				<path class="st55" d="M1743.9,2152.5c0,0,43.2-238.9,21.5-238.1C1729.1,1915.8,1743.9,2152.5,1743.9,2152.5z"/>
			</g>
			<g>
				<g>
					<g>
						<path class="st9" d="M2604.9,2167.8c-10.6-99.8,17.5-185.4,46-243.8H2067c16.9,35.6,33,79.9,40.9,130
							c20.4,129.4-7.8,180,16.5,184.5c27.6,22.4,122.1-9,236.8-8.2c170.8,1.2,259.6,45.7,243.8-58.5
							C2605,2170.5,2605,2169.3,2604.9,2167.8z"/>
						<path class="st43" d="M2604.9,2167.8c-10.6-99.8,17.5-185.4,46-243.8h-246.8c-1.5,98.6-17.4,203.3-55.1,306.4
							c4.1,0,8.1-0.1,12.2,0c170.8,1.2,259.6,45.7,243.8-58.5C2605,2170.5,2605,2169.3,2604.9,2167.8z"/>
					</g>
				</g>
				<g>
					<path class="st43" d="M2604.3,2210.9c0,37.9-112.8,79.8-247,79.8s-243.6-28.7-243.6-66.6s109.3-70.6,243.6-70.6
						S2604.3,2173,2604.3,2210.9z"/>
				</g>
				<path class="st30" d="M2375,1967.9c4,28.4-8.6,118.7-12.5,147.1c-1.1,8.4-1.9,16.8-2.8,25.1c-4.1,37.6-10.3,74.9-18.5,111.8
					c15.1-19.8,21.3-44.6,27.2-68.8c3.8-15.5,7.6-31,11.3-46.5c4.8-19.8,9.6-39.6,12.5-59.8c1.4-9.9,2.3-19.8,3.3-29.7
					c1.4-1.2,11.4-79.5,10.5-77.9L2375,1967.9z"/>
				<ellipse class="st30" cx="2170.4" cy="2094.4" rx="19.8" ry="25.3"/>
				<ellipse class="st30" cx="2247.2" cy="2173.5" rx="15.4" ry="14.3"/>
				<ellipse class="st30" cx="2360.9" cy="1910.9" rx="298.5" ry="69.7"/>
				<ellipse class="st9" cx="2360.9" cy="1907.3" rx="292.3" ry="63.6"/>
				<ellipse class="st51" cx="2360.9" cy="1906.1" rx="271.8" ry="58.6"/>
				<path class="st61" d="M2634.6,1885.9c0,59.7-127.2,64.8-277.7,64.8s-267.4-5.2-267.4-64.8c0-59.7,121-126.5,271.6-126.5
					C2511.5,1759.4,2634.6,1826.3,2634.6,1885.9z"/>
				<path class="st62" d="M2170,1941.2c47.8,8.2,113.3,9.5,186.9,9.5c150.6,0,277.7-5.2,277.7-64.8c0-37.3-48.1-77.4-121-102.3
					c0.1,1.8,0.2,3.6,0.1,5.4c-1.1,14.6-10.9,26.9-21,37.4c-35.1,36.7-79,65.2-127.2,81.1c-33.7,11.2-69.1,16.2-104.3,21.3
					C2230.8,1933.2,2200.4,1937.5,2170,1941.2z"/>
				<g>
					<path class="st63" d="M2375.6,1733.4c-71.7,4.9-127.6,40.7-124.9,79.9c0.4,5.4,1.9,10.6,4.4,15.6c-9.6,4.2-15.8,11.9-15.3,20.4
						c0.8,11.9,14.8,20.7,31.2,19.6c2.7-0.2,5.2-0.7,7.6-1.3c-0.1,0.8-0.2,1.7-0.2,2.5c0.8,11.9,14.8,20.7,31.2,19.6
						c7.9-0.6,14.9-3.3,20-7.4c3,10.1,15.7,17.1,30.5,16.1c16.2-1.1,28.6-11.4,28.2-23.2c70.2-5.7,124.6-41,122-79.7
						C2507.6,1756.3,2447.3,1728.5,2375.6,1733.4z M2340.4,1805.2c-23.1,1.6-42.6-8.6-43.6-22.8c-1-14.2,17-26.9,40.1-28.5
						c23.1-1.6,42.6,8.6,43.6,22.8C2381.5,1790.8,2363.6,1803.6,2340.4,1805.2z M2439.4,1823.7c-23.1,1.6-42.6-8.6-43.6-22.8
						c-1-14.2,17-26.9,40.1-28.5c23.1-1.6,42.6,8.6,43.6,22.8C2480.4,1809.3,2462.5,1822.1,2439.4,1823.7z"/>
					<path class="st64" d="M2374.9,1723c-71.7,4.9-127.6,40.7-124.9,79.9c0.4,5.4,1.9,10.6,4.4,15.6c-9.6,4.2-15.8,11.9-15.3,20.4
						c0.8,11.9,14.8,20.7,31.2,19.6c2.7-0.2,5.2-0.7,7.6-1.3c-0.1,0.8-0.2,1.7-0.2,2.5c0.8,11.9,14.8,20.7,31.2,19.6
						c7.9-0.6,14.9-3.3,20-7.4c3,10.1,15.7,17.1,30.5,16.1c16.2-1.1,28.6-11.4,28.2-23.2c70.2-5.7,124.6-41,122-79.7
						C2506.9,1745.8,2446.6,1718,2374.9,1723z M2339.7,1794.8c-23.1,1.6-42.6-8.6-43.6-22.8c-1-14.2,17-26.9,40.1-28.5
						c23.1-1.6,42.6,8.6,43.6,22.8C2380.8,1780.4,2362.9,1793.2,2339.7,1794.8z M2438.7,1813.3c-23.1,1.6-42.6-8.6-43.6-22.8
						c-1-14.2,17-26.9,40.1-28.5c23.1-1.6,42.6,8.6,43.6,22.8C2479.7,1798.9,2461.8,1811.7,2438.7,1813.3z"/>
					<path class="st65" d="M2509.5,1785.1c-0.1-1.8-0.5-3.6-0.9-5.4c-5.8,16.9-20.3,30.9-35.2,41.8c-26.8,19.6-58.6,34.8-91.8,34
						c-5.8,10.7-17.6,17.8-29.8,18c-6.6,0.1-14.2-2.6-16.1-9c-8.8,5.2-19.5,6-29.7,5.2c-6-0.5-12.3-1.6-16.9-5.5s-6.9-11.2-3.3-16.1
						c-6.2,3.3-12.8,6.5-19.8,7.1s-14.7-1.9-18.6-7.9c-5-7.8-1.9-17.6,2.4-26.2c-6.8,4.4-11.1,10.9-10.6,17.9
						c0.8,11.9,14.8,20.7,31.2,19.6c2.7-0.2,5.2-0.7,7.6-1.3c-0.1,0.8-0.2,1.7-0.2,2.5c0.8,11.9,14.8,20.7,31.2,19.6
						c7.9-0.6,14.9-3.3,20-7.4c3,10.1,15.7,17.1,30.5,16.1c16.2-1.1,28.6-11.4,28.2-23.2C2457.8,1859,2512.2,1823.8,2509.5,1785.1z"
						/>
				</g>
				<path class="st55" d="M2178.3,2194.1c0,0-88.8-250.2-65.9-254.2S2178.3,2194.1,2178.3,2194.1z"/>
				<path class="st55" d="M2232.1,2194.1c0,0-65.9-238.1-43-240.7S2232.1,2194.1,2232.1,2194.1z"/>
				<path class="st55" d="M2281.8,2202.1c0,0-47-246.4-25.6-243.4C2285.9,1962.8,2281.8,2202.1,2281.8,2202.1z"/>
				<path class="st55" d="M2339.7,2196.8c0,0-43.2-238.9-21.5-238.1C2354.5,1960.1,2339.7,2196.8,2339.7,2196.8z"/>
				<path class="st55" d="M2548.7,2194.1c0,0,88.8-250.2,65.9-254.2S2548.7,2194.1,2548.7,2194.1z"/>
				<path class="st55" d="M2494.9,2194.1c0,0,65.9-238.1,43-240.7C2515.1,1950.6,2494.9,2194.1,2494.9,2194.1z"/>
				<path class="st55" d="M2445.1,2202.1c0,0,47-246.4,25.6-243.4C2441.1,1962.8,2445.1,2202.1,2445.1,2202.1z"/>
				<path class="st55" d="M2387.3,2196.8c0,0,43.2-238.9,21.5-238.1C2372.5,1960.1,2387.3,2196.8,2387.3,2196.8z"/>
			</g>
		</g>
		<ellipse class="st10" cx="1932.8" cy="1659" rx="18" ry="16.9"/>
		<ellipse class="st10" cx="2163.9" cy="1842.7" rx="19.2" ry="13.5"/>
		<ellipse class="st10" cx="1500.1" cy="1803.3" rx="13.5" ry="14.7"/>
	</g>
</g>
<g id="icon_x5F_6">
	<g>
		<g>
			<g>
				<g>
					<path class="st28" d="M3555.9,2177c-10.5-99.5,17.4-184.8,45.9-243h-581.9c16.8,35.5,32.9,79.6,40.8,129.6
						c20.4,128.9-7.7,179.4,16.5,183.9c27.5,22.3,121.7-8.9,236-8.2c170.3,1.2,258.7,45.6,243-58.3
						C3556,2179.7,3556.1,2178.5,3555.9,2177z"/>
					<path class="st52" d="M3555.9,2177c-10.5-99.5,17.4-184.8,45.9-243h-245.9c-1.5,98.3-17.3,202.6-54.9,305.4
						c4.1,0,8.1-0.1,12.2,0c170.3,1.2,258.7,45.6,243-58.3C3556,2179.7,3556.1,2178.5,3555.9,2177z"/>
				</g>
			</g>
			<g>
				<path class="st52" d="M3556.3,2222.2c0,36.3-115.2,74.8-247.1,74.8s-245.8-26.2-242-67.2c3.3-36.1,110-64.3,242-64.3
					S3556.3,2185.9,3556.3,2222.2z"/>
			</g>
			<path class="st66" d="M3321.6,2039.4c4,28.3-3.4,56.8-7.3,85.1c-1.1,8.3-1.9,16.7-2.8,25.1c-4.1,37.5-10.2,74.7-18.4,111.5
				c15-19.7,21.2-44.5,27.1-68.6c3.8-15.4,7.5-30.9,11.3-46.3c4.8-19.7,9.6-39.5,12.5-59.6c1.4-9.8,2.3-19.7,3.2-29.6
				c1.4-1.2-1.6-3.5-2.4-1.9L3321.6,2039.4z"/>
			<path class="st67" d="M3651.3,1833.4c0,153.4-148.7,229.9-339.6,229.9c-190.9,0-351.6-76.4-351.6-229.9s154.7-277.8,345.6-277.8
				S3651.3,1679.9,3651.3,1833.4z"/>
			<path class="st68" d="M3250.6,1956.4c-98.2-1.8-194.2-30.2-283.7-71.2c32.2,118.8,176.8,178.1,344.8,178.1
				c190.9,0,339.6-76.4,339.6-229.9c0-32.1-6.9-63-19.4-91.7c-17.8,39.9-43.6,76.6-75.4,106.4
				C3475.6,1923.9,3361.4,1958.4,3250.6,1956.4z"/>
			<ellipse class="st66" cx="3122.9" cy="2103.9" rx="19.7" ry="25.2"/>
			<ellipse class="st66" cx="3199.5" cy="2182.8" rx="15.3" ry="14.2"/>
			<g>
				<ellipse class="st68" cx="3201.2" cy="1744.8" rx="83.4" ry="75.2"/>
				<path class="st69" d="M3145.7,1784.6c0,6.3,0.9,12.4,2.6,18.2c14.4,10.7,32.9,17.1,53,17.1c46.1,0,83.4-33.7,83.4-75.2
					c0-6.3-0.9-12.4-2.6-18.2c-14.4-10.7-32.9-17.1-53-17.1C3183,1709.4,3145.7,1743.1,3145.7,1784.6z"/>
			</g>
			<g>
				<ellipse class="st68" cx="3403.4" cy="1744.8" rx="83.4" ry="75.2"/>
				<path class="st69" d="M3347.9,1784.6c0,6.3,0.9,12.4,2.6,18.2c14.4,10.7,32.9,17.1,53,17.1c46.1,0,83.4-33.7,83.4-75.2
					c0-6.3-0.9-12.4-2.6-18.2c-14.4-10.7-32.9-17.1-53-17.1C3385.2,1709.4,3347.9,1743.1,3347.9,1784.6z"/>
			</g>
			<g>
				<g>
					<g>
						<path class="st70" d="M3359.1,1904.7c-9.4,22.3-24.8,38.5-60.1,38.5c-35.4,0-50.7-16.2-60.2-38.5
							c-9.4-22.3,5.1-13.1,60.2-13.1S3368.5,1882.4,3359.1,1904.7z"/>
					</g>
				</g>
			</g>
			<g>
				<ellipse class="st28" cx="3031.2" cy="1992.1" rx="41.4" ry="42.2"/>
				<path class="st70" d="M3049.8,1954.6c1.3,4.5,2.2,9.1,2.6,13.8c0.4,5,0.4,10.2-1.3,15c-3.2,9.6-12.1,16.1-21.1,20.7
					c-11.2,5.8-24.6,9.1-36.5,5.4c6.5,14.6,20.9,24.7,37.6,24.7c22.9,0,41.4-18.9,41.4-42.2
					C3072.6,1975.6,3063.2,1961.5,3049.8,1954.6z"/>
			</g>
			<g>
				<ellipse class="st28" cx="3096.8" cy="2018.6" rx="41.4" ry="42.2"/>
				<path class="st70" d="M3115.4,1981.1c1.3,4.5,2.2,9.1,2.6,13.8c0.4,5,0.4,10.2-1.3,15c-3.2,9.6-12.1,16.1-21.1,20.7
					c-11.2,5.8-24.6,9.1-36.5,5.4c6.5,14.6,20.9,24.7,37.6,24.7c22.9,0,41.4-18.9,41.4-42.2
					C3138.2,2002.2,3128.8,1988.1,3115.4,1981.1z"/>
			</g>
			<g>
				<ellipse class="st28" cx="3163.9" cy="2037.4" rx="41.4" ry="42.2"/>
				<path class="st70" d="M3182.5,1999.9c1.3,4.5,2.2,9.1,2.6,13.8c0.4,5,0.4,10.2-1.3,15c-3.2,9.6-12.1,16.1-21.1,20.7
					c-11.2,5.8-24.6,9.1-36.5,5.4c6.5,14.6,20.9,24.7,37.6,24.7c22.9,0,41.4-18.9,41.4-42.2
					C3205.3,2020.9,3196,2006.8,3182.5,1999.9z"/>
			</g>
			<g>
				<ellipse class="st28" cx="3234.2" cy="2051.4" rx="41.4" ry="42.2"/>
				<path class="st70" d="M3252.8,2013.9c1.3,4.5,2.2,9.1,2.6,13.8c0.4,5,0.4,10.2-1.3,15c-3.2,9.6-12.1,16.1-21.1,20.7
					c-11.2,5.8-24.6,9.1-36.5,5.4c6.5,14.6,20.9,24.7,37.6,24.7c22.9,0,41.4-18.9,41.4-42.2
					C3275.6,2035,3266.3,2020.9,3252.8,2013.9z"/>
			</g>
			<g>
				<ellipse class="st28" cx="3304.5" cy="2057.7" rx="41.4" ry="42.2"/>
				<path class="st70" d="M3323.1,2020.2c1.3,4.5,2.2,9.1,2.6,13.8c0.4,5,0.4,10.2-1.3,15c-3.2,9.6-12.1,16.1-21.1,20.7
					c-11.2,5.8-24.6,9.1-36.5,5.4c6.5,14.6,20.9,24.7,37.6,24.7c22.9,0,41.4-18.9,41.4-42.2
					C3345.9,2041.2,3336.6,2027.1,3323.1,2020.2z"/>
			</g>
			<g>
				<ellipse class="st28" cx="3376.4" cy="2054.6" rx="41.4" ry="42.2"/>
				<path class="st70" d="M3394.9,2017.1c1.3,4.5,2.2,9.1,2.6,13.8c0.4,5,0.4,10.2-1.3,15c-3.2,9.6-12.1,16.1-21.1,20.7
					c-11.2,5.8-24.6,9.1-36.5,5.4c6.5,14.6,20.9,24.7,37.6,24.7c22.9,0,41.4-18.9,41.4-42.2
					C3417.8,2038.1,3408.4,2024,3394.9,2017.1z"/>
			</g>
			<g>
				<ellipse class="st28" cx="3446.6" cy="2042.1" rx="41.4" ry="42.2"/>
				<path class="st70" d="M3465.2,2004.6c1.3,4.5,2.2,9.1,2.6,13.8c0.4,5,0.4,10.2-1.3,15c-3.2,9.6-12.1,16.1-21.1,20.7
					c-11.2,5.8-24.6,9.1-36.5,5.4c6.5,14.6,20.9,24.7,37.6,24.7c22.9,0,41.4-18.9,41.4-42.2
					C3488,2025.6,3478.7,2011.5,3465.2,2004.6z"/>
			</g>
			<g>
				<ellipse class="st28" cx="3516.9" cy="2024.9" rx="41.4" ry="42.2"/>
				<path class="st70" d="M3535.5,1987.4c1.3,4.5,2.2,9.1,2.6,13.8c0.4,5,0.4,10.2-1.3,15c-3.2,9.6-12.1,16.1-21.1,20.7
					c-11.2,5.8-24.6,9.1-36.5,5.4c6.5,14.6,20.9,24.7,37.6,24.7c22.9,0,41.4-18.9,41.4-42.2
					C3558.3,2008.4,3549,1994.3,3535.5,1987.4z"/>
			</g>
			<g>
				<ellipse class="st28" cx="3574.7" cy="1999.9" rx="41.4" ry="42.2"/>
				<path class="st70" d="M3593.3,1962.4c1.3,4.5,2.2,9.1,2.6,13.8c0.4,5,0.4,10.2-1.3,15c-3.2,9.6-12.1,16.1-21.1,20.7
					c-11.2,5.8-24.6,9.1-36.5,5.4c6.5,14.6,20.9,24.7,37.6,24.7c22.9,0,41.4-18.9,41.4-42.2
					C3616.1,1983.4,3606.8,1969.3,3593.3,1962.4z"/>
			</g>
			<path class="st71" d="M3412.7,1569.2c-33.7-8.8-69.6-13.7-107-13.7c-190.9,0-345.6,124.4-345.6,277.8c0,24.2,4,46.4,11.5,66.8
				c-4.1-46.3,5-94.1,25.2-136.2c30.8-63.8,85-114.7,147.3-148.5c65-35.4,139.3-53.3,213.2-51.3
				C3376,1564.7,3394.4,1566.5,3412.7,1569.2z"/>
			
				<ellipse transform="matrix(0.4318 -0.902 0.902 0.4318 254.7028 3726.7468)" class="st69" cx="3085.3" cy="1661.2" rx="34.5" ry="20.2"/>
			
				<ellipse transform="matrix(0.8953 -0.4454 0.4454 0.8953 -368.9947 1750.625)" class="st69" cx="3540.1" cy="1660.4" rx="20.2" ry="34.5"/>
			<path class="st52" d="M3315.2,1412.7c-8.1,28.6-25,54.7-47.7,73.8c-14.8,12.4-32.1,22.1-44.3,37.1s-18,37.9-6.3,53.3
				c4.7,6.2,11.6,10.4,18.6,13.7c33.9,16.1,74.3,14.9,109.8,2.7c13.9-4.8,27.9-11.6,36.5-23.6c8.7-12.2,10.6-28.1,9.6-43.1
				c-2.9-46.9-31.5-91.3-73-113.3L3315.2,1412.7z"/>
			<path class="st66" d="M3320.9,1417.7c14,31.4,10.3,70-9.3,98.3s-53.7,48.6-88.1,46.5c3.2,13.6,18.8,15.7,32.7,16.7
				c24.3,1.7,49-3.7,70.3-15.3c9.5-5.2,18.7-11.9,23.6-21.6c2.3-4.5,3.6-9.4,4.5-14.3c7.2-37-3.9-77-28.9-105.2L3320.9,1417.7z"/>
			<path class="st70" d="M3318.4,1413.2l-3.1-0.5c28.6,32.8,32.2,85.6,6.7,121.1c-7.5,10.5-17.3,19.6-29,24.9
				c-15.1,6.8-32.3,7-48.9,6.5c-11.2-0.3-22.8-1.4-33.4-4.7c0.6,5.9,2.3,11.5,6,16.3c4.7,6.2,11.6,10.4,18.6,13.7
				c33.9,16.1,74.3,14.9,109.8,2.7c13.9-4.8,27.9-11.6,36.5-23.6c8.7-12.2,10.6-28.1,9.6-43.1
				C3388.5,1479.7,3359.9,1435.2,3318.4,1413.2z"/>
			<ellipse class="st25" cx="3309.9" cy="1465.8" rx="9.6" ry="10"/>
			<path class="st25" d="M3267.3,1540.3c0,3.4-2.8,6.1-6.1,6.1s-6.1-2.8-6.1-6.1s2.8-6.1,6.1-6.1S3267.3,1536.9,3267.3,1540.3z"/>
			<path class="st72" d="M3519.9,1647.1c0.3,0.8,0.4,1.7,0.8,2.5c3,7.4,6.1,15.5,10.7,22c2.2,3.2,4.8,6,7.5,8.6h126.4v-33.1H3519.9z
				"/>
			<path class="st72" d="M3098.5,1671.3c3.3-6.8,7.4-15.8,7.5-24.2h-171.8v33.1h159C3095,1677.3,3097,1674.3,3098.5,1671.3z"/>
			<g>
				<g>
					<ellipse class="st72" cx="2940" cy="1661.5" rx="36" ry="54.7"/>
					<ellipse class="st25" cx="2929.2" cy="1640.6" rx="10.8" ry="16.6"/>
				</g>
				<path class="st73" d="M2908.3,1687c6,17.3,17.9,29.2,31.7,29.2c19.9,0,36-24.5,36-54.7c0-14.1-3.6-26.9-9.4-36.6
					c0,7.9-1.1,15.8-3.6,23.3c-7,21.2-26.5,39.1-48.8,39.4C2912.2,1687.6,2910.2,1687.3,2908.3,1687z"/>
			</g>
			<g>
				<g>
					<ellipse class="st72" cx="3667.6" cy="1661.5" rx="36" ry="54.7"/>
					<ellipse class="st25" cx="3656.8" cy="1640.6" rx="10.8" ry="16.6"/>
				</g>
				<path class="st73" d="M3635.9,1687c6,17.3,17.9,29.2,31.7,29.2c19.9,0,36-24.5,36-54.7c0-14.1-3.6-26.9-9.4-36.6
					c0,7.9-1.1,15.8-3.6,23.3c-7,21.2-26.5,39.1-48.8,39.4C3639.8,1687.6,3637.9,1687.3,3635.9,1687z"/>
			</g>
		</g>
		<ellipse class="st10" cx="3058.1" cy="1719.9" rx="24.8" ry="16.9"/>
	</g>
</g>
<g id="icon_x5F_7">
	<g>
		<g>
			
				<ellipse transform="matrix(0.9634 -0.2681 0.2681 0.9634 -795.3612 279.7095)" class="st12" cx="626.5" cy="3052.2" rx="227.4" ry="188.9"/>
			
				<ellipse transform="matrix(0.9634 -0.2681 0.2681 0.9634 -795.3612 279.7094)" class="st11" cx="626.5" cy="3052.2" rx="227.4" ry="175.8"/>
			<path class="st14" d="M630.6,3156c-59.6,9.7-120.6,8.8-180.4,0.3c13.7,10.9,27.1,22.1,41.8,31.8c16.2,10.6,34.2,16.7,47.9,29.8
				c17.2,1.3,34.5,1,51.5-1c94.7-10.8,183.7-64.4,237.6-143C771.3,3117.3,701.9,3144.4,630.6,3156z"/>
			<g>
				<path class="st11" d="M402.8,3080.3c0,0-165.5-70.2-174.1-51.9s-6.8,65.7,22.6,89.5c29.4,23.7,14.3,75.9,16.9,93.4
					s22,46.3,46.1,51l133.8-142.1L402.8,3080.3z"/>
				<path class="st12" d="M380.1,3097.9c0,0-116.1-60.7-104.1-17.5C288.1,3123.6,380.1,3097.9,380.1,3097.9z"/>
				<path class="st13" d="M380.1,3097.9c0,0-108.9-56.2-97.7-16C293.5,3122.1,380.1,3097.9,380.1,3097.9z"/>
				<path class="st12" d="M397,3131c0,0-107.4,39.4-78,63.3C357.3,3225.4,397,3131,397,3131z"/>
				<path class="st13" d="M397,3131c0,0-101,37.2-73.2,60.1C360,3221,397,3131,397,3131z"/>
				<path class="st12" d="M315,3252.3c-18-10.4-30.7-29.4-33.7-49.9c-1.3-8.9-0.8-18-1.1-27.1c-0.5-19.4-4.5-38.9-13.5-56
					c-6.8-12.9-16.2-24.4-22.8-37.4c-6.6-13-10.1-28.9-4.1-42.2c19,6.6,39.7,3.1,59.8,3.6c3.1,0.1,6.2,0.3,9.3,0.6
					c-39-13.6-76.2-24-80.2-15.5c-8.6,18.4-6.8,65.7,22.6,89.5c29.4,23.7,14.3,75.9,16.9,93.4c2.6,17.5,22,46.3,46.1,51l108.1-114.8
					l0-0.6C387.7,3183.1,351.9,3218.3,315,3252.3z"/>
			</g>
			<g>
				<path class="st11" d="M833.1,2960.5c0,0,105.4-145.6,122.2-134.4c16.8,11.3,39.8,52.8,26.8,88.3c-12.9,35.5,27,72.3,33.8,88.7
					c6.8,16.3,5.1,51-13.1,67.5l-188-52.6L833.1,2960.5z"/>
				<path class="st12" d="M861.7,2963.9c0,0,68-111.9,80-68.7C953.7,2938.4,861.7,2963.9,861.7,2963.9z"/>
				<path class="st13" d="M861.7,2963.9c0,0,64.2-104.4,75.4-64.2C948.2,2939.9,861.7,2963.9,861.7,2963.9z"/>
				<path class="st12" d="M864.3,3000.9c0,0,112.4-21.7,99.5,13.9C947,3061.3,864.3,3000.9,864.3,3000.9z"/>
				<path class="st13" d="M864.3,3000.9c0,0,105.7-20.3,93.7,13.7C942.4,3058.9,864.3,3000.9,864.3,3000.9z"/>
				<path class="st12" d="M997.1,3062.5c10-18.2,11.2-41,3.1-60.1c-3.5-8.3-8.6-15.9-13.1-23.7c-9.5-16.9-16.2-35.6-17.3-55
					c-0.9-14.6,1.3-29.2,0.2-43.8c-1.1-14.6-6.3-29.9-18.3-38.2c-12.8,15.4-32.4,23.1-49.3,34c-2.6,1.7-5.2,3.4-7.7,5.3
					c26.4-31.8,52.9-59.9,60.7-54.7c16.8,11.3,39.8,52.8,26.8,88.3c-12.9,35.5,27,72.3,33.8,88.7c6.8,16.3,5.1,51-13.1,67.5
					L851,3028.2l-0.3-0.5C899.2,3040.8,948,3052.4,997.1,3062.5z"/>
			</g>
			<path class="st15" d="M420.3,3144.3c41.2,72.7,146.5,107,253.2,77.3c108.9-30.3,182.1-116.8,176.7-202c-0.6-0.5-1.3-1.1-1.9-1.6
				c-7.1,36.7-32.4,68-62.9,89.5s-66.3,34.3-102.1,45.2c-26,8-52.4,15.1-79.4,18.9C541.8,3180.3,477.3,3170.7,420.3,3144.3z"/>
			<path class="st14" d="M755,2892.4c-49.3-22.2-112.2-27.2-175.7-9.5c-116.4,32.4-192,129.1-174.4,219.6l2,4.2
				c-3.3-31.3,8.4-62.9,26.8-88.4c18.4-25.6,43.2-45.8,68.7-64.3c18.1-13.1,36.8-25.5,56.6-35.6
				C618.9,2887.8,689.3,2878.9,755,2892.4z"/>
			<path class="st74" d="M481.4,3045.9c13.7,54.6,22.8,112,21,168.1c34.7,14.6,75.8,20.9,118.8,17.1c9.5-94.1-5.6-190.7-44.6-276.8
				c-9.3-20.6-20.2-40.8-34.1-58.4c-38.1,16.3-70.2,39.7-94.1,67.2C464.3,2987.5,474.2,3017.4,481.4,3045.9z"/>
			<path class="st74" d="M663.3,2969.5c20.8,82.4,30.8,171.4,9,252.4c0.4-0.1,0.8-0.2,1.3-0.3c54.2-15.1,99.5-44.1,130.8-80
				c6.3-82.4-6.2-166.4-37-243.1c-40.4-21.6-91.8-30.8-145.8-24C642.8,2900.6,654.9,2936,663.3,2969.5z"/>
			<path class="st75" d="M542.5,2895.9c-23.7,10.2-45.2,23.1-63.7,38.1c-0.1,0.1-0.1,0.1-0.2,0.1c-7.3,5.9-14.1,12.1-20.5,18.6
				c-0.2,0.2-0.4,0.4-0.6,0.6c-3.1,3.2-6.1,6.4-9,9.8c4.9,7.6,9.2,15.7,13.1,24.1c12.8-12,26.7-22.9,40.9-33.2
				c17.8-12.9,36.2-25.1,55.7-35.1C553.4,2910.9,548.2,2903.1,542.5,2895.9z"/>
			<path class="st75" d="M752.7,2891.5c-0.8-0.4-1.7-0.7-2.5-1.1c-4.8-2-9.8-3.9-14.8-5.6c-0.3-0.1-0.7-0.2-1-0.3
				c-5.1-1.7-10.3-3.2-15.5-4.5c-0.6-0.1-1.1-0.3-1.7-0.4c-5.4-1.3-10.8-2.4-16.4-3.4c-0.8-0.1-1.6-0.3-2.3-0.4
				c-5.6-0.9-11.4-1.7-17.2-2.2c-0.5,0-0.9-0.1-1.4-0.1c-12.3-1.1-24.9-1.3-37.7-0.7c-0.3,0-0.6,0-0.8,0c-6.4,0.4-12.8,0.9-19.2,1.7
				c-0.2,0-0.4,0.1-0.5,0.1c4.5,5.6,8.6,11.6,12.3,17.9c39.7-8.1,81-8.2,120.7-0.1C753.9,2892.1,753.3,2891.7,752.7,2891.5z"/>
			<path class="st76" d="M623.9,3168.2c-6.6,1.3-13.2,2.5-19.9,3.4c-34,4.8-68.6,3.9-102.4-2.1c0.9,14.8,1.2,29.7,0.8,44.4
				c0.6,0.2,1.1,0.5,1.7,0.8c2,0.8,4.2,1.6,6.2,2.4c2.9,1.1,5.8,2.1,8.7,3.1c2.3,0.8,4.6,1.5,7,2.2c2.9,0.8,5.8,1.6,8.7,2.4
				c2.4,0.6,4.8,1.2,7.3,1.8c3.1,0.7,6.2,1.2,9.4,1.8c2.4,0.4,4.7,0.9,7.1,1.3c5.2,0.8,10.4,1.4,15.7,1.8c2.8,0.2,5.6,0.3,8.4,0.5
				c2.9,0.1,5.8,0.3,8.8,0.4c3,0.1,6,0,9.1,0c2.8,0,5.6-0.1,8.5-0.2c3.1-0.1,6.2-0.3,9.4-0.6c1-0.1,1.9-0.2,2.9-0.3
				C623.3,3210.1,624.2,3189.2,623.9,3168.2z"/>
			<path class="st76" d="M709.3,3209c1-0.4,2.1-0.8,3.2-1.2c37.1-16.2,68.4-39.3,91.8-66.2c1.3-16.9,1.7-33.9,1.5-50.8
				c-6.4,6.1-13.2,11.7-20.4,16.7c-30.5,21.5-66.2,34.3-101.9,45.2c-1.6,23.5-5.1,46.7-11.2,69.2c0.4-0.1,0.8-0.2,1.3-0.3
				c6.8-1.9,13.4-4,19.9-6.3C698.9,3213.4,704.1,3211.2,709.3,3209z"/>
			<path class="st75" d="M500.9,3161.8c77.6,5.7,122.9-4.8,122.9-4.8l0.1,11.1c0,0-75.2,14.5-122.2,1.3L500.9,3161.8z"/>
			<path class="st75" d="M684,3144.4c1.8-0.5,107.7-43.4,121.8-53.6c0,0-26.1,34.7-122.3,61.9L684,3144.4z"/>
		</g>
		<g>
			
				<ellipse transform="matrix(0.2666 -0.9638 0.9638 0.2666 -2463.0862 3184.3621)" class="st12" cx="860.8" cy="3210.6" rx="188.9" ry="227.4"/>
			
				<ellipse transform="matrix(0.2666 -0.9638 0.9638 0.2666 -2463.0889 3184.363)" class="st11" cx="860.8" cy="3210.6" rx="175.8" ry="227.4"/>
			<path class="st14" d="M811,3301.7c-56.1-22.4-107.9-54.6-154.8-92.7c6.1,16.4,11.8,32.9,19.5,48.8c8.4,17.5,20.7,32,25.8,50.2
				c14,10,29.1,18.6,44.7,25.7c86.8,39.5,190.6,39.5,277.3-0.2C951.5,3341.1,878.1,3328.5,811,3301.7z"/>
			<g>
				<path class="st11" d="M654.7,3119.4c0,0-105.7-145.5-122.5-134.2c-16.8,11.3-39.7,52.9-26.7,88.4s-26.9,72.4-33.7,88.7
					c-6.8,16.4-5,51.1,13.2,67.5l187.9-52.9L654.7,3119.4z"/>
				<path class="st12" d="M626.2,3122.8c0,0-68.2-111.9-80.2-68.6C534.1,3097.5,626.2,3122.8,626.2,3122.8z"/>
				<path class="st13" d="M626.2,3122.8c0,0-64.4-104.3-75.5-64.1S626.2,3122.8,626.2,3122.8z"/>
				<path class="st12" d="M623.6,3159.9c0,0-112.4-21.6-99.5,14.1C541,3220.4,623.6,3159.9,623.6,3159.9z"/>
				<path class="st13" d="M623.6,3159.9c0,0-105.7-20.1-93.7,13.8C545.6,3218,623.6,3159.9,623.6,3159.9z"/>
				<path class="st12" d="M490.9,3221.6c-10-18.2-11.2-41-3.2-60.1c3.5-8.3,8.6-15.9,13-23.8c9.5-16.9,16.1-35.6,17.3-55
					c0.9-14.6-1.4-29.2-0.3-43.8s6.2-29.9,18.2-38.2c12.8,15.4,32.4,23.1,49.3,33.9c2.6,1.7,5.2,3.4,7.7,5.3
					c-26.4-31.8-53-59.8-60.7-54.6c-16.8,11.3-39.7,52.9-26.7,88.4s-26.9,72.4-33.7,88.7c-6.8,16.4-5,51.1,13.2,67.5l151.8-42.7
					l0.3-0.5C588.8,3199.8,540,3211.5,490.9,3221.6z"/>
			</g>
			<g>
				<path class="st11" d="M1085.2,3238.5c0,0,165.4-70.5,174-52.2c8.6,18.3,6.9,65.7-22.5,89.5s-14.2,75.9-16.7,93.4
					c-2.6,17.5-21.9,46.4-46.1,51.1l-134-141.9L1085.2,3238.5z"/>
				<path class="st12" d="M1108,3256.1c0,0,116-60.9,104-17.7C1200,3281.7,1108,3256.1,1108,3256.1z"/>
				<path class="st13" d="M1108,3256.1c0,0,108.8-56.4,97.7-16.2C1194.6,3280.1,1108,3256.1,1108,3256.1z"/>
				<path class="st12" d="M1091.1,3289.2c0,0,107.5,39.3,78.1,63.2C1130.9,3383.6,1091.1,3289.2,1091.1,3289.2z"/>
				<path class="st13" d="M1091.1,3289.2c0,0,101,37.1,73.3,60C1128.2,3379.1,1091.1,3289.2,1091.1,3289.2z"/>
				<path class="st12" d="M1173.3,3410.4c17.9-10.5,30.7-29.4,33.6-50c1.3-8.9,0.8-18,1-27.1c0.5-19.4,4.5-38.9,13.4-56.1
					c6.8-12.9,16.2-24.4,22.8-37.4s10-28.9,4-42.2c-18.9,6.6-39.7,3.1-59.8,3.7c-3.1,0.1-6.2,0.3-9.3,0.6
					c39-13.7,76.2-24.1,80.2-15.6c8.6,18.3,6.9,65.7-22.5,89.5c-29.4,23.8-14.2,75.9-16.7,93.4c-2.6,17.5-21.9,46.4-46.1,51.1
					l-108.2-114.6l0-0.6C1100.5,3341.3,1136.4,3376.4,1173.3,3410.4z"/>
			</g>
			<path class="st15" d="M636.8,3183.3c-2.1,83.5,70.4,167.2,177.2,196.7c108.9,30.1,216.2-6.3,255.5-82.1c-0.3-0.8-0.5-1.6-0.8-2.4
				c-25,27.8-62.8,41.6-100,44.3s-74.5-4.8-110.8-13.8c-26.4-6.6-52.7-14.1-77.8-24.7C722.4,3276.8,672,3235.3,636.8,3183.3z"/>
			<path class="st14" d="M1053.4,3139.9c-30.8-44.4-82.2-81.1-145.7-98.7c-116.5-32.2-231.1,11.7-262.7,98.4l-0.5,4.6
				c13.3-28.6,39.6-49.6,68.5-62c29-12.4,60.6-17,92-19.7c22.2-1.9,44.6-2.9,66.9-1.4C939.1,3065.8,1004,3094.4,1053.4,3139.9z"/>
			<path class="st74" d="M739.8,3130.5c-16.3,53.8-38.2,107.7-68.6,154.9c22.2,30.4,54.2,57,93,75.9
				c56.6-75.8,93.5-166.3,104.4-260.2c2.6-22.4,3.7-45.3,0.8-67.6c-41-5.7-80.6-2.1-115.2,9.1
				C755.3,3071.6,748.3,3102.3,739.8,3130.5z"/>
			<path class="st74" d="M935.1,3158.7c-24.7,81.3-61.9,162.8-122.3,221c0.4,0.1,0.8,0.3,1.2,0.4c54.2,15,108,13.5,153.3-1.2
				c47.9-67.4,80.4-145.8,93.5-227.4c-23.5-39.4-62.8-73.7-112.6-95.7C953,3089.1,945.1,3125.7,935.1,3158.7z"/>
			<path class="st75" d="M869.5,3033.4c-25.6-3.5-50.6-3.5-74.2-0.2c-0.1,0-0.2,0-0.2,0c-9.3,1.3-18.3,3.1-27.1,5.3
				c-0.3,0.1-0.6,0.1-0.9,0.2c-4.3,1.1-8.6,2.4-12.8,3.7c0.3,9-0.2,18.2-1.2,27.4c17.1-3.7,34.7-5.8,52.2-7.3
				c21.9-1.9,43.9-2.8,65.9-1.4C871,3051.9,870.7,3042.6,869.5,3033.4z"/>
			<path class="st75" d="M1051.9,3137.9c-0.5-0.8-1.1-1.5-1.6-2.2c-3.1-4.2-6.3-8.4-9.8-12.5c-0.2-0.3-0.5-0.5-0.7-0.8
				c-3.5-4.1-7.2-8-11-11.9c-0.4-0.4-0.8-0.8-1.2-1.2c-3.9-3.9-8-7.7-12.3-11.4c-0.6-0.5-1.2-1-1.8-1.6c-4.4-3.7-8.9-7.3-13.6-10.8
				c-0.4-0.3-0.7-0.5-1.1-0.8c-10-7.3-20.6-14-32-20c-0.2-0.1-0.5-0.3-0.7-0.4c-5.6-3-11.4-5.8-17.4-8.4c-0.2-0.1-0.3-0.1-0.5-0.2
				c1,7.1,1.3,14.4,1.3,21.7c38.2,13.5,73.7,34.7,103.5,62.1C1052.6,3139,1052.3,3138.4,1051.9,3137.9z"/>
			<path class="st76" d="M798.9,3308.7c-6.3-2.3-12.6-4.7-18.8-7.3c-31.6-13.4-60.8-32-86.7-54.5c-6.8,13.2-14.2,26.1-22.2,38.5
				c0.4,0.5,0.7,1,1.1,1.5c1.3,1.8,2.7,3.5,4.1,5.3c1.9,2.4,3.8,4.8,5.9,7.1c1.6,1.8,3.2,3.6,4.9,5.4c2,2.2,4.1,4.4,6.3,6.5
				c1.8,1.8,3.5,3.6,5.4,5.3c2.3,2.2,4.7,4.3,7.1,6.4c1.8,1.6,3.5,3.2,5.4,4.7c4,3.3,8.2,6.5,12.5,9.6c2.2,1.6,4.6,3.1,6.9,4.7
				c2.4,1.6,4.8,3.3,7.4,4.9c2.5,1.6,5.2,3.1,7.8,4.7c2.4,1.4,4.9,2.8,7.4,4.1c2.7,1.5,5.5,2.9,8.3,4.4c0.9,0.4,1.8,0.8,2.6,1.2
				C776.9,3344.4,788.4,3326.8,798.9,3308.7z"/>
			<path class="st76" d="M851.1,3387.7c1.1,0.2,2.2,0.4,3.4,0.6c40.1,5.2,78.9,1.6,112.8-9.4c9.8-13.8,19-28.1,27.4-42.8
				c-8.6,1.9-17.3,3.2-26.1,3.8c-37.2,2.7-74.4-4.8-110.6-13.8c-13.5,19.3-28.4,37.4-45.3,53.6c0.4,0.1,0.8,0.3,1.2,0.4
				c6.8,1.9,13.6,3.5,20.3,4.9C840,3386,845.5,3386.9,851.1,3387.7z"/>
			<path class="st75" d="M696.8,3239.9c63.5,44.9,107.8,59.2,107.8,59.2l-5.6,9.6c0,0-71.9-26.3-105.5-61.9L696.8,3239.9z"/>
			<path class="st75" d="M862.7,3319.2c1.8,0.5,114.7,18.2,132,16.8c0,0-40.2,16.3-136.7-10L862.7,3319.2z"/>
		</g>
		<ellipse class="st77" cx="793.1" cy="3071.6" rx="22.2" ry="24.2"/>
		<ellipse class="st77" cx="952.6" cy="3080.7" rx="16.2" ry="17.2"/>
		<ellipse class="st77" cx="540.7" cy="2933.3" rx="14.1" ry="15.1"/>
	</g>
</g>
<g id="icon_x5F_8">
	<g>
		<g>
			<g>
				<polygon class="st1" points="2014.9,3023.9 2417.1,2842.3 2030.1,2695.8 1659.3,2842.5 				"/>
				<polygon class="st78" points="2029.5,3006.1 2382.2,2848.2 2037.4,2705.4 1701.3,2838.7 				"/>
				<polygon class="st4" points="2417.1,2842.3 2417.2,2982.7 2016.8,3158 2014.9,3023.9 				"/>
				<polygon class="st5" points="1659.3,2842.5 1661.3,2976.5 2016.8,3158 2014.9,3023.9 				"/>
				<polygon class="st43" points="2417.1,2975.8 2417.6,3116.1 2016.8,3291.4 2014.9,3157.4 				"/>
				<polygon class="st30" points="1661,2977.1 1661.3,3110 2016.8,3291.4 2014.9,3157.4 				"/>
				<polygon class="st4" points="2417.1,3087.3 2417.6,3228.4 2016.8,3403 2014.9,3268.9 				"/>
				<polygon class="st5" points="1661,3087.5 1661.3,3221.6 2016.8,3403 2014.9,3268.9 				"/>
				<polygon class="st79" points="2417.1,3210.5 2419.1,3350.4 2016.8,3526.2 2014.9,3392.1 				"/>
				<polygon class="st25" points="1661,3212.4 1661.3,3344.8 2016.8,3526.2 2014.9,3392.1 				"/>
				<polygon class="st1" points="1997.2,3008.2 2018.1,3136.4 2051.1,3002.5 				"/>
				<path class="st8" d="M1807.7,2917.3c0,0-88.2-62.6-61.1-86c33.1-28.6,185-93.6,177.7-93.5c-7.4,0.1-265,104.6-265,104.6
					L1807.7,2917.3z"/>
			</g>
			<g>
				<path class="st9" d="M2230.3,2768.6c0,85.5-82.9,128.1-189.2,128.1c-106.4,0-195.9-42.6-195.9-128.1s86.2-154.8,192.6-154.8
					C2144.1,2613.8,2230.3,2683.1,2230.3,2768.6z"/>
				<path class="st43" d="M2007,2837.2c-54.7-1-108.2-16.8-158.1-39.7c18,66.2,98.5,99.2,192.2,99.2c106.4,0,189.2-42.6,189.2-128.1
					c0-17.9-3.8-35.1-10.8-51.1c-9.9,22.3-24.3,42.7-42,59.3C2132.4,2819.1,2068.8,2838.3,2007,2837.2z"/>
				<path class="st30" d="M1938.5,2655c30.6-21.6,66.3-35.4,103.3-41.1c-1.4,0-2.7-0.1-4.1-0.1c-106.4,0-192.6,69.3-192.6,154.8
					c0,49.8,30.4,85,76.8,105.8c-26.3-19.7-41.5-53.4-44.8-86.7c-3.6-35.9,5.1-73.6,27.5-101.9
					C1914.2,2673.9,1926,2663.9,1938.5,2655z"/>
				<path class="st80" d="M1909.2,2773.8c-0.9-60.2,42.2-104.8,88.5-135.6c2.2-1.5,0.5-5.4-2-4.3c-49.9,21.5-93.4,71-97.6,127
					c-2.4,31.9,2.7,83.2,25.3,114.1c8.2,3.6,16.9,6.7,25.9,9.4C1923.5,2850.5,1909.9,2820.6,1909.2,2773.8z"/>
				<path class="st80" d="M2055.9,2896.4c-39.2-82.3-46.7-166.1-23.8-255.9c0.1-0.5-0.5-0.6-0.7-0.3c-45.9,67.7-28.3,183.9,12,256.5
					C2047.6,2896.7,2051.8,2896.6,2055.9,2896.4z"/>
				<path class="st80" d="M2109.3,2890.1c14.4-36.8,9.7-90.9,7-122.7c-4-47-17.7-108.6-60-135.8c-1.4-0.9-3,1-2.1,2.3
					c29.6,42,44.4,82.7,50.9,134c5.6,43.9-3.2,83.7-11.8,125.1C2098.8,2892.1,2104.1,2891.2,2109.3,2890.1z"/>
				<path class="st80" d="M2199.1,2756.5c-5.9-62.5-55.7-112.6-114.1-130.2c-0.4-0.1-0.7,0.4-0.4,0.7c47,38.7,94.3,62.7,102.7,130
					c4.4,35.7,4,73.2-10.2,106.7c6-3.9,11.6-8.1,16.7-12.6C2202.1,2821.1,2202,2787.3,2199.1,2756.5z"/>
				<g>
					<ellipse class="st81" cx="1979.5" cy="2723.9" rx="46.5" ry="41.9"/>
					<path class="st18" d="M1948.6,2746.1c0,3.5,0.5,6.9,1.4,10.1c8,6,18.3,9.6,29.5,9.6c25.7,0,46.5-18.8,46.5-41.9
						c0-3.5-0.5-6.9-1.4-10.1c-8-6-18.3-9.6-29.5-9.6C1969.4,2704.2,1948.6,2722.9,1948.6,2746.1z"/>
				</g>
				<g>
					<ellipse class="st81" cx="2092.2" cy="2723.9" rx="46.5" ry="41.9"/>
					<path class="st18" d="M2061.2,2746.1c0,3.5,0.5,6.9,1.4,10.1c8,6,18.3,9.6,29.5,9.6c25.7,0,46.5-18.8,46.5-41.9
						c0-3.5-0.5-6.9-1.4-10.1c-8-6-18.3-9.6-29.5-9.6C2082.1,2704.2,2061.2,2722.9,2061.2,2746.1z"/>
				</g>
				<path class="st81" d="M2081.3,2824.7c0.3,1.4,0.6,2.8,0.6,4.3c0,9.1-6.5,16.4-14.5,16.4c-7.9,0-14.4-7.3-14.4-16.2
					c-4.8,0.4-9.7,0.7-14.8,0.7c-7.9,0-15.4-0.6-22.5-1.5c-0.8,8.2-6.8,14.6-14.3,14.6c-8,0-14.5-7.3-14.5-16.4
					c0-1.3,0.2-2.5,0.4-3.7c-21.9-5.6-35.2-11.4-35.3-4.6c-0.1,8.6,21.3,35.2,54.8,46.6c0.6-8.5,6.7-15.2,14.4-15.2
					c8,0,14.5,7.3,14.5,16.4c0,1.4-0.2,2.7-0.5,4c1,0,2,0.1,3.1,0.1c51,0,86.3-40.9,86.2-52
					C2124.3,2810.6,2107.8,2818.7,2081.3,2824.7z"/>
				<g>
					<path class="st18" d="M2010,2852.6c-6.2,0-11.4-4.4-13.5-10.6c-4.6-1.9-8.2-6.3-9.3-11.8c-16.7-4.6-26.5-8.1-26.6-2.3
						c0,2.8,2.2,7.4,6.2,12.7c9.5,9.1,23.2,18.6,39.9,24.3c0.4-5.6,3.2-10.4,7.3-13C2012.8,2852.3,2011.4,2852.6,2010,2852.6z"/>
					<path class="st18" d="M2121.4,2826c-7.4,1.8-18.2,5.3-31.4,8.3c0.3,1.4,0.6,2.8,0.6,4.3c0,9.1-6.5,16.4-14.5,16.4
						c-6.2,0-11.4-4.4-13.5-10.6c-2.6-1.1-4.9-2.9-6.5-5.3c-3,0.2-6,0.4-9.2,0.4c-7.9,0-15.4-0.6-22.5-1.5
						c-0.5,5.4-3.3,9.9-7.2,12.4c1.3-0.4,2.6-0.7,4-0.7c6.2,0,11.4,4.4,13.5,10.6c4,1.6,7.2,5.1,8.7,9.6
						C2083.1,2867.8,2112.5,2841.2,2121.4,2826z"/>
				</g>
			</g>
			<path class="st18" d="M1984.8,2640.8c26.9-24.9,37.4-66.1,25.6-100.9c17.3-5.4,34.7-10.7,52-16c-2.5,37,16.6,71.6,35,103.8
				c-10.3,5.5-19,13.9-24.9,23.9c-0.9,1.5-1.8,3.1-3.3,3.9c-1.4,0.8-3,0.8-4.6,0.7c-17-0.3-33.9-0.5-50.9-0.8
				c-3.6-8.1-10.3-14.8-18.4-18.4L1984.8,2640.8z"/>
			<path class="st82" d="M2039.3,2531c-9.6,3-19.3,5.9-28.9,8.9c11.8,34.7,1.3,75.9-25.6,100.9l10.5-3.7
				c8.1,3.6,14.8,10.3,18.4,18.4c5,0.1,10,0.1,15.1,0.2C2042.3,2616.4,2041.7,2573.2,2039.3,2531z"/>
			<g>
				<path class="st83" d="M2059.6,2615.4c4.1-21,25-34.5,45.4-40.9c43.9-13.8,91.9-6.3,135.3,8.9c-4.9,0.5-8.3,4.8-11.3,8.7
					c-20,25.4-48.2,45.1-79.9,51.5s-66.8-1.5-90.4-23.6L2059.6,2615.4z"/>
				<path class="st84" d="M2240.4,2583.4c-43.4-15.2-91.4-22.7-135.3-8.9c-20.4,6.4-41.3,19.9-45.4,40.9l-0.9,4.5
					c0.3,0.3,0.7,0.5,1,0.8c25.6-20.9,58-32.6,90.9-36.7c28.1-3.6,56.6-2,84.7,1.5C2236.9,2584.4,2238.5,2583.5,2240.4,2583.4z"/>
				<path class="st85" d="M2125.9,2631.2c-23,1.4-46.7-4.1-66-16.6c-0.1,0.3-0.2,0.5-0.2,0.8l-0.9,4.5
					c23.6,22.1,58.7,30.1,90.4,23.6c31.7-6.4,59.9-26.1,79.9-51.5c3-3.8,6.4-8.2,11.3-8.7c-0.3-0.1-0.7-0.2-1-0.3
					c-15.2,2.4-28,13.2-40.9,22.1C2177,2619.8,2151.9,2629.6,2125.9,2631.2z"/>
			</g>
		</g>
		<ellipse class="st10" cx="1927.1" cy="2676.6" rx="19.2" ry="18"/>
		<ellipse class="st10" cx="2029.6" cy="3018.1" rx="20.3" ry="19.2"/>
	</g>
	<g>
		<g>
			<path class="st25" d="M3245.4,3055.3c0,0-97.9,502.2-95.1,523.5c2.8,21.3,24.1,28.4,35.5,14.2s80.9-527.7,80.9-527.7
				L3245.4,3055.3z"/>
			<path class="st86" d="M3245.4,3055.3c0,0-6.5,33.2-16,82.8c5.8,11,12.4,26.6,12.4,40.2c0,24-54.5,387.9-67.3,400.7
				c-4.8,4.8-13.3,6.7-22.2,7.2c6.2,15.3,23.6,19.2,33.5,6.8c11.4-14.2,80.9-527.7,80.9-527.7L3245.4,3055.3z"/>
			<g>
				<path class="st87" d="M3303.8,2534.1c-164.2,0-297.4,133.1-297.4,297.4c0,98.4,47.8,185.5,121.4,239.7
					c34.7,20.3,73.8,30.2,113.4,18.2c2.9-2.8,8.9-5.4,10.7-1.9c0.9,1.6,0.8,2.9,0.1,4.1l0.2,0c-0.1,0.3-0.2,0.6-0.4,0.9
					c-5.7,9.5-7.8,20.1-7.2,30.5c19.1,3.9,38.9,5.9,59.1,5.9c164.2,0,297.4-133.1,297.4-297.4
					C3601.2,2667.2,3468,2534.1,3303.8,2534.1z"/>
				<path class="st88" d="M3088.6,2829.5c-0.4-47,24.1-92.4,60.2-122.5s82.5-46.2,129.3-51.2c20.5-2.2,41.3-2.3,61.7,0.9
					c53.1,8.4,101.2,40.3,133.3,83.4c32.1,43.1,48.6,96.8,50.8,150.5c14.1-43.6,10.4-91.9-6.2-134.6s-45.6-79.9-80.1-110.1
					c-17.7-15.4-37.5-29.4-60.1-35.5c-16.6-4.4-33.9-4.5-51.1-4.5c-23.7,0-47.4,0-71.1,0c-7,0-14.1,0-21,1.2
					c-12.3,2.1-23.6,7.8-34.7,13.4c-28.2,14.4-57.4,29.4-77.4,53.9c-29.5,36.1-34.2,85.8-37.7,132.3L3088.6,2829.5z"/>
				<path class="st88" d="M3298.9,2831.4c0.6-2,2.4,1.7,1,3.2c-9,9-25.2,7.1-34.5-1.6s-12.6-22.2-12.4-35c0.1-13,3.7-26.6,13.2-35.5
					c13-12.2,33.2-12.4,50.8-9.4c11.9,2,23.9,5.2,34.1,11.6c14.5,8.9,24.7,23.6,31.7,39.1c22.7,50.5,12,114.1-25.9,154.4
					c5.2,2.2,10.9-1.6,15.1-5.5c25.9-24.1,41.8-58.8,42.9-94.2c1.2-35.4-12.3-71.1-36.6-96.9c-5.9-6.3-12.5-12-19.8-16.6
					c-6.6-4.1-13.8-7.2-21-9.9c-23.4-8.8-49.6-13.9-73.5-6.3c-23.9,7.6-43.9,31-41,55.9c0.8,6.8,3.2,13.3,5.8,19.6
					c9.1,22.2,22.9,45.2,45.7,52.8c14.9,5,36.1-2.3,35.8-18L3298.9,2831.4z"/>
				<path class="st88" d="M3200.7,2673.8c-62.1,28.1-99.1,89-84.9,151.1c14.1,62.1,64.2,115.4,126,130.8
					c61.8,15.4,132.4-9.3,168.9-61.5c-30.7,64.1-97,111.4-168,113s-142.1-46.5-161.1-115c-15.8-56.8,3.3-117,24.4-172.1
					c10.2-26.6,21.6-54,42.9-72.8L3200.7,2673.8z"/>
				<path class="st89" d="M3512.7,2717.5c-39.7-82.3-124.4-132.4-214.3-134.6c-89.4-2.2-183.3,56.6-217.2,139.5
					c-32.1,78.5-33.6,195.5,50,257.4c70.9,52.5,176.1,44.8,245.8-4.6c74.6-52.8,75.5-149.5,24.4-217.9
					c-46.4-62.1-150.4-72.2-183.7,7.1c-26.1,62.1,63,146.1,112.2,86.7c13.6-16.4,5.8-47-16.1-51.8c-12.2-2.7-25.5,0.8-31.1,8.6
					c-1.8,3.8-2.5,8.1-1.4,13.3c1.4,6.7,5.5,10.2,9.7,15.1c1.5,1.7,4.4,4.2,3.9,7c-0.8,5-10.8,4.6-14,3.6
					c-6.3-1.9-12.5-4.6-16.9-9.3c-10.1-7.7-17.6-17.6-22.3-30.1c-11.6-28.3,12.8-57,36.2-67.6c45.1-20.5,89.8,18,111.8,53.1
					c48.5,77.6-0.6,165.8-77.8,190.8c-65.1,21-159.7,3.5-200.4-52.9c-44.6-62-16.1-196.2,28.9-250.1c99.5-119,293.3-76.9,357.6,71.2
					c32.2,74.3,26.5,164-21.9,229c-40.6,54.7-147.1,107.7-219.3,102.6c-0.6,0.1-1.2,0.1-1.8,0.2c-3.4-0.2-8.9,0.1-10.5,2.9
					c2.5-0.1,6.9,2.1,6.9,3.4c0,0.8,0,2.1,0,2.9c84.3,15.8,196-47.4,244.6-112C3551.2,2907.7,3551,2797,3512.7,2717.5z"/>
				<path class="st88" d="M3601.2,2831.5c0-99.1-48.5-186.8-123-240.9c12.5,11.4,24.2,23.8,34.8,37.1
					c49.7,62.6,74.6,145.6,62.5,224.6c-10.1,65.6-45.1,126.5-94.3,171.1c-49.2,44.6-112.1,73.1-177.5,84.5
					c-19.4,3.4-39,5.3-58.7,5.7c-0.3,3.1-0.5,6.2-0.3,9.3c19.1,3.9,38.9,5.9,59.1,5.9C3468,3128.9,3601.2,2995.7,3601.2,2831.5z"/>
				<path class="st88" d="M3240.6,2540.9c-133.9,29-234.3,148-234.3,290.6c0,98.4,47.8,185.5,121.4,239.7
					c34,19.9,72.2,29.7,111.1,18.8c-82.6-7.1-153.5-72.9-184.4-150.6c-36.4-91.5-24.4-200.8,31-282.2
					C3122.6,2602.8,3178.3,2561.9,3240.6,2540.9z"/>
			</g>
			<path class="st90" d="M3257.1,2537.8c-39.9,54.8,48.1,287.7,48.1,287.7s15.4-245.2-19-290.8
				C3276.4,2535.2,3266.7,2536.2,3257.1,2537.8z"/>
			<path class="st90" d="M3422.8,2558.9c-44.4,63.3-105.2,262.4-105.2,262.4s110.3-174.2,132.7-248.5
				C3441.5,2567.7,3432.3,2563.1,3422.8,2558.9z"/>
			<path class="st90" d="M3586.5,2739.1c-6.4-19.7-14.9-38.5-25.1-56.1c-90.5,33-237.5,154.9-237.5,154.9
				S3503.3,2788.4,3586.5,2739.1z"/>
			<path class="st90" d="M3583.6,2932.4c-73-39.9-253.7-81.4-253.7-81.4c27.2,47.5,161.3,110.6,235,122.9
				C3572.2,2960.6,3578.4,2946.7,3583.6,2932.4z"/>
			<path class="st90" d="M3313.5,2852.3c2.9,33.9,67.9,185.4,119.1,247.2c17.5-8.4,34-18.5,49.4-30
				C3451.4,2986.1,3313.5,2852.3,3313.5,2852.3z"/>
			<path class="st90" d="M3228.4,3092.4c4.2-0.8,8.5-1.8,12.7-3.1c2.9-2.8,8.9-5.4,10.7-1.9c0.9,1.6,0.8,2.9,0.1,4.1l0.2,0
				c-0.1,0.3-0.2,0.6-0.4,0.9c-5.7,9.5-7.8,20.1-7.2,30.5c15,3,30.4,4.9,46.1,5.6c24.4-98.1,4.1-276.2,4.1-276.2
				S3246.4,2992.3,3228.4,3092.4z"/>
			<path class="st90" d="M3127.7,3071.1c8.8,5.1,17.8,9.6,27.1,13.2c58.6-73.2,119.7-227.4,119.7-227.4s-117.9,118.5-167.7,197.1
				C3113.6,3060.1,3120.5,3065.8,3127.7,3071.1z"/>
			<path class="st90" d="M3041.9,2972.3c79.5-24.6,205.4-126.2,205.4-126.2c-13-2.9-158,32.8-228.1,72.2
				C3025.1,2937.2,3032.7,2955.2,3041.9,2972.3z"/>
			<path class="st90" d="M3018.6,2747.1c-5.9,20-9.8,40.9-11.3,62.4c69.8,50,292.6,25,292.6,25S3098.3,2741.6,3018.6,2747.1z"/>
			<path class="st90" d="M3138.6,2584.1c-17,11.4-32.8,24.5-47.1,39.1c25.6,67.6,155.2,162.6,213.7,202.2
				C3305.2,2825.4,3201.1,2639.8,3138.6,2584.1z"/>
			<g>
				<path class="st91" d="M3296,2799.4c5.6,16.1,9.3,26,9.3,26s0.6-10.4,1.4-27.1C3302.9,2798.2,3299.3,2798.5,3296,2799.4z"/>
				<path class="st91" d="M3248.9,2615.8c18.4-3.8,37.3-4.9,56.2-3.5c-0.9-10.4-2.1-20.1-3.6-29.2c-1,0-2.1-0.2-3.1-0.2
					c-17.2-0.4-34.5,1.4-51.6,5.2C3247,2596.8,3247.7,2606.1,3248.9,2615.8z"/>
				<path class="st91" d="M3269.3,2713.6c2.5,9.1,5.1,18.1,7.6,26.6c0.4-0.2,0.8-0.4,1.1-0.6c10.3-4.7,20.5-6.1,30.4-5.4
					c0.1-8.6,0.2-17.4,0.2-26.4C3295.1,2707.2,3281.7,2709.1,3269.3,2713.6z"/>
			</g>
			<g>
				<path class="st91" d="M3241,2779.3c3.5-11,11-20.9,20-28.6c-4.8-7.8-9.8-15.9-15.1-24.1c-11.1,8.6-20.4,20.3-27.2,35.4
					C3226.2,2767.9,3233.7,2773.7,3241,2779.3z"/>
				<path class="st91" d="M3305.2,2825.4c0,0-5.2-9.3-14-24.3c-3.6,1.6-6.6,3.8-8.6,6.6c-0.3,0.5-0.4,1.1-0.6,1.7
					C3290.6,2815.4,3298.4,2820.8,3305.2,2825.4z"/>
				<path class="st91" d="M3117,2665.2c5.7,7.2,12,14.4,18.7,21.7c1.6-2.1,3.2-4.2,4.8-6.2c13.9-16.6,29.7-30,46.7-40.5
					c-5.4-7.2-10.8-14.2-16.1-20.8C3150.9,2632.1,3132.4,2647.5,3117,2665.2z"/>
			</g>
			<g>
				<path class="st91" d="M3299.9,2834.6c0,0-5.9-2.7-15.8-7.1c1.8,2.8,4.1,5.3,6.5,8C3296.5,2835,3299.9,2834.6,3299.9,2834.6z"/>
				<path class="st91" d="M3101.9,2760.1c-10.6-2.9-21-5.4-30.9-7.5c-6.8,24.6-10.5,51.3-10.1,78.1c9.1,2,18.6,3.6,28.5,4.9
					C3090.3,2810.4,3094.8,2784.3,3101.9,2760.1z"/>
				<path class="st91" d="M3264.1,2837.4c-9.3-7.1-16.3-16.2-21.1-27.4c-9.1-3.7-18.9-7.7-29.2-11.7c2.2,14.8,9,29.2,18.6,41.3
					c11.8-0.6,22.6-1.2,31.9-1.9C3264.3,2837.6,3264.2,2837.5,3264.1,2837.4z"/>
			</g>
			<g>
				<path class="st91" d="M3238.6,2846.5c1.2,1.2,2.4,2.5,3.7,3.6c3.2-2.6,5.1-4,5.1-4C3245.9,2845.8,3242.9,2846,3238.6,2846.5z"/>
				<path class="st91" d="M3098.3,2947.4c6.1-3.3,12.3-6.8,18.4-10.4c-1.7-2.1-3.5-4.1-5.1-6.2c-8.9-12.4-14.9-27.7-18.4-44.6
					c-7.5,2.7-14.9,5.5-22.2,8.3C3077.1,2913.3,3086,2931.2,3098.3,2947.4z"/>
			</g>
			<g>
				<path class="st91" d="M3274.5,2856.9c0,0-3.2,3.2-8.8,8.9c1.5,0.6,2.9,1.2,4.4,1.7C3273,2860.8,3274.5,2856.9,3274.5,2856.9z"/>
				<path class="st91" d="M3214.1,2988.6c-16.3-3-32.2-7.8-46.8-14.5c-5.2,6.2-10.3,12.4-15.3,18.6c15.8,8.5,32.6,14.6,50.1,18.4
					C3206.2,3003.6,3210.2,2996.1,3214.1,2988.6z"/>
			</g>
			<g>
				<path class="st91" d="M3302.8,3008.8c0.1-7.6,0.1-15.1,0-22.6c-15.9,4.1-33.2,6.1-50.9,5.9c-2.1,7.8-4.2,15.6-6.2,23.5
					C3264.8,3015.7,3284.1,3013.4,3302.8,3008.8z"/>
				<path class="st91" d="M3251.5,3093c14.5,2.7,29.9,3.1,45.6,1.5c0.6-4.4,1.2-8.9,1.7-13.5c-14.7,2.5-28.9,3.6-41.9,2.6
					c-0.6,0.1-1.2,0.1-1.8,0.2c-3.4-0.2-8.9,0.1-10.5,2.9c0.1,0,0.3,0.1,0.4,0.1c2.7-1.3,5.6-1.6,6.9,0.7c0.9,1.6,0.8,2.9,0.1,4.1
					l0.2,0c-0.1,0.3-0.2,0.6-0.4,0.9C3251.7,3092.6,3251.6,3092.8,3251.5,3093z"/>
				<path class="st91" d="M3294.9,2852.3c0,0-2.4,7-6.4,18.8c2.7,0.1,5.5-0.1,8.2-0.5C3295.7,2859.1,3294.9,2852.3,3294.9,2852.3z"
					/>
			</g>
			<g>
				<path class="st91" d="M3404,2950.4c-6.1-7.3-12.1-14.4-18.1-21.2c-8.8,12.6-19.8,23.8-32.4,33.1c3.3,7.1,6.6,14.3,10.1,21.5
					c4.6-2.8,9.1-5.6,13.4-8.7C3387.5,2967.7,3396.4,2959.4,3404,2950.4z"/>
				<path class="st91" d="M3313.5,2852.3c0.2,2.9,1,6.8,2.1,11.3c1.8-1.1,3.6-2.5,5.4-3.9C3316.3,2855,3313.5,2852.3,3313.5,2852.3z
					"/>
				<path class="st91" d="M3457,3021.6c-2.6-4-5.2-8.1-8-12.1c-15.1,13.1-33.2,25.4-52.8,36.1c2.6,4.4,5.1,8.7,7.7,12.8
					C3423.1,3047.5,3441.1,3035,3457,3021.6z"/>
			</g>
			<g>
				<path class="st91" d="M3408.4,2870.9c-1.5,12.9-5,25.5-10.4,37.3c7.9,4.7,16.2,9.2,24.7,13.7c6.7-13.8,10.9-28.4,12.8-43.4
					C3426.2,2875.8,3417.1,2873.2,3408.4,2870.9z"/>
				<path class="st91" d="M3530.5,2909.1c-6-2.2-12.1-4.4-18.3-6.6c-4.1,17.6-10.3,34.7-18.7,50.9c5.6,2.1,11.2,4.1,16.6,5.9
					C3518.9,2943.6,3525.7,2926.7,3530.5,2909.1z"/>
			</g>
			<g>
				<path class="st91" d="M3336.4,2834.3c0.2-2.2,0.2-4.4,0-6.6c-8,6.4-12.6,10.2-12.6,10.2S3328.4,2836.6,3336.4,2834.3z"/>
				<path class="st91" d="M3512.7,2717.5c-1.5-3.1-3.2-6.1-4.8-9.1c-8.2,4.6-16.5,9.4-24.8,14.6c5.6,9.2,10.6,18.8,15.1,29
					c3.5,8.1,6.4,16.3,9.1,24.7c7.9-3.2,15.8-6.4,23.4-9.7C3526.1,2749.6,3520.1,2732.9,3512.7,2717.5z"/>
				<path class="st91" d="M3387.1,2788.6c0.9,1.4,1.9,2.8,2.8,4.2c4.5,7.2,8.1,14.4,11,21.7c8.4-2.7,17.3-5.6,26.4-8.7
					c-4.2-11.9-9.6-23.6-16.4-34.6C3402.6,2777.2,3394.6,2783,3387.1,2788.6z"/>
			</g>
			<g>
				<path class="st91" d="M3323.3,2803.4c-3.6,11.2-5.6,17.9-5.6,17.9s3.5-5.5,9.3-14.8C3325.8,2805.3,3324.6,2804.3,3323.3,2803.4z
					"/>
				<path class="st91" d="M3384.6,2633.7c10.7,5.1,21.1,11.1,31.1,18c4.9-9.6,9.6-19,13.9-28c-10.4-6.8-21.2-12.9-32.5-18
					C3392.9,2614.6,3388.8,2624,3384.6,2633.7z"/>
				<path class="st91" d="M3342.5,2745.3c5.2,3.1,10.2,6.6,15,10.5c4.9-8.3,10-17,15.2-26.1c-6.6-4.5-13.5-8.4-20.8-11.6
					C3348.7,2727.5,3345.5,2736.7,3342.5,2745.3z"/>
			</g>
		</g>
		<ellipse class="st10" cx="3170.1" cy="2597.8" rx="19.2" ry="15.8"/>
		<ellipse class="st10" cx="3047.3" cy="2788.2" rx="13.5" ry="10.1"/>
	</g>
</g>
</svg>
